<svg width="570" height="687" viewBox="0 0 570 687" fill="none" xmlns="http://www.w3.org/2000/svg">
<path d="M49 157.975C50.2858 149.472 51.351 140.941 52.8863 132.487C58.0585 104.01 68.3453 77.6669 87.0092 55.2145C114.924 21.6175 151.417 8.34013 194.31 10.6555C210.422 11.5298 225.41 16.0164 239.334 24.2115C244.564 27.2859 249.889 30.2545 255.388 32.8197C273.227 41.1781 291.459 42.2542 309.72 34.4626C318.817 30.5812 327.76 26.2483 336.435 21.5118C359.445 8.9454 383.886 1.35557 410.102 1.0001C421.991 0.846382 433.919 2.96961 445.818 4.1321C448.601 4.40111 451.028 5.54439 450.462 8.91657C449.839 12.6634 446.96 12.2311 444.091 12.0005C430.57 10.9053 417.03 8.98383 403.519 9.13754C382.591 9.37773 363.418 16.6025 345.695 27.5261C338.037 32.2433 331.473 38.4304 333.306 48.4029C335.12 58.2696 343.267 61.9589 352.095 63.8899C397.301 73.7567 435.109 95.6711 463.685 132.563C476.525 149.155 486.015 167.582 493.221 187.268C494.747 191.437 496.57 195.636 498.998 199.325C502.309 204.35 507.049 204.869 511.079 200.459C514.591 196.616 518.142 192.292 519.956 187.518C526.202 171.118 531.701 154.439 537.468 137.857C537.785 136.954 537.727 135.83 538.245 135.109C538.994 134.081 540.116 133.332 541.076 132.467C541.844 133.543 543.293 134.639 543.264 135.686C543.101 141.748 542.89 147.83 542.093 153.834C541.46 158.571 540.155 163.24 538.811 167.842C535.443 179.39 535.05 190.986 536.009 202.985C536.835 213.275 535.309 223.737 535.165 234.123C535.031 243.375 534.56 252.742 535.664 261.879C537.612 278.067 546.977 287.338 562.878 290.547C563.818 290.739 564.778 290.826 565.689 291.104C569.595 292.305 570.084 293.967 567.033 296.705C550.451 311.587 532.756 312.269 517.921 295.197C505.581 280.997 499.699 263.762 496.273 245.671C494.642 237.063 494.325 228.205 493.308 219.472C492.905 215.994 492.559 212.439 491.6 209.096C487.224 193.878 480.238 179.88 470.805 167.179C468.742 164.393 466.123 161.914 463.378 159.781C460.576 157.6 457.582 158.647 457.275 162.048C455.356 183.021 445.799 201.948 441.452 222.239C435.195 251.474 444.628 275.108 468.474 292.497C480.181 301.038 492.991 308.119 505.562 315.43C522.22 325.124 538.754 334.904 550.192 351.045C554.337 356.896 558.329 362.948 561.611 369.318C568.808 383.316 569.201 397.881 561.726 411.715C556.046 422.216 549.29 432.227 542.18 441.834C527.191 462.067 512.864 482.608 503.374 506.156C497.588 520.509 494.315 535.141 497.041 550.657C498.518 559.112 502.136 566.375 508.757 572.101C510.014 573.186 510.254 575.463 510.964 577.183C509.131 577.596 507.251 578.499 505.475 578.326C502.654 578.048 499.929 576.828 497.098 576.414C493.672 575.915 492.175 577.731 493.308 580.987C494.143 583.37 495.774 585.465 496.733 587.828C506.281 611.424 503.537 635.346 475.421 647.115C456.584 654.993 436.798 655.349 416.886 653.36C396.831 651.362 377.745 646.049 359.705 636.729C344.61 628.928 328.672 628.429 312.714 634.068C295.844 640.015 279.32 647.077 262.211 652.178C250.859 655.57 238.749 657.914 226.946 658.019C199.578 658.26 177.892 636.278 176.673 608.849C176.471 604.218 176.807 599.53 176.27 594.947C175.416 587.741 172.374 585.772 165.417 587.693C160.955 588.923 156.685 590.835 152.232 592.055C150.639 592.488 148.749 591.796 146.993 591.613C147.559 589.817 147.588 587.405 148.797 586.32C154.871 580.891 161.377 575.934 167.49 570.544C171.069 567.383 174.591 564.021 177.45 560.226C187.161 547.352 183.409 531.951 168.795 525.015C156.099 518.991 143.059 513.688 130.373 507.626C122.025 503.639 113.868 499.181 105.98 494.348C101.403 491.543 97.1521 487.94 93.4097 484.059C84.3032 474.634 82.6623 463.854 89.0244 452.383C92.3253 446.436 96.442 440.653 101.317 435.955C109.464 428.096 118.225 420.785 127.235 413.925C147.55 398.457 161.185 378.531 168.277 354.1C170.839 345.271 168.171 338.555 161.204 334.693C154.104 330.763 146.974 332.301 140.641 339.132C128.415 352.332 113.906 361.401 95.799 363.871C93.4289 364.197 91.0203 364.312 88.6213 364.284C83.9577 364.216 80.6472 362.055 79.3421 357.443C78.0371 352.841 79.7835 349.306 83.5931 346.673C86.6158 344.589 89.8976 342.802 92.642 340.409C114.002 321.829 117.63 290.47 100.885 267.028C94.3884 257.92 86.9996 249.456 80.1674 240.589C67.9135 224.679 56.6863 208.183 51.6005 188.334C50.6601 184.645 49.8828 180.908 49.0288 177.19C49.0288 170.782 49.0288 164.383 49.0288 157.975H49ZM301.947 512.035C302.235 511.507 302.523 510.988 302.811 510.46C304.231 510.844 305.709 511.084 307.052 511.651C321.868 517.896 336.339 517.089 350.454 509.518C352.69 508.317 355.31 506.943 356.615 509.787C357.286 511.238 356.125 514.13 354.935 515.734C350.953 521.105 345.829 525.735 342.48 531.442C325.706 560.024 335.13 594.563 363.504 607.581C378.455 614.44 394.576 617.457 411.081 616.871C416.56 616.679 422.231 615.391 427.375 613.451C439.408 608.926 445.137 599.357 446.278 586.896C447.699 571.438 443.38 557.036 437.182 543.221C432.94 533.758 428.507 524.179 422.701 515.638C402.732 486.23 397.541 453.517 399.7 418.998C401.015 397.919 403.145 376.879 404.124 355.791C405.007 336.768 402.089 318.082 395.286 300.231C393.588 295.783 390.718 291.143 387.091 288.193C374.281 277.788 355.626 285.234 350.646 302.46C344.447 323.894 340.781 345.741 339.438 368.059C338.814 378.358 337.365 388.83 334.563 398.726C330.6 412.695 320.755 416.442 308.261 408.996C300.508 404.375 293.234 398.611 286.709 392.356C259.505 366.272 235.697 337.152 212.168 307.802C202.064 295.187 191.806 282.698 181.567 270.199C178.228 266.116 175.118 265.309 172.259 267.672C168.325 270.929 170.157 274.166 172.518 277.298C174.821 280.363 177.316 283.313 179.446 286.493C180.195 287.617 180.118 289.288 180.415 290.71C179.11 290.787 177.738 291.172 176.5 290.903C171.098 289.75 169.092 291.239 168.987 296.926C168.948 298.829 168.9 300.865 169.476 302.633C173.458 314.921 176.836 327.487 181.864 339.343C194.732 369.721 210.383 398.246 235.841 420.535C258.363 440.249 281.594 458.09 311.946 463.73C313.04 463.931 313.913 465.324 314.892 466.16C312.109 467.111 309.816 467.544 307.762 467.034C299.26 464.911 290.864 462.365 282.362 460.252C274.503 458.292 266.615 455.554 258.641 455.15C244.17 454.42 235.707 464.527 237.645 478.948C240.38 499.219 250.6 515.869 263.612 531C271 539.589 279.79 546.411 290.355 550.849C291.651 551.397 292.322 553.462 293.282 554.817C291.622 555.124 289.693 556.114 288.34 555.605C284.79 554.26 281.287 552.55 278.12 550.446C272.929 546.997 268.102 543.01 262.978 539.455C249.573 530.136 231.83 533.383 222.858 546.891C215.239 558.362 216.88 569.958 224.125 580.642C238.557 601.912 259.044 613.259 284.636 614.123C306.438 614.863 321.945 602.479 325.841 581.026C330.36 556.114 323.643 534.152 305.689 515.936C304.423 514.649 303.175 513.352 301.918 512.055L301.947 512.035ZM191.652 17.3518C157.932 17.3326 135.315 24.2307 119.213 35.7115C108.61 43.2725 110.193 56.1848 121.007 59.8741C122.466 60.3737 123.992 63.2078 123.896 64.8699C123.829 66.042 121.123 67.9635 119.53 68.0307C96.0677 69.0011 80.4361 81.8749 71.1665 102.041C53.3853 140.759 54.7095 179.447 75.5997 216.734C85.5698 234.526 101.048 246.094 121.161 250.84C132.321 253.472 138.673 249.524 139.172 238.158C139.547 229.646 139.057 220.644 136.639 212.564C130.546 192.216 123.186 172.261 116.238 152.172C115.202 149.184 114.002 146.273 116.881 143.814C119.779 141.335 122.476 142.805 125.143 144.611C136.495 152.287 143.395 149.722 146.782 136.541C150.121 123.542 153.192 110.476 156.704 97.5157C158.268 91.7513 162.49 91.0404 166.559 95.527C167.624 96.6991 168.181 98.3516 169.313 99.4276C170.973 100.994 172.94 102.233 174.783 103.607C176.193 101.647 177.671 99.7254 178.995 97.7079C179.408 97.0834 179.475 96.1899 179.561 95.4021C179.945 91.7513 180.128 88.0717 180.694 84.4497C180.934 82.9318 181.941 81.5291 182.603 80.0688C183.793 81.0968 185.386 81.9038 186.096 83.1912C187.488 85.6891 187.948 88.773 189.57 91.0692C192.948 95.8249 196.095 101.205 200.634 104.577C216.995 116.75 246.022 114.454 260.81 100.398C267.469 94.0667 270.626 86.4577 268.908 77.0328C265.809 59.9701 257.201 46.3757 243.431 36.1054C225.142 22.4534 204.127 17.4767 191.643 17.3615L191.652 17.3518ZM398.481 203.312C396.361 200.785 394.825 199.287 393.693 197.528C390.565 192.696 387.533 187.796 384.587 182.848C375.471 167.525 361.182 162.298 344.351 162.5C330.581 162.663 324.881 171.589 331.531 183.646C335.149 190.198 340.522 196.078 346.126 201.131C351.75 206.204 353.793 211.478 352.786 218.886C351.289 229.848 350.646 240.925 354.302 251.676C357.565 261.264 364.771 265.28 374.569 262.887C388.387 259.515 399.758 251.772 409.056 241.367C424.659 223.891 436.759 204.11 443.927 181.715C453.84 150.76 445.492 123.926 419.688 104.097C412.021 98.1979 403.51 93.1444 394.797 88.9075C368.072 75.8799 339.073 70.4134 310.171 64.966C302.436 63.5057 294.251 63.3519 286.392 64.0148C277.823 64.745 273.62 69.9426 274.599 78.4067C275.376 85.1126 278.101 91.5784 279.809 98.1883C280.203 99.7062 280.011 101.378 280.088 102.973C278.667 102.685 277.247 102.204 275.827 102.156C273.812 102.098 271.403 101.714 269.849 102.636C267.584 103.972 265.905 106.326 264.034 108.295C255.532 117.259 245.072 122.082 232.78 121.496C224.374 121.092 216.045 119.19 207.658 118.191C199.598 117.24 191.518 116.202 183.428 115.952C178.707 115.808 175.896 119.507 176.155 123.744C176.423 128.048 179.465 130.719 184.283 130.738C186.202 130.738 188.121 130.604 190.03 130.44C210.191 128.72 229.172 132.218 246.665 142.882C249.592 144.659 253.114 145.697 256.501 146.436C265.531 148.406 273.87 146.11 281.824 141.738C296.736 133.543 313.5 135.523 324.373 146.446C330.437 152.528 338.239 155.17 346.75 156.351C354.638 157.437 362.535 158.897 370.193 161.04C379.99 163.787 389.087 168.159 395.411 176.68C401.216 184.501 401.331 193.051 398.472 203.331L398.481 203.312ZM480.018 331.186C480.018 332.464 480.267 333.819 479.95 335.01C479.614 336.24 478.722 337.306 478.079 338.449C477.168 337.517 475.757 336.749 475.411 335.644C471.516 323.01 464.472 312.135 456.191 302.134C450.625 295.408 447.046 288.088 445.021 279.662C443.803 274.599 442.056 269.43 439.408 265.001C433.737 255.547 421.703 251.801 410.726 255.269C400.372 258.545 393.415 267.288 394.509 277.971C395.104 283.735 397.791 289.606 400.727 294.745C405.151 302.489 408.989 310.338 410.092 319.196C411.541 330.773 412.395 342.417 413.729 354.013C415.025 365.292 417.875 376.081 425.609 384.863C432.988 393.24 441.74 399.908 451.806 404.75C465.259 411.225 479.528 414.405 494.421 414.617C497.674 414.665 499.18 415.923 499.18 419.122C499.18 422.379 497.098 422.725 494.613 422.303C485.506 420.756 476.304 419.612 467.351 417.451C458.283 415.26 450.952 417.777 447.171 425.617C443.534 433.149 445.779 440.778 453.821 445.773C460.317 449.808 467.351 452.979 473.953 456.851C475.546 457.783 476.409 459.963 477.609 461.577C475.565 462.164 473.166 463.739 471.525 463.163C465.23 460.934 459.031 458.311 453.082 455.265C444.33 450.788 439.955 452.614 438.074 462.231C437.681 464.258 437.345 466.391 437.546 468.428C438.391 476.844 438.928 485.336 440.559 493.608C443.38 507.933 448.082 521.71 455.097 534.584C458.542 540.906 464.156 541.386 468.282 535.477C470.422 532.413 472.302 528.695 472.83 525.063C475.421 507.068 483.904 492.052 495.86 478.957C506.857 466.91 518.641 455.602 529.849 443.746C541.805 431.093 552.15 417.403 556.804 400.129C558.675 393.173 558.675 386.457 555.748 379.982C543.916 353.85 524.936 334.376 499.891 320.685C498.777 320.08 497.53 319.725 496.321 319.302C485.257 315.421 479.672 319.475 480.027 331.225L480.018 331.186ZM111.45 450.01C111.507 450.001 111.575 449.991 111.632 449.981C111.325 447.455 111.316 444.861 110.653 442.43C109.156 436.896 106.172 436.003 102.113 439.913C89.0627 452.46 85.2436 478.65 108.034 488.747C118.196 493.253 129.001 496.308 139.518 499.997C150.188 503.735 161.156 506.78 171.453 511.353C182.258 516.157 187.795 525.303 187.814 537.399C187.814 539.157 187.583 540.906 187.468 542.664C187.123 548.005 189.215 551.233 193.533 552.05C197.976 552.896 200.979 550.974 202.457 545.527C203.753 540.771 204.894 535.881 205.24 530.981C206.497 513.063 203.119 495.578 198.926 478.333C197.909 474.144 194.291 469.83 190.683 467.198C182.882 461.501 181.73 457.466 187.555 449.463C193.264 441.613 197.717 433.207 199.089 423.417C201.238 408.112 192.487 396.036 177.23 393.97C165.196 392.337 154.814 396.901 145.899 404.462C130.421 417.605 119.069 433.149 118.944 454.727C118.944 456.082 116.612 457.427 115.365 458.782C114.06 457.456 112.352 456.341 111.584 454.756C110.961 453.459 111.459 451.624 111.459 450.02L111.45 450.01ZM282.112 293.17C285.912 292.699 290.72 292.401 295.412 291.489C313.04 288.059 328.489 280.748 339.352 265.731C345.196 257.642 345.378 249.428 339.63 241.261C332.28 230.818 321.935 224.823 309.547 222.383C302.542 221.009 296.026 221.864 290.269 226.946C288.494 228.512 284.972 229.531 282.765 228.925C274.963 226.764 267.248 224.102 259.764 221.009C255.589 219.28 254.735 215.273 256.655 211.248C257.95 208.539 259.86 206.117 261.568 203.629C264.398 199.517 263.304 195.751 258.574 194.3C256.309 193.609 253.881 193.253 251.511 193.176C235.361 192.648 220.2 206.146 216.803 223.939C213.924 239.032 219.912 250.494 233.711 256.691C235.381 257.44 236.609 259.16 238.039 260.428C236.724 261.658 235.582 263.185 234.066 264.069C228.28 267.422 227.176 271.621 231.888 276.453C235.39 280.056 239.555 283.293 243.978 285.667C255.532 291.873 268.227 293.218 282.103 293.17H282.112ZM279.569 339.842C284.185 339.429 288.829 339.228 293.397 338.565C329.506 333.271 345.34 315.065 352.114 277.788C352.748 274.33 351.769 271.265 348.362 269.757C344.831 268.191 341.818 269.334 339.515 272.399C336.444 276.491 333.681 280.872 330.226 284.61C325.706 289.481 320.908 294.188 315.717 298.31C312.128 301.163 307.628 301.682 302.935 300.126C301.506 299.655 299.107 300.289 297.907 301.298C293.522 304.987 288.542 306.217 283.12 305.4C255.254 301.202 230.16 291.018 209.817 270.842C207.389 268.44 204.981 266.884 201.881 269.046C198.58 271.352 199.06 274.368 200.855 277.519C209.443 292.641 219.595 306.591 232.348 318.456C245.638 330.812 260.253 340.544 279.589 339.842H279.569ZM205.355 135.782C189.455 136.829 174.408 137.771 160.571 144.544C145.438 151.951 141.331 164.518 149.632 179.14C158.47 194.704 171.194 204.897 189.723 206.896C198.724 207.866 201.037 211.988 199.319 220.788C198.782 223.526 198.427 226.735 199.377 229.185C200.058 230.943 203.215 232.989 204.952 232.74C206.631 232.499 208.426 229.665 209.193 227.609C209.788 226.024 209.107 223.805 208.57 221.989C205.489 211.574 202.073 201.247 199.185 190.784C195.193 176.335 197.678 163.249 208.08 151.961C210.662 149.155 212.897 145.975 214.941 142.747C216.985 139.519 215.805 137.156 212.091 136.445C209.606 135.964 207.034 135.936 205.365 135.782H205.355ZM298.636 352.784C296.631 351.391 295.115 350.353 293.618 349.286C288.705 345.809 283.504 343.176 277.257 343.388C268.87 343.676 263.679 349.805 265.972 357.875C267.143 362.007 269.638 366.099 272.516 369.337C279.992 377.744 289.597 383.181 300.124 386.947C321.398 394.556 332.999 387.697 336.588 365.436C336.761 364.332 336.857 363.208 336.866 362.093C336.962 352.755 332.894 345.741 324.747 341.293C313.213 335 302.34 339.468 298.636 352.784ZM435.32 437.348C435.512 437.348 435.713 437.338 435.905 437.328C435.483 432.4 435.905 427.202 434.456 422.6C431.165 412.148 427.115 401.925 422.941 391.78C422.202 389.983 419.237 387.793 417.625 388.023C415.956 388.273 414.065 391.04 413.384 393.077C412.088 396.978 411.263 401.109 410.793 405.211C408.586 424.541 409.459 443.861 411.992 463.086C413.557 474.961 415.332 486.931 421.262 497.576C422.874 500.468 426.329 502.332 428.929 504.676C430.09 501.707 432.067 498.796 432.268 495.76C433.506 476.306 434.351 456.822 435.32 437.357V437.348ZM200.816 449.463C201.21 449.607 201.603 449.751 201.996 449.885C202.332 453.382 202.208 457.004 203.081 460.357C207.917 479.053 212.955 497.692 218.041 516.311C218.703 518.751 219.701 521.268 221.188 523.266C222.983 525.678 225.468 527.57 227.646 529.684C229.383 527.157 232.175 524.813 232.636 522.075C233.692 515.849 234.651 509.288 233.778 503.129C231.533 487.162 228.51 471.291 225.334 455.467C223.645 447.042 221.275 438.712 218.626 430.526C217.849 428.125 214.903 424.57 213.281 424.733C210.93 424.973 207.85 427.702 206.871 430.104C204.328 436.339 202.755 442.978 200.797 449.453L200.816 449.463ZM149.085 304.833C148.96 292.622 147.127 283.476 140.276 276.165C132.638 268.008 123.483 269.834 120.038 280.402C118.589 284.859 117.898 289.807 118.052 294.486C118.378 304.449 116.708 313.758 112.304 322.751C109.041 329.409 111.479 336.422 117.62 340.246C123.79 344.089 131.189 343.224 135.66 337.393C143.567 327.084 149.104 315.718 149.075 304.833H149.085ZM230.631 149.338C226.293 150.433 221.466 151.048 217.129 152.864C206.43 157.36 203.302 169.417 210.172 178.804C215.431 186 222.848 189.9 231.417 191.668C242.702 193.993 252.797 187.844 255.896 176.882C258.958 166.064 253.766 155.929 242.788 152.009C239.085 150.683 235.064 150.279 230.631 149.338ZM303.185 142.257C288.331 142.305 270.521 158.09 268.774 172.761C268.64 173.866 268.63 174.999 268.678 176.104C269.004 182.887 273.783 187.354 280.184 185.279C291.2 181.705 302.129 177.574 312.522 172.492C319.882 168.889 322.348 160.771 320.218 153.623C318.154 146.715 311.428 142.228 303.185 142.257ZM515.916 232.826C508.421 232.845 503.518 238.168 504.189 245.959C505.447 260.39 510.206 273.763 518.353 285.618C520.848 289.25 525.396 292.142 529.628 293.746C536.029 296.167 540.423 291.479 538.466 284.936C537.66 282.237 535.865 279.854 534.733 277.231C532.919 273.023 530.578 268.882 529.743 264.463C528.505 257.92 528.361 251.157 527.805 244.489C527.191 237.072 522.882 232.816 515.916 232.836V232.826ZM324.382 219.76C323.567 218.463 323.403 217.867 323.048 217.694C314.652 213.64 310.89 206.982 310.372 197.644C310.123 193.109 306.764 189.506 302.091 187.921C296.669 186.086 289.895 188.517 286.91 193.292C284.147 197.721 284.77 202.736 289.261 207.193C297.418 215.293 307.935 218.569 318.826 220.778C320.342 221.086 322.108 220.211 324.392 219.75L324.382 219.76ZM273.39 220.557C278.783 220.538 283.427 216.138 283.398 211.075C283.369 206.021 278.188 201.227 272.872 201.343C267.738 201.458 262.7 206.607 262.815 211.642C262.921 216.513 267.747 220.577 273.39 220.557ZM316.533 201.775C316.245 206.425 319.824 210.201 324.737 210.431C329.833 210.671 333.661 208.077 333.978 204.167C334.352 199.546 330.168 195.434 324.824 195.155C320.112 194.915 316.792 197.557 316.533 201.765V201.775ZM350.377 213.813C350.166 210.258 349.466 206.963 344.908 206.953C341.453 206.953 339.025 208.567 338.814 212.285C338.632 215.638 342.893 220.346 345.992 220.135C349.83 219.875 350.157 216.839 350.377 213.803V213.813ZM287.879 304.209C290.317 301.989 293.186 300.616 293.435 298.877C293.925 295.485 290.701 294.649 287.918 294.659C285.164 294.669 281.892 295.399 282.41 298.857C282.669 300.616 285.49 301.989 287.889 304.209H287.879ZM339.784 219.039C336.828 216.791 334.957 215.369 333.086 213.947C332.049 215.331 329.852 217.358 330.197 217.963C331.205 219.75 333.038 221.336 334.918 222.239C335.6 222.565 337.308 220.73 339.784 219.039ZM305.037 296.657C308.491 298.185 310.938 297.436 312.637 294.659C312.867 294.275 312.128 292.67 311.648 292.574C308.578 291.969 306.121 292.757 305.037 296.657Z" fill="#4141FF"/>
<path d="M404.22 515.379C406.129 515.379 406.676 515.234 407.079 515.407C408.365 515.965 409.593 516.637 410.841 517.262C409.824 518.059 408.922 519.241 407.77 519.587C404.421 520.586 400.967 521.229 397.56 522.056C390.056 523.871 382.984 526.533 377.025 531.75C376.085 532.576 374.07 532.163 372.553 532.326C372.918 530.808 372.774 528.704 373.734 527.849C382.783 519.75 393.904 516.733 404.21 515.379H404.22Z" fill="#4141FF"/>
<path d="M326.733 440.374C329.247 440.374 331.771 440.451 334.285 440.364C342.586 440.076 350.281 437.962 357.114 433.005C358.217 432.207 359.772 432.044 361.125 431.583C360.645 433.101 360.539 434.917 359.609 436.089C353.87 443.39 336.914 447.637 328.259 444.005C327.347 443.621 326.724 442.516 325.975 441.748C326.225 441.286 326.474 440.835 326.724 440.374H326.733Z" fill="#4141FF"/>
<path d="M301.918 269.747C300.44 269.641 299.327 269.872 298.569 269.459C295.364 267.71 291.152 266.471 289.396 263.713C287.073 260.072 290.221 256.45 293.052 253.77C299.663 247.515 307.474 243.817 316.686 243.855C320.928 243.874 325.284 244.777 326.935 249.379C328.547 253.866 326.09 257.478 322.885 260.351C316.782 265.808 309.643 269.065 301.928 269.747H301.918Z" fill="#4141FF"/>
<path d="M84.8 503.229C78.6667 503.229 73.2667 502.095 68.6 499.829C63.9333 497.429 60.2667 494.162 57.6 490.029C55.0667 485.762 53.8 481.095 53.8 476.029C53.8 468.695 56.4667 462.229 61.8 456.629C67.2667 451.029 75.9333 446.629 87.8 443.429L118 435.229C125.733 433.229 131.8 430.962 136.2 428.429C140.6 425.762 143.867 422.495 146 418.629C148.267 414.629 149.4 409.762 149.4 404.029C149.4 397.362 147.6 391.695 144 387.029C140.4 382.229 135.133 378.562 128.2 376.029C121.4 373.495 113.333 372.229 104 372.229C88.4 372.229 75 375.362 63.8 381.629C52.6 387.762 44.0667 396.295 38.2 407.229C32.4667 418.162 29.6 430.495 29.6 444.229C29.6 453.829 30.8 463.495 33.2 473.229C35.6 482.962 39.1333 492.229 43.8 501.029H19.8C12.4667 484.629 8.8 467.962 8.8 451.029C8.8 434.495 12.8667 419.695 21 406.629C29.1333 393.429 40.7333 383.095 55.8 375.629C71 368.029 88.8667 364.229 109.4 364.229C127.933 364.229 141.733 367.562 150.8 374.229C160 380.895 164.6 390.229 164.6 402.229C164.6 409.429 163.067 415.362 160 420.029C156.933 424.562 152.467 428.295 146.6 431.229C140.733 434.162 132.333 437.095 121.4 440.029L99.8 445.829C91.9333 447.962 86.0667 451.229 82.2 455.629C78.3333 460.029 76.4 464.895 76.4 470.229C76.4 473.562 77.2 476.829 78.8 480.029C80.5333 483.095 82.9333 485.562 86 487.429C89.0667 489.295 92.4667 490.229 96.2 490.229C101.133 490.229 105.333 488.962 108.8 486.429C112.4 483.762 114.933 480.429 116.4 476.429C117.867 472.429 118.333 468.562 117.8 464.829L113.2 439.629L109.2 427.429C107.333 421.829 104.667 417.962 101.2 415.829C97.8667 413.562 93 412.429 86.6 412.429C83.2667 412.429 79.6 412.629 75.6 413.029L75 409.229L123.4 396.829L128.4 433.629L142.8 481.429C144.267 486.229 146.667 489.962 150 492.629C153.333 495.162 157.333 496.762 162 497.429V501.029H146.6H124.8L121.8 481.629C120.333 486.162 117.6 490.095 113.6 493.429C109.6 496.629 105.067 499.095 100 500.829C94.9333 502.429 89.8667 503.229 84.8 503.229ZM230.645 503.629C223.979 503.629 217.245 502.762 210.445 501.029C203.779 499.295 197.512 496.695 191.645 493.229V461.829H195.445C196.112 468.895 198.045 475.162 201.245 480.629C204.579 485.962 208.912 490.162 214.245 493.229C219.712 496.162 225.979 497.629 233.045 497.629C240.112 497.629 245.645 496.095 249.645 493.029C253.779 489.962 255.845 485.762 255.845 480.429C255.845 476.429 254.512 472.962 251.845 470.029C249.312 467.095 246.112 464.695 242.245 462.829C238.512 460.962 233.379 458.829 226.845 456.429C219.112 453.495 212.779 450.762 207.845 448.229C202.912 445.695 198.645 442.295 195.045 438.029C191.579 433.762 189.712 428.495 189.445 422.229L206.645 401.429C202.645 398.762 199.579 395.829 197.445 392.629C195.312 389.295 194.245 385.429 194.245 381.029C194.245 375.295 195.979 370.495 199.445 366.629C203.045 362.629 207.779 359.695 213.645 357.829C219.645 355.829 226.045 354.829 232.845 354.829C239.379 354.829 245.579 355.629 251.445 357.229C257.445 358.829 262.579 361.229 266.845 364.429V391.029H263.045C261.579 381.695 258.112 374.295 252.645 368.829C247.179 363.362 239.979 360.629 231.045 360.629C225.045 360.629 220.445 361.829 217.245 364.229C214.179 366.629 212.645 370.029 212.645 374.429C212.645 377.762 213.712 380.629 215.845 383.029C218.112 385.295 220.845 387.229 224.045 388.829C227.245 390.295 231.712 392.162 237.445 394.429C245.445 397.362 251.979 400.229 257.045 403.029C262.112 405.695 266.379 409.562 269.845 414.629C273.445 419.562 275.245 425.962 275.245 433.829L264.845 453.829C267.779 456.362 270.045 459.229 271.645 462.429C273.245 465.495 274.045 469.029 274.045 473.029C274.045 483.829 270.045 491.629 262.045 496.429C254.045 501.229 243.579 503.629 230.645 503.629ZM259.445 450.229C260.645 448.629 261.512 446.962 262.045 445.229C262.712 443.362 263.045 441.562 263.045 439.829C263.045 435.295 261.579 431.429 258.645 428.229C255.845 424.895 252.245 422.162 247.845 420.029C243.445 417.762 237.579 415.229 230.245 412.429C221.579 409.095 215.245 406.362 211.245 404.229C209.512 405.562 208.245 407.229 207.445 409.229C206.779 411.095 206.445 413.029 206.445 415.029C206.445 419.162 207.779 422.762 210.445 425.829C213.245 428.762 216.645 431.229 220.645 433.229C224.779 435.095 230.379 437.362 237.445 440.029C241.979 441.762 246.045 443.429 249.645 445.029C253.379 446.629 256.645 448.362 259.445 450.229ZM293.606 357.429H321.206L309.206 461.629H305.406L293.606 357.429ZM307.406 503.429C303.54 503.429 300.206 502.095 297.406 499.429C294.74 496.762 293.406 493.429 293.406 489.429C293.406 485.695 294.74 482.495 297.406 479.829C300.206 477.162 303.54 475.829 307.406 475.829C311.14 475.829 314.34 477.162 317.006 479.829C319.806 482.495 321.206 485.695 321.206 489.429C321.206 493.429 319.806 496.762 317.006 499.429C314.34 502.095 311.14 503.429 307.406 503.429ZM88 684.029H73.8V680.429C77.9333 679.762 81.2 678.095 83.6 675.429C86 672.629 87.4 668.762 87.8 663.829C89.2667 646.762 90 637.629 90 636.429C89.8667 634.162 89.3333 630.162 88.4 624.429C87.6 618.695 86.7333 613.695 85.8 609.429C84.6 603.162 82.1333 598.495 78.4 595.429C74.6667 592.362 70.2667 590.829 65.2 590.829C60 590.829 54.9333 592.495 50 595.829C45.2 599.029 40.8 603.495 36.8 609.229L36.2 602.029C40.0667 597.362 44 593.362 48 590.029C52 586.562 56.4667 583.829 61.4 581.829C66.4667 579.695 71.8667 578.629 77.6 578.629C85.2 578.629 91.5333 580.229 96.6 583.429C101.667 586.495 105.333 590.695 107.6 596.029C110 601.362 110.8 607.362 110 614.029C109.733 617.762 109.4 621.495 109 625.229C108.733 628.962 108.533 632.695 108.4 636.429C108.533 641.762 109.133 650.895 110.2 663.829C110.6 668.762 112.133 672.629 114.8 675.429C117.6 678.095 121.2 679.762 125.6 680.429V684.029H110H88ZM18.6 684.029H3V680.429C7.4 679.762 10.8667 678.095 13.4 675.429C16.0667 672.629 17.6 668.695 18 663.629C18.5333 658.962 18.9333 654.362 19.2 649.829C19.6 645.429 19.9333 640.962 20.2 636.429C20.2 634.429 19.9333 631.029 19.4 626.229C18.8667 618.495 18.2667 610.895 17.6 603.429C17.2 598.362 15.5333 594.695 12.6 592.429C9.8 590.162 5.86667 589.162 0.8 589.429L2.83122e-07 586.029L17.8 582.229L42 577.229L41.4 598.429L41 600.829C40.7333 605.495 40.4667 608.962 40.2 611.229C40.0667 613.362 39.8667 616.695 39.6 621.229L38.6 636.429C38.8667 642.295 39.5333 651.429 40.6 663.829C41.1333 668.762 42.6 672.629 45 675.429C47.4 678.095 50.6667 679.762 54.8 680.429V684.029H40.6H18.6ZM32.8 538.429L35.6 535.829L62.6 553.229L89.2 535.829L92 538.429L64.4 571.029H60.2L32.8 538.429ZM146.413 544.629V540.429H235.413L242.213 579.029L238.613 579.629C236.746 573.895 234.413 569.429 231.612 566.229C228.946 563.029 225.613 560.829 221.613 559.629C217.746 558.295 212.813 557.629 206.813 557.629H156.013L158.212 550.429L256.413 685.829H229.812L146.413 544.629ZM185.413 686.629C175.279 686.629 166.213 684.629 158.212 680.629C150.213 676.629 143.946 670.962 139.413 663.629C135.013 656.295 132.813 647.962 132.813 638.629C132.813 629.695 134.946 621.629 139.213 614.429C143.613 607.095 149.079 601.029 155.613 596.229C162.146 591.295 168.813 587.695 175.613 585.429L177.813 589.429C170.079 593.162 164.213 598.295 160.213 604.829C156.346 611.362 154.413 619.095 154.413 628.029C154.413 637.362 156.413 645.495 160.413 652.429C164.413 659.362 169.813 664.695 176.613 668.429C183.546 672.162 191.079 674.029 199.213 674.029C209.079 674.029 217.813 672.029 225.413 668.029C233.013 664.029 238.879 658.695 243.013 652.029C247.146 645.229 249.213 637.695 249.213 629.429C249.213 625.695 248.279 621.895 246.412 618.029C244.546 614.162 241.413 610.895 237.013 608.229C232.746 605.562 227.146 604.229 220.213 604.229L220.013 600.429L259.013 598.829C262.479 613.762 261.279 628.029 255.413 641.629C249.546 655.229 240.346 666.162 227.813 674.429C215.279 682.562 201.146 686.629 185.413 686.629Z" fill="#EEEEEE"/>
</svg>
