<svg width="482" height="870" viewBox="0 0 482 870" fill="none" xmlns="http://www.w3.org/2000/svg">
<path d="M477.991 580.966C477.614 595.119 472.21 607.685 465.462 619.766C453.687 640.753 438.094 658.753 421.372 675.812C416.103 681.193 410.618 686.333 405.188 691.526C389.084 706.916 388.707 725.509 403.655 742.137C413.387 753.007 423.173 763.931 431.722 775.716C445.057 794.093 451.832 815.376 455.757 837.574C456.94 844.328 455.193 847.826 450.81 849.359C445.514 851.216 441.401 849.037 438.901 842.821C433.336 829.018 426.372 815.995 417.232 804.183C401.343 783.654 382.228 767.698 356.419 761.16C337.17 756.29 318.512 758.657 300.338 765.976C283.966 772.568 267.727 772.595 251.597 765.519C245.521 762.855 239.606 759.814 233.665 756.828C223.691 751.85 213.905 746.415 202.694 744.693C183.472 741.733 167.18 749.025 152.474 760.191C143.79 766.783 136.02 774.613 127.928 781.985C117.605 791.376 107.657 801.17 96.9574 810.13C92.8171 813.601 87.3327 815.753 82.144 817.529C76.0412 819.601 72.7613 816.668 72.6538 810.184C72.5463 802.999 75.5304 796.811 78.9985 790.838C91.1234 769.877 108.571 754.245 128.627 741.195C134.192 737.59 139.65 733.688 144.677 729.383C150.646 724.298 154.947 717.975 156.829 710.118C159.06 700.862 156.775 692.252 151.963 684.853C144.462 673.391 136.047 662.493 127.471 651.811C114.701 635.91 100.882 620.815 88.5425 604.59C75.8531 587.908 66.9274 569.101 64.5885 547.791C63.9701 542.06 63.9164 536.194 64.0777 530.436C64.2659 524.274 67.1694 520.803 71.8473 520.158C77.036 519.404 80.1277 521.288 82.6011 527.18C94.9141 556.32 111.717 582.635 132.176 606.635C141.989 618.124 152.85 628.51 166.077 636.044C181.348 644.762 196.484 646.161 212.345 636.69C224.094 629.667 236.488 623.667 248.908 617.909C261.759 611.936 274.932 612.662 287.326 619.443C299.182 625.9 311.038 632.493 322.168 640.107C338.138 651.031 354.779 651.946 372.415 645.892C390.804 639.596 406.397 628.672 420.996 616.187C435.916 603.433 449.144 589.065 460.758 573.271C465.194 567.244 467.882 565.926 472.237 567.459C477.991 569.477 478.125 574.159 477.964 579.056C477.964 579.702 477.964 580.348 477.964 580.993L477.991 580.966ZM338.487 751.07C348.65 750.585 358.839 752.146 368.437 756.155C374.943 758.873 381.126 762.344 387.444 765.492C391.611 767.564 395.025 766.998 397.875 763.716C400.832 760.326 400.94 757.124 397.956 753.249C396.531 751.393 394.703 749.832 393.116 748.056C386.664 740.845 379.889 733.903 373.921 726.343C367.711 718.459 367.173 709.741 373.222 701.32C376.206 697.149 379.298 692.898 383.035 689.427C399.434 674.278 416.183 659.453 432.637 644.358C437.046 640.295 441.24 635.91 444.923 631.174C449.09 625.82 446.052 617.936 439.492 617.479C436.562 617.263 432.905 619.174 430.513 621.219C408.844 639.434 385.938 655.336 358.839 664.646C345.639 669.193 336.605 678.772 330.825 691.552C328.997 695.588 326.846 699.759 323.889 703.015C312.436 715.688 295.472 719.132 279.1 712.244C272.997 709.661 267.27 706.163 261.248 703.364C255.576 700.728 252.968 702.019 252.565 708.154C252.242 713.239 252.565 718.513 253.532 723.544C255.226 732.558 256.974 741.679 259.931 750.343C262.592 758.2 269.152 762.101 277.621 761.483C282.299 761.16 286.977 760.326 291.547 759.276C306.979 755.778 322.088 750.451 338.514 751.043L338.487 751.07ZM223.583 711.679C215.061 712.109 208.205 708.288 201.565 703.66C195.301 699.302 192.881 693.274 193.365 685.848C193.58 682.646 194.064 679.391 193.795 676.216C192.585 660.906 185.649 649.336 171.347 642.744C167.18 640.834 163.738 641.991 161.023 645.327C158.281 648.717 158.308 652.457 160.727 656.063C161.561 657.3 162.77 658.269 163.658 659.48C167.502 664.646 171.696 669.57 175.03 675.059C181.536 685.768 181.348 696.88 174.519 707.266C170.54 713.293 166.023 719.374 160.485 723.921C147.876 734.226 134.676 743.832 121.395 753.303C110.319 761.187 99.377 769.286 91.2041 780.183C86.1229 786.963 82.2247 794.685 78.4609 802.327C77.493 804.318 78.9448 807.493 79.2943 810.13C81.7945 809.43 84.4292 809 86.7413 807.896C88.4081 807.116 89.7523 805.502 91.0697 804.103C97.8445 796.892 104.539 789.627 111.287 782.389C125.831 766.783 141.128 752.065 160.001 741.652C169.841 736.244 180.138 732.181 191.617 731.832C204.576 731.455 215.948 736.137 226.917 742.298C232.912 745.662 238.665 749.402 244.768 752.55C249.473 754.998 251.946 753.599 251.785 748.379C251.435 737.401 249.58 726.585 245.198 716.414C242.886 711.006 239.203 709.553 233.073 710.441C229.901 710.898 226.702 711.248 223.502 711.652L223.583 711.679ZM288.966 642.421C287.998 641.183 287.434 639.757 286.439 639.3C283.535 637.981 280.524 636.825 277.46 636.017C268.399 633.65 259.286 632.762 250.387 636.636C243.72 639.569 243.263 642.233 248.075 647.56C252.807 652.807 257.511 658.108 262.028 663.543C264.071 665.991 265.738 666.825 268.292 664.269C274.341 658.188 280.524 652.269 286.573 646.188C287.568 645.192 288.133 643.766 288.966 642.421ZM249.07 695.05C248.182 691.983 247.94 690.019 247.107 688.351C239.794 673.552 219.604 668.601 206.296 678.234C197.183 684.826 197.478 693.947 206.969 700.055C212.13 703.364 212.776 703.095 214.254 697.041C216.109 689.481 223.153 685.149 229.847 688.431C232.912 689.938 235.09 693.651 237.214 696.692C238.907 699.14 240.735 701.831 243.693 700.566C245.978 699.598 247.483 696.772 249.043 695.05H249.07ZM315.689 672.503C302.973 675.005 290.66 678.691 281.815 688.916C279.879 691.149 278.858 695.266 279.288 698.252C280.202 704.871 289.154 710.226 295.418 708.719C302.059 707.131 305.258 700.916 303.027 692.979C301.871 688.808 302.623 685.31 305.339 682.243C308.457 678.691 312.517 677.884 317.033 679.014C319.561 679.633 322.357 679.525 322.303 676.458C322.303 675.113 319.319 673.767 317.598 672.583C317.168 672.287 316.334 672.53 315.689 672.53V672.503ZM299.048 648.663C292.918 649.282 288.186 652.753 284.342 657.569C283.831 658.215 284.046 659.991 284.584 660.852C289.396 668.763 288.106 671.534 279.073 672.583C277.97 672.718 276.976 673.633 275.927 674.171C276.572 675.409 276.922 677.238 277.943 677.749C279.288 678.422 281.304 678.557 282.756 678.045C287.192 676.539 291.628 674.897 295.768 672.799C300.5 670.377 305.204 667.74 309.425 664.538C313.377 661.552 313.861 658.081 311.468 655.094C308.404 651.273 304.371 649.013 299.075 648.69L299.048 648.663ZM226.03 660.852C230.6 660.179 234.176 658.646 237.052 659.507C241.488 660.798 240.332 664.915 239.848 668.709C239.337 672.799 242.456 674.574 246.247 675.22C252.108 676.216 255.844 675.22 256.893 671.938C257.189 670.969 257.189 669.812 257 668.79C255.549 660.529 244.929 649.874 236.649 648.206C232.966 647.48 229.713 648.287 227.401 651.246C224.874 654.502 223.933 658.108 226.003 660.825L226.03 660.852ZM97.2262 593.747C102.2 593.882 106.232 590.465 105.507 586.24C104.055 577.792 100.318 570.285 92.7634 565.63C87.8166 562.589 82.1709 566.087 81.7945 571.926C81.3913 578.114 89.6448 591.218 95.3174 593.317C96.097 593.613 96.9574 593.693 97.2262 593.774V593.747Z" fill="#FF2A2A"/>
<path d="M49.6 298H16.8V293.6C26.1333 293.067 33.2 290.533 38 286C43.0667 281.467 45.7333 275.067 46 266.8C46.5333 241.733 46.9333 223.2 47.2 211.2C47.4667 199.2 47.8667 181.067 48.4 156.8C47.8667 132.533 47.4667 114.533 47.2 102.8C46.9333 90.8 46.5333 72.9333 46 49.2C45.7333 40.9333 43.0667 34.5333 38 30C33.2 25.4667 26.1333 22.9333 16.8 22.4V18H49.6H189.2V80H184.8C184.533 69.0667 182.8 59.6 179.6 51.6C176.4 43.3333 170.8 36.6667 162.8 31.6C155.067 26.5333 144.4 23.8666 130.8 23.6L56.8 22.4L54 157.2L56.4 266.8C56.6667 275.067 59.7333 281.467 65.6 286C71.7333 290.533 80.9333 293.067 93.2 293.6V298H52.8H49.6ZM152.8 194.8C152.8 185.733 152.267 178.8 151.2 174C150.133 169.2 147.6 165.6 143.6 163.2C139.6 160.533 133.6 159.2 125.6 159.2H51.2L51.6 153.2C75.6 153.733 99.6 154.267 123.6 154.8C135.6 155.067 143.467 152.533 147.2 147.2C150.933 141.6 152.8 132.267 152.8 119.2H157.2V194.8H152.8ZM293.119 302C274.185 302 257.519 297.333 243.119 288C228.719 278.4 217.652 265.467 209.919 249.2C202.452 232.933 198.719 214.933 198.719 195.2C198.719 176 202.585 158.8 210.319 143.6C218.052 128.133 228.852 116 242.719 107.2C256.852 98.4 273.119 94 291.519 94C306.185 94 318.719 97.2 329.119 103.6C339.785 109.733 348.052 117.333 353.919 126.4C359.785 135.467 363.519 144.133 365.119 152.4L361.519 182L207.519 189.2V184.8L359.519 174.8L350.719 179.2C354.452 166.4 354.185 153.867 349.919 141.6C345.919 129.067 338.585 118.8 327.919 110.8C317.252 102.8 304.319 98.8 289.119 98.8C272.319 98.8 257.785 103.067 245.519 111.6C233.519 119.867 224.319 131.067 217.919 145.2C211.519 159.067 208.319 174.4 208.319 191.2C208.319 209.6 211.652 226.667 218.319 242.4C225.252 257.867 235.252 270.267 248.319 279.6C261.652 288.933 277.252 293.6 295.119 293.6C313.785 293.6 329.785 287.733 343.119 276C356.452 264.267 365.519 250.4 370.319 234.4L374.719 235.6C371.785 246.267 366.985 256.667 360.319 266.8C353.919 276.933 344.985 285.333 333.519 292C322.319 298.667 308.852 302 293.119 302ZM43.2 574H16.8V569.6C24.2667 569.067 30 566.8 34 562.8C38.2667 558.8 40.5333 553.067 40.8 545.6C41.3333 520 41.7333 501.067 42 488.8C42.2667 476.267 42.6667 457.467 43.2 432.4C42.9333 416.933 42.6667 401.2 42.4 385.2C42.1333 369.2 41.6 348.133 40.8 322C40.5333 314.533 38.2667 308.933 34 305.2C30 301.2 24.2667 298.933 16.8 298.4V294H43.2H160V353.2H155.6C155.333 340.933 153.6 330.933 150.4 323.2C147.2 315.467 141.867 309.6 134.4 305.6C127.2 301.6 116.933 299.467 103.6 299.2L51.6 298.4L48.8 432.4L51.6 545.6C51.6 553.067 54 558.8 58.8 562.8C63.8667 566.8 71.0667 569.067 80.4 569.6V574H48.8H43.2ZM129.6 469.6C129.6 461.067 129.067 454.533 128 450C126.933 445.2 124.4 441.6 120.4 439.2C116.4 436.533 110.4 435.2 102.4 435.2H45.6L46 429.2C64.1333 429.733 82.2667 430.267 100.4 430.8C112.4 431.067 120.267 428.533 124 423.2C127.733 417.6 129.6 408.533 129.6 396H134V469.6H129.6ZM244.222 578C229.289 578 216.089 573.6 204.622 564.8C193.422 555.733 184.755 543.067 178.622 526.8C172.489 510.533 169.422 492 169.422 471.2C169.422 451.2 172.355 433.6 178.222 418.4C184.089 403.2 192.489 391.333 203.422 382.8C214.355 374.267 227.155 370 241.822 370C253.022 370 262.889 372.8 271.422 378.4C279.955 383.733 286.755 390.933 291.822 400C297.155 409.067 300.755 418.8 302.622 429.2L298.622 458L177.822 463.2V458.8L295.422 450.8L288.622 454.4C291.822 441.067 291.689 428.267 288.222 416C285.022 403.733 279.022 393.733 270.222 386C261.689 378.267 251.555 374.4 239.822 374.4C227.289 374.4 216.355 378.4 207.022 386.4C197.955 394.133 190.889 405.067 185.822 419.2C181.022 433.067 178.622 448.8 178.622 466.4C178.622 485.867 181.289 503.467 186.622 519.2C192.222 534.667 200.089 546.933 210.222 556C220.622 565.067 232.489 569.6 245.822 569.6C260.222 569.6 272.489 564.4 282.622 554C292.755 543.6 300.089 530.133 304.622 513.6L309.022 514.8C306.089 526.267 301.955 536.8 296.622 546.4C291.289 555.733 284.222 563.333 275.422 569.2C266.622 575.067 256.222 578 244.222 578ZM36.4 850H16.8V845.6C22.1333 845.067 26.5333 843.2 30 840C33.4667 836.533 35.3333 831.467 35.6 824.8C36.1333 798.4 36.5333 778.8 36.8 766C37.0667 753.2 37.4667 734 38 708.4C38 701.467 37.7333 688 37.2 668C36.9333 648 36.4 623.733 35.6 595.2C35.3333 588.533 33.4667 583.6 30 580.4C26.8 576.933 22.4 574.933 16.8 574.4V570H36.8H130.8V626.4H126.4C125.867 612.8 124 602.4 120.8 595.2C117.867 588 112.933 582.933 106 580C99.0667 576.8 89.2 575.067 76.4 574.8L46.4 574.4L43.6 708L46.4 824.8C46.4 831.467 48.2667 836.533 52 840C55.7333 843.2 60.9333 845.067 67.6 845.6V850H44.8H36.4ZM106.4 744.8C106.4 736.533 105.867 730.133 104.8 725.6C103.733 721.067 101.2 717.6 97.2 715.2C93.2 712.533 87.2 711.2 79.2 711.2H40V705.6C52.5333 705.867 64.9333 706.267 77.2 706.8C89.2 707.067 97.0667 704.533 100.8 699.2C104.533 693.867 106.4 685.2 106.4 673.2H110.8V744.8H106.4ZM194.925 854C183.992 854 174.392 849.867 166.125 841.6C157.858 833.067 151.458 820.8 146.925 804.8C142.392 788.533 140.125 769.333 140.125 747.2C140.125 726.667 142.125 708.8 146.125 693.6C150.125 678.4 155.992 666.667 163.725 658.4C171.458 650.133 180.792 646 191.725 646C199.725 646 206.925 648.4 213.325 653.2C219.992 657.733 225.458 664.533 229.725 673.6C234.258 682.667 237.592 693.467 239.725 706L235.725 734L148.125 737.6V733.2L231.325 726.8L226.125 730C228.792 716.133 228.792 703.067 226.125 690.8C223.725 678.533 219.192 668.8 212.525 661.6C206.125 654.133 198.658 650.4 190.125 650.4C181.858 650.4 174.525 654.133 168.125 661.6C161.992 668.8 157.192 679.333 153.725 693.2C150.525 707.067 148.925 723.333 148.925 742C148.925 762.533 150.925 780.667 154.925 796.4C159.192 811.867 164.925 824 172.125 832.8C179.325 841.333 187.458 845.6 196.525 845.6C206.392 845.6 214.792 841.2 221.725 832.4C228.658 823.333 234.258 810.267 238.525 793.2L242.925 794.4C240.258 806.4 236.792 816.933 232.525 826C228.258 834.8 222.925 841.733 216.525 846.8C210.392 851.6 203.192 854 194.925 854Z" fill="#EEEEEE"/>
</svg>
