<svg width="478" height="924" viewBox="0 0 478 924" fill="none" xmlns="http://www.w3.org/2000/svg">
    <path
        d="M477.991 566.966C477.614 581.119 472.21 593.685 465.462 605.766C453.687 626.753 438.094 644.753 421.372 661.812C416.103 667.193 410.618 672.333 405.188 677.526C389.084 692.916 388.707 711.509 403.655 728.137C413.387 739.007 423.173 749.931 431.722 761.716C445.057 780.093 451.832 801.376 455.757 823.574C456.94 830.328 455.193 833.826 450.81 835.359C445.514 837.216 441.401 835.037 438.901 828.821C433.336 815.018 426.372 801.995 417.232 790.183C401.343 769.654 382.228 753.698 356.419 747.16C337.17 742.29 318.512 744.657 300.338 751.976C283.966 758.568 267.727 758.595 251.597 751.519C245.521 748.855 239.606 745.814 233.665 742.828C223.691 737.85 213.905 732.415 202.694 730.693C183.472 727.733 167.18 735.025 152.474 746.191C143.79 752.783 136.02 760.613 127.928 767.985C117.605 777.376 107.657 787.17 96.9574 796.13C92.8171 799.601 87.3327 801.753 82.144 803.529C76.0412 805.601 72.7613 802.668 72.6538 796.184C72.5463 788.999 75.5304 782.811 78.9985 776.838C91.1234 755.877 108.571 740.245 128.627 727.195C134.192 723.59 139.65 719.688 144.677 715.383C150.646 710.298 154.947 703.975 156.829 696.118C159.06 686.862 156.775 678.252 151.963 670.853C144.462 659.391 136.047 648.493 127.471 637.811C114.701 621.91 100.882 606.815 88.5425 590.59C75.8531 573.908 66.9274 555.101 64.5885 533.791C63.9701 528.06 63.9164 522.194 64.0777 516.436C64.2659 510.274 67.1694 506.803 71.8473 506.158C77.036 505.404 80.1277 507.288 82.6011 513.18C94.9141 542.32 111.717 568.635 132.176 592.635C141.989 604.124 152.85 614.51 166.077 622.044C181.348 630.762 196.484 632.161 212.345 622.69C224.094 615.667 236.488 609.667 248.908 603.909C261.759 597.936 274.932 598.662 287.326 605.443C299.182 611.9 311.038 618.493 322.168 626.107C338.138 637.031 354.779 637.946 372.415 631.892C390.804 625.596 406.397 614.672 420.996 602.187C435.916 589.433 449.144 575.065 460.758 559.271C465.194 553.244 467.882 551.926 472.237 553.459C477.991 555.477 478.125 560.159 477.964 565.056C477.964 565.702 477.964 566.348 477.964 566.993L477.991 566.966ZM338.487 737.07C348.65 736.585 358.839 738.146 368.437 742.155C374.943 744.873 381.126 748.344 387.444 751.492C391.611 753.564 395.025 752.998 397.875 749.716C400.832 746.326 400.94 743.124 397.956 739.249C396.531 737.393 394.703 735.832 393.116 734.056C386.664 726.845 379.889 719.903 373.921 712.343C367.711 704.459 367.173 695.741 373.222 687.32C376.206 683.149 379.298 678.898 383.035 675.427C399.434 660.278 416.183 645.453 432.637 630.358C437.046 626.295 441.24 621.91 444.923 617.174C449.09 611.82 446.052 603.936 439.492 603.479C436.562 603.263 432.905 605.174 430.513 607.219C408.844 625.434 385.938 641.336 358.839 650.646C345.639 655.193 336.605 664.772 330.825 677.552C328.997 681.588 326.846 685.759 323.889 689.015C312.436 701.688 295.472 705.132 279.1 698.244C272.997 695.661 267.27 692.163 261.248 689.364C255.576 686.728 252.968 688.019 252.565 694.154C252.242 699.239 252.565 704.513 253.532 709.544C255.226 718.558 256.974 727.679 259.931 736.343C262.592 744.2 269.152 748.101 277.621 747.483C282.299 747.16 286.977 746.326 291.547 745.276C306.979 741.778 322.088 736.451 338.514 737.043L338.487 737.07ZM223.583 697.679C215.061 698.109 208.205 694.288 201.565 689.66C195.301 685.302 192.881 679.274 193.365 671.848C193.58 668.646 194.064 665.391 193.795 662.216C192.585 646.906 185.649 635.336 171.347 628.744C167.18 626.834 163.738 627.991 161.023 631.327C158.281 634.717 158.308 638.457 160.727 642.063C161.561 643.3 162.77 644.269 163.658 645.48C167.502 650.646 171.696 655.57 175.03 661.059C181.536 671.768 181.348 682.88 174.519 693.266C170.54 699.293 166.023 705.374 160.485 709.921C147.876 720.226 134.676 729.832 121.395 739.303C110.319 747.187 99.377 755.286 91.2041 766.183C86.1229 772.963 82.2247 780.685 78.4609 788.327C77.493 790.318 78.9448 793.493 79.2943 796.13C81.7945 795.43 84.4292 795 86.7413 793.896C88.4081 793.116 89.7523 791.502 91.0697 790.103C97.8445 782.892 104.539 775.627 111.287 768.389C125.831 752.783 141.128 738.065 160.001 727.652C169.841 722.244 180.138 718.181 191.617 717.832C204.576 717.455 215.948 722.137 226.917 728.298C232.912 731.662 238.665 735.402 244.768 738.55C249.473 740.998 251.946 739.599 251.785 734.379C251.435 723.401 249.58 712.585 245.198 702.414C242.886 697.006 239.203 695.553 233.073 696.441C229.901 696.898 226.702 697.248 223.502 697.652L223.583 697.679ZM288.966 628.421C287.998 627.183 287.434 625.757 286.439 625.3C283.535 623.981 280.524 622.825 277.46 622.017C268.399 619.65 259.286 618.762 250.387 622.636C243.72 625.569 243.263 628.233 248.075 633.56C252.807 638.807 257.511 644.108 262.028 649.543C264.071 651.991 265.738 652.825 268.292 650.269C274.341 644.188 280.524 638.269 286.573 632.188C287.568 631.192 288.133 629.766 288.966 628.421ZM249.07 681.05C248.182 677.983 247.94 676.019 247.107 674.351C239.794 659.552 219.604 654.601 206.296 664.234C197.183 670.826 197.478 679.947 206.969 686.055C212.13 689.364 212.776 689.095 214.254 683.041C216.109 675.481 223.153 671.149 229.847 674.431C232.912 675.938 235.09 679.651 237.214 682.692C238.907 685.14 240.735 687.831 243.693 686.566C245.978 685.598 247.483 682.772 249.043 681.05H249.07ZM315.689 658.503C302.973 661.005 290.66 664.691 281.815 674.916C279.879 677.149 278.858 681.266 279.288 684.252C280.202 690.871 289.154 696.226 295.418 694.719C302.059 693.131 305.258 686.916 303.027 678.979C301.871 674.808 302.623 671.31 305.339 668.243C308.457 664.691 312.517 663.884 317.033 665.014C319.561 665.633 322.357 665.525 322.303 662.458C322.303 661.113 319.319 659.767 317.598 658.583C317.168 658.287 316.334 658.53 315.689 658.53V658.503ZM299.048 634.663C292.918 635.282 288.186 638.753 284.342 643.569C283.831 644.215 284.046 645.991 284.584 646.852C289.396 654.763 288.106 657.534 279.073 658.583C277.97 658.718 276.976 659.633 275.927 660.171C276.572 661.409 276.922 663.238 277.943 663.749C279.288 664.422 281.304 664.557 282.756 664.045C287.192 662.539 291.628 660.897 295.768 658.799C300.5 656.377 305.204 653.74 309.425 650.538C313.377 647.552 313.861 644.081 311.468 641.094C308.404 637.273 304.371 635.013 299.075 634.69L299.048 634.663ZM226.03 646.852C230.6 646.179 234.176 644.646 237.052 645.507C241.488 646.798 240.332 650.915 239.848 654.709C239.337 658.799 242.456 660.574 246.247 661.22C252.108 662.216 255.844 661.22 256.893 657.938C257.189 656.969 257.189 655.812 257 654.79C255.549 646.529 244.929 635.874 236.649 634.206C232.966 633.48 229.713 634.287 227.401 637.246C224.874 640.502 223.933 644.108 226.003 646.825L226.03 646.852ZM97.2262 579.747C102.2 579.882 106.232 576.465 105.507 572.24C104.055 563.792 100.318 556.285 92.7634 551.63C87.8166 548.589 82.1709 552.087 81.7945 557.926C81.3913 564.114 89.6448 577.218 95.3174 579.317C96.097 579.613 96.9574 579.693 97.2262 579.774V579.747Z"
        fill="#00A2FF" />
    <path
        d="M35.6 280H2.8V275.6C12.1333 275.067 19.2 272.533 24 268C29.0667 263.467 31.7333 257.067 32 248.8C32.5333 223.733 32.9333 205.2 33.2 193.2C33.4667 181.2 33.8667 163.067 34.4 138.8C33.8667 114.533 33.4667 96.5333 33.2 84.8C32.9333 72.8 32.5333 54.9333 32 31.2C31.7333 22.9333 29.0667 16.5333 24 12C19.2 7.46667 12.1333 4.93334 2.8 4.40001V0H35.6H175.2V62H170.8C170.533 51.0667 168.8 41.6 165.6 33.6C162.4 25.3333 156.8 18.6667 148.8 13.6C141.067 8.53333 130.4 5.86666 116.8 5.6L42.8 4.40001L40 139.2L42.4 248.8C42.6667 257.067 45.7333 263.467 51.6 268C57.7333 272.533 66.9333 275.067 79.2 275.6V280H38.8H35.6ZM138.8 176.8C138.8 167.733 138.267 160.8 137.2 156C136.133 151.2 133.6 147.6 129.6 145.2C125.6 142.533 119.6 141.2 111.6 141.2H37.2L37.6 135.2C61.6 135.733 85.6 136.267 109.6 136.8C121.6 137.067 129.467 134.533 133.2 129.2C136.933 123.6 138.8 114.267 138.8 101.2H143.2V176.8H138.8Z"
        fill="black" />
    <path
        d="M279.119 284C260.185 284 243.519 279.333 229.119 270C214.719 260.4 203.652 247.467 195.919 231.2C188.452 214.933 184.719 196.933 184.719 177.2C184.719 158 188.585 140.8 196.319 125.6C204.052 110.133 214.852 98 228.719 89.2C242.852 80.4 259.119 76 277.519 76C292.185 76 304.719 79.2 315.119 85.6C325.785 91.7333 334.052 99.3333 339.919 108.4C345.785 117.467 349.519 126.133 351.119 134.4L347.519 164L193.519 171.2V166.8L345.519 156.8L336.719 161.2C340.452 148.4 340.185 135.867 335.919 123.6C331.919 111.067 324.585 100.8 313.919 92.8C303.252 84.8 290.319 80.8 275.119 80.8C258.319 80.8 243.785 85.0667 231.519 93.6C219.519 101.867 210.319 113.067 203.919 127.2C197.519 141.067 194.319 156.4 194.319 173.2C194.319 191.6 197.652 208.667 204.319 224.4C211.252 239.867 221.252 252.267 234.319 261.6C247.652 270.933 263.252 275.6 281.119 275.6C299.785 275.6 315.785 269.733 329.119 258C342.452 246.267 351.519 232.4 356.319 216.4L360.719 217.6C357.785 228.267 352.985 238.667 346.319 248.8C339.919 258.933 330.985 267.333 319.519 274C308.319 280.667 294.852 284 279.119 284Z"
        fill="black" />
    <path
        d="M37.2 594H6V588.4C14.5333 587.333 21.3333 584.133 26.4 578.8C31.7333 573.2 34.5333 565.6 34.8 556C36.1333 532.533 37.0667 514.267 37.6 501.2C38.1333 488.133 38.9333 471.733 40 452C38.9333 432.267 38.1333 416.133 37.6 403.6C37.0667 391.067 36.2667 373.867 35.2 352C34.6667 342.4 31.7333 334.933 26.4 329.6C21.3333 324 14.5333 320.667 6 319.6V314H37.2H181.2V382.8H175.6C174.267 368.4 171.333 356.8 166.8 348C162.267 338.933 155.733 332.133 147.2 327.6C138.667 323.067 127.333 320.667 113.2 320.4L60 319.2L53.6 451.2L58.8 556C59.3333 565.333 62.6667 572.8 68.8 578.4C75.2 584 83.7333 587.333 94.4 588.4V594H56.4H37.2ZM147.2 491.6C146.667 484.4 145.067 478.133 142.4 472.8C140 467.467 136.533 463.333 132 460.4C127.733 457.2 122.8 455.6 117.2 455.6H45.6L46 442C73.2 444.933 93.6 446.933 107.2 448C118.4 448.8 127.6 446.133 134.8 440C142 433.867 146.133 424.667 147.2 412.4H152.8V491.6H147.2Z"
        fill="black" />
    <path
        d="M278.178 598C260.845 598 245.778 593.467 232.978 584.4C220.445 575.333 210.845 562.933 204.178 547.2C197.778 531.467 194.578 513.733 194.578 494C194.578 473.733 197.911 455.733 204.578 440C211.511 424.267 221.511 412 234.578 403.2C247.911 394.4 263.511 390 281.378 390C293.111 390 303.645 392.533 312.978 397.6C322.578 402.4 330.578 409.067 336.978 417.6C343.645 426.133 348.578 435.467 351.778 445.6L348.978 473.6L204.178 480V474.4L342.978 460L326.578 468.4C328.978 456.133 328.178 444.533 324.178 433.6C320.445 422.4 314.045 413.467 304.978 406.8C295.911 399.867 285.245 396.4 272.978 396.4C260.445 396.4 249.645 400.133 240.578 407.6C231.511 414.8 224.578 424.8 219.778 437.6C215.245 450.4 212.978 464.933 212.978 481.2C212.978 499.067 215.778 515.467 221.378 530.4C227.245 545.067 235.778 556.933 246.978 566C258.445 574.8 271.911 579.2 287.378 579.2C303.378 579.2 317.378 574.533 329.378 565.2C341.378 555.6 350.045 542.8 355.378 526.8L360.978 528.4C357.511 541.2 352.178 552.933 344.978 563.6C338.045 574 328.978 582.4 317.778 588.8C306.578 594.933 293.378 598 278.178 598Z"
        fill="black" />
    <path
        d="M24 918H0V909.2C6.66667 907.6 11.8667 903.867 15.6 898C19.3333 892.133 21.6 883.733 22.4 872.8C23.7333 849.6 24.9333 828.533 26 809.6C27.3333 790.4 28.1333 776.667 28.4 768.4C28.1333 760.667 27.4667 747.867 26.4 730C25.3333 711.867 24.1333 692.267 22.8 671.2C22 660.267 19.6 651.867 15.6 646C11.8667 640.133 6.66667 636.4 0 634.8V626H24L193.2 626.4V706.4H184.8C183.467 696 179.467 686.267 172.8 677.2C166.4 667.867 157.867 660.133 147.2 654C136.533 647.867 124.667 644 111.6 642.4L94.8 640.4L86.4 769.6L92 872.8C92.5333 883.733 95.2 892 100 897.6C104.8 903.2 112.133 907.067 122 909.2V918H90H24ZM144.8 826.4C143.467 817.6 140.933 809.733 137.2 802.8C133.733 795.867 129.333 790.4 124 786.4C118.933 782.4 113.6 780.4 108 780.4L84.4 780V765.2C90.5333 766.533 96.4 767.333 102 767.6C113.733 768.4 123.2 764.8 130.4 756.8C137.6 748.533 142.4 736.8 144.8 721.6H152.8V826.4H144.8Z"
        fill="black" />
    <path
        d="M291.888 924C272.688 924 256.421 919.2 243.087 909.6C229.754 899.733 219.621 886.4 212.688 869.6C206.021 852.8 202.688 833.733 202.688 812.4C202.688 792.933 205.754 774.933 211.887 758.4C218.021 741.6 227.754 728 241.087 717.6C254.687 707.2 271.621 702 291.888 702C305.488 702 317.488 704.4 327.888 709.2C338.554 714 347.487 720.8 354.688 729.6C361.887 738.4 367.087 748.667 370.288 760.4L363.888 798.8L234.288 803.6V791.2L330.688 776.8L313.888 780.4C317.354 767.067 318.421 755.6 317.087 746C315.754 736.133 312.688 728.667 307.888 723.6C303.354 718.533 298.021 716 291.888 716C284.688 716 278.688 719.467 273.888 726.4C269.354 733.067 266.021 742 263.888 753.2C262.021 764.133 261.087 776.133 261.087 789.2C261.087 803.867 262.688 818 265.888 831.6C269.088 844.933 274.688 856.267 282.688 865.6C290.688 874.667 301.621 879.2 315.487 879.2C327.487 879.2 338.288 875.467 347.888 868C357.488 860.533 364.688 850.133 369.488 836.8L377.888 838.8C376.021 854.267 371.754 868.4 365.087 881.2C358.421 894 348.954 904.4 336.688 912.4C324.421 920.133 309.488 924 291.888 924Z"
        fill="black" />
</svg>