<svg width="460" height="924" viewBox="0 0 460 924" fill="none" xmlns="http://www.w3.org/2000/svg">
<path d="M445.699 502.93C425.801 505.418 405.906 506.163 387.212 503.646C352.96 499.031 322.652 477.139 305.681 436.231C299.044 420.229 292.723 408.737 274.07 394.292C218.459 351.218 201.839 301.083 209.802 249.673C212.172 234.384 191.254 227.694 184.386 241.554C171.859 266.833 162.41 302.377 165.393 350.816C167.12 378.868 155.918 380.991 101.395 369.671C81.7705 365.597 -3.39998 365.078 0.105133 391.767C0.999666 398.582 7.20298 403.431 14.0525 402.945C193.186 390.244 107.734 467.492 208.593 519.238C257.03 545.756 257.906 619.905 245.565 672.338C245.507 672.59 245.448 672.846 245.397 673.102C242.315 688.406 263.832 695.476 270.612 681.419C277.567 667.003 282.347 653.542 285.64 641.063C285.742 641.315 285.991 641.15 286.217 641.132C286.129 640.902 285.863 641.012 285.655 641.004C293.479 611.314 292.866 587.186 293.015 568.974C293.315 532.276 296.707 519.581 378.412 533.73C401.06 537.311 429.886 534.234 451.092 527.639C465.85 523.049 461.034 501.011 445.699 502.93ZM289.788 435.621C298.039 445.238 297.251 456.855 280.605 453.252C279.24 452.956 277.315 452.645 275.114 452.251C266.818 450.767 262.167 446.923 262.167 435.306C262.167 431.623 263.872 428.119 267.534 427.75C275.344 426.964 284.457 429.412 289.784 435.621H289.788ZM261.192 400.855C261.228 400.855 261.265 400.852 261.302 400.848C267.764 400.486 272.317 402.401 275.519 405.39C282.697 412.088 277.107 424.095 267.359 422.937C267.33 422.937 267.304 422.93 267.275 422.926C262.7 422.396 258.735 419.575 256.774 415.402C256.288 414.372 255.763 413.356 255.2 412.369C252.396 407.466 255.558 401.228 261.188 400.855H261.192ZM259.775 435.928C259.669 437.042 259.516 438.146 259.315 439.238C258.603 443.101 252.743 442.289 253.152 438.383C253.167 438.23 253.189 438.076 253.214 437.923C253.433 436.509 253.952 435.233 254.711 434.1C256.31 431.711 260.046 433.066 259.775 435.931V435.928ZM250.312 413.111C252.29 415.863 253.831 418.874 254.938 422.016C255.595 423.884 254.507 425.908 252.601 426.449C252.561 426.46 252.52 426.471 252.48 426.482C247.727 427.852 243.101 423.821 243.787 418.918C244.046 417.05 244.576 415.271 245.309 413.63C246.222 411.591 249.012 411.295 250.315 413.111H250.312ZM228.408 381.437C232.596 376.007 240.165 379.855 243.586 388.252C245.565 393.112 240.567 397.903 235.773 395.769C234.466 395.188 233.169 394.636 231.961 394.139C226.93 392.067 225.082 385.745 228.405 381.434L228.408 381.437ZM209.378 383.582C213.924 386.359 212.964 393.478 207.772 394.662C202.682 395.824 197.114 398.878 193.335 401.243C191.754 402.233 189.797 400.702 190.389 398.933C195.844 382.625 203.164 379.782 209.378 383.582ZM176.463 288.531C176.544 287.895 176.628 287.26 176.708 286.635C178.793 270.973 201.879 272.548 201.897 288.349C201.897 288.44 201.897 288.528 201.897 288.619C201.905 291.465 198.794 293.19 196.377 291.688C194.515 290.53 192.01 289.806 188.592 289.806C185.504 289.806 183.086 290.567 181.206 291.645C178.924 292.956 176.127 291.144 176.456 288.531H176.463ZM189.162 294.977C196.632 294.926 202.773 301.145 202.733 308.607C202.697 316.08 196.625 322.12 189.151 322.12C181.63 322.12 175.613 316.043 175.594 308.508C175.58 301.62 181.071 295.032 189.158 294.973L189.162 294.977ZM173.232 379.866C179.848 379.881 185.149 385.227 185.135 391.873C185.135 392.739 185.036 393.587 184.854 394.402C184.572 395.162 184.317 395.933 184.087 396.712C182.21 400.874 178.015 403.79 173.177 403.771C166.623 403.749 161.212 398.374 161.256 391.819C161.307 384.686 167.102 379.797 173.228 379.862L173.232 379.866ZM136.133 415.676C125.749 406.143 112.919 400.662 98.3358 395.484C88.401 391.957 92.2676 377.089 102.659 378.868C122.685 382.3 141.682 385.756 155.009 382.932C156.535 382.61 157.755 384.134 157.127 385.563C157.119 385.581 157.112 385.596 157.105 385.614C155.809 388.621 155.214 392.199 156.791 397.446C156.835 397.592 156.882 397.738 156.93 397.877C158.251 401.71 156.546 405.887 153.081 407.992C150.489 409.567 148.762 411.584 147.637 413.732C145.392 418.011 139.692 418.943 136.133 415.676ZM154.191 436.468C154.045 436.319 153.899 436.161 153.757 436.004C153.1 435.277 152.526 434.499 152.022 433.691C151.935 433.545 151.847 433.399 151.756 433.249C148.086 426.898 149.003 418.549 154.37 413.214C154.513 413.075 154.655 412.936 154.797 412.801C163.859 404.425 178.212 413.579 174.755 425.429C174.072 427.772 173.411 430.041 172.951 431.645C170.592 439.845 160.143 442.574 154.191 436.468ZM176.839 436.008C177.679 432.924 178.793 429.92 180.147 427.033C181.21 424.775 184.656 425.722 184.394 428.206C184.394 428.232 184.386 428.261 184.386 428.287C183.923 432.394 182.123 435.566 180.264 437.813C178.913 439.446 176.284 438.054 176.843 436.008H176.839ZM193.507 443.207C193.328 446.93 192.393 450.204 191.108 453.387C189.739 456.774 188.001 459.961 185.69 462.811C184.781 463.933 183.787 464.978 182.612 465.833C181.911 466.344 181.166 466.779 180.308 466.98C179.118 467.258 178.157 466.86 177.54 465.804C177.011 464.901 176.839 463.893 176.785 462.869C176.657 460.494 177.069 458.185 177.701 455.908C178.957 451.381 180.859 447.138 183.671 443.364C185.482 440.934 187.366 439.903 188.961 439.534C191.283 438.997 193.507 440.795 193.503 443.181V443.21L193.507 443.207ZM192.981 432.69C186.215 424.494 189.418 414.902 197.585 408.101C208.718 398.831 220.186 406.399 221.851 415.651C223.614 425.451 219.196 435.083 209.21 437.904C202.81 439.713 196.921 437.462 192.981 432.686V432.69ZM236.503 515.204C236.499 515.237 236.496 515.273 236.492 515.306C235.926 520.798 229.398 523.294 225.345 519.545C221.157 515.671 216.976 512.266 213.059 509.098C210.485 507.015 212.584 502.875 215.779 503.752C219.97 504.899 224.271 505.568 228.624 505.798C233.469 506.054 237.021 510.377 236.503 515.204ZM225.838 404.012C225.593 401.064 228.343 398.794 231.194 399.584C233.629 400.26 236.087 401.166 238.548 402.313C239.807 402.836 241.008 403.417 242.155 404.053C243.889 405.014 244.692 407.06 244.13 408.964C243.758 410.221 243.298 411.496 242.735 412.79C232.775 435.664 227.196 420.368 225.838 404.012ZM238.748 457.629C239.829 453.244 242.735 451.235 247.044 450.635C249.545 450.288 250.943 453.402 249.03 455.05C246.744 457.015 244.108 458.627 241.133 459.774C239.767 460.301 238.398 459.051 238.748 457.629ZM245.744 462.033C248.34 460.575 251.155 458.722 253.265 456.628C255.182 454.728 257.906 453.873 260.568 454.319C260.586 454.319 260.604 454.326 260.619 454.326C326.252 465.347 255.065 509.883 240.902 475.915C238.741 470.733 240.851 464.78 245.74 462.033H245.744ZM270.221 585.323C269.382 587.194 268.388 588.988 266.957 590.479C266.399 591.063 265.756 591.6 265.066 592.013C263.583 592.89 262.134 592.624 260.955 591.363C260.228 590.581 259.746 589.649 259.359 588.663C258.541 586.576 258.147 584.387 258.001 582.173C257.493 574.452 258.643 566.975 261.524 559.788C262.298 557.858 263.262 556.024 264.536 554.369C265.197 553.506 265.935 552.721 266.862 552.136C268.575 551.054 270.145 551.288 271.455 552.827C272.186 553.682 272.653 554.687 273.029 555.739C273.73 557.705 274.062 559.751 274.234 561.819C274.332 563.011 274.358 564.209 274.402 565.159C274.219 572.303 273.058 578.99 270.221 585.326V585.323ZM275.486 537.717C274.037 540.063 272.233 542.094 269.999 543.724C263.985 548.113 256.519 548.065 250.571 543.589C247.23 541.075 244.915 537.775 243.338 533.942C241.52 529.521 240.91 524.913 241.33 520.159C241.698 516.019 242.867 512.131 244.977 508.546C246.558 505.86 248.574 503.562 251.148 501.782C256.953 497.766 264.044 497.81 269.79 501.914C273.325 504.439 275.749 507.833 277.403 511.813C278.878 515.365 279.554 519.077 279.554 523.831C279.521 528.216 278.287 533.186 275.49 537.72L275.486 537.717ZM294.071 514.44C288.43 514.488 283.281 509.927 283.289 503.671C283.292 499.009 286.272 495.055 290.416 493.575C290.92 493.432 291.427 493.294 291.935 493.155C292.603 493.023 293.297 492.95 294.001 492.95C299.931 492.939 304.747 497.755 304.75 503.693C304.75 509.613 299.971 514.389 294.071 514.44ZM335.467 512.032C335.475 512.065 335.482 512.094 335.486 512.127C336.077 514.966 333.806 517.561 330.922 517.294C325.606 516.801 320.038 516.68 315.404 516.706C311.764 516.724 309.281 513.059 310.61 509.668C312.111 505.838 312.107 501.45 310.326 497.459C309.719 496.104 308.942 494.869 308.025 493.776C305.477 490.736 307.828 486.069 311.771 486.453C315.419 486.808 319.209 489.471 322.692 491.258C328.965 494.478 334.686 496.908 342.737 499.886C343.369 500.12 343.288 501.018 342.631 501.161C342.62 501.161 342.609 501.165 342.598 501.168C337.728 502.235 334.496 507.157 335.464 512.032H335.467ZM345.245 516.464C342.029 516.472 339.418 513.881 339.403 510.665C339.389 507.431 342.003 504.782 345.227 504.771C348.429 504.764 351.091 507.431 351.083 510.643C351.076 513.844 348.458 516.453 345.249 516.461L345.245 516.464ZM403.653 525.333C403.112 525.388 402.568 525.443 402.017 525.494C386.496 526.996 368.204 524.281 356.739 522.052C353.519 521.427 351.989 517.754 353.749 514.981C354.337 514.053 354.716 513.004 354.808 511.864C354.906 510.647 354.924 509.405 354.625 508.173C354.132 506.141 355.994 504.322 358.006 504.877C370.486 508.305 385.481 510.906 403.284 511.765C411.715 512.171 412.047 524.489 403.649 525.34L403.653 525.333Z" fill="#00A2FF"/>
<path d="M35.6 280H2.8V275.6C12.1333 275.067 19.2 272.533 24 268C29.0667 263.467 31.7333 257.067 32 248.8C32.5333 223.733 32.9333 205.2 33.2 193.2C33.4667 181.2 33.8667 163.067 34.4 138.8C33.8667 114.533 33.4667 96.5333 33.2 84.8C32.9333 72.8 32.5333 54.9333 32 31.2C31.7333 22.9333 29.0667 16.5333 24 12C19.2 7.46667 12.1333 4.93334 2.8 4.40001V0H35.6H175.2V62H170.8C170.533 51.0667 168.8 41.6 165.6 33.6C162.4 25.3333 156.8 18.6667 148.8 13.6C141.067 8.53333 130.4 5.86666 116.8 5.6L42.8 4.40001L40 139.2L42.4 248.8C42.6667 257.067 45.7333 263.467 51.6 268C57.7333 272.533 66.9333 275.067 79.2 275.6V280H38.8H35.6ZM138.8 176.8C138.8 167.733 138.267 160.8 137.2 156C136.133 151.2 133.6 147.6 129.6 145.2C125.6 142.533 119.6 141.2 111.6 141.2H37.2L37.6 135.2C61.6 135.733 85.6 136.267 109.6 136.8C121.6 137.067 129.467 134.533 133.2 129.2C136.933 123.6 138.8 114.267 138.8 101.2H143.2V176.8H138.8Z" fill="black"/>
<path d="M279.119 284C260.185 284 243.519 279.333 229.119 270C214.719 260.4 203.652 247.467 195.919 231.2C188.452 214.933 184.719 196.933 184.719 177.2C184.719 158 188.585 140.8 196.319 125.6C204.052 110.133 214.852 98 228.719 89.2C242.852 80.4 259.119 76 277.519 76C292.185 76 304.719 79.2 315.119 85.6C325.785 91.7333 334.052 99.3333 339.919 108.4C345.785 117.467 349.519 126.133 351.119 134.4L347.519 164L193.519 171.2V166.8L345.519 156.8L336.719 161.2C340.452 148.4 340.185 135.867 335.919 123.6C331.919 111.067 324.585 100.8 313.919 92.8C303.252 84.8 290.319 80.8 275.119 80.8C258.319 80.8 243.785 85.0667 231.519 93.6C219.519 101.867 210.319 113.067 203.919 127.2C197.519 141.067 194.319 156.4 194.319 173.2C194.319 191.6 197.652 208.667 204.319 224.4C211.252 239.867 221.252 252.267 234.319 261.6C247.652 270.933 263.252 275.6 281.119 275.6C299.785 275.6 315.785 269.733 329.119 258C342.452 246.267 351.519 232.4 356.319 216.4L360.719 217.6C357.785 228.267 352.985 238.667 346.319 248.8C339.919 258.933 330.985 267.333 319.519 274C308.319 280.667 294.852 284 279.119 284Z" fill="black"/>
<path d="M37.2 594H6V588.4C14.5333 587.333 21.3333 584.133 26.4 578.8C31.7333 573.2 34.5333 565.6 34.8 556C36.1333 532.533 37.0667 514.267 37.6 501.2C38.1333 488.133 38.9333 471.733 40 452C38.9333 432.267 38.1333 416.133 37.6 403.6C37.0667 391.067 36.2667 373.867 35.2 352C34.6667 342.4 31.7333 334.933 26.4 329.6C21.3333 324 14.5333 320.667 6 319.6V314H37.2H181.2V382.8H175.6C174.267 368.4 171.333 356.8 166.8 348C162.267 338.933 155.733 332.133 147.2 327.6C138.667 323.067 127.333 320.667 113.2 320.4L60 319.2L53.6 451.2L58.8 556C59.3333 565.333 62.6667 572.8 68.8 578.4C75.2 584 83.7333 587.333 94.4 588.4V594H56.4H37.2ZM147.2 491.6C146.667 484.4 145.067 478.133 142.4 472.8C140 467.467 136.533 463.333 132 460.4C127.733 457.2 122.8 455.6 117.2 455.6H45.6L46 442C73.2 444.933 93.6 446.933 107.2 448C118.4 448.8 127.6 446.133 134.8 440C142 433.867 146.133 424.667 147.2 412.4H152.8V491.6H147.2Z" fill="black"/>
<path d="M278.178 598C260.845 598 245.778 593.467 232.978 584.4C220.445 575.333 210.845 562.933 204.178 547.2C197.778 531.467 194.578 513.733 194.578 494C194.578 473.733 197.911 455.733 204.578 440C211.511 424.267 221.511 412 234.578 403.2C247.911 394.4 263.511 390 281.378 390C293.111 390 303.645 392.533 312.978 397.6C322.578 402.4 330.578 409.067 336.978 417.6C343.645 426.133 348.578 435.467 351.778 445.6L348.978 473.6L204.178 480V474.4L342.978 460L326.578 468.4C328.978 456.133 328.178 444.533 324.178 433.6C320.445 422.4 314.045 413.467 304.978 406.8C295.911 399.867 285.245 396.4 272.978 396.4C260.445 396.4 249.645 400.133 240.578 407.6C231.511 414.8 224.578 424.8 219.778 437.6C215.245 450.4 212.978 464.933 212.978 481.2C212.978 499.067 215.778 515.467 221.378 530.4C227.245 545.067 235.778 556.933 246.978 566C258.445 574.8 271.911 579.2 287.378 579.2C303.378 579.2 317.378 574.533 329.378 565.2C341.378 555.6 350.045 542.8 355.378 526.8L360.978 528.4C357.511 541.2 352.178 552.933 344.978 563.6C338.045 574 328.978 582.4 317.778 588.8C306.578 594.933 293.378 598 278.178 598Z" fill="black"/>
<path d="M24 918H0V909.2C6.66667 907.6 11.8667 903.867 15.6 898C19.3333 892.133 21.6 883.733 22.4 872.8C23.7333 849.6 24.9333 828.533 26 809.6C27.3333 790.4 28.1333 776.667 28.4 768.4C28.1333 760.667 27.4667 747.867 26.4 730C25.3333 711.867 24.1333 692.267 22.8 671.2C22 660.267 19.6 651.867 15.6 646C11.8667 640.133 6.66667 636.4 0 634.8V626H24L193.2 626.4V706.4H184.8C183.467 696 179.467 686.267 172.8 677.2C166.4 667.867 157.867 660.133 147.2 654C136.533 647.867 124.667 644 111.6 642.4L94.8 640.4L86.4 769.6L92 872.8C92.5333 883.733 95.2 892 100 897.6C104.8 903.2 112.133 907.067 122 909.2V918H90H24ZM144.8 826.4C143.467 817.6 140.933 809.733 137.2 802.8C133.733 795.867 129.333 790.4 124 786.4C118.933 782.4 113.6 780.4 108 780.4L84.4 780V765.2C90.5333 766.533 96.4 767.333 102 767.6C113.733 768.4 123.2 764.8 130.4 756.8C137.6 748.533 142.4 736.8 144.8 721.6H152.8V826.4H144.8Z" fill="black"/>
<path d="M291.888 924C272.688 924 256.421 919.2 243.087 909.6C229.754 899.733 219.621 886.4 212.688 869.6C206.021 852.8 202.688 833.733 202.688 812.4C202.688 792.933 205.754 774.933 211.887 758.4C218.021 741.6 227.754 728 241.087 717.6C254.688 707.2 271.621 702 291.888 702C305.488 702 317.488 704.4 327.888 709.2C338.554 714 347.487 720.8 354.688 729.6C361.887 738.4 367.087 748.667 370.288 760.4L363.888 798.8L234.288 803.6V791.2L330.688 776.8L313.888 780.4C317.354 767.067 318.421 755.6 317.087 746C315.754 736.133 312.688 728.667 307.888 723.6C303.354 718.533 298.021 716 291.888 716C284.688 716 278.688 719.467 273.888 726.4C269.354 733.067 266.021 742 263.888 753.2C262.021 764.133 261.087 776.133 261.087 789.2C261.087 803.867 262.688 818 265.888 831.6C269.088 844.933 274.688 856.267 282.688 865.6C290.688 874.667 301.621 879.2 315.487 879.2C327.487 879.2 338.288 875.467 347.888 868C357.488 860.533 364.688 850.133 369.488 836.8L377.888 838.8C376.021 854.267 371.754 868.4 365.087 881.2C358.421 894 348.954 904.4 336.688 912.4C324.421 920.133 309.488 924 291.888 924Z" fill="black"/>
</svg>
