<svg width="478" height="924" viewBox="0 0 478 924" fill="none" xmlns="http://www.w3.org/2000/svg">
    <path
        d="M35.6 280H2.8V275.6C12.1333 275.067 19.2 272.533 24 268C29.0667 263.467 31.7333 257.067 32 248.8C32.5333 223.733 32.9333 205.2 33.2 193.2C33.4667 181.2 33.8667 163.067 34.4 138.8C33.8667 114.533 33.4667 96.5333 33.2 84.8C32.9333 72.8 32.5333 54.9333 32 31.2C31.7333 22.9333 29.0667 16.5333 24 12C19.2 7.46667 12.1333 4.93334 2.8 4.40001V0H35.6H175.2V62H170.8C170.533 51.0667 168.8 41.6 165.6 33.6C162.4 25.3333 156.8 18.6667 148.8 13.6C141.067 8.53333 130.4 5.86666 116.8 5.6L42.8 4.40001L40 139.2L42.4 248.8C42.6667 257.067 45.7333 263.467 51.6 268C57.7333 272.533 66.9333 275.067 79.2 275.6V280H38.8H35.6ZM138.8 176.8C138.8 167.733 138.267 160.8 137.2 156C136.133 151.2 133.6 147.6 129.6 145.2C125.6 142.533 119.6 141.2 111.6 141.2H37.2L37.6 135.2C61.6 135.733 85.6 136.267 109.6 136.8C121.6 137.067 129.467 134.533 133.2 129.2C136.933 123.6 138.8 114.267 138.8 101.2H143.2V176.8H138.8Z"
        fill="#111" />
    <path
        d="M279.119 284C260.185 284 243.519 279.333 229.119 270C214.719 260.4 203.652 247.467 195.919 231.2C188.452 214.933 184.719 196.933 184.719 177.2C184.719 158 188.585 140.8 196.319 125.6C204.052 110.133 214.852 98 228.719 89.2C242.852 80.4 259.119 76 277.519 76C292.185 76 304.719 79.2 315.119 85.6C325.785 91.7333 334.052 99.3333 339.919 108.4C345.785 117.467 349.519 126.133 351.119 134.4L347.519 164L193.519 171.2V166.8L345.519 156.8L336.719 161.2C340.452 148.4 340.185 135.867 335.919 123.6C331.919 111.067 324.585 100.8 313.919 92.8C303.252 84.8 290.319 80.8 275.119 80.8C258.319 80.8 243.785 85.0667 231.519 93.6C219.519 101.867 210.319 113.067 203.919 127.2C197.519 141.067 194.319 156.4 194.319 173.2C194.319 191.6 197.652 208.667 204.319 224.4C211.252 239.867 221.252 252.267 234.319 261.6C247.652 270.933 263.252 275.6 281.119 275.6C299.785 275.6 315.785 269.733 329.119 258C342.452 246.267 351.519 232.4 356.319 216.4L360.719 217.6C357.785 228.267 352.985 238.667 346.319 248.8C339.919 258.933 330.985 267.333 319.519 274C308.319 280.667 294.852 284 279.119 284Z"
        fill="#111" />
    <path
        d="M37.2 594H6V588.4C14.5333 587.333 21.3333 584.133 26.4 578.8C31.7333 573.2 34.5333 565.6 34.8 556C36.1333 532.533 37.0667 514.267 37.6 501.2C38.1333 488.133 38.9333 471.733 40 452C38.9333 432.267 38.1333 416.133 37.6 403.6C37.0667 391.067 36.2667 373.867 35.2 352C34.6667 342.4 31.7333 334.933 26.4 329.6C21.3333 324 14.5333 320.667 6 319.6V314H37.2H181.2V382.8H175.6C174.267 368.4 171.333 356.8 166.8 348C162.267 338.933 155.733 332.133 147.2 327.6C138.667 323.067 127.333 320.667 113.2 320.4L60 319.2L53.6 451.2L58.8 556C59.3333 565.333 62.6667 572.8 68.8 578.4C75.2 584 83.7333 587.333 94.4 588.4V594H56.4H37.2ZM147.2 491.6C146.667 484.4 145.067 478.133 142.4 472.8C140 467.467 136.533 463.333 132 460.4C127.733 457.2 122.8 455.6 117.2 455.6H45.6L46 442C73.2 444.933 93.6 446.933 107.2 448C118.4 448.8 127.6 446.133 134.8 440C142 433.867 146.133 424.667 147.2 412.4H152.8V491.6H147.2Z"
        fill="#111" />
    <path
        d="M278.178 598C260.845 598 245.778 593.467 232.978 584.4C220.445 575.333 210.845 562.933 204.178 547.2C197.778 531.467 194.578 513.733 194.578 494C194.578 473.733 197.911 455.733 204.578 440C211.511 424.267 221.511 412 234.578 403.2C247.911 394.4 263.511 390 281.378 390C293.111 390 303.645 392.533 312.978 397.6C322.578 402.4 330.578 409.067 336.978 417.6C343.645 426.133 348.578 435.467 351.778 445.6L348.978 473.6L204.178 480V474.4L342.978 460L326.578 468.4C328.978 456.133 328.178 444.533 324.178 433.6C320.445 422.4 314.045 413.467 304.978 406.8C295.911 399.867 285.245 396.4 272.978 396.4C260.445 396.4 249.645 400.133 240.578 407.6C231.511 414.8 224.578 424.8 219.778 437.6C215.245 450.4 212.978 464.933 212.978 481.2C212.978 499.067 215.778 515.467 221.378 530.4C227.245 545.067 235.778 556.933 246.978 566C258.445 574.8 271.911 579.2 287.378 579.2C303.378 579.2 317.378 574.533 329.378 565.2C341.378 555.6 350.045 542.8 355.378 526.8L360.978 528.4C357.511 541.2 352.178 552.933 344.978 563.6C338.045 574 328.978 582.4 317.778 588.8C306.578 594.933 293.378 598 278.178 598Z"
        fill="#111" />
    <path
        d="M24 918H0V909.2C6.66667 907.6 11.8667 903.867 15.6 898C19.3333 892.133 21.6 883.733 22.4 872.8C23.7333 849.6 24.9333 828.533 26 809.6C27.3333 790.4 28.1333 776.667 28.4 768.4C28.1333 760.667 27.4667 747.867 26.4 730C25.3333 711.867 24.1333 692.267 22.8 671.2C22 660.267 19.6 651.867 15.6 646C11.8667 640.133 6.66667 636.4 0 634.8V626H24L193.2 626.4V706.4H184.8C183.467 696 179.467 686.267 172.8 677.2C166.4 667.867 157.867 660.133 147.2 654C136.533 647.867 124.667 644 111.6 642.4L94.8 640.4L86.4 769.6L92 872.8C92.5333 883.733 95.2 892 100 897.6C104.8 903.2 112.133 907.067 122 909.2V918H90H24ZM144.8 826.4C143.467 817.6 140.933 809.733 137.2 802.8C133.733 795.867 129.333 790.4 124 786.4C118.933 782.4 113.6 780.4 108 780.4L84.4 780V765.2C90.5333 766.533 96.4 767.333 102 767.6C113.733 768.4 123.2 764.8 130.4 756.8C137.6 748.533 142.4 736.8 144.8 721.6H152.8V826.4H144.8Z"
        fill="#111" />
    <path
        d="M291.888 924C272.688 924 256.421 919.2 243.087 909.6C229.754 899.733 219.621 886.4 212.688 869.6C206.021 852.8 202.688 833.733 202.688 812.4C202.688 792.933 205.754 774.933 211.887 758.4C218.021 741.6 227.754 728 241.087 717.6C254.687 707.2 271.621 702 291.888 702C305.488 702 317.488 704.4 327.888 709.2C338.554 714 347.487 720.8 354.688 729.6C361.887 738.4 367.087 748.667 370.288 760.4L363.888 798.8L234.288 803.6V791.2L330.688 776.8L313.888 780.4C317.354 767.067 318.421 755.6 317.087 746C315.754 736.133 312.688 728.667 307.888 723.6C303.354 718.533 298.021 716 291.888 716C284.688 716 278.688 719.467 273.888 726.4C269.354 733.067 266.021 742 263.888 753.2C262.021 764.133 261.087 776.133 261.087 789.2C261.087 803.867 262.688 818 265.888 831.6C269.088 844.933 274.688 856.267 282.688 865.6C290.688 874.667 301.621 879.2 315.487 879.2C327.487 879.2 338.288 875.467 347.888 868C357.488 860.533 364.688 850.133 369.488 836.8L377.888 838.8C376.021 854.267 371.754 868.4 365.087 881.2C358.421 894 348.954 904.4 336.688 912.4C324.421 920.133 309.488 924 291.888 924Z"
        fill="#111" />
</svg>