<svg width="520" height="467" viewBox="0 0 520 467" fill="none" xmlns="http://www.w3.org/2000/svg">
<path d="M161.841 43.5616C190.228 44.6622 215.258 35.6815 237.721 18.7106C241.209 16.0693 244.982 13.8021 248.536 11.2267C268.301 -3.03669 288.637 -3.41088 309.631 8.40927C314.501 11.1607 319.458 13.8021 324.57 16.0472C328.54 17.7862 332.84 18.7767 336.964 20.1854C340.913 21.5281 345.19 22.4306 348.656 24.5877C352.715 27.119 356.795 27.4492 361.182 27.163C373.072 26.3706 384.918 25.3141 396.808 24.7638C405.912 24.3456 415.169 24.3236 423.813 27.5592C428.266 29.2321 433.245 31.5653 436.097 35.1092C442.591 43.2094 450.949 44.4861 460.118 43.8257C470.056 43.0993 479.949 41.7346 489.887 40.8762C493.528 40.568 497.236 40.7001 500.855 41.0743C507.019 41.7346 510.442 44.442 511.122 50.4732C511.67 55.2497 511.275 60.3343 510.2 65.0228C509.279 69.0729 505.769 71.4721 501.711 72.9469C491.686 76.5568 481.244 77.4152 470.758 78.0095C458.166 78.7359 445.552 79 433.004 80.2327C417.67 81.7515 403.63 86.5059 393.32 99.1185C382.483 112.369 381.803 125.29 393.188 137.991C399.66 145.233 407.491 151.396 415.323 157.229C425.853 165.087 437.128 171.91 447.768 179.614C456.126 185.668 462.027 193.636 462.751 204.487C463.189 211.289 462.005 218.002 458.846 223.901C453.296 234.225 447.044 244.196 441.055 254.277C436.207 262.422 431.359 270.544 426.423 278.6C424.01 282.54 424.734 286.282 426.774 289.98C431.052 297.75 438.05 301.778 446.298 303.935C459.285 307.303 472.381 306.599 485.412 304.441C492.804 303.209 500.109 301.338 507.392 299.555C515.707 297.53 520.708 301.36 519.918 309.768C519.216 317.45 518.405 325.176 516.847 332.726C515.092 341.223 510.091 344.612 501.579 343.446C497.126 342.851 492.629 341.575 488.483 339.836C483.503 337.745 478.743 337.371 473.697 339.109C467.094 341.377 460.513 340.892 454.239 338.097C441.669 332.484 428.661 332.726 415.564 334.971C401.217 337.437 392.859 331.78 390.644 317.428C390.008 313.29 389.613 309.042 389.722 304.838C389.854 299.819 388.406 295.527 385.511 291.587C383.734 289.187 381.65 286.942 380.311 284.323C377.789 279.37 375.2 274.352 373.577 269.047C371.383 261.849 372.436 254.806 376.845 248.444C379.939 243.976 383.185 239.574 385.927 234.885C389.569 228.634 388.867 223.747 382.9 219.741C368.619 210.122 353.263 203.079 335.56 203.255C323.012 203.387 315.224 209.858 312.746 222.273C310.179 235.259 302.918 243.58 290.216 247.41C283.701 249.369 277.273 251.746 270.999 254.409C254.503 261.409 255.007 274.858 262.422 286.876C264.616 290.42 269.793 293.15 274.071 294.14C283.745 296.363 293.682 297.552 303.554 298.63C314.698 299.841 325.447 297.86 335.845 293.458C339.969 291.697 344.532 290.816 349.007 290.024C354.426 289.055 359.625 289.738 363.025 294.822C366.382 299.819 366.162 305.08 363.552 310.341C359.471 318.595 352.978 324.736 345.695 330.063C335.999 337.15 325.162 342.015 313.974 346.197C312.373 346.791 310.683 347.43 309.367 348.486C303.751 352.955 294.055 353.571 289.975 347.936C279.401 333.342 263.519 329.138 247.856 324.098C240.375 321.698 232.939 319.123 225.524 316.526C218.943 314.237 215.038 309.614 212.691 302.967C210.782 297.574 207.711 292.577 205.035 287.449C202.841 283.244 200.165 279.282 198.256 274.968C193.145 263.412 195.58 252.736 205.408 244.724C209.73 241.202 214.731 238.517 219.382 235.413C223.177 232.904 227.191 230.637 230.614 227.687C235.264 223.681 235.549 219.125 231.974 214.106C228.31 208.956 223.287 205.786 217.364 203.453C205.847 198.896 194.264 194.34 183.252 188.683C172.327 183.07 163.64 174.838 158.704 162.952C155.216 154.587 145.761 151.132 136.986 154.697C124.548 159.738 111.715 163.04 98.3774 164.118C71.022 166.297 44.544 163.304 19.9746 149.921C13.1303 146.201 7.16343 141.336 2.60053 134.887C-1.78686 128.68 -0.71195 124.894 6.50532 122.627C12.3186 120.8 18.3732 119.677 24.2962 118.114C32.4568 115.957 40.6612 113.514 47.0229 107.725C51.2129 103.917 54.8983 99.2726 57.8598 94.4301C61.6549 88.2448 61.5013 81.2892 58.6276 74.6418C54.5912 65.2869 56.3681 56.8345 61.9401 48.8003C63.2344 46.9293 64.6164 45.1024 65.9545 43.2534C71.5704 35.4393 71.3291 27.3391 64.9016 20.2074C62.8614 17.9402 62.6421 16.3554 65.0551 14.6385C79.007 4.77738 93.9461 0.617214 110.574 7.04456C118.362 10.0601 119.283 13.2738 114.457 20.0313C109.982 26.3266 111.013 31.4112 117.792 35.3513C124.899 39.4895 132.884 40.9202 140.869 41.9107C147.801 42.7692 154.821 42.9893 161.819 43.4955L161.841 43.5616ZM370.659 74.2896C370.33 74.5317 369.979 74.7518 369.65 74.9939C363.771 69.9533 358.396 64.5385 356.927 56.2622C356.356 52.9825 355.983 49.6367 355.128 46.4451C354.141 42.7912 350.85 40.7441 347.625 41.4925C344.291 42.2409 343.589 44.7722 343.282 47.8538C342.514 55.91 345.125 62.7115 350.28 68.7207C352.605 71.4281 354.974 74.0695 357.322 76.7549C346.989 72.4846 341.351 64.7366 340.233 53.7529C339.991 51.3096 340.518 48.7563 340.057 46.4011C339.728 44.7282 338.609 42.461 337.293 41.9547C335.955 41.4265 333.564 42.3069 332.248 43.3635C329.111 45.8728 329.111 49.5927 330.054 53.0705C331.151 57.1206 332.796 61.0167 334.244 64.9567C334.858 66.6516 335.538 68.3245 336.196 70.0194C335.823 70.1954 335.472 70.3495 335.099 70.5256C334.2 69.0729 333.454 67.51 332.379 66.2114C329.045 62.1613 325.952 57.825 322.091 54.3692C318.669 51.3096 314.171 50.6273 309.784 52.9164C306.603 54.5673 305.901 57.3628 307.832 60.4003C308.578 61.567 309.565 62.6015 310.486 63.658C321.169 75.8304 333.981 84.5689 349.753 88.7731C351.201 89.1693 352.934 90.534 353.417 91.8547C353.746 92.7572 352.32 94.5841 351.289 95.6187C347.581 99.3386 343.786 103.015 339.86 106.514C337.381 108.715 334.77 110.873 331.918 112.501C330.8 113.14 327.685 112.788 327.443 112.149C325.25 106.272 320.27 106.58 315.619 106.58C296.732 106.58 278.305 109.244 260.645 116.287C259.022 116.926 257.355 118.048 255.753 117.982C254.13 117.916 251.695 116.97 251.234 115.781C250.752 114.505 252.024 112.435 252.836 110.873C253.165 110.234 254.305 109.992 255.095 109.64C266.151 104.467 277.822 101.43 289.909 100.395C298.618 99.6468 307.393 99.5807 316.146 99.4046C319.787 99.3386 321.06 97.8198 321.937 94.2099C323.977 85.7575 321.542 79.1321 315.619 73.211C313.031 70.6137 310.793 67.6421 308.534 64.7366C307.349 63.2178 306.274 61.589 305.462 59.8501C303.313 55.3157 304.3 52.3442 308.972 50.6713C312.066 49.5707 315.444 49.3286 318.647 48.5362C320.818 48.0079 323.561 47.8098 324.899 46.379C330.142 40.7881 336.087 37.1122 343.874 36.3418C346.441 36.0997 348.174 33.9646 347.581 30.927C347.055 28.1756 345.366 26.4146 342.58 26.3926C339.618 26.3486 336.635 26.6128 333.717 27.031C327.531 27.9114 321.564 30.3987 315.093 28.7259C312.395 28.0215 311.1 29.7164 310.596 32.4898C310.047 35.5494 309.301 38.7191 307.876 41.4485C304.563 47.7878 297.894 50.3191 291.335 48.228C284.886 46.1589 281.836 41.4265 282.473 33.9206C282.67 31.5213 283.394 29.078 284.337 26.8549C286.97 20.6697 290.282 19.1729 296.885 20.6256C302.347 21.8363 307.788 23.201 313.316 23.9274C315.488 24.2135 317.857 22.9809 320.138 22.4306C318.844 20.5156 317.857 18.2484 316.168 16.7736C314.237 15.0567 311.824 13.714 309.411 12.7896C304.344 10.8746 299.254 8.76145 293.989 7.79295C280.125 5.26163 267.336 7.46278 257.706 18.9308C254.459 22.8048 251.344 26.9429 249.063 31.4333C245.728 37.9707 243.008 44.8603 240.354 51.7278C234.211 67.6421 224.208 80.3647 210.124 89.9177C205.189 93.2634 200.384 96.7853 195.514 100.241C182.33 109.596 173.621 122.142 168.356 137.418C164.408 148.886 166.316 159.144 173.204 168.763C183.712 183.466 207.448 193.768 229.736 187.12C231.184 186.68 232.895 187.12 234.474 187.164C233.729 188.419 233.136 189.806 232.215 190.906C228.859 194.89 228.727 198.126 231.864 202.242C234.211 205.302 236.778 208.229 238.84 211.487C245.991 222.779 243.885 229.228 231.579 234.533C225.634 237.086 219.623 239.508 213.854 242.435C198.322 250.293 199.551 269.113 208.391 277.697C210.278 279.524 212.099 281.439 213.876 283.398C216.64 286.458 217.671 290.024 216.969 294.118C215.302 303.979 217.912 309.702 227.126 313.356C233.575 315.909 240.463 317.78 247.308 318.749C262.334 320.84 274.992 326.893 285.215 338.273C287.869 341.245 291.16 343.732 294.472 345.999C297.565 348.134 301.229 348.354 304.366 346.087C306.055 344.854 308.336 342.521 308.117 341.002C307.832 339.087 305.484 337.194 303.62 335.896C302.106 334.839 300 334.641 297.083 333.739C299.452 332.638 300.702 332.11 301.887 331.494C306.823 328.874 311.89 326.475 316.65 323.525C320.402 321.192 323.385 317.912 324.614 313.422C325.754 309.284 324.109 305.476 320.116 304.111C318.23 303.473 316.014 303.495 313.974 303.627C300.79 304.551 287.694 304.089 274.817 300.854C267.797 299.093 261.172 296.297 255.907 291.036C245.245 280.383 246.474 263.786 258.583 255.004C261.698 252.736 265.252 250.998 268.104 248.466C271.307 245.605 274.202 242.303 276.681 238.825C278.305 236.558 279.862 235.347 282.648 235.502C285.785 235.678 288.944 235.81 292.059 235.502C303.751 234.423 311.166 225.178 308.929 213.6C307.678 207.129 305.221 200.855 302.808 194.692C296.732 179.174 302.611 162.82 317.44 155.292C323.363 152.276 329.462 149.635 335.538 146.905C354.974 138.189 370.023 124.168 382.198 107.043C393.232 91.5245 392.223 75.5002 379.96 61.721C375.705 56.9445 370.681 53.0925 364.363 51.4637C362.872 51.0895 360.393 51.1115 359.669 52.014C358.835 53.0265 359.055 55.3597 359.581 56.8785C360.239 58.8375 361.577 60.5764 362.718 62.3374C365.35 66.3434 368.071 70.3275 370.747 74.3116L370.659 74.2896ZM380.004 264.667C380.048 274.066 384.019 283.024 389.525 291.279C393.123 296.671 394.79 302.372 394.395 308.668C393.561 322.051 404.442 334.729 421.597 332.33C426.445 331.648 431.337 330.723 436.207 330.789C441.384 330.877 447 330.943 451.607 332.924C459.175 336.16 466.59 336.952 474.07 334.421C479.774 332.506 484.644 333.497 489.689 335.852C492.212 337.04 494.779 338.273 497.433 339.021C499.736 339.682 502.237 340.056 504.628 339.946C509.125 339.704 514.193 334.927 514.566 331.053C514.851 327.884 511.736 323.966 506.954 322.733C503.663 321.874 500.044 321.786 496.621 321.985C491.51 322.271 491.356 322.447 493.199 317.846C494.45 314.699 493.375 312.652 490.764 311.265C489.097 310.363 487.188 309.57 485.346 309.438C478.896 309.042 472.425 308.91 465.975 308.734C458.473 308.536 450.883 309.02 443.468 308.139C428.924 306.4 421.18 296.869 422.409 283.068C422.65 280.295 423.286 277.521 423.988 274.814C427.322 261.893 433.75 250.447 440.88 239.354C443.731 234.929 446.934 230.725 449.72 226.257C452.199 222.317 450.115 218.861 445.464 218.949C443.885 218.971 442.283 219.521 440.77 219.301C439.805 219.169 438.357 218.134 438.269 217.364C438.181 216.528 439.212 215.119 440.09 214.723C441.801 213.93 443.819 213.798 445.618 213.138C454.875 209.704 458.363 200.371 453.581 191.655C450.422 185.91 445.552 182.124 439.081 181.463C431.534 180.693 426.138 176.621 421.092 171.602C417.977 168.499 414.862 165.417 411.659 162.401C404.245 155.446 396.874 148.49 387.967 143.318C377.855 137.462 367.522 136.252 356.861 140.962C350.477 143.78 344.159 146.883 338.258 150.581C330.032 155.732 322.749 162.071 317.835 170.722C311.144 182.498 315.817 193.526 328.957 196.453C333.871 197.554 339.004 197.752 344.028 198.412C359.055 200.349 373.511 204.377 387.309 210.585C397.488 215.163 399.792 226.455 392.64 235.127C391.083 237.02 389.437 238.869 388.011 240.85C383.032 247.696 380.114 255.268 379.982 264.689L380.004 264.667ZM165.636 76.4467V75.7864C175.947 75.7864 186.301 76.1605 196.589 75.6983C208.72 75.126 218.46 69.8653 224.318 58.7275C227.279 53.0925 225.458 49.8569 219.206 49.6367C216.442 49.5267 213.568 49.6808 210.87 50.2751C203.565 51.9259 196.172 53.4667 189.065 55.7999C172.437 61.2588 156.159 61.2808 139.926 54.3912C137.403 53.3127 134.573 52.7844 131.831 52.4542C128.738 52.08 125.996 53.1806 123.912 55.6899C117.879 62.9317 121.74 74.1135 130.998 75.9184C133.213 76.3587 135.517 76.4027 137.798 76.4247C147.077 76.4687 156.357 76.4467 165.636 76.4467ZM486.092 69.8653C486.816 69.8653 488.044 69.9313 489.251 69.8653C496.424 69.381 499.012 66.4755 498.376 59.4098C498.113 56.4603 497.521 53.5108 496.819 50.6273C495.678 45.9168 494.23 44.42 489.382 45.4325C483.284 46.6872 477.185 48.5362 471.547 51.1335C456.652 58.0011 441.011 60.9286 424.778 61.1707C416.135 61.2808 407.755 59.652 399.66 56.5704C395.207 54.8755 391.675 55.954 389.393 59.2117C387.024 62.6015 387.309 65.9913 390.534 69.7332C393.671 73.3871 397.729 75.3241 402.578 74.9499C413.722 74.1135 424.887 73.189 436.031 72.2425C452.528 70.8338 468.959 67.7742 486.114 69.8873L486.092 69.8653ZM154.975 111.291C154.975 111.071 154.997 110.851 155.019 110.63C158.529 110.63 162.039 110.851 165.527 110.586C172.568 110.036 178.272 106.911 182.023 100.769C186.959 92.7132 184.875 87.5845 175.771 85.1192C174.586 84.811 173.38 84.4148 172.195 84.4148C159.077 84.4589 145.959 84.4369 132.862 84.723C130.142 84.789 127.356 85.7135 124.746 86.682C121.85 87.7606 120.687 90.1598 121.96 93.0653C125.426 101.033 129.967 108.121 139.356 109.728C144.511 110.608 149.776 110.763 154.975 111.269V111.291ZM96.3592 40.8322C94.9772 40.9422 93.5732 40.9642 92.1912 41.1403C81.464 42.5711 73.9615 49.5487 72.1408 59.74C70.4736 69.1829 76.3307 78.0976 85.7636 79.3962C94.2094 80.5628 102.041 78.2957 108.71 72.7268C115.137 67.378 117.309 59.2117 114.369 51.9259C111.583 45.0143 104.257 40.458 96.3811 40.8322H96.3592ZM398.19 46.7532C398.409 52.8944 402.775 55.822 407.557 53.885C415.893 50.5172 421.685 44.31 425.48 36.2758C426.226 34.713 426.708 31.8295 425.875 30.993C424.712 29.8044 422.058 29.3202 420.259 29.6723C412.844 31.1031 406.46 34.757 401.525 40.48C399.792 42.505 398.958 45.3005 398.212 46.7752L398.19 46.7532ZM400.954 30.3327C397.049 31.1471 393.452 31.4112 390.249 32.6439C385.927 34.2948 381.496 36.1657 377.811 38.8951C373.928 41.7566 373.73 47.3475 376.385 50.6493C378.732 53.5548 382.483 54.0831 386.651 50.5832C392.377 45.7847 397.466 40.1938 402.687 34.823C403.411 34.0966 403.982 32.4458 403.652 31.6534C403.301 30.861 401.722 30.6408 400.976 30.2887L400.954 30.3327ZM351.837 311.617C357.519 311.573 360.985 309.152 362.213 305.432C364.451 298.718 357.914 291.477 350.236 292.137C345.366 292.555 338.609 297.904 337.688 302.769C337.381 304.353 338.565 307.369 339.816 307.897C344.115 309.724 348.744 310.715 351.837 311.617ZM293.902 28.3296C290.107 28.968 286.904 29.4963 285.127 33.0621C283.526 36.2538 284.82 38.9392 286.75 41.3164C289.909 45.1684 296.885 46.379 301.251 44.0458C306.055 41.4925 307.042 35.6595 302.742 32.3357C300.242 30.3987 296.863 29.6283 293.902 28.3517V28.3296ZM326.105 91.1724C326.039 95.3765 330.69 101.21 334.704 101.958C337.907 102.552 341.11 99.8669 342.821 95.2005C344.115 91.6566 343.479 89.8737 339.947 88.7511C336.986 87.8266 333.893 87.1223 330.8 86.8581C328.058 86.616 326.149 88.0467 326.105 91.1724ZM383.865 31.6974C375.485 26.8109 362.74 33.8105 362.828 42.483C362.85 45.8067 365.701 46.6432 368.202 47.3255C370.55 47.9639 371.186 46.6432 372.019 44.398C373.05 41.6246 375.244 39.1813 377.306 36.9361C379.039 35.0431 381.321 33.6784 383.865 31.6754V31.6974ZM331.589 317.186C331.743 321.346 336.81 326.299 340.54 325.925C343.457 325.638 346.55 321.61 346.441 318.221C346.309 314.369 342.075 311.111 337.469 311.331C333.695 311.507 331.436 313.752 331.589 317.164V317.186ZM68.6747 63.636H68.3457C68.3457 60.9947 68.7405 58.2652 68.1702 55.7559C67.885 54.5233 65.9326 53.0925 64.5506 52.8944C63.6292 52.7624 61.8084 54.4132 61.4355 55.6018C59.6367 61.1928 60.7116 66.7396 62.5543 72.1104C62.9053 73.1009 64.6383 74.3336 65.5816 74.2235C66.5468 74.1135 67.885 72.5727 68.1044 71.4721C68.6089 68.9188 68.5431 66.2334 68.6967 63.614L68.6747 63.636ZM405.254 77.6353C405.188 77.4592 405.122 77.2611 405.034 77.085C402.161 78.1416 398.914 78.6699 396.589 80.4308C395.36 81.3553 395.733 84.4148 395.382 86.5059C397.137 86.616 399.068 87.2763 400.581 86.7261C403.17 85.8016 405.583 84.2828 407.842 82.6759C408.983 81.8615 409.597 80.3427 410.475 79.1321C409.093 78.6258 407.689 78.1196 406.285 77.6573C405.978 77.5473 405.583 77.6573 405.232 77.6573L405.254 77.6353ZM367.105 30.2226C366.316 29.5843 365.68 28.6818 364.912 28.5277C361.468 27.8234 355.303 32.0716 355.216 35.6375C355.172 37.3984 356.663 39.3134 357.782 40.9422C358.133 41.4265 360.173 41.5365 360.437 41.1403C362.718 37.7065 364.78 34.1187 367.105 30.2226ZM308.621 334.003C308.621 337.877 311.736 342.059 314.588 342.037C317.089 342.037 319.151 339.814 319.085 337.305C318.976 333.893 315.729 330.503 312.482 330.371C309.916 330.261 308.534 331.339 308.621 334.025V334.003Z" fill="#4141FF"/>
<path d="M88.8 275.2C82.6667 275.2 77.2667 274.067 72.6 271.8C67.9333 269.4 64.2667 266.133 61.6 262C59.0667 257.733 57.8 253.067 57.8 248C57.8 240.667 60.4667 234.2 65.8 228.6C71.2667 223 79.9333 218.6 91.8 215.4L122 207.2C129.733 205.2 135.8 202.933 140.2 200.4C144.6 197.733 147.867 194.467 150 190.6C152.267 186.6 153.4 181.733 153.4 176C153.4 169.333 151.6 163.667 148 159C144.4 154.2 139.133 150.533 132.2 148C125.4 145.467 117.333 144.2 108 144.2C92.4 144.2 79 147.333 67.8 153.6C56.6 159.733 48.0667 168.267 42.2 179.2C36.4667 190.133 33.6 202.467 33.6 216.2C33.6 225.8 34.8 235.467 37.2 245.2C39.6 254.933 43.1333 264.2 47.8 273H23.8C16.4667 256.6 12.8 239.933 12.8 223C12.8 206.467 16.8667 191.667 25 178.6C33.1333 165.4 44.7333 155.067 59.8 147.6C75 140 92.8667 136.2 113.4 136.2C131.933 136.2 145.733 139.533 154.8 146.2C164 152.867 168.6 162.2 168.6 174.2C168.6 181.4 167.067 187.333 164 192C160.933 196.533 156.467 200.267 150.6 203.2C144.733 206.133 136.333 209.067 125.4 212L103.8 217.8C95.9333 219.933 90.0667 223.2 86.2 227.6C82.3333 232 80.4 236.867 80.4 242.2C80.4 245.533 81.2 248.8 82.8 252C84.5333 255.067 86.9333 257.533 90 259.4C93.0667 261.267 96.4667 262.2 100.2 262.2C105.133 262.2 109.333 260.933 112.8 258.4C116.4 255.733 118.933 252.4 120.4 248.4C121.867 244.4 122.333 240.533 121.8 236.8L117.2 211.6L113.2 199.4C111.333 193.8 108.667 189.933 105.2 187.8C101.867 185.533 97 184.4 90.6 184.4C87.2667 184.4 83.6 184.6 79.6 185L79 181.2L127.4 168.8L132.4 205.6L146.8 253.4C148.267 258.2 150.667 261.933 154 264.6C157.333 267.133 161.333 268.733 166 269.4V273H150.6H128.8L125.8 253.6C124.333 258.133 121.6 262.067 117.6 265.4C113.6 268.6 109.067 271.067 104 272.8C98.9333 274.4 93.8667 275.2 88.8 275.2ZM234.645 275.6C227.979 275.6 221.245 274.733 214.445 273C207.779 271.267 201.512 268.667 195.645 265.2V233.8H199.445C200.112 240.867 202.045 247.133 205.245 252.6C208.579 257.933 212.912 262.133 218.245 265.2C223.712 268.133 229.979 269.6 237.045 269.6C244.112 269.6 249.645 268.067 253.645 265C257.779 261.933 259.845 257.733 259.845 252.4C259.845 248.4 258.512 244.933 255.845 242C253.312 239.067 250.112 236.667 246.245 234.8C242.512 232.933 237.379 230.8 230.845 228.4C223.112 225.467 216.779 222.733 211.845 220.2C206.912 217.667 202.645 214.267 199.045 210C195.579 205.733 193.712 200.467 193.445 194.2L210.645 173.4C206.645 170.733 203.579 167.8 201.445 164.6C199.312 161.267 198.245 157.4 198.245 153C198.245 147.267 199.979 142.467 203.445 138.6C207.045 134.6 211.779 131.667 217.645 129.8C223.645 127.8 230.045 126.8 236.845 126.8C243.379 126.8 249.579 127.6 255.445 129.2C261.445 130.8 266.579 133.2 270.845 136.4V163H267.045C265.579 153.667 262.112 146.267 256.645 140.8C251.179 135.333 243.979 132.6 235.045 132.6C229.045 132.6 224.445 133.8 221.245 136.2C218.179 138.6 216.645 142 216.645 146.4C216.645 149.733 217.712 152.6 219.845 155C222.112 157.267 224.845 159.2 228.045 160.8C231.245 162.267 235.712 164.133 241.445 166.4C249.445 169.333 255.979 172.2 261.045 175C266.112 177.667 270.379 181.533 273.845 186.6C277.445 191.533 279.245 197.933 279.245 205.8L268.845 225.8C271.779 228.333 274.045 231.2 275.645 234.4C277.245 237.467 278.045 241 278.045 245C278.045 255.8 274.045 263.6 266.045 268.4C258.045 273.2 247.579 275.6 234.645 275.6ZM263.445 222.2C264.645 220.6 265.512 218.933 266.045 217.2C266.712 215.333 267.045 213.533 267.045 211.8C267.045 207.267 265.579 203.4 262.645 200.2C259.845 196.867 256.245 194.133 251.845 192C247.445 189.733 241.579 187.2 234.245 184.4C225.579 181.067 219.245 178.333 215.245 176.2C213.512 177.533 212.245 179.2 211.445 181.2C210.779 183.067 210.445 185 210.445 187C210.445 191.133 211.779 194.733 214.445 197.8C217.245 200.733 220.645 203.2 224.645 205.2C228.779 207.067 234.379 209.333 241.445 212C245.979 213.733 250.045 215.4 253.645 217C257.379 218.6 260.645 220.333 263.445 222.2ZM297.606 129.4H325.206L313.206 233.6H309.406L297.606 129.4ZM311.406 275.4C307.54 275.4 304.206 274.067 301.406 271.4C298.74 268.733 297.406 265.4 297.406 261.4C297.406 257.667 298.74 254.467 301.406 251.8C304.206 249.133 307.54 247.8 311.406 247.8C315.14 247.8 318.34 249.133 321.006 251.8C323.806 254.467 325.206 257.667 325.206 261.4C325.206 265.4 323.806 268.733 321.006 271.4C318.34 274.067 315.14 275.4 311.406 275.4ZM92 456H77.8V452.4C81.9333 451.733 85.2 450.067 87.6 447.4C90 444.6 91.4 440.733 91.8 435.8C93.2667 418.733 94 409.6 94 408.4C93.8667 406.133 93.3333 402.133 92.4 396.4C91.6 390.667 90.7333 385.667 89.8 381.4C88.6 375.133 86.1333 370.467 82.4 367.4C78.6667 364.333 74.2667 362.8 69.2 362.8C64 362.8 58.9333 364.467 54 367.8C49.2 371 44.8 375.467 40.8 381.2L40.2 374C44.0667 369.333 48 365.333 52 362C56 358.533 60.4667 355.8 65.4 353.8C70.4667 351.667 75.8667 350.6 81.6 350.6C89.2 350.6 95.5333 352.2 100.6 355.4C105.667 358.467 109.333 362.667 111.6 368C114 373.333 114.8 379.333 114 386C113.733 389.733 113.4 393.467 113 397.2C112.733 400.933 112.533 404.667 112.4 408.4C112.533 413.733 113.133 422.867 114.2 435.8C114.6 440.733 116.133 444.6 118.8 447.4C121.6 450.067 125.2 451.733 129.6 452.4V456H114H92ZM22.6 456H7V452.4C11.4 451.733 14.8667 450.067 17.4 447.4C20.0667 444.6 21.6 440.667 22 435.6C22.5333 430.933 22.9333 426.333 23.2 421.8C23.6 417.4 23.9333 412.933 24.2 408.4C24.2 406.4 23.9333 403 23.4 398.2C22.8667 390.467 22.2667 382.867 21.6 375.4C21.2 370.333 19.5333 366.667 16.6 364.4C13.8 362.133 9.86667 361.133 4.8 361.4L4 358L21.8 354.2L46 349.2L45.4 370.4L45 372.8C44.7333 377.467 44.4667 380.933 44.2 383.2C44.0667 385.333 43.8667 388.667 43.6 393.2L42.6 408.4C42.8667 414.267 43.5333 423.4 44.6 435.8C45.1333 440.733 46.6 444.6 49 447.4C51.4 450.067 54.6667 451.733 58.8 452.4V456H44.6H22.6ZM36.8 310.4L39.6 307.8L66.6 325.2L93.2 307.8L96 310.4L68.4 343H64.2L36.8 310.4ZM150.413 316.6V312.4H239.413L246.213 351L242.613 351.6C240.746 345.867 238.413 341.4 235.612 338.2C232.946 335 229.613 332.8 225.613 331.6C221.746 330.267 216.813 329.6 210.813 329.6H160.013L162.212 322.4L260.413 457.8H233.812L150.413 316.6ZM189.413 458.6C179.279 458.6 170.213 456.6 162.212 452.6C154.213 448.6 147.946 442.933 143.413 435.6C139.013 428.267 136.813 419.933 136.813 410.6C136.813 401.667 138.946 393.6 143.213 386.4C147.613 379.067 153.079 373 159.613 368.2C166.146 363.267 172.813 359.667 179.613 357.4L181.813 361.4C174.079 365.133 168.213 370.267 164.213 376.8C160.346 383.333 158.413 391.067 158.413 400C158.413 409.333 160.413 417.467 164.413 424.4C168.413 431.333 173.813 436.667 180.613 440.4C187.546 444.133 195.079 446 203.213 446C213.079 446 221.813 444 229.413 440C237.013 436 242.879 430.667 247.013 424C251.146 417.2 253.213 409.667 253.213 401.4C253.213 397.667 252.279 393.867 250.412 390C248.546 386.133 245.413 382.867 241.013 380.2C236.746 377.533 231.146 376.2 224.213 376.2L224.013 372.4L263.013 370.8C266.479 385.733 265.279 400 259.413 413.6C253.546 427.2 244.346 438.133 231.813 446.4C219.279 454.533 205.146 458.6 189.413 458.6Z" fill="#EEEEEE"/>
</svg>
