<svg width="924" height="821" viewBox="0 0 924 821" fill="none" xmlns="http://www.w3.org/2000/svg">
<path d="M861.19 310.82C905.4 288.52 935.78 245.18 917.73 193.2C913.2 179.84 906.73 172.39 897.88 163.65C891.09 156.96 890.8 146.17 897.14 139.05C905.25 129.93 909.91 117.68 909.07 104.34C907.54 80.05 888.26 61.04 863.95 59.83C851.44 59.21 839.93 63.41 831.11 70.75C821.59 78.66 809 81.83 796.98 78.87C795.86 78.59 794.95 78.36 794.37 78.17C777.16 72.84 761.26 64.03 747.47 52.43C738.67 45.02 727.4 36.59 710.9 26.53C676.25 5.42 588.94 -26.26 503.88 39.02C503.93 39.11 503.94 39.23 503.84 39.33C502.85 40.32 501.67 41.17 500.4 41.76C500.39 41.76 500.37 41.76 500.36 41.77C480.87 57.36 461.53 78.13 443.02 105.38C442.96 105.46 442.91 105.55 442.85 105.63C438.54 112.22 429.02 112.63 424.05 106.52L394.86 70.65C389.64 64.24 379.34 66.61 377.45 74.66L366.63 120.77C364.65 129.19 354.73 132.84 347.75 127.73C347.67 127.67 347.59 127.62 347.51 127.56C300.23 93.54 255.63 85.25 219.35 94.18C219.41 94.14 219.48 94.09 219.54 94.05C218.52 94.25 217.5 94.49 216.51 94.81C215.54 95.12 214.57 95.56 213.56 95.71C213.52 95.74 213.47 95.77 213.43 95.81C180.45 105.9 155 130.59 141.7 162.96C133.94 181.86 99.55 198.81 41.62 255.65C-33.67 329.52 2.32 423.16 77.34 462.03C119.36 483.8 187.16 485.51 185.7 517.49C183.89 557.03 197.66 580.36 210.77 604.84C213.55 610.03 209.13 616.12 203.34 615.04C203.22 615.02 203.1 614.99 202.98 614.97C195.73 613.61 188.44 617.17 185.1 623.75C184.68 624.57 184.26 625.41 183.84 626.24C179.04 635.85 174.06 645.52 169.62 655.22C169.58 655.17 169.54 655.12 169.5 655.07C169.32 655.49 169.14 655.91 168.94 656.32C168.8 656.62 168.61 656.92 168.41 657.22C168.47 657.3 168.54 657.38 168.6 657.46C156.05 685.46 156.83 710.86 163.08 742.21C177.83 816.16 261.59 830.58 307.79 813.97C328.72 806.75 374.25 790.82 377 789.41C401.53 776.78 422.18 755.73 435.9 739.17C445.65 727.41 466.1 718.39 481.34 719.46C505.48 721.16 514.53 733.26 520.74 737.49C567.45 769.28 585.29 718.27 581.34 702.3C577.39 686.31 564.27 678.93 568.12 671.01C570.06 667.01 575.05 665.64 578.93 667.82C586.26 671.94 610.13 688.05 639.01 693.02C646.89 694.38 654.54 696.69 661.83 699.83C669.49 703.13 677.65 696.6 676.24 688.38C675.72 685.32 675.4 682.17 675.4 679.05C675.4 648.87 701.52 624.41 733.74 624.41C765.96 624.41 792.08 648.87 792.08 679.05C792.08 694.8 784.96 709 773.57 718.97C769.66 722.4 774.46 728.46 778.62 725.33C779.29 724.82 779.95 724.29 780.59 723.74C794.82 711.42 802.94 698.57 805.1 679.81C806.17 671.25 802.98 658.5 798.54 645.85C787.91 615.57 818.62 587.22 848.03 600.07C853.19 602.32 858.14 604.85 862.75 607.41C870.6 610.92 873.63 605.12 876.1 599.12C883.06 579.71 903.6 460.02 792.47 432.77C785.77 431.13 741.08 422.21 739.45 401.08C737.19 371.8 835.41 326.08 861.2 310.81L861.19 310.82ZM875.35 280.85C865.49 287.73 854.66 293.72 843.99 298.92L843.83 299C832.25 304.64 818.97 305.78 806.62 302.09C774.07 292.36 744.63 287.68 718.52 286.62C709.45 286.25 706.32 281.3 713.49 275C713.49 275 779.76 226.33 794.93 221.05C801.13 218.89 808.1 217.52 814.46 218.99C823.42 221.06 831.87 224.48 840.07 228.57C852.66 234.85 864.37 242.52 875.62 250.92C875.69 250.97 875.75 251.02 875.82 251.07C886.31 258.91 886.08 273.37 875.34 280.86L875.35 280.85ZM845.61 170.63C855.19 166.53 865.46 164.74 878.03 167.21C886.67 168.91 893.13 171.7 898.17 176.24C901.25 179.01 898.31 184.03 894.38 182.75C880.3 178.19 861.03 177.7 847.29 178.09C843.02 178.21 841.69 172.31 845.62 170.62L845.61 170.63ZM806.17 125.21C806.72 120.13 813.83 119.28 815.49 124.11C817.85 130.99 822.02 136.74 827.14 141.36C831.33 145.15 828.98 152.11 823.37 152.75C823.3 152.75 823.23 152.77 823.17 152.77C815.25 153.68 809.46 146.27 807.29 139.06C805.98 134.38 805.69 129.74 806.18 125.2L806.17 125.21ZM800.44 204.03C801.81 202.91 803.18 201.81 804.52 200.72C816.54 191.01 831.37 185.35 846.81 184.78C847.1 184.77 847.38 184.76 847.66 184.75C857.05 184.51 866.41 184.89 875.72 186.23C882.38 187.19 888.88 188.56 895.16 190.62C905.24 193.92 912.62 202.74 914.09 213.24C914.09 213.3 914.11 213.35 914.11 213.41C914.15 213.77 914.19 214.13 914.22 214.49C916.19 237.29 889.66 251.35 871.51 237.4C841.89 214.63 818.82 210.61 803.62 211.91C799.25 212.28 797.03 206.79 800.43 204.02L800.44 204.03ZM739.08 110.34C747.62 110.18 754.99 117.16 755.42 125.69C755.95 136.09 757.15 151.63 759.91 167.32C761.57 176.76 775.39 176.02 776.04 166.46C777.11 150.82 779.49 134.7 782.93 122.31C784.25 117.56 791.38 119.35 790.34 124.17C786.98 139.76 784.92 155.45 795.01 170.83C795.08 170.93 795.15 171.03 795.22 171.14C803.14 182.82 797.93 194.89 786.74 203.49C758.27 225.38 727.21 250.33 703.47 265.09C672.63 284.26 647.76 300.14 623.16 300.14C603.56 300.14 593.46 303.48 593.69 283.88C593.69 283.71 593.69 283.55 593.69 283.38C593.84 273.68 593.22 262.76 590.59 247.28C584.37 210.58 572.67 197.59 575.85 171.42C579.67 140.01 595.57 125.55 623.6 121.81C636.34 120.11 650.99 112.56 659.9 108.65C669.94 104.25 681.02 112.39 679.66 123.27C678.99 128.63 678.65 135.04 679.01 142.47C679.48 152.29 683.44 161.49 689.61 169.28C693.18 173.78 700.39 170.17 698.83 164.64C697.04 158.32 696.67 151.39 698.1 144.24C701.9 125.13 718.62 111.18 738.09 110.38C738.41 110.37 738.74 110.36 739.06 110.35L739.08 110.34ZM416.95 565.33C419.65 556.25 427.49 548.77 446.24 549.33C477.8 550.27 517.3 530.28 534.6 526.78C567.51 520.12 575.19 525.33 575.87 533C575.87 533.05 575.87 533.1 575.88 533.15C578.82 567.9 537.86 591.09 505.03 597.86C487.14 601.55 458.1 599.59 439.03 597.62C423.28 596 412.44 580.52 416.96 565.34L416.95 565.33ZM389.29 517.22C386.85 514.01 384.51 510.99 382.66 508.74C374.53 498.84 379.96 484.29 392.74 485.22C392.85 485.22 392.95 485.24 393.05 485.24C437.35 489.15 478.03 479.99 515.27 455C533.77 442.58 555.33 465.52 541.9 483.31C533.59 494.31 524.28 504.33 513.69 512.86C494.05 528.67 470.81 534.85 471.1 534.86C461.8 537.71 449.52 539.83 436.61 540.15C418.08 540.6 400.5 531.98 389.29 517.22ZM558.18 515.06C554.21 515.63 550.11 516.2 547.72 516.51C545.1 516.85 539.45 517.5 533.92 518.12C529.89 518.57 527.67 513.57 530.71 510.88C542.52 500.44 549.4 494.29 561.24 504.72C561.27 504.75 561.3 504.77 561.33 504.8C565.09 508.13 563.16 514.35 558.19 515.06H558.18ZM415.03 471.82C389.87 471.82 367.82 469.96 347.32 442.94C336.15 428.21 333.95 406.67 340.42 390.34C346.9 374.36 367.86 379.96 382.42 383.92C390.07 386 397.54 387.52 404.82 388.55C404.82 388.55 404.83 388.57 404.84 388.57C405.98 388.69 407.12 388.83 408.26 388.99C475.6 397.15 525.97 363.43 552.46 346.8C552.48 346.78 552.5 346.75 552.53 346.73C553.74 345.99 554.8 345.02 556.09 344.41C556.17 344.37 556.25 344.37 556.31 344.4C565.12 339 570.69 336.3 572.65 339.21C578.71 348.19 567.03 376.74 556.5 394.43C528.37 444.56 470.83 469.44 415.02 471.8L415.03 471.82ZM254.11 489.47C265.22 475.64 284.25 462.48 315.75 461.67C316.24 461.66 316.73 461.65 317.22 461.65C328.39 461.7 328.68 478.32 317.53 479.03C292.17 480.64 274.27 489 262.11 497.92C256.55 502 249.78 494.83 254.1 489.46L254.11 489.47ZM242.77 487.22C230.22 500.62 227.17 517.35 222.57 534.07C221 539.78 212.84 539.56 211.51 533.79C208.91 522.51 210.71 509.19 213.35 498.59C216.03 489.28 220.82 480.94 228.96 474.56C237.1 468.19 247.34 466.33 258.39 464.4C263.26 463.55 266.01 469.81 262.05 472.77C255.01 478.03 246.16 484.01 242.77 487.22ZM316.03 248.36C314.81 246.38 314.33 243.93 314.92 241.28C314.96 241.1 315 240.93 315.04 240.75C315.48 238.84 316.48 237.11 317.89 235.75C326.1 227.79 336.53 222.41 347.71 219.56C352.85 218.25 356.15 224.87 352.01 228.19C342.45 235.86 333.01 244.67 328.14 249.32C323.97 253.31 319.06 253.29 316.03 248.37V248.36ZM332.52 316.29H332.6C361.29 316.79 367.09 281.25 348.83 268.17C342.29 263.48 341.88 253.87 347.91 248.54C351.59 245.29 355.35 242.04 359.25 238.95C371.79 229.04 388.91 227.22 403.12 234.55C408.52 237.34 413.44 240.86 417.62 245.12C424.36 251.99 422.78 263.49 414.47 268.33C392.5 281.13 382.33 303.52 381.25 323.17C381.1 325.82 382.77 327.68 384.82 328.32C387.72 329.23 389.67 331.92 389.36 334.94C388.66 341.65 388.29 351.1 390.21 359.33C390.22 359.38 390.24 359.44 390.25 359.49C391.85 366.29 385.21 372.09 378.68 369.59C360.15 362.5 341.09 349.33 328.29 323.1C326.77 319.98 329.03 316.33 332.51 316.27L332.52 316.29ZM451.88 293.34C491.53 292.49 505.27 324.87 506.67 327.36C509.31 332.05 516.47 329.91 516.1 324.54C513.08 280.61 466.76 256.31 487.79 239.57C496.55 232.6 509.15 233.16 517.51 240.6C523.19 245.66 528.37 251.29 532.95 257.4C538.13 264.32 539.78 273.21 537.61 281.58C534.93 291.89 537.67 303.87 545.84 310.72C551.02 315.06 551.65 322.82 547.3 327.98C540.34 336.25 531.71 343.45 521.45 349.85C497.91 364.07 474.64 376.39 445.31 379.08C427.55 380.71 410.39 371.24 402.98 355.01C397.25 342.48 396.95 325.53 414.41 305.09C424.74 292.99 436.61 293.66 451.88 293.33V293.34ZM435.41 215.61H435.53C440.13 215.35 447.52 216.02 454.25 216.87C461.03 217.72 464.66 225.24 461.19 231.13C461.16 231.18 461.14 231.22 461.11 231.27C454.06 243.29 438.16 245.08 433.01 232.13C432.09 229.82 431.05 227.64 429.89 225.6C427.45 221.28 430.45 215.9 435.41 215.62V215.61ZM535.13 222.6C545.62 224.22 556.43 228.67 565.94 235.26C571.76 239.29 572.95 247.91 567.15 253.51C565.59 255.02 563.56 255.91 561.42 256.27C561.29 256.29 561.15 256.32 561.01 256.35C552.59 258.12 546.29 252.19 541.06 245.36C538.26 241.7 534.02 237.09 529.9 232.83C523.07 225.78 525.42 221.1 535.12 222.6H535.13ZM524.69 140.3C521.44 135.13 520.38 128.89 521.44 122.88C524.97 103 552.92 81.21 558.54 78.58C564.16 75.95 570.58 76.55 575.82 78.53C581.06 80.51 592.97 90.67 602.71 99.14C607.65 103.43 606.15 111.44 600.01 113.69C591.92 116.66 583.8 120.64 575.95 127.88C555.14 147.09 535.64 157.71 524.68 140.29L524.69 140.3ZM606.69 61.05C628.37 57.89 649.42 61.29 650.66 77.5C651.77 91.88 643.75 97.55 631.95 102C627.33 103.74 622.12 102.74 618.48 99.4C612.75 94.14 606.8 89.12 600.64 84.36C591.55 77.31 595.3 62.71 606.68 61.05H606.69ZM555.86 21.78C619.45 -2.62 682.62 17.55 719.94 49.1C720.05 49.19 720.16 49.29 720.27 49.38C735.25 62.07 729 86.44 709.77 90.37L707.1 90.91C702.01 91.95 696.69 91.34 692.03 89.03C677.27 81.71 672.84 65.02 648.94 57.42C623.64 49.38 597.96 50.12 572.56 61.35C566.46 64.04 559.45 63.66 553.64 60.39C553.47 60.29 553.29 60.19 553.12 60.1C537.49 51.3 539.11 28.21 555.86 21.78ZM460.04 98.73C470.5 84.36 481.51 72.06 492.89 61.64C504.71 50.81 521.81 47.98 536.44 54.54C536.6 54.61 536.76 54.68 536.92 54.76C547.62 59.58 549.6 73.98 540.51 81.39C532.63 87.81 524.81 95.34 517.06 104.04C505.65 116.85 498.15 137.47 477.16 133.68C451.9 129.73 449.08 113.81 460.05 98.74L460.04 98.73ZM346.33 183.94C350.01 177.47 353.53 171.27 357.07 165.83C377.72 134.13 432.97 130.1 453.95 142.67C487.56 162.79 510.48 139.45 537.01 179.12C541.5 185.83 535.95 194.79 527.97 193.53C514.23 191.37 499.81 193.96 486.55 203.38C478.27 209.26 468.04 211.8 458.03 210.11C451.2 208.96 442.73 208.27 432.94 209.12C424.39 209.87 415.78 207.93 408.5 203.38C393.02 193.72 373.22 191.52 354.87 195.6C348.2 197.08 342.96 189.87 346.34 183.93L346.33 183.94ZM149.17 171.34C153.44 159.99 158.74 150.32 164.82 142.14C169.37 137.25 174.06 132.45 178.93 127.76C180.97 125.8 183.02 123.87 185.09 121.96C234.38 86.07 307.91 107.74 335.14 130.85C342.27 136.9 343.86 147.28 338.92 155.22C333.18 164.44 320.9 166.91 311.99 160.69C270.66 131.84 207.17 142.62 180.6 187.85C177.53 193.08 172.01 196.4 165.95 196.63C152.65 197.14 144.49 183.79 149.18 171.32L149.17 171.34ZM79.82 326.2C79.64 326.07 79.45 325.93 79.27 325.8C62.42 313.53 38.36 322.44 33.89 342.8C32.59 348.72 31.91 354.33 31.99 359.06C32.11 366.41 33.61 375.7 35.83 385.17C37.67 393.02 26.86 397.19 22.96 390.14C22.88 390 22.78 389.87 22.72 389.71C1.51 326.85 30.89 286.65 54.41 266.54C63.56 258.71 77.73 264.9 78.27 276.93C78.92 291.38 81.28 305.56 87.63 318.46C87.72 318.62 87.81 318.77 87.9 318.93C90.93 324.13 84.68 329.76 79.82 326.22V326.2ZM185.06 334.69C174.23 351.29 153.3 355.62 135.25 349.85C104.93 339.74 89.77 306.54 95.55 275.5C99.16 258.9 107.1 242.3 122.98 235.08C125.15 234.36 130.2 234.36 130.92 237.97C131.64 261.79 128.75 291.39 154.2 304.41C159.66 305.66 165.39 305.78 171.23 304.95C179.29 303.65 187.23 310.15 188.68 318.09C189.4 323.86 187.96 329.64 185.07 334.69H185.06ZM190.16 213.14C190.05 213.14 189.93 213.14 189.82 213.14C184.37 213 182.21 206.1 186.55 202.8C190.33 199.93 193.89 196.37 196.22 192.12C198.49 187.98 212.06 153.42 262.35 159.31C292.41 162.83 315.26 177.11 311 205.12C308.15 223.8 295.98 233.8 277.57 235.64C267.14 236.68 256.62 234.71 247.12 230.27C228.97 221.79 210.83 212.17 190.15 213.15L190.16 213.14ZM358.39 749.75C356.78 755.98 354.18 761.8 350.66 766.69C327.98 796.67 287.56 810.38 250.02 806.05C216.09 801.72 185.78 778.62 175.7 746.18C173.53 739.61 172.18 733.6 171.39 727.92C169.13 711.39 174.55 688.02 177.07 678.65C179.59 669.28 185.55 658.63 189.86 651.74C189.9 651.67 189.95 651.6 189.99 651.53C196.23 641.61 209.61 639.08 219.13 645.92C228.41 652.58 239.49 659.29 246.41 658.07C264.08 655.22 282.65 641.12 300.34 641.35C307.38 641.44 309.87 650.8 303.83 654.43C303.72 654.49 303.61 654.56 303.51 654.62C297.19 658.39 298.43 667.8 305.47 669.94C339.98 680.42 369.05 711.21 358.39 749.74V749.75ZM451.34 686.91C449.64 697.86 438.62 704.83 427.89 702.06C418.92 699.75 370.92 678.7 341.91 666.59C335.06 663.73 334.74 654.19 341.35 650.82C341.69 650.64 342.03 650.46 342.36 650.25C349.27 647.26 351.8 641.12 353.15 634.8C354.5 628.48 354.69 621.98 353.24 615.49C351.8 610.44 346.74 606.11 341.69 608.99C336.64 611.52 331.67 614.45 326.69 617.36C321.71 620.27 316.7 623.16 311.55 625.59C294.77 631.36 275.28 635.7 259.31 626.34C253.59 624.05 247.93 621.17 242.39 617.81C228.64 609.44 216.99 597.85 210.37 583.8C207.41 577.52 215.73 572.05 220.21 577.36C223.27 580.99 227.08 583.88 232.69 585.16C235.58 585.88 238.46 584.44 241.35 584.44C245.43 584.81 249.33 587.66 253.32 589.66C256.64 591.32 259.58 586.88 256.77 584.46C244.04 573.45 239.28 556.46 247.12 538.97C257.23 513.71 279.6 495.66 306.31 492.05C370.55 482.67 403.04 551.24 396.35 605.95C388.05 686.17 454.24 668.1 451.33 686.91H451.34ZM495.13 714.6C495.13 714.6 495.04 714.59 495 714.58C487.79 713.42 480.6 712.15 473.42 710.78C465.04 709.18 461.85 698.87 467.81 692.77C469.87 690.67 471.98 689.14 474.29 688.31C484.07 684.77 494.4 689.08 501.04 696.6C502.68 698.46 503.85 700.38 504.71 702.34C507.52 708.73 502.01 715.71 495.12 714.6H495.13ZM497.78 686.56C491.25 682.36 493.08 672.37 500.7 670.86C513.58 668.31 532.09 664.07 546.09 658.54C553.71 655.53 561.59 662.28 559.69 670.24C558.41 675.62 556.04 680.79 551.76 683.81C535.85 695.03 513.49 696.66 497.78 686.56ZM570.02 707.61C569.82 708.75 569.55 709.91 569.22 711.09C567 718.86 559.47 723.91 551.42 723.19C548.62 722.94 545.83 722.67 543.03 722.37C539.53 721.99 536.04 721.6 532.54 721.18C526.56 720.47 523.88 713.33 527.9 708.85C531.44 704.91 535.67 701.32 540.07 699C546.81 695.45 552.26 693.88 556.52 693.36C564.64 692.37 571.44 699.56 570.01 707.61H570.02ZM593.54 607.22C589.81 622.64 581.13 631.58 566.1 641.34C542.19 656.87 455.13 678.03 427.47 650.59C427.35 650.48 427.24 650.36 427.12 650.24C411.24 634.29 423.85 610.5 446.26 612.53C490.41 616.53 539.77 611.21 570.2 579.25C586.16 562.49 597.52 590.7 593.53 607.21L593.54 607.22ZM641.37 521.28C636.78 524.84 632.42 528.77 628.29 533.08C622.9 538.71 618.2 544.78 614.18 551.28C608.06 561.18 592.58 556.23 593.59 544.63C593.61 544.42 593.63 544.2 593.66 543.98C593.67 543.88 593.68 543.78 593.7 543.67C595.16 530.93 604.51 520.48 617.06 517.85C623.14 516.58 629.14 514.89 635.28 513.92C636.07 513.79 636.84 513.61 637.61 513.44C642.28 512.4 645.11 518.38 641.37 521.27V521.28ZM784.07 453.52C787.04 451.91 792.85 451.68 795.69 452.17C857.89 462.85 872.73 523.73 869.29 565.14C868.08 579.71 856.27 590.85 842.08 587.35C834.3 585.43 825.31 583.57 815.92 582.33C802.64 580.58 804.51 560.84 817.87 561.71C818.02 561.71 818.17 561.73 818.32 561.74C826.06 562.34 829.32 557.26 827.36 551.56C825.93 547.39 805.4 509.72 782.33 494.06C767.7 484.13 768.51 461.93 784.07 453.51V453.52ZM740.15 437.2C757.47 449.47 742.32 471.85 729.32 483.4C708.39 501.45 679.84 505.58 652.49 500.91C639.85 498.75 624.62 502.3 618.35 504.02C614.69 505.03 610.89 505.49 607.11 505.16C597.64 504.34 588.63 499.17 571.23 487.04C565.72 483.2 563.1 476.44 564.45 469.87C566.39 460.46 567.42 447.21 561.6 436.97C559.3 432.93 559.25 427.99 561.55 423.95C565.81 416.49 572.49 404.01 578.24 389.9C585.9 371.12 612.11 368.12 627.83 389.43C634.64 398.66 639.32 413.22 644.3 425.21C647.5 432.91 659.08 429.18 657.14 421.08C654.55 410.25 650.12 398.68 645.72 389.86C637.86 374.11 627.61 357.76 617.78 347.08C617.73 347.03 617.69 346.98 617.64 346.93C610.38 339.01 612.57 326.35 621.98 321.17C645.12 308.44 688.53 288.56 721.33 294.93C729.99 296.61 768.55 301.24 778.97 303.07C779.09 303.09 779.22 303.11 779.34 303.14C791.92 305.36 795.18 321.94 784.38 328.77C759.15 344.72 727.27 367.71 722.17 384.75C716.71 403.01 724.25 425.66 740.13 437.21L740.15 437.2Z" fill="#00A2FF"/>
</svg>
