<svg width="378" height="912" viewBox="0 0 378 912" fill="none" xmlns="http://www.w3.org/2000/svg">
<path d="M35.6 280H2.8V275.6C12.1333 275.067 19.2 272.533 24 268C29.0667 263.467 31.7333 257.067 32 248.8C32.5333 223.733 32.9333 205.2 33.2 193.2C33.4667 181.2 33.8667 163.067 34.4 138.8C33.8667 114.533 33.4667 96.5333 33.2 84.8C32.9333 72.8 32.5333 54.9333 32 31.2C31.7333 22.9333 29.0667 16.5333 24 12C19.2 7.46665 12.1333 4.93332 2.8 4.4V-1.90735e-05H35.6H175.2V62H170.8C170.533 51.0667 168.8 41.6 165.6 33.6C162.4 25.3333 156.8 18.6667 148.8 13.6C141.067 8.53332 130.4 5.86664 116.8 5.59998L42.8 4.4L40 139.2L42.4 248.8C42.6667 257.067 45.7333 263.467 51.6 268C57.7333 272.533 66.9333 275.067 79.2 275.6V280H38.8H35.6ZM138.8 176.8C138.8 167.733 138.267 160.8 137.2 156C136.133 151.2 133.6 147.6 129.6 145.2C125.6 142.533 119.6 141.2 111.6 141.2H37.2L37.6 135.2C61.6 135.733 85.6 136.267 109.6 136.8C121.6 137.067 129.467 134.533 133.2 129.2C136.933 123.6 138.8 114.267 138.8 101.2H143.2V176.8H138.8ZM279.119 284C260.185 284 243.519 279.333 229.119 270C214.719 260.4 203.652 247.467 195.919 231.2C188.452 214.933 184.719 196.933 184.719 177.2C184.719 158 188.585 140.8 196.319 125.6C204.052 110.133 214.852 98 228.719 89.2C242.852 80.4 259.119 76 277.519 76C292.185 76 304.719 79.2 315.119 85.6C325.785 91.7333 334.052 99.3333 339.919 108.4C345.785 117.467 349.519 126.133 351.119 134.4L347.519 164L193.519 171.2V166.8L345.519 156.8L336.719 161.2C340.452 148.4 340.185 135.867 335.919 123.6C331.919 111.067 324.585 100.8 313.919 92.8C303.252 84.8 290.319 80.8 275.119 80.8C258.319 80.8 243.785 85.0667 231.519 93.6C219.519 101.867 210.319 113.067 203.919 127.2C197.519 141.067 194.319 156.4 194.319 173.2C194.319 191.6 197.652 208.667 204.319 224.4C211.252 239.867 221.252 252.267 234.319 261.6C247.652 270.933 263.252 275.6 281.119 275.6C299.785 275.6 315.785 269.733 329.119 258C342.452 246.267 351.519 232.4 356.319 216.4L360.719 217.6C357.785 228.267 352.985 238.667 346.319 248.8C339.919 258.933 330.985 267.333 319.519 274C308.319 280.667 294.852 284 279.119 284ZM37.2 593H6V587.4C14.5333 586.333 21.3333 583.133 26.4 577.8C31.7333 572.2 34.5333 564.6 34.8 555C36.1333 531.533 37.0667 513.267 37.6 500.2C38.1333 487.133 38.9333 470.733 40 451C38.9333 431.267 38.1333 415.133 37.6 402.6C37.0667 390.067 36.2667 372.867 35.2 351C34.6667 341.4 31.7333 333.933 26.4 328.6C21.3333 323 14.5333 319.667 6 318.6V313H37.2H181.2V381.8H175.6C174.267 367.4 171.333 355.8 166.8 347C162.267 337.933 155.733 331.133 147.2 326.6C138.667 322.067 127.333 319.667 113.2 319.4L60 318.2L53.6 450.2L58.8 555C59.3333 564.333 62.6667 571.8 68.8 577.4C75.2 583 83.7333 586.333 94.4 587.4V593H56.4H37.2ZM147.2 490.6C146.667 483.4 145.067 477.133 142.4 471.8C140 466.467 136.533 462.333 132 459.4C127.733 456.2 122.8 454.6 117.2 454.6H45.6L46 441C73.2 443.933 93.6 445.933 107.2 447C118.4 447.8 127.6 445.133 134.8 439C142 432.867 146.133 423.667 147.2 411.4H152.8V490.6H147.2ZM278.178 597C260.845 597 245.778 592.467 232.978 583.4C220.445 574.333 210.845 561.933 204.178 546.2C197.778 530.467 194.578 512.733 194.578 493C194.578 472.733 197.911 454.733 204.578 439C211.511 423.267 221.511 411 234.578 402.2C247.911 393.4 263.511 389 281.378 389C293.111 389 303.645 391.533 312.978 396.6C322.578 401.4 330.578 408.067 336.978 416.6C343.645 425.133 348.578 434.467 351.778 444.6L348.978 472.6L204.178 479V473.4L342.978 459L326.578 467.4C328.978 455.133 328.178 443.533 324.178 432.6C320.445 421.4 314.045 412.467 304.978 405.8C295.911 398.867 285.245 395.4 272.978 395.4C260.445 395.4 249.645 399.133 240.578 406.6C231.511 413.8 224.578 423.8 219.778 436.6C215.245 449.4 212.978 463.933 212.978 480.2C212.978 498.067 215.778 514.467 221.378 529.4C227.245 544.067 235.778 555.933 246.978 565C258.445 573.8 271.911 578.2 287.378 578.2C303.378 578.2 317.378 573.533 329.378 564.2C341.378 554.6 350.045 541.8 355.378 525.8L360.978 527.4C357.511 540.2 352.178 551.933 344.978 562.6C338.045 573 328.978 581.4 317.778 587.8C306.578 593.933 293.378 597 278.178 597ZM24 906H5.96046e-08V897.2C6.66667 895.6 11.8667 891.867 15.6 886C19.3333 880.133 21.6 871.733 22.4 860.8C23.7333 837.6 24.9333 816.533 26 797.6C27.3333 778.4 28.1333 764.667 28.4 756.4C28.1333 748.667 27.4667 735.867 26.4 718C25.3333 699.867 24.1333 680.267 22.8 659.2C22 648.267 19.6 639.867 15.6 634C11.8667 628.133 6.66667 624.4 5.96046e-08 622.8V614H24L193.2 614.4V694.4H184.8C183.467 684 179.467 674.267 172.8 665.2C166.4 655.867 157.867 648.133 147.2 642C136.533 635.867 124.667 632 111.6 630.4L94.8 628.4L86.4 757.6L92 860.8C92.5333 871.733 95.2 880 100 885.6C104.8 891.2 112.133 895.067 122 897.2V906H90H24ZM144.8 814.4C143.467 805.6 140.933 797.733 137.2 790.8C133.733 783.867 129.333 778.4 124 774.4C118.933 770.4 113.6 768.4 108 768.4L84.4 768V753.2C90.5333 754.533 96.4 755.333 102 755.6C113.733 756.4 123.2 752.8 130.4 744.8C137.6 736.533 142.4 724.8 144.8 709.6H152.8V814.4H144.8ZM291.888 912C272.688 912 256.421 907.2 243.088 897.6C229.754 887.733 219.621 874.4 212.688 857.6C206.021 840.8 202.688 821.733 202.688 800.4C202.688 780.933 205.754 762.933 211.888 746.4C218.021 729.6 227.754 716 241.088 705.6C254.688 695.2 271.621 690 291.888 690C305.488 690 317.488 692.4 327.888 697.2C338.554 702 347.488 708.8 354.688 717.6C361.888 726.4 367.088 736.667 370.288 748.4L363.888 786.8L234.288 791.6V779.2L330.688 764.8L313.888 768.4C317.354 755.067 318.421 743.6 317.088 734C315.754 724.133 312.688 716.667 307.888 711.6C303.354 706.533 298.021 704 291.888 704C284.688 704 278.688 707.467 273.888 714.4C269.354 721.067 266.021 730 263.888 741.2C262.021 752.133 261.088 764.133 261.088 777.2C261.088 791.867 262.688 806 265.888 819.6C269.088 832.933 274.688 844.267 282.688 853.6C290.688 862.667 301.621 867.2 315.488 867.2C327.488 867.2 338.288 863.467 347.888 856C357.488 848.533 364.688 838.133 369.488 824.8L377.888 826.8C376.021 842.267 371.754 856.4 365.088 869.2C358.421 882 348.954 892.4 336.688 900.4C324.421 908.133 309.488 912 291.888 912Z" fill="#EEEEEE"/>
</svg>
