<svg width="520" height="870" viewBox="0 0 520 870" fill="none" xmlns="http://www.w3.org/2000/svg">
<path d="M385.279 623.722C384.223 623.362 383.096 623.129 382.119 622.613C364.011 613.168 354.346 598.185 353.434 577.839C352.847 564.75 357.626 553.501 366.296 543.726C371.254 538.135 375.865 532.226 380.578 526.412C381.351 525.459 381.873 524.291 382.407 523.17C383.042 521.846 382.581 520.677 381.279 520.215C375.188 518.04 370.271 514.061 365.27 510.159C362.003 507.606 358.495 508.08 354.981 509.871C354.244 510.249 353.273 510.447 352.457 510.345C351.12 510.177 350.778 509.314 351.564 508.211C352.193 507.324 352.895 506.395 353.776 505.796C361.487 500.57 365.672 492.863 369.258 484.599C370.895 480.829 372.981 477.197 375.296 473.799C377.82 470.089 381.561 468.034 386.136 467.674C389.104 467.44 390.513 468.567 390.513 471.528C390.513 473.667 390.237 475.801 390.105 477.94C389.842 482.237 391.742 485.534 395.759 487.176C397.72 487.979 399.861 488.38 401.947 488.848C403.746 489.249 405.749 488.89 407.164 490.568C407.445 490.897 408.189 490.921 408.729 490.939C419.923 491.245 430.356 488.89 439.374 481.884C446.779 476.136 451.539 468.507 454.663 459.787C457.757 451.139 458.98 442.186 458.872 433.034C458.662 415.888 454.663 399.755 445.783 384.976C442.761 379.947 439.278 375.231 434.469 371.743C423.461 363.754 411.691 363.089 399.525 368.686C385.501 375.147 377.85 389.764 380.182 404.951C381.088 410.86 382.79 416.385 386.568 421.174C388.295 423.361 387.869 426.346 385.848 428.396C383.75 430.529 380.794 430.775 378.21 428.983C372.226 424.818 366.931 419.915 362.614 414.024C357.68 407.294 354.358 399.928 354.01 391.442C353.764 385.461 354.939 379.738 358.027 374.65C366.577 360.542 377.322 348.454 391.772 340.111C408.249 330.6 425.601 329.114 443.571 335.185C459.202 340.465 471.937 350.06 482.838 362.208C496.592 377.538 506.048 395.2 510.719 415.289C514.178 430.169 514.382 445.062 509.711 459.775C504.795 475.255 495.309 487.379 481.795 496.237C476.776 499.527 471.224 502.015 465.941 504.909C463.759 506.102 461.487 507.211 459.52 508.709C454.669 512.401 453.818 517.087 457.343 522.037C459.586 525.178 462.248 528.09 465.072 530.727C470.103 535.426 475.487 539.741 480.565 544.392C488.966 552.087 493.217 561.771 493.804 573.104C494.014 577.192 494.218 581.273 494.446 585.36C494.596 588.045 496.323 589.25 498.931 588.531C508.728 585.816 518.106 591.461 519.749 601.464C520.3 604.832 519.827 608.428 519.449 611.88C518.028 624.753 513.051 636.493 507.781 648.162C501.647 661.748 495.705 675.418 489.757 689.088C486.891 695.675 482.874 701.572 479.012 707.565C472.585 717.544 466.013 727.438 459.718 737.501C456.036 743.374 452.768 749.517 450.868 756.247C450.382 757.961 450.07 759.759 449.968 761.533C449.705 766.249 452.343 769.186 457.038 769.659C465.108 770.469 471.787 767.634 477.46 762.012C478.833 760.652 480.308 759.327 481.938 758.32C484.169 756.948 486.004 757.961 485.938 760.58C485.878 762.995 485.608 765.482 484.93 767.79C482.544 775.928 478.659 783.24 471.937 788.675C470.234 790.054 468.1 790.947 466.073 791.876C463.495 793.056 460.863 794.141 458.195 795.094C444.698 799.907 432.089 797.527 420.085 790.3C412.434 785.691 405.569 780.051 398.997 774.07C386.478 762.677 372.753 752.909 358.651 743.632C345.94 735.265 332.965 727.276 320.997 717.837C315.241 713.301 309.73 708.446 304.19 703.646C302.206 701.926 300.071 700.919 297.433 700.955C293.649 701.009 291.077 703.19 291.317 706.954C291.593 711.257 292.246 715.572 293.164 719.785C295.772 731.759 297.865 743.775 297.301 756.091C296.923 764.314 295.298 772.224 290.909 779.35C285.819 787.615 278.222 792.289 268.934 794.405C266.128 795.046 263.232 795.322 260.36 795.633C257.614 795.933 255.767 794.878 254.862 792.739C253.987 790.659 254.544 788.681 256.535 786.86C259.701 783.959 262.381 780.699 263.826 776.587C266.128 770.037 263.628 764.955 257.003 762.887C253.405 761.767 249.682 761.137 245.952 762.15C242.241 763.163 241.383 765.284 243.122 768.683C243.913 770.229 244.051 771.733 242.936 773.165C241.755 774.682 240.166 774.819 238.469 774.298C232.317 772.416 226.633 769.51 221.189 766.147C210.732 759.699 201.163 752.124 192.84 743.056C190.418 740.413 188.392 737.405 185.933 734.792C183.691 732.412 181.31 730.063 178.642 728.217C174.187 725.137 169.307 725.191 164.888 728.229C161.884 730.297 159.024 732.79 156.691 735.583C151.571 741.702 146.708 748.042 141.965 754.461C138.913 758.59 137.912 763.409 138.572 768.527C139.213 773.507 142.841 776.875 148.717 777.768C151.721 778.224 154.767 778.403 157.794 778.745C158.934 778.877 160.079 779.033 161.182 779.332C163.688 780.015 164.498 781.562 163.545 783.971C160.649 791.33 155.15 795.735 147.553 797.479C141.917 798.774 136.593 797.893 131.652 794.687C127.899 792.253 123.69 792.811 119.954 796.071C116.998 798.654 113.653 800.434 109.809 801.237C101.613 802.951 94.142 800.985 87.3067 796.46C78.151 790.419 73.6001 781.825 73.6301 770.846C73.6301 770.007 73.768 769.15 73.9958 768.347C74.3916 766.963 75.261 766.747 76.2803 767.784C76.8679 768.377 77.3356 769.102 77.7912 769.815C80.7232 774.418 84.4647 778.122 89.4652 780.447C95.8089 783.396 100.929 782.107 104.443 776.036C106.643 772.23 108.436 768.083 109.725 763.882C112.747 754 116.315 744.369 120.62 734.96C126.718 721.631 130.681 707.559 134.081 693.332C137.822 677.66 140.616 661.808 143.027 645.884C144.735 634.593 146.246 623.272 148.165 612.023C149.634 603.381 151.679 594.835 153.316 586.217C155.708 573.638 158.106 561.052 160.211 548.419C161.182 542.576 161.548 536.613 160.672 530.679C160.487 529.421 160.085 528.144 159.539 526.994C158.508 524.836 156.799 523.991 154.611 524.896C152.572 525.741 150.539 526.868 148.873 528.294C141.785 534.371 135.885 541.401 132.33 550.169C132.198 550.493 132.12 550.864 131.904 551.122C131.329 551.799 130.693 552.428 130.081 553.076C129.644 552.278 128.96 551.523 128.804 550.672C128.049 546.597 128.858 542.636 129.95 538.716C133.085 527.431 140.149 519.125 149.748 512.784C152.662 510.86 155.744 509.194 158.646 507.264C160.043 506.336 161.326 505.161 162.435 503.902C164.012 502.116 163.491 500.253 161.152 499.983C157.812 499.593 154.407 499.659 151.031 499.701C148.693 499.731 146.36 500.061 144.022 500.217C143.326 500.265 142.625 500.223 141.929 500.163C138.032 499.809 136.815 497.382 139.159 494.247C140.454 492.515 142.037 490.921 143.74 489.585C148.015 486.229 152.494 483.124 156.757 479.756C158.418 478.444 159.887 476.808 161.176 475.118C162.813 472.966 162.561 470.916 160.319 469.424C157.89 467.8 155.216 466.529 152.602 465.193C151.097 464.426 149.406 463.988 147.961 463.125C147.17 462.652 146.27 461.633 146.228 460.824C146.186 460.009 147.02 459.008 147.709 458.331C148.657 457.396 149.94 456.803 150.875 455.856C152.788 453.932 152.842 451.924 151.073 449.863C148.687 447.076 145.503 445.53 142.073 444.481C138.692 443.444 135.214 443.24 131.7 443.624C130.861 443.714 129.991 443.828 129.17 443.714C128.54 443.63 127.953 443.21 127.347 442.941C127.683 442.371 127.875 441.598 128.373 441.269C130.153 440.088 131.964 438.907 133.895 438.002C143.662 433.424 153.957 430.511 164.534 428.521C172.61 427.005 180.747 426.304 188.967 426.789C190.46 426.879 191.959 427.197 193.44 427.125C194.747 427.065 196.12 426.819 197.307 426.292C198.824 425.621 198.926 424.362 197.577 423.403C196.378 422.546 195.041 421.731 193.644 421.3C186.833 419.202 180.009 417.147 173.138 415.253C166.123 413.323 159.048 411.597 151.996 409.781C151.709 409.709 151.427 409.589 151.139 409.523C150.21 409.32 149.7 408.762 149.898 407.815C150.12 406.755 150.941 406.563 151.877 406.76C153.825 407.18 155.786 407.576 157.711 408.085C165.175 410.075 172.724 410.027 180.285 408.894C185.01 408.187 189.705 407.276 194.381 406.299C195.497 406.065 196.558 405.316 197.505 404.615C198.573 403.818 198.656 402.721 197.907 401.57C196.54 399.467 194.022 398.652 191.132 399.443C182.522 401.786 173.792 403.237 164.834 403.129C159.515 403.069 154.293 402.362 149.166 400.953C148.783 400.845 148.291 400.821 148.051 400.564C147.691 400.174 147.236 399.569 147.32 399.155C147.398 398.772 148.135 398.244 148.567 398.262C150.557 398.34 152.542 398.634 154.533 398.754C160.163 399.101 165.727 398.898 170.943 396.416C175.638 394.181 178.001 389.596 177.167 384.466C176.256 378.845 173.414 374.158 169.69 370.053C167.052 367.146 163.994 364.629 161.176 361.878C160.714 361.429 160.547 360.686 160.241 360.074C160.864 359.793 161.482 359.295 162.117 359.259C165.697 359.056 169.289 359.08 172.856 358.768C173.899 358.678 174.865 357.731 175.866 357.174C175.284 356.191 174.919 354.908 174.073 354.279C171.315 352.229 168.407 350.384 165.511 348.532C163.539 347.267 161.506 346.099 159.479 344.912C158.46 344.319 157.645 343.617 158.01 342.299C158.364 341.04 159.425 340.891 160.517 340.843C170.967 340.351 181.166 341.67 190.916 345.529C197.817 348.262 204.556 351.402 211.386 354.327C214.228 355.544 217.076 356.748 219.978 357.815C226.166 360.08 230.8 364.078 233.84 369.915C233.93 370.095 234.038 370.263 234.122 370.442C236.551 375.626 240.448 378.467 246.354 377.874C252.949 377.209 259.545 376.537 266.11 375.656C271.95 374.871 277.76 373.9 283.684 374.11C290.208 374.344 296.288 375.992 301.672 379.828C303.968 381.464 305.593 381.344 307.686 379.396C309.107 378.072 310.396 376.591 311.871 375.333C315.181 372.504 320.103 372.87 323.083 376.07C324.175 377.245 324.121 378.156 322.777 379.019C321.86 379.606 320.835 380.031 319.857 380.535C315.6 382.74 314.791 387.846 318.029 391.37C323.869 397.723 329.691 404.094 335.429 410.536C339.824 415.474 341.904 421.312 341.916 427.94C341.916 430.074 342.234 432.225 342.63 434.323C343.295 437.829 345.394 440.496 348.512 442.024C352.031 443.75 355.791 444.996 359.43 446.489C361.319 447.262 363.268 447.957 365.025 448.964C373.221 453.668 375.2 465.043 368.97 472.157C360.45 481.878 351.906 491.575 343.152 501.08C334.871 510.069 325.763 518.142 315.055 524.207C312.501 525.651 309.856 526.97 307.152 528.126C302.901 529.942 301.036 533.388 300.359 537.643C299.579 542.564 299.046 547.52 298.236 552.434C297.541 556.659 296.408 560.819 295.832 565.056C294.771 572.823 295.634 580.314 300.155 587.014C303.495 591.959 308.04 595.608 313.148 598.545C316.26 600.331 319.522 601.847 322.747 603.423C327.101 605.551 327.46 607.109 324.294 610.729C322.46 612.833 320.469 614.804 318.736 616.986C317.765 618.214 317.021 619.683 316.44 621.151C315.432 623.698 315.822 626.077 317.537 628.319C325.296 638.441 334.254 647.221 345.454 653.52C356.354 659.644 368.034 662.611 380.536 661.478C395.742 660.1 408.543 653.609 418.88 642.384C426.77 633.82 431.669 623.746 433.222 612.185C434.637 601.673 432.808 591.629 428.275 582.052C424.42 573.913 419.09 566.83 412.452 560.819C407.745 556.564 402.115 553.765 395.676 553.255C388.085 552.656 382.287 556.114 377.742 561.915C373.587 567.225 371.332 573.374 370.217 579.955C368.706 588.884 369.336 597.646 372.717 606.126C374.732 611.166 377.688 615.541 381.777 619.155C383.162 620.384 384.409 621.768 385.722 623.081C385.572 623.29 385.423 623.5 385.273 623.716L385.279 623.722ZM191.12 534.191C189.747 534.335 187.138 534.431 184.596 534.893C175.278 536.571 168.983 541.779 166.704 551.128C165.739 555.083 165.241 559.165 164.78 563.222C163.616 573.41 163.772 583.652 164.066 593.876C164.444 607.145 165.115 620.402 165.409 633.67C165.709 647.269 164.942 660.801 161.668 674.088C157.806 689.772 150.204 703.13 137.372 713.253C136.197 714.176 134.998 715.08 133.907 716.093C133.049 716.884 132.462 718.089 133.289 719.036C135.16 721.175 134.614 722.776 132.72 724.49C132.024 725.119 131.496 726.138 131.311 727.067C131.125 728.02 131.179 729.212 131.598 730.063C132.69 732.269 134.842 733.18 137.127 733.407C139.213 733.611 140.274 731.939 141.192 730.363C141.917 729.116 142.547 727.81 143.218 726.527C143.404 726.174 143.518 725.664 143.812 725.514C144.406 725.209 145.251 724.777 145.719 724.993C146.192 725.209 146.708 726.258 146.558 726.749C145.017 731.981 142.391 736.41 137.318 739.053C134.315 740.617 131.335 742.265 128.487 744.093C122.838 747.725 117.982 752.178 114.684 758.153C112.334 762.414 111.248 767.076 110.391 771.787C109.408 777.211 106.829 781.142 101.187 782.521C100.851 782.604 100.528 782.742 100.21 782.892C96.4565 784.642 94.5678 788.424 95.3292 792.673C96.0427 796.67 99.0407 799.631 103.148 799.643C110.547 799.661 116.992 797.371 121.315 790.869C124.235 786.47 128.978 785.253 133.745 787.621C135.034 788.262 136.401 788.795 137.786 789.173C140.46 789.904 143.021 789.574 145.383 788.028C147.272 786.794 147.847 784.894 146.63 783.006C145.863 781.807 144.849 780.729 143.8 779.752C141.677 777.786 139.399 775.988 137.294 774.01C135.472 772.296 134.632 770.199 134.794 767.574C135.478 756.654 139.207 747.09 146.948 739.209C152.368 733.695 157.896 728.283 162.112 721.709C164.612 717.801 167.232 713.966 169.99 710.238C172.598 706.708 174.247 706.738 177.017 710.16C179.278 712.953 181.376 715.872 183.595 718.7C190.37 727.336 197.181 735.936 203.951 744.578C208.214 750.02 212.789 755.144 218.491 759.148C226.346 764.667 236.353 764.493 244.057 758.758C245.496 757.691 247.013 756.714 248.572 755.833C250.041 755.012 251.612 755.096 252.943 756.151C256.853 759.243 260.894 762.21 264.551 765.584C269.348 770.007 269.612 773.004 266.518 778.727C265.619 780.393 264.719 782.071 264 783.815C263.124 785.925 263.766 788.178 265.415 789.497C267.255 790.971 269.348 791.091 271.381 789.838C275.788 787.123 277.736 781.52 276.069 776.324C273.977 769.797 270.421 764.122 265.816 759.1C258.855 751.506 250.569 745.843 240.969 742.085C236.724 740.425 235.675 735.007 239.033 732.047C241.617 729.77 244.261 727.57 246.845 725.293C254.646 718.413 262.033 711.131 268.287 702.789C272.592 697.047 276.273 690.958 278.132 683.946C280.243 675.982 279.127 668.616 273.893 662.066C270.631 657.978 266.458 655 261.919 652.513C255.623 649.061 248.878 646.783 241.941 645.045C240.562 644.698 239.674 643.943 239.728 642.462C239.776 641.054 240.682 640.389 242.007 640.101C244.297 639.598 246.588 639.094 248.842 638.453C256.463 636.289 263.892 633.658 270.032 628.409C275.146 624.034 277.796 618.628 276.639 611.73C275.992 607.87 274.379 604.412 272.34 601.128C271.579 599.899 270.685 598.749 269.972 597.496C269.762 597.131 269.816 596.208 270.038 596.094C270.451 595.878 271.183 595.878 271.597 596.112C272.226 596.471 272.7 597.107 273.239 597.622C278.444 602.608 283.906 607.253 290.262 610.747C292.936 612.215 293.152 613.576 291.101 615.859C283.031 624.819 278.288 635.169 278.168 647.377C278.072 657.301 280.872 666.501 285.675 675.077C295.802 693.146 310.732 706.079 329.307 714.859C337.006 718.497 344.165 722.848 350.491 728.499C356.331 733.713 361.949 739.179 367.735 744.458C368.814 745.441 370.121 746.328 371.488 746.82C375.745 748.348 378.929 745.903 378.365 741.42C378.024 738.681 377.346 735.912 376.357 733.335C373.653 726.305 369.575 720.133 364.863 714.199C358.045 705.617 351.69 696.64 345.484 687.596C333.588 670.27 322.897 652.183 312.219 634.096C308.393 627.617 304.268 621.241 301.204 614.397C297.918 607.055 295.658 599.246 293.074 591.599C289.59 581.303 283.247 573.482 273.581 568.364C267.897 565.355 262.255 562.251 256.685 559.039C246.27 553.04 236.005 546.747 224.889 542.078C214.474 537.703 203.747 534.569 191.132 534.191H191.12ZM139.123 439.686C139.129 439.872 139.135 440.052 139.141 440.238C139.795 440.364 140.448 440.532 141.108 440.603C143.74 440.891 146.384 441.071 148.998 441.448C152.794 442 156.595 442.557 160.343 443.354C163.209 443.966 164.696 446.65 163.64 449.311C163.191 450.444 162.076 451.445 161.044 452.194C158.838 453.794 156.319 454.999 154.239 456.737C152.2 458.439 152.584 460.452 154.988 461.597C156.499 462.316 158.166 462.85 159.815 463.089C163.167 463.569 166.566 463.737 169.93 464.12C172.203 464.378 173.624 465.774 174.289 467.908C174.955 470.035 174.361 471.887 172.664 473.284C169.588 475.825 166.518 478.384 163.317 480.769C160.601 482.789 157.687 484.545 154.898 486.474C153.058 487.751 151.877 489.459 152.362 491.808C152.86 494.212 154.533 495.59 156.865 496.069C157.92 496.285 159.06 496.339 160.121 496.189C165.697 495.392 171.261 494.469 176.843 493.696C177.743 493.57 178.714 493.954 179.649 494.104C179.134 494.907 178.786 495.92 178.085 496.483C174.619 499.258 171.069 501.925 167.538 504.615C163.73 507.522 159.893 510.393 156.116 513.329C154.389 514.672 153.927 516.566 154.749 518.232C155.948 520.665 158.826 520.917 161.008 518.789C163.898 515.966 166.782 513.132 169.696 510.327C171.789 508.307 174.211 507.792 177.011 508.673C180.909 509.895 184.812 511.1 188.757 512.167C214.15 519.017 239.74 524.956 265.942 527.821C275.536 528.869 285.153 529.433 294.765 528.024C298.188 527.527 301.522 526.658 304.49 524.794C307.896 522.661 309.581 519.604 308.933 515.565C308.645 513.767 308.148 511.933 307.362 510.291C305 505.341 302.553 500.42 299.927 495.608C298.194 492.426 296.312 489.273 294.105 486.409C291.857 483.49 289.338 483.879 287.462 487.068C286.904 488.009 286.526 489.051 285.999 490.01C285.861 490.256 285.471 490.364 285.201 490.532C285.045 490.256 284.817 489.992 284.752 489.693C284.686 489.417 284.764 489.093 284.829 488.806C286.053 483.514 287.126 478.18 288.541 472.942C291.923 460.423 299.16 450.642 310.012 443.528C311.679 442.437 313.388 441.383 314.947 440.148C316.608 438.835 316.734 436.99 315.504 435.377C314.269 433.759 312.285 433.382 310.6 434.526C309.694 435.144 308.873 435.875 308.01 436.558C302.913 440.579 297.805 444.589 291.881 447.364C290.466 448.023 288.865 448.448 287.312 448.61C285.411 448.808 284.344 447.477 284.895 445.656C285.351 444.151 285.999 442.635 286.862 441.329C290.981 435.12 296.372 430.175 302.673 426.274C304.988 424.842 307.482 423.613 310.036 422.66C315.361 420.67 320.433 421.959 325.362 424.302C327.58 425.357 329.727 424.926 331.406 423.235C332.977 421.653 333.366 419.442 332.335 417.296C331.705 415.996 330.962 414.749 330.2 413.521C325.32 405.652 319.552 398.448 313.49 391.472C311.253 388.901 311.038 386.402 312.914 383.549C313.598 382.512 314.491 381.62 315.253 380.637C315.978 379.708 315.906 378.749 315.067 377.952C314.245 377.167 313.292 377.239 312.542 378.042C311.691 378.947 310.906 379.917 310.192 380.936C309.335 382.159 308.651 383.507 307.764 384.706C306.283 386.726 304.814 386.887 302.775 385.395C302.451 385.161 302.128 384.916 301.858 384.628C296.246 378.779 289.2 377.011 281.382 377.406C274.103 377.772 267.124 379.708 260.102 381.428C254.532 382.788 248.986 384.256 243.188 384.346C237.186 384.436 232.15 382.608 229.074 377.107C228.006 375.201 227.119 373.169 226.399 371.102C224.667 366.109 221.441 362.891 216.254 361.471C212.075 360.326 207.944 358.954 203.909 357.372C195.509 354.081 187.234 350.456 178.804 347.243C174.913 345.763 170.782 344.906 166.746 343.833C166.339 343.725 165.799 344.091 165.325 344.235C165.613 344.648 165.817 345.182 166.207 345.451C168.851 347.327 171.507 349.179 174.205 350.977C176.316 352.385 178.45 353.764 180.663 355.004C181.262 355.34 182.234 355.328 182.923 355.118C184.506 354.627 185.022 354.866 185.178 356.509C185.495 359.841 183.781 362.112 180.213 362.891C176.388 363.724 172.568 363.305 168.755 362.687C168.197 362.597 167.61 362.675 167.034 362.675C166.992 362.861 166.95 363.047 166.902 363.233C167.724 363.604 168.533 364.018 169.373 364.335C174.271 366.205 178.828 368.597 182.402 372.57C187.006 377.7 187.576 383.987 183.481 389.524C181.64 392.006 179.092 393.965 176.873 396.165C176.46 396.578 175.824 396.956 175.716 397.441C175.584 398.041 175.68 399.035 176.07 399.329C176.652 399.761 177.659 400.024 178.342 399.844C182.39 398.778 186.395 397.549 190.418 396.386C195.209 395.002 200.006 393.594 205.042 393.48C208.388 393.408 210.834 395.404 211.296 398.496C211.817 401.984 210.073 404.819 206.757 405.742C204.934 406.251 203.081 406.659 201.235 407.066C197.619 407.869 195.467 410.326 195.479 413.7C195.491 417.099 197.613 419.592 201.217 420.317C203.807 420.838 206.415 421.294 209.017 421.725C210.576 421.983 211.901 422.516 212.603 424.057C213.88 426.825 212.129 429.51 208.802 429.738C204.221 430.044 199.634 430.277 195.047 430.505C183.325 431.092 171.831 432.741 160.858 437.223C158.772 438.074 156.427 438.47 154.167 438.662C150.641 438.955 147.086 438.841 143.548 439.015C142.067 439.087 140.598 439.459 139.123 439.692V439.686ZM407.523 517.417C418.694 517.794 429.468 515.307 440.111 512.472C458.435 507.588 472.465 496.633 482.766 480.871C493.139 464.995 497.726 447.304 498.577 428.539C499.237 413.964 497.318 399.677 493.457 385.635C492.311 381.458 491.238 377.239 488.684 373.607C485.878 369.615 482.226 367.338 477.166 367.68C475.835 367.77 474.462 367.668 473.148 367.428C466.055 366.115 460.815 361.938 456.732 356.275C453.062 351.181 448.553 347.051 443.517 343.378C432.85 335.599 421.218 333.477 408.489 336.971C398.008 339.854 388.75 344.978 380.476 351.942C373.725 357.623 368.076 364.21 364.011 372.091C361.931 376.13 364.119 380.415 368.634 381.02C371.578 381.416 373.353 379.774 374.834 377.478C386.274 359.763 410.036 353.2 429.019 362.406C439.637 367.554 447.378 375.668 453.272 385.683C458.77 395.026 462.236 405.118 464.071 415.786C466.415 429.414 466.127 442.911 461.864 456.173C458.387 466.997 452.517 476.214 443.205 482.974C432.382 490.831 420.169 493.888 406.924 493.187C399.999 492.821 393.079 492.186 386.148 492.054C378.042 491.898 372.645 500.522 375.943 507.954C377.598 511.675 380.806 513.347 384.451 514.444C391.976 516.716 399.711 517.375 407.511 517.429L407.523 517.417ZM494.824 624.741C494.776 610.19 493.403 597.28 490.009 584.623C486.771 572.523 481.95 561.148 474.462 551.014C466.481 540.214 456.36 532.25 443.559 527.887C434.499 524.8 425.175 524.117 415.654 524.536C400.047 525.226 386.196 530.368 374.174 540.28C367.837 545.506 362.914 551.859 360.138 559.698C359.107 562.617 360.252 565.499 362.95 566.95C365.648 568.4 368.49 567.795 370.433 565.355C371.428 564.103 372.393 562.832 373.413 561.604C387.671 544.469 408.747 539.285 429.175 548.071C444.704 554.754 455.748 566.26 463.213 581.189C472.609 599.989 473.784 619.617 468.07 639.705C463.873 654.46 456.132 667.394 447.066 679.607C442.695 685.499 438.144 691.258 433.941 697.263C430.092 702.765 427.874 708.89 428.185 715.782C428.581 724.544 435.608 729.734 443.841 728.727C450.388 727.93 455.545 724.448 460.173 719.995C469.299 711.209 475.991 700.751 481.147 689.28C490.585 668.298 494.638 646.178 494.818 624.741H494.824ZM447.93 793.074C449.099 792.996 451 792.967 452.876 792.721C456.528 792.241 459.838 790.965 462.392 788.172C465.828 784.42 465.42 779.506 461.421 776.384C459.154 774.61 456.498 773.759 453.71 773.351C450.646 772.908 447.816 771.967 445.28 770.133C441.91 767.688 439.218 764.607 437.083 761.101C433.869 755.821 430.77 750.464 427.838 745.028C423.778 737.507 418.394 731.25 411.343 726.389C402.751 720.468 393.259 716.267 383.852 711.904C381.357 710.747 378.617 710.711 375.943 711.557C373.647 712.288 372.609 713.894 373.053 716.243C373.299 717.55 373.629 718.898 374.222 720.079C376.039 723.686 378.09 727.168 379.87 730.794C381.07 733.239 382.449 735.757 382.898 738.382C384.457 747.575 388.337 755.642 394.59 762.384C400.244 768.479 406.27 774.262 412.464 779.824C422.285 788.645 434.007 792.865 447.93 793.074ZM447.642 609.776C447.588 599.941 446.689 591.743 444.164 583.772C441.562 575.556 437.527 568.19 431.135 562.275C428.935 560.237 426.524 560.231 424.45 562.125C422.447 563.947 422.291 566.308 424.018 568.694C431.891 579.577 436.957 591.551 438.198 605.018C439.14 615.224 437.707 625.046 433.096 634.252C424.954 650.499 411.241 660.094 394.446 665.632C386.094 668.388 377.28 668.526 368.538 668.76C365.672 668.838 362.722 669.06 359.976 669.821C354.076 671.457 350.622 676.185 351.06 681.723C351.42 686.302 354.046 689.568 357.835 691.923C363.604 695.507 370.031 696.136 376.597 695.711C387.977 694.974 398.398 691.144 408.213 685.517C417.105 680.416 424.906 674.046 430.614 665.398C442.048 648.078 447.042 628.828 447.648 609.782L447.642 609.776ZM466.859 611.125C466.655 608.715 466.355 604.544 465.911 600.379C465.714 598.503 465.3 596.639 464.88 594.793C464.161 591.641 462.002 589.825 458.902 589.645C456 589.478 453.038 591.269 452.265 594.008C451.875 595.393 451.935 596.975 452.115 598.425C454.447 616.986 451.827 634.851 444.362 651.949C437.509 667.645 427.298 680.476 411.858 688.639C408.609 690.359 407.535 693.625 409.064 696.736C410.629 699.918 413.771 701.135 417.123 699.427C420.936 697.491 424.744 695.441 428.227 692.978C438.126 685.978 445.717 676.845 451.791 666.429C461.433 649.888 466.529 632.064 466.865 611.113L466.859 611.125ZM368.61 461.423C368.688 454.849 365.114 449.827 359.448 448.616C354.028 447.46 348.962 448.49 344.645 452.002C342.42 453.812 340.471 456 338.589 458.175C335.95 461.232 333.588 464.528 330.92 467.554C327.208 471.755 322.49 474.141 316.866 474.74C315.397 474.896 313.904 475.255 312.536 475.801C310.144 476.754 309.191 478.767 310.21 481.135C310.936 482.825 312.003 484.497 313.31 485.779C316.26 488.662 320.061 490.196 323.935 491.389C331.31 493.654 337.941 492.252 343.619 486.93C346.024 484.677 347.636 481.872 348.932 478.863C349.501 477.539 350.137 476.226 350.91 475.016C351.666 473.835 352.427 473.841 353.111 474.836C355.299 478.03 357.452 478.438 360.66 476.208C365.888 472.576 368.31 467.446 368.61 461.417V461.423ZM293.128 744.746C293.308 732.424 291.605 722.584 288.817 712.911C287.809 709.411 286.526 705.995 284.326 703.016C282.137 700.056 279.325 699.81 276.915 702.501C275.764 703.789 274.702 705.228 273.911 706.756C264.497 724.981 266.074 742.996 275.176 760.784C276.633 763.636 278.582 766.201 281.364 767.963C284.236 769.779 286.916 769.348 288.739 766.489C289.818 764.793 290.651 762.857 291.203 760.922C292.906 754.922 293.02 748.72 293.128 744.746ZM321.267 513.845C321.506 513.833 321.608 513.833 321.704 513.815C328.522 512.85 333.222 508.781 336.52 503.117C338.175 500.277 335.992 497.268 332.395 496.807C326.699 496.075 321.38 494.2 316.782 490.807C312.339 487.529 308.183 483.861 303.938 480.326C301.696 478.456 299.28 478.27 297.319 479.954C295.364 481.632 295.136 483.939 296.653 486.409C299.19 490.526 301.66 494.679 304.256 498.754C307.122 503.255 310.042 507.738 314.275 511.136C316.356 512.802 318.676 513.851 321.261 513.845H321.267ZM311.229 456.593C311.199 462.196 315.504 466.194 321.596 466.218C326.201 466.236 329.829 462.454 329.889 457.564C329.961 451.637 325.895 447.286 320.319 447.316C315.061 447.346 311.253 451.229 311.229 456.593ZM307.83 475.219C310.24 475.231 313.58 474.332 315.978 473.026C318.634 471.576 318.784 468.609 316.254 466.907C313.442 465.019 311.068 462.79 309.479 459.703C308.1 457.024 304.964 455.79 301.924 456.413C298.914 457.03 296.605 459.362 296.515 462.352C296.467 463.994 296.857 465.72 297.385 467.303C299.058 472.301 302.979 475.195 307.83 475.219ZM312.249 611.041C311.607 606.618 310.27 602.219 307.398 598.419C306.343 597.029 304.598 596.717 303.081 597.43C301.45 598.203 300.563 599.714 300.916 601.44C301.276 603.19 301.612 604.988 302.29 606.624C303.273 609.003 304.418 611.334 305.743 613.54C306.649 615.044 308.249 615.326 309.844 614.72C311.295 614.169 312.261 612.785 312.255 611.035L312.249 611.041ZM331.28 439.92C329.403 439.878 328.246 440.508 327.76 441.676C327.268 442.869 327.466 443.936 328.282 445.008C329.607 446.74 330.872 448.532 331.993 450.402C333.522 452.943 336.052 453.854 338.595 452.596C341.149 451.331 341.97 448.79 340.573 446.009C338.571 442.012 335.021 440.382 331.28 439.92ZM385.417 480.044C385.417 480.044 385.459 480.044 385.477 480.044C385.447 479.349 385.602 478.564 385.333 477.982C384.943 477.155 384.367 476.088 383.624 475.843C382.892 475.597 381.549 475.957 381.028 476.544C380.032 477.659 379.271 479.067 378.719 480.469C378.18 481.848 378.569 483.214 379.756 484.239C380.896 485.222 382.215 485.312 383.534 484.802C384.907 484.275 385.345 483.052 385.411 481.68C385.441 481.135 385.411 480.589 385.411 480.044H385.417Z" fill="#FF2B2B"/>
<path d="M49.6 298H16.8V293.6C26.1333 293.067 33.2 290.533 38 286C43.0667 281.467 45.7333 275.067 46 266.8C46.5333 241.733 46.9333 223.2 47.2 211.2C47.4667 199.2 47.8667 181.067 48.4 156.8C47.8667 132.533 47.4667 114.533 47.2 102.8C46.9333 90.8 46.5333 72.9333 46 49.2C45.7333 40.9333 43.0667 34.5333 38 30C33.2 25.4667 26.1333 22.9333 16.8 22.4V18H49.6H189.2V80H184.8C184.533 69.0667 182.8 59.6 179.6 51.6C176.4 43.3333 170.8 36.6667 162.8 31.6C155.067 26.5333 144.4 23.8666 130.8 23.6L56.8 22.4L54 157.2L56.4 266.8C56.6667 275.067 59.7333 281.467 65.6 286C71.7333 290.533 80.9333 293.067 93.2 293.6V298H52.8H49.6ZM152.8 194.8C152.8 185.733 152.267 178.8 151.2 174C150.133 169.2 147.6 165.6 143.6 163.2C139.6 160.533 133.6 159.2 125.6 159.2H51.2L51.6 153.2C75.6 153.733 99.6 154.267 123.6 154.8C135.6 155.067 143.467 152.533 147.2 147.2C150.933 141.6 152.8 132.267 152.8 119.2H157.2V194.8H152.8ZM293.119 302C274.185 302 257.519 297.333 243.119 288C228.719 278.4 217.652 265.467 209.919 249.2C202.452 232.933 198.719 214.933 198.719 195.2C198.719 176 202.585 158.8 210.319 143.6C218.052 128.133 228.852 116 242.719 107.2C256.852 98.4 273.119 94 291.519 94C306.185 94 318.719 97.2 329.119 103.6C339.785 109.733 348.052 117.333 353.919 126.4C359.785 135.467 363.519 144.133 365.119 152.4L361.519 182L207.519 189.2V184.8L359.519 174.8L350.719 179.2C354.452 166.4 354.185 153.867 349.919 141.6C345.919 129.067 338.585 118.8 327.919 110.8C317.252 102.8 304.319 98.8 289.119 98.8C272.319 98.8 257.785 103.067 245.519 111.6C233.519 119.867 224.319 131.067 217.919 145.2C211.519 159.067 208.319 174.4 208.319 191.2C208.319 209.6 211.652 226.667 218.319 242.4C225.252 257.867 235.252 270.267 248.319 279.6C261.652 288.933 277.252 293.6 295.119 293.6C313.785 293.6 329.785 287.733 343.119 276C356.452 264.267 365.519 250.4 370.319 234.4L374.719 235.6C371.785 246.267 366.985 256.667 360.319 266.8C353.919 276.933 344.985 285.333 333.519 292C322.319 298.667 308.852 302 293.119 302ZM43.2 574H16.8V569.6C24.2667 569.067 30 566.8 34 562.8C38.2667 558.8 40.5333 553.067 40.8 545.6C41.3333 520 41.7333 501.067 42 488.8C42.2667 476.267 42.6667 457.467 43.2 432.4C42.9333 416.933 42.6667 401.2 42.4 385.2C42.1333 369.2 41.6 348.133 40.8 322C40.5333 314.533 38.2667 308.933 34 305.2C30 301.2 24.2667 298.933 16.8 298.4V294H43.2H160V353.2H155.6C155.333 340.933 153.6 330.933 150.4 323.2C147.2 315.467 141.867 309.6 134.4 305.6C127.2 301.6 116.933 299.467 103.6 299.2L51.6 298.4L48.8 432.4L51.6 545.6C51.6 553.067 54 558.8 58.8 562.8C63.8667 566.8 71.0667 569.067 80.4 569.6V574H48.8H43.2ZM129.6 469.6C129.6 461.067 129.067 454.533 128 450C126.933 445.2 124.4 441.6 120.4 439.2C116.4 436.533 110.4 435.2 102.4 435.2H45.6L46 429.2C64.1333 429.733 82.2667 430.267 100.4 430.8C112.4 431.067 120.267 428.533 124 423.2C127.733 417.6 129.6 408.533 129.6 396H134V469.6H129.6ZM244.222 578C229.289 578 216.089 573.6 204.622 564.8C193.422 555.733 184.755 543.067 178.622 526.8C172.489 510.533 169.422 492 169.422 471.2C169.422 451.2 172.355 433.6 178.222 418.4C184.089 403.2 192.489 391.333 203.422 382.8C214.355 374.267 227.155 370 241.822 370C253.022 370 262.889 372.8 271.422 378.4C279.955 383.733 286.755 390.933 291.822 400C297.155 409.067 300.755 418.8 302.622 429.2L298.622 458L177.822 463.2V458.8L295.422 450.8L288.622 454.4C291.822 441.067 291.689 428.267 288.222 416C285.022 403.733 279.022 393.733 270.222 386C261.689 378.267 251.555 374.4 239.822 374.4C227.289 374.4 216.355 378.4 207.022 386.4C197.955 394.133 190.889 405.067 185.822 419.2C181.022 433.067 178.622 448.8 178.622 466.4C178.622 485.867 181.289 503.467 186.622 519.2C192.222 534.667 200.089 546.933 210.222 556C220.622 565.067 232.489 569.6 245.822 569.6C260.222 569.6 272.489 564.4 282.622 554C292.755 543.6 300.089 530.133 304.622 513.6L309.022 514.8C306.089 526.267 301.955 536.8 296.622 546.4C291.289 555.733 284.222 563.333 275.422 569.2C266.622 575.067 256.222 578 244.222 578ZM36.4 850H16.8V845.6C22.1333 845.067 26.5333 843.2 30 840C33.4667 836.533 35.3333 831.467 35.6 824.8C36.1333 798.4 36.5333 778.8 36.8 766C37.0667 753.2 37.4667 734 38 708.4C38 701.467 37.7333 688 37.2 668C36.9333 648 36.4 623.733 35.6 595.2C35.3333 588.533 33.4667 583.6 30 580.4C26.8 576.933 22.4 574.933 16.8 574.4V570H36.8H130.8V626.4H126.4C125.867 612.8 124 602.4 120.8 595.2C117.867 588 112.933 582.933 106 580C99.0667 576.8 89.2 575.067 76.4 574.8L46.4 574.4L43.6 708L46.4 824.8C46.4 831.467 48.2667 836.533 52 840C55.7333 843.2 60.9333 845.067 67.6 845.6V850H44.8H36.4ZM106.4 744.8C106.4 736.533 105.867 730.133 104.8 725.6C103.733 721.067 101.2 717.6 97.2 715.2C93.2 712.533 87.2 711.2 79.2 711.2H40V705.6C52.5333 705.867 64.9333 706.267 77.2 706.8C89.2 707.067 97.0667 704.533 100.8 699.2C104.533 693.867 106.4 685.2 106.4 673.2H110.8V744.8H106.4ZM194.925 854C183.992 854 174.392 849.867 166.125 841.6C157.858 833.067 151.458 820.8 146.925 804.8C142.392 788.533 140.125 769.333 140.125 747.2C140.125 726.667 142.125 708.8 146.125 693.6C150.125 678.4 155.992 666.667 163.725 658.4C171.458 650.133 180.792 646 191.725 646C199.725 646 206.925 648.4 213.325 653.2C219.992 657.733 225.458 664.533 229.725 673.6C234.258 682.667 237.592 693.467 239.725 706L235.725 734L148.125 737.6V733.2L231.325 726.8L226.125 730C228.792 716.133 228.792 703.067 226.125 690.8C223.725 678.533 219.192 668.8 212.525 661.6C206.125 654.133 198.658 650.4 190.125 650.4C181.858 650.4 174.525 654.133 168.125 661.6C161.992 668.8 157.192 679.333 153.725 693.2C150.525 707.067 148.925 723.333 148.925 742C148.925 762.533 150.925 780.667 154.925 796.4C159.192 811.867 164.925 824 172.125 832.8C179.325 841.333 187.458 845.6 196.525 845.6C206.392 845.6 214.792 841.2 221.725 832.4C228.658 823.333 234.258 810.267 238.525 793.2L242.925 794.4C240.258 806.4 236.792 816.933 232.525 826C228.258 834.8 222.925 841.733 216.525 846.8C210.392 851.6 203.192 854 194.925 854Z" fill="#EEEEEE"/>
</svg>
