<svg width="903" height="825" viewBox="0 0 903 825" fill="none" xmlns="http://www.w3.org/2000/svg">
<g clip-path="url(#clip0_134_29)">
<path d="M892.693 567.911C882.133 557.684 866.167 555.438 853.206 562.38C827.291 576.258 799.748 590.121 771.909 600.117C712.791 621.337 604.188 628.504 601.303 564.465C600.65 549.963 591.438 542.578 583.736 538.928C577.255 535.853 572.636 529.936 571.056 522.945C562.329 484.387 537.755 464.135 534.82 437.075C533.352 423.5 534.967 409.762 541.033 396.082C575.325 318.79 637.855 230.436 605.845 146.251C602.461 137.343 589.992 136.726 585.54 145.156C518.102 272.854 499.946 40.9237 667.968 127.467C670.861 128.955 673.557 130.401 676.078 131.784C683.373 135.799 691.243 127.53 686.848 120.461C686.743 120.3 686.644 120.132 686.539 119.963C563.606 -87.8558 292.444 10.8452 151.551 141.85C106.468 178.653 88.0309 156.057 76.418 115.955C69.3618 91.5974 35.1408 90.3058 26.7295 114.228C-5.14635 204.864 -20.1294 369.667 49.5692 428.533C119.268 487.405 106.974 535.222 138.871 588.128C201.527 692.051 320.844 769.329 407.702 800.425C606.562 871.617 764.544 771.645 824.209 709.551C876.467 655.164 892.525 628.244 901.175 603.107C905.436 590.739 902.094 577.016 892.693 567.911ZM588.272 165.513C606.239 150.891 607.144 216.165 594.605 247.942C591.866 254.885 586.608 260.858 579.151 261.216C552.218 262.494 546.763 199.297 588.272 165.52V165.513ZM554.142 504.189C556.185 509.123 557.491 514.458 557.189 519.168C556.41 531.452 538.597 532.526 536.708 520.361C535.859 514.865 537.832 508.267 541.623 502.834C544.867 498.18 551.965 498.945 554.135 504.182L554.142 504.189ZM542.101 498.089C537.256 503.543 528.515 502.96 524.436 496.916C520.455 491.013 517.063 483.242 515.954 476.321C514.557 467.568 523.165 460.387 531.457 463.497C544.776 468.494 551.916 487.033 542.094 498.089H542.101ZM482.21 502.188C472.458 460.134 530.776 482.133 516.551 510.934C506.265 527.62 486.725 526.349 482.21 502.188ZM510.084 558.723C506.328 565.356 496.562 564.64 493.571 557.628C490.488 550.405 488.572 540.648 490.327 533.256C491.794 527.107 499.328 524.594 504.194 528.63C512.359 535.411 514.81 550.37 510.077 558.716L510.084 558.723ZM383.711 548.306C372.084 539.939 369.697 513.328 387.355 515.153C399.34 517.048 402.549 527.823 402.542 538.373C402.542 548.025 391.547 553.95 383.711 548.313V548.306ZM394.124 576.875C383.199 580.582 377.343 571.695 384.125 564.191C390.999 563.573 391.203 570.796 394.124 576.875ZM315.038 514.669C314.736 512.064 316.828 509.748 319.44 509.509C323.758 509.116 327.739 509.488 331.945 510.289C334.409 510.759 336.199 513.061 335.862 515.546C333.517 532.919 316.765 529.69 315.038 514.669ZM327.156 554.09C326.005 559.453 319.496 561.601 315.396 557.951C310.888 553.936 307.602 548.453 310.404 543.8C311.639 541.75 313.802 540.479 316.154 540.037C324.825 538.402 328.827 546.32 327.156 554.09ZM335.062 555.473C340.84 554.603 345.271 557.466 349.406 561.018C355.711 586.499 324.165 572.748 335.062 555.473ZM342.287 521.239C342.209 516.69 346.359 513.209 350.845 513.96C352.306 514.205 353.759 514.437 355.163 514.774C363.792 516.852 365.33 528.532 357.333 532.393C350.866 535.51 342.469 531.909 342.287 521.246V521.239ZM355.437 569.835C360.843 565.012 372.786 569.477 370.483 576.812C363.645 587.362 352.685 580.413 355.437 569.835ZM350.185 496.973C247.172 510.204 248.822 425.886 301.894 380.056C310.558 372.573 318.471 374.609 327.535 381.593C340.033 391.224 356.575 395.667 375.869 393.962C385.733 393.084 394.973 398.791 399.207 407.741C412.463 435.777 427.965 490.683 350.185 496.973ZM290.71 529.494C294.866 529.262 297.527 532.751 297.604 536.822C297.689 541.223 292.233 543.315 289.298 540.03C287.901 538.465 286.736 536.871 286.328 535.123C285.675 532.337 287.845 529.641 290.71 529.487V529.494ZM281.147 513.37C275.86 513.735 267.126 504.083 273.971 499.184C284.362 491.659 298.194 514.058 281.147 513.37ZM302.175 505.291C305.91 507.425 307.371 511.594 306.367 515.511C305.306 519.645 299.977 520.397 298.004 516.606C295.175 511.166 295.526 503.108 302.175 505.284V505.291ZM240.972 264.038C236.387 261.764 233.41 257.173 233.41 252.056V251.957C233.41 246.805 235.144 241.821 238.381 237.82C243.471 231.524 249.229 224.89 255.744 217.892C266.171 206.696 281.926 207.987 289.734 221.142C315.227 264.108 307.623 354.217 263.945 318.334C261.937 316.684 258.904 317.702 258.834 320.299C258.075 346.987 185.737 344.383 206.793 285.061C208.576 280.042 216.286 281.074 216.377 286.402C216.377 286.472 216.377 286.549 216.377 286.627C216.349 299.599 230.412 308.991 244.258 306.106C252.992 304.288 260.062 297.226 261.881 288.487C264.057 278.028 250.156 268.594 240.972 264.038ZM437.746 531.614C435.281 558.99 399.502 541.406 406.446 520.263C415.138 496.165 439.354 508.941 437.746 531.614ZM400.885 561.011C409.584 548.945 436.306 578.911 423.402 586.682C420.979 588.142 417.988 588.233 415.355 587.201C408.11 584.344 400.857 575.647 399.46 568.122C399.003 565.651 399.41 563.054 400.878 561.018L400.885 561.011ZM425.957 561.538C425.101 556.449 428.934 551.746 434.088 551.507C449.267 550.798 453.993 564.577 442.632 573.225C440.575 574.791 437.977 575.584 435.45 575.057C429.924 573.913 427.01 567.785 425.957 561.538ZM442.078 524.124C432.964 468.803 505.043 507.291 474.719 532.898C463.064 540.571 444.844 548.095 442.078 524.124ZM498.921 269.204C497.502 260.556 491.05 253.277 482.667 250.729C479.402 249.739 476.243 249.487 473.266 249.817C467.684 250.427 462.151 248.497 458.493 244.243C451.17 235.728 440.589 223.458 440.589 223.458C436.398 218.622 436.159 211.406 440.294 206.268C445.09 200.294 454.14 199.978 459.954 204.969L487.28 228.421C508.147 246.335 519.465 272.96 517.878 300.413L517.414 308.485C517.028 315.189 512.106 321.085 505.436 321.864C498.141 322.714 491.633 317.702 490.439 310.654L489.737 306.499C489.576 305.558 489.407 304.618 489.218 303.684C488.115 298.181 489.983 292.67 493.627 288.41C497.917 283.398 500.128 276.575 498.921 269.218V269.204ZM466.28 184.542C470.331 176.673 485.735 176.533 500.69 184.233C515.645 191.934 524.485 204.548 520.426 212.417C516.375 220.286 500.971 220.426 486.016 212.726C471.061 205.025 462.221 192.411 466.28 184.542ZM490.025 402.827C494.82 393.421 508.329 393.625 512.963 403.115C516.972 411.321 518.798 422.018 512.507 434.029C505.38 447.633 488.705 457.853 470.766 461.131C465.992 462.001 462.516 456.73 464.981 452.546C474.909 435.671 481.782 419.014 490.032 402.834L490.025 402.827ZM487.94 556.421C488.249 578.785 461.147 578.988 457.096 558.119C453.389 536.675 486.648 530.182 487.94 556.421ZM521.29 515.693C524.541 513.096 529.378 514.458 530.769 518.375C532.004 521.857 533.542 525.296 534.679 528.623C538.843 540.802 522.54 549.647 515.048 539.188C510.618 533.004 511.924 523.176 521.297 515.693H521.29ZM259.585 92.566C343.136 41.4221 446.382 13.4845 540.732 36.9086C584.67 47.8168 590.357 77.6707 552.618 102.674C542.227 109.56 534.813 118.517 529.954 126.498C529.912 126.568 529.863 126.646 529.821 126.716C520.384 142.222 502.165 150.056 484.429 146.167C462.467 141.351 436.826 135.371 430.001 133.763C424.911 132.57 419.73 132.886 420.361 138.073C421.843 150.252 422.552 166.432 416.514 179.867C411.978 189.968 397.339 195.703 383.887 198.904C379.393 199.971 379.176 206.282 383.592 207.629C462.601 231.769 510.815 333.798 474.768 409.103C400.962 565.307 443.77 342.495 364.951 374.756C357.515 377.796 348.908 376.462 342.954 371.078C324.755 354.624 324.39 323.669 350.003 320.643C353.19 320.264 352.797 315.498 349.589 315.589C334.697 316.01 315.185 327.424 317.909 302.849C324.699 241.583 292.437 185.293 331.72 143.212C342.413 131.756 351.232 128.295 352.896 127.551C358.154 125.2 356.006 117.275 350.277 117.864C329.887 119.97 299.633 123.22 271.528 126.702C251.77 129.152 242.608 102.948 259.585 92.559V92.566ZM121.093 463.504C111.741 470.734 98.9277 460.289 104.116 449.661C105.703 446.411 107.648 443.302 109.642 440.445C114.718 433.151 111.123 422.966 102.558 420.579C-1.16536 391.652 13.1788 245.844 37.0436 137.87C38.4759 131.384 43.9594 126.582 50.5803 126.007C57.6154 126.007 63.9485 130.289 66.5393 136.824C80.8975 173.058 108.069 207.77 148.09 184.395C155.82 179.881 164.035 173.62 170.887 167.955C181.791 158.935 195.285 153.643 209.419 152.849C223.707 152.042 242.439 150.933 259.283 149.922C272.476 149.129 279.855 164.867 270.798 174.49C245.655 201.2 219.712 235.525 195.489 246.917C190.511 249.262 187.977 254.758 189.198 260.121C193.643 279.614 180.991 324.679 158.347 354.624C144.972 372.314 147.549 391.07 147.76 411.447C148.026 437.089 133.626 453.824 121.093 463.511V463.504ZM855.65 650.292C855.446 650.594 855.235 650.889 855.025 651.191C839.726 672.846 820.895 691.742 799.769 707.775C758.835 738.843 711.267 763.573 665.335 780.904C587.197 810.378 500.809 809.192 423.121 778.545C289.706 725.927 260.484 681.36 256.636 656.224C254.502 642.262 244.911 630.567 231.451 626.25C74.101 575.822 157.547 477.655 205.452 437.525C209.932 433.776 207.699 425.9 201.366 426.216C160.313 428.301 144.235 361.749 197.764 350.511C222.338 345.85 247.305 351.908 272.097 352.68C276.639 352.82 278.865 347.142 275.403 344.193C270.369 339.912 271.001 338.094 275.474 337.027C290.45 333.468 302.329 349.725 294.564 363.013C270.545 404.098 226.972 443.224 196.942 471.506C157.449 508.695 172.558 527.297 197.961 508.878C277.952 450.869 291.896 723.681 567.693 559.348C580.274 551.851 594.457 563.931 585.983 575.872C570.354 597.906 530.066 622.088 510.653 632.926C507.873 634.477 509.319 639.265 512.38 638.394C522.947 635.39 525.748 634.723 540.661 633.487C614.875 627.324 679.497 662.913 814.871 598.895C845.476 584.421 874.838 622.411 855.643 650.292H855.65Z" fill="black"/>
</g>
<defs>
<clipPath id="clip0_134_29">
<rect width="903" height="825" fill="white"/>
</clipPath>
</defs>
</svg>
