<svg width="774" height="474" viewBox="0 0 774 474" fill="none" xmlns="http://www.w3.org/2000/svg">
<path d="M10.0387 101H0.288672V98.14C3.14867 97.62 5.35867 96.4067 6.91867 94.5C8.47867 92.5933 9.38867 89.8633 9.64867 86.31C10.1687 79.2033 10.602 72.6167 10.9487 66.55C11.382 60.4833 11.642 56.15 11.7287 53.55C11.642 50.8633 11.382 46.53 10.9487 40.55C10.602 34.4833 10.1687 27.8967 9.64867 20.79C9.38867 17.2367 8.47867 14.5067 6.91867 12.6C5.35867 10.6933 3.14867 9.48 0.288672 8.96V6.1H10.0387H78.2887V32.1H75.4287C74.9087 28.6333 73.522 25.34 71.2687 22.22C69.102 19.1 66.112 16.5433 62.2987 14.55C58.572 12.5567 54.3253 11.4733 49.5587 11.3L32.9187 10.78L30.0587 52.77L32.0087 86.31C32.2687 89.95 33.482 92.68 35.6487 94.5C37.902 96.2333 41.282 97.4467 45.7887 98.14V101H31.4887H10.0387ZM61.9087 71.1C61.4753 68.0667 60.6087 65.4667 59.3087 63.3C58.0087 61.0467 56.1887 59.3133 53.8487 58.1C51.5953 56.8 48.8653 56.15 45.6587 56.15H21.0887V49C32.0953 50.2133 40.112 51.0367 45.1387 51.47C50.3387 51.9033 54.1953 50.9067 56.7087 48.48C59.3087 45.9667 61.042 42.1533 61.9087 37.04H64.7687V71.1H61.9087ZM116.902 102.95C110.055 102.95 103.902 101.303 98.4417 98.01C93.0684 94.7167 88.8651 90.34 85.8317 84.88C82.8851 79.3333 81.4117 73.3533 81.4117 66.94C81.4117 60.7867 82.7984 54.9367 85.5717 49.39C88.4317 43.8433 92.5484 39.38 97.9217 36C103.382 32.5333 109.795 30.8 117.162 30.8C121.928 30.8 126.262 31.5367 130.162 33.01C134.148 34.4833 137.528 36.5633 140.302 39.25C143.075 41.85 145.155 44.8833 146.542 48.35L144.202 62.26L95.9717 64.34V60.31L133.802 55.11L128.472 56.28C129.252 51.9467 129.122 48.22 128.082 45.1C127.128 41.8933 125.525 39.51 123.272 37.95C121.105 36.3033 118.592 35.48 115.732 35.48C112.612 35.48 109.838 36.4767 107.412 38.47C105.072 40.3767 103.252 43.02 101.952 46.4C100.652 49.78 100.002 53.55 100.002 57.71C100.002 62.5633 100.868 67.33 102.602 72.01C104.422 76.6033 107.195 80.4167 110.922 83.45C114.648 86.4833 119.285 88 124.832 88C129.598 88 133.888 86.8733 137.702 84.62C141.515 82.28 144.462 78.9433 146.542 74.61L149.272 75.26C148.405 80.1133 146.585 84.6633 143.812 88.91C141.125 93.07 137.485 96.45 132.892 99.05C128.298 101.65 122.968 102.95 116.902 102.95ZM210.591 101H202.401V98.4C204.828 97.88 206.734 96.7533 208.121 95.02C209.594 93.2867 210.504 90.8167 210.851 87.61C211.804 76.3433 212.281 70.19 212.281 69.15C212.281 68.11 211.934 65.9433 211.241 62.65C210.634 59.27 209.898 55.76 209.031 52.12C208.251 48.8267 206.691 46.1833 204.351 44.19C202.098 42.1967 199.584 41.2 196.811 41.2C193.951 41.2 191.091 42.3267 188.231 44.58C185.458 46.7467 183.031 49.6067 180.951 53.16L180.301 47.7C182.554 44.58 185.111 41.8067 187.971 39.38C190.831 36.8667 193.994 34.8733 197.461 33.4C201.014 31.84 204.741 31.06 208.641 31.06C214.014 31.06 218.434 32.2733 221.901 34.7C225.368 37.1267 227.794 40.29 229.181 44.19C230.654 48.09 231.088 52.2067 230.481 56.54C230.221 59.0533 229.961 61.5667 229.701 64.08C229.614 65.7267 229.528 67.4167 229.441 69.15C229.441 71.23 229.874 77.3833 230.741 87.61C231.088 90.8167 232.084 93.2867 233.731 95.02C235.464 96.7533 237.761 97.88 240.621 98.4V101H230.871H210.591ZM163.791 101H154.041V98.4C156.901 97.88 159.111 96.7533 160.671 95.02C162.318 93.2867 163.314 90.7733 163.661 87.48C164.008 84.36 164.311 81.2833 164.571 78.25C164.831 75.2167 165.048 72.1833 165.221 69.15C165.221 67.85 165.048 65.64 164.701 62.52C164.354 57.7533 163.964 53.03 163.531 48.35C163.184 44.8833 162.144 42.4567 160.411 41.07C158.764 39.5967 156.208 38.86 152.741 38.86L152.221 36.26L163.531 34.05L184.851 29.76L184.201 44.06L183.811 46.14C183.638 49.1733 183.464 51.47 183.291 53.03C183.204 54.5033 183.074 56.7133 182.901 59.66L182.381 69.15C182.381 71.75 182.858 77.9033 183.811 87.61C184.158 90.8167 185.024 93.2867 186.411 95.02C187.884 96.7533 189.834 97.88 192.261 98.4V101H184.071H163.791ZM274.347 102.82C269.494 102.82 265.247 101.953 261.607 100.22C257.967 98.4867 255.194 95.8433 253.287 92.29C251.467 88.65 250.774 84.1433 251.207 78.77C251.467 76.69 251.684 74.6533 251.857 72.66C252.55 67.1133 252.897 63.69 252.897 62.39C252.724 60.31 252.55 58.2733 252.377 56.28C252.117 53.68 251.857 51.08 251.597 48.48C251.25 45.1 250.34 42.7167 248.867 41.33C247.48 39.9433 245.357 39.25 242.497 39.25L241.977 36.78L251.597 34.83L272.917 30.54C272.137 39.0333 271.314 47.57 270.447 56.15C270.36 58.23 270.23 60.3533 270.057 62.52C270.144 64.5133 270.36 67.46 270.707 71.36C271.14 75.26 271.487 78.0333 271.747 79.68C272.527 84.2733 274.174 87.6533 276.687 89.82C279.2 91.9 282.06 92.94 285.267 92.94C288.734 92.94 291.637 91.9433 293.977 89.95C296.317 87.87 298.354 85.3133 300.087 82.28V89.04C297.054 92.3333 294.67 94.8033 292.937 96.45C291.29 98.01 288.864 99.4833 285.657 100.87C282.537 102.17 278.767 102.82 274.347 102.82ZM296.057 92.42C296.577 86.7 297.14 78.9867 297.747 69.28L298.007 63.43C298.007 62.13 297.574 57.2333 296.707 48.74C296.36 45.2733 295.32 42.8467 293.587 41.46C291.94 39.9867 289.384 39.25 285.917 39.25L285.397 36.65L296.707 34.44L318.027 30.15L316.987 42.24C315.774 55.0667 315.167 62.13 315.167 63.43C315.167 63.8633 315.904 71.9233 317.377 87.61C317.724 90.9033 318.72 93.4167 320.367 95.15C322.014 96.7967 324.267 97.88 327.127 98.4V101H317.377H296.057V92.42ZM346.111 101H336.361V98.4C339.221 97.88 341.388 96.7533 342.861 95.02C344.421 93.2867 345.288 90.7733 345.461 87.48C346.848 65.9867 347.541 54.72 347.541 53.68C347.454 50.9933 347.194 46.5733 346.761 40.42C346.414 34.18 346.024 27.2467 345.591 19.62C345.331 16.0667 344.334 13.5967 342.601 12.21C340.868 10.7367 338.138 10.0433 334.411 10.13L333.891 7.65999L346.241 5.18999L367.561 0.899995C366.954 12.1667 366.348 23.4767 365.741 34.83C365.048 45.4033 364.701 51.6867 364.701 53.68C364.701 56.1933 365.351 67.46 366.651 87.48C366.911 90.7733 367.778 93.2867 369.251 95.02C370.811 96.7533 373.021 97.88 375.881 98.4V101H366.131H346.111ZM422.129 101H412.379V98.14C415.239 97.62 417.449 96.4067 419.009 94.5C420.569 92.5933 421.479 89.8633 421.739 86.31C422.085 82.15 422.345 79.0733 422.519 77.08C422.692 75.0867 422.952 72.0533 423.299 67.98C423.645 63.7333 423.949 59.53 424.209 55.37C423.862 50.0833 423.515 44.84 423.169 39.64C422.562 32.9667 422.085 26.64 421.739 20.66C421.479 17.1067 420.569 14.3767 419.009 12.47C417.449 10.5633 415.239 9.35 412.379 8.82999V5.97H422.129H464.249C471.269 5.97 477.292 7.05333 482.319 9.22C487.345 11.3867 491.159 14.3767 493.759 18.19C496.359 22.0033 497.659 26.3367 497.659 31.19C497.659 36.65 496.489 41.6767 494.149 46.27C491.809 50.7767 488.342 54.3733 483.749 57.06C479.155 59.66 473.609 60.96 467.109 60.96H439.289V53.29L456.839 55.37C462.125 55.9767 466.285 54.3733 469.319 50.56C472.352 46.7467 473.869 41.85 473.869 35.87C473.869 30.67 472.915 26.25 471.009 22.61C469.102 18.97 466.502 16.1967 463.209 14.29C460.002 12.3833 456.319 11.3 452.159 11.04L445.009 10.65L442.409 55.89L444.749 86.31C445.095 89.8633 446.395 92.55 448.649 94.37C450.902 96.19 454.282 97.4467 458.789 98.14V101H444.489H422.129ZM512.42 101H502.67V98.4C505.53 97.88 507.696 96.7533 509.17 95.02C510.73 93.2867 511.596 90.7733 511.77 87.48C513.156 65.9867 513.85 54.72 513.85 53.68C513.763 50.9933 513.503 46.5733 513.07 40.42C512.723 34.18 512.333 27.2467 511.9 19.62C511.64 16.0667 510.643 13.5967 508.91 12.21C507.176 10.7367 504.446 10.0433 500.72 10.13L500.2 7.65999L512.55 5.18999L533.87 0.899995C533.263 12.1667 532.656 23.4767 532.05 34.83C531.356 45.4033 531.01 51.6867 531.01 53.68C531.01 56.1933 531.66 67.46 532.96 87.48C533.22 90.7733 534.086 93.2867 535.56 95.02C537.12 96.7533 539.33 97.88 542.19 98.4V101H532.44H512.42ZM593.842 60.96L592.412 52.77C591.372 47.1367 589.336 42.89 586.302 40.03C583.356 37.0833 579.889 35.61 575.902 35.61C570.876 35.61 566.716 37.82 563.422 42.24C560.216 46.66 558.222 51.9033 557.442 57.97H554.582V35.61C558.136 34.1367 562.122 32.9667 566.542 32.1C571.049 31.2333 575.902 30.8 581.102 30.8C589.162 30.8 595.619 31.7967 600.472 33.79C605.326 35.6967 608.662 38.5133 610.482 42.24C612.302 45.88 612.822 50.43 612.042 55.89C611.696 57.6233 611.479 59.3133 611.392 60.96C611.132 63.1267 611.002 64.99 611.002 66.55C611.089 68.1967 611.262 70.84 611.522 74.48C611.869 78.0333 612.302 82.41 612.822 87.61C613.169 90.9033 614.166 93.4167 615.812 95.15C617.459 96.7967 619.712 97.88 622.572 98.4V101H612.822H592.282L593.842 60.96ZM569.402 102.95C564.809 102.95 560.909 102.083 557.702 100.35C554.582 98.6167 552.242 96.3633 550.682 93.59C549.209 90.73 548.472 87.6533 548.472 84.36C548.472 78.8133 550.682 74.0467 555.102 70.06C559.609 66.0733 566.542 63.3867 575.902 62L594.492 59.27L594.752 62.78L581.752 66.55C577.592 67.7633 574.386 69.7567 572.132 72.53C569.966 75.2167 568.882 78.3367 568.882 81.89C568.882 85.3567 569.836 88.13 571.742 90.21C573.649 92.29 576.206 93.33 579.412 93.33C581.319 93.33 583.226 92.8533 585.132 91.9C587.126 90.9467 588.859 89.82 590.332 88.52C591.806 87.1333 592.889 85.8767 593.582 84.75L594.622 87.74C592.282 92.5067 588.729 96.2333 583.962 98.92C579.196 101.607 574.342 102.95 569.402 102.95ZM687.681 101H679.491V98.4C681.918 97.88 683.824 96.7533 685.211 95.02C686.684 93.2867 687.594 90.8167 687.941 87.61C688.894 76.3433 689.371 70.19 689.371 69.15C689.371 68.11 689.024 65.9433 688.331 62.65C687.724 59.27 686.988 55.76 686.121 52.12C685.341 48.8267 683.781 46.1833 681.441 44.19C679.188 42.1967 676.674 41.2 673.901 41.2C671.041 41.2 668.181 42.3267 665.321 44.58C662.548 46.7467 660.121 49.6067 658.041 53.16L657.391 47.7C659.644 44.58 662.201 41.8067 665.061 39.38C667.921 36.8667 671.084 34.8733 674.551 33.4C678.104 31.84 681.831 31.06 685.731 31.06C691.104 31.06 695.524 32.2733 698.991 34.7C702.458 37.1267 704.884 40.29 706.271 44.19C707.744 48.09 708.178 52.2067 707.571 56.54C707.311 59.0533 707.051 61.5667 706.791 64.08C706.704 65.7267 706.618 67.4167 706.531 69.15C706.531 71.23 706.964 77.3833 707.831 87.61C708.178 90.8167 709.174 93.2867 710.821 95.02C712.554 96.7533 714.851 97.88 717.711 98.4V101H707.961H687.681ZM640.881 101H631.131V98.4C633.991 97.88 636.201 96.7533 637.761 95.02C639.408 93.2867 640.404 90.7733 640.751 87.48C641.098 84.36 641.401 81.2833 641.661 78.25C641.921 75.2167 642.138 72.1833 642.311 69.15C642.311 67.85 642.138 65.64 641.791 62.52C641.444 57.7533 641.054 53.03 640.621 48.35C640.274 44.8833 639.234 42.4567 637.501 41.07C635.854 39.5967 633.298 38.86 629.831 38.86L629.311 36.26L640.621 34.05L661.941 29.76L661.291 44.06L660.901 46.14C660.728 49.1733 660.554 51.47 660.381 53.03C660.294 54.5033 660.164 56.7133 659.991 59.66L659.471 69.15C659.471 71.75 659.948 77.9033 660.901 87.61C661.248 90.8167 662.114 93.2867 663.501 95.02C664.974 96.7533 666.924 97.88 669.351 98.4V101H661.161H640.881ZM729.213 101C729.82 93.6333 730.426 85.8767 731.033 77.73C731.726 69.4967 732.073 64.7733 732.073 63.56C732.073 62.26 731.726 58.7067 731.033 52.9C730.166 44.6667 729.646 39.0767 729.473 36.13H731.943L773.283 28.2V38.08H717.513V35.35C722.973 34.7433 727.74 33.0533 731.813 30.28C735.886 27.5067 739.136 24.3 741.563 20.66C744.076 17.02 745.983 13.25 747.283 9.34999H751.573C750.88 21.3967 750.316 34.2667 749.883 47.96L749.233 63.56C749.233 64.7733 749.84 72.7467 751.053 87.48C751.313 90.7733 752.7 93.2867 755.213 95.02C757.726 96.7533 761.41 97.88 766.263 98.4V101H749.623H729.213ZM340.166 180.5C337.219 177.553 332.236 175.603 325.216 174.65C318.196 173.697 309.616 173.177 299.476 173.09L293.626 172.96V167.76L324.956 164.77L278.156 118.49L281.666 114.98L327.946 161.78L331.846 131.36L337.176 131.23L337.306 137.6C337.219 148.433 337.523 157.013 338.216 163.34C338.909 169.667 340.773 174.173 343.806 176.86L340.166 180.5ZM382.904 195.58C382.99 191.507 380.867 186.653 376.534 181.02C372.287 175.387 366.61 168.93 359.504 161.65L355.344 157.49L359.114 153.72L383.294 173.74L382.904 107.96H387.974L387.584 173.74L411.894 155.02L415.664 158.79L411.244 163.21C403.617 170.837 397.81 177.163 393.824 182.19C389.837 187.13 387.93 191.593 388.104 195.58H382.904ZM445.816 174.65C438.796 175.603 433.813 177.553 430.866 180.5L427.226 176.86C430.26 174.173 432.123 169.667 432.816 163.34C433.51 157.013 433.813 148.433 433.726 137.6L433.856 131.23L439.186 131.36L443.086 161.78L489.366 114.98L492.876 118.49L446.076 164.77L477.406 167.76V172.96L471.556 173.09C461.416 173.177 452.836 173.697 445.816 174.65ZM41.0279 288H32.3179V285.4C34.8313 284.88 36.7379 283.753 38.0379 282.02C39.3379 280.287 40.0746 277.773 40.2479 274.48L42.4579 225.08H26.7279V222.09L41.4179 220.27C38.6446 212.817 37.8213 206.187 38.9479 200.38C40.1613 194.487 43.2379 189.893 48.1779 186.6C53.1179 183.307 59.6613 181.66 67.8079 181.66C71.9679 181.66 75.9979 182.137 79.8979 183.09C83.7979 184.043 87.1779 185.257 90.0379 186.73L87.0479 209.22L84.4479 208.83C84.4479 204.583 83.7546 200.77 82.3679 197.39C80.9813 193.923 78.9879 191.193 76.3879 189.2C73.8746 187.207 70.9279 186.21 67.5479 186.21C63.7346 186.21 60.8746 187.553 58.9679 190.24C57.1479 192.84 56.2379 196.003 56.2379 199.73C56.2379 203.283 56.9313 206.793 58.3179 210.26C59.7913 213.64 61.6979 216.543 64.0379 218.97L85.0979 217.15V225.08H60.1379L62.4779 274.48C62.5646 277.947 63.3446 280.503 64.8179 282.15C66.3779 283.71 68.7613 284.793 71.9679 285.4V288H61.5679H41.0279ZM118.666 289.95C112.166 289.95 106.446 288.347 101.506 285.14C96.653 281.847 92.9264 277.47 90.3264 272.01C87.7264 266.55 86.4264 260.483 86.4264 253.81C86.4264 247.57 87.6397 241.72 90.0664 236.26C92.493 230.713 96.133 226.25 100.986 222.87C105.926 219.49 111.863 217.8 118.796 217.8C123.39 217.8 127.506 218.58 131.146 220.14C134.873 221.613 137.993 223.737 140.506 226.51C143.106 229.197 145.013 232.36 146.226 236L144.016 249.26L98.9064 251.08V247.05L133.486 242.11L128.026 243.28C128.98 238.947 129.11 235.22 128.416 232.1C127.723 228.893 126.423 226.467 124.516 224.82C122.696 223.173 120.573 222.35 118.146 222.35C115.373 222.35 112.99 223.39 110.996 225.47C109.09 227.55 107.66 230.367 106.706 233.92C105.753 237.387 105.276 241.2 105.276 245.36C105.276 250.213 105.97 254.893 107.356 259.4C108.743 263.907 110.996 267.677 114.116 270.71C117.323 273.657 121.44 275.13 126.466 275.13C130.8 275.13 134.7 273.96 138.166 271.62C141.633 269.28 144.276 265.943 146.096 261.61L148.826 262.26C148.133 267.2 146.53 271.75 144.016 275.91C141.59 280.07 138.21 283.45 133.876 286.05C129.63 288.65 124.56 289.95 118.666 289.95ZM204.427 288H197.537V285.4C199.53 284.88 201.133 283.753 202.347 282.02C203.56 280.287 204.34 277.773 204.687 274.48C205.64 263.387 206.117 257.277 206.117 256.15C206.117 255.11 205.813 252.987 205.207 249.78C204.687 246.487 204.037 243.02 203.257 239.38C202.563 235.827 201.35 233.097 199.617 231.19C197.883 229.197 195.76 228.2 193.247 228.2C190.733 228.2 188.22 229.197 185.707 231.19C183.28 233.183 181.157 235.567 179.337 238.34L178.687 234.05C180.853 231.017 183.063 228.417 185.317 226.25C187.657 224.083 190.43 222.177 193.637 220.53C196.93 218.797 200.483 217.93 204.297 217.93C209.237 217.93 213.267 219.057 216.387 221.31C219.507 223.477 221.673 226.38 222.887 230.02C224.187 233.66 224.533 237.69 223.927 242.11C223.493 245.663 223.19 248.61 223.017 250.95C222.843 252.597 222.757 254.33 222.757 256.15C222.757 258.75 223.147 264.903 223.927 274.61C224.273 277.817 225.227 280.287 226.787 282.02C228.347 283.753 230.383 284.88 232.897 285.4V288H224.057H204.427ZM162.437 288H153.597V285.4C156.11 284.88 158.103 283.753 159.577 282.02C161.05 280.287 161.96 277.773 162.307 274.48C162.567 271.36 162.827 268.283 163.087 265.25C163.52 261.35 163.78 258.317 163.867 256.15C163.78 254.33 163.563 252.033 163.217 249.26C162.87 244.32 162.437 239.423 161.917 234.57C161.57 231.103 160.703 228.72 159.317 227.42C157.93 226.12 155.59 225.47 152.297 225.47L151.777 222.87L162.047 220.92L183.367 216.63L182.717 230.15L182.457 232.23C182.283 235.437 182.11 237.82 181.937 239.38C181.85 240.94 181.72 243.237 181.547 246.27L181.027 256.15C181.027 258.317 181.503 264.47 182.457 274.61C182.803 277.817 183.583 280.287 184.797 282.02C186.01 283.753 187.613 284.88 189.607 285.4V288H182.717H162.437ZM261.989 289.82C257.829 289.82 254.189 288.997 251.069 287.35C247.949 285.703 245.609 283.147 244.049 279.68C242.489 276.213 241.969 271.837 242.489 266.55C242.836 263.257 243.096 260.743 243.269 259.01C243.703 254.503 243.919 251.557 243.919 250.17C243.833 248.437 243.659 246.313 243.399 243.8C243.226 241.2 242.966 238.427 242.619 235.48C242.273 232.1 241.493 229.717 240.279 228.33C239.066 226.857 237.203 226.077 234.689 225.99L234.169 223.39L242.619 221.7L264.069 217.41C263.116 226.857 262.293 235.61 261.599 243.67C261.513 245.837 261.383 248.047 261.209 250.3C261.296 252.207 261.513 255.153 261.859 259.14C262.293 263.127 262.683 266.247 263.029 268.5C263.723 272.487 264.979 275.39 266.799 277.21C268.619 278.943 270.743 279.81 273.169 279.81C275.769 279.81 278.153 278.943 280.319 277.21C282.486 275.477 284.306 273.31 285.779 270.71L286.299 276.04C284.133 278.727 282.053 281.023 280.059 282.93C278.153 284.75 275.639 286.353 272.519 287.74C269.399 289.127 265.889 289.82 261.989 289.82ZM283.049 278.64C283.396 272.227 283.786 264.773 284.219 256.28L284.349 250.69C284.349 249.13 283.916 243.973 283.049 235.22C282.703 231.753 281.836 229.37 280.449 228.07C279.149 226.683 276.939 225.99 273.819 225.99L273.299 223.52L283.179 221.57L304.499 217.28L302.939 233.92C301.899 243.8 301.379 249.39 301.379 250.69C301.379 251.817 302.159 259.79 303.719 274.61C304.066 277.817 304.976 280.287 306.449 282.02C308.009 283.753 310.046 284.88 312.559 285.4V288H303.719H283.049V278.64ZM330.668 288H321.958V285.4C324.471 284.88 326.378 283.753 327.678 282.02C329.065 280.287 329.845 277.773 330.018 274.48C331.405 252.9 332.098 241.633 332.098 240.68C332.011 237.993 331.795 233.573 331.448 227.42C331.101 221.18 330.711 214.247 330.278 206.62C330.018 202.893 329.108 200.337 327.548 198.95C326.075 197.563 323.518 196.957 319.878 197.13L319.228 194.4L330.928 192.06L352.118 187.9C351.511 199.253 350.905 210.693 350.298 222.22C349.778 230.453 349.431 236.607 349.258 240.68C349.258 243.107 349.908 254.373 351.208 274.48C351.468 277.773 352.291 280.287 353.678 282.02C355.065 283.753 357.015 284.88 359.528 285.4V288H350.688H330.668ZM424.696 289.95C418.369 289.95 412.649 289.127 407.536 287.48C402.509 285.833 398.046 283.883 394.146 281.63V254.07H397.006C397.959 259.877 399.909 265.12 402.856 269.8C405.889 274.48 409.529 278.163 413.776 280.85C418.109 283.537 422.616 284.88 427.296 284.88C431.976 284.88 435.529 283.537 437.956 280.85C440.382 278.163 441.596 274.827 441.596 270.84C441.596 267.113 440.599 263.82 438.606 260.96C436.612 258.1 434.099 255.673 431.066 253.68C428.119 251.6 424.132 249.173 419.106 246.4C413.472 243.28 408.966 240.55 405.586 238.21C402.206 235.783 399.346 232.837 397.006 229.37C394.666 225.817 393.496 221.657 393.496 216.89C393.496 211.603 394.926 207.01 397.786 203.11C400.732 199.21 404.719 196.263 409.746 194.27C414.859 192.19 420.579 191.15 426.906 191.15C432.366 191.15 437.176 191.887 441.336 193.36C445.582 194.747 449.352 196.437 452.646 198.43V224.04H449.786C448.832 218.753 447.099 214.03 444.586 209.87C442.159 205.623 439.126 202.33 435.486 199.99C431.846 197.563 427.902 196.35 423.656 196.35C419.409 196.35 416.072 197.39 413.646 199.47C411.219 201.463 410.006 204.193 410.006 207.66C410.006 210.433 410.872 212.947 412.606 215.2C414.339 217.367 416.549 219.273 419.236 220.92C421.922 222.48 425.562 224.43 430.156 226.77C436.569 230.15 441.726 233.183 445.626 235.87C449.612 238.557 453.036 242.11 455.896 246.53C458.756 250.95 460.186 256.28 460.186 262.52C460.186 271.447 457.109 278.25 450.956 282.93C444.802 287.61 436.049 289.95 424.696 289.95ZM500.414 289.95C493.914 289.95 488.194 288.347 483.254 285.14C478.401 281.847 474.674 277.47 472.074 272.01C469.474 266.55 468.174 260.483 468.174 253.81C468.174 247.57 469.388 241.72 471.814 236.26C474.241 230.713 477.881 226.25 482.734 222.87C487.674 219.49 493.611 217.8 500.544 217.8C505.138 217.8 509.254 218.58 512.894 220.14C516.621 221.613 519.741 223.737 522.254 226.51C524.854 229.197 526.761 232.36 527.974 236L525.764 249.26L480.654 251.08V247.05L515.234 242.11L509.774 243.28C510.728 238.947 510.858 235.22 510.164 232.1C509.471 228.893 508.171 226.467 506.264 224.82C504.444 223.173 502.321 222.35 499.894 222.35C497.121 222.35 494.738 223.39 492.744 225.47C490.838 227.55 489.408 230.367 488.454 233.92C487.501 237.387 487.024 241.2 487.024 245.36C487.024 250.213 487.718 254.893 489.104 259.4C490.491 263.907 492.744 267.677 495.864 270.71C499.071 273.657 503.188 275.13 508.214 275.13C512.548 275.13 516.448 273.96 519.914 271.62C523.381 269.28 526.024 265.943 527.844 261.61L530.574 262.26C529.881 267.2 528.278 271.75 525.764 275.91C523.338 280.07 519.958 283.45 515.624 286.05C511.378 288.65 506.308 289.95 500.414 289.95ZM569.985 289.95C563.485 289.95 557.765 288.347 552.825 285.14C547.971 281.847 544.245 277.47 541.645 272.01C539.045 266.55 537.745 260.483 537.745 253.81C537.745 247.57 538.958 241.72 541.385 236.26C543.811 230.713 547.451 226.25 552.305 222.87C557.245 219.49 563.181 217.8 570.115 217.8C574.708 217.8 578.825 218.58 582.465 220.14C586.191 221.613 589.311 223.737 591.825 226.51C594.425 229.197 596.331 232.36 597.545 236L595.335 249.26L550.225 251.08V247.05L584.805 242.11L579.345 243.28C580.298 238.947 580.428 235.22 579.735 232.1C579.041 228.893 577.741 226.467 575.835 224.82C574.015 223.173 571.891 222.35 569.465 222.35C566.691 222.35 564.308 223.39 562.315 225.47C560.408 227.55 558.978 230.367 558.025 233.92C557.071 237.387 556.595 241.2 556.595 245.36C556.595 250.213 557.288 254.893 558.675 259.4C560.061 263.907 562.315 267.677 565.435 270.71C568.641 273.657 572.758 275.13 577.785 275.13C582.118 275.13 586.018 273.96 589.485 271.62C592.951 269.28 595.595 265.943 597.415 261.61L600.145 262.26C599.451 267.2 597.848 271.75 595.335 275.91C592.908 280.07 589.528 283.45 585.195 286.05C580.948 288.65 575.878 289.95 569.985 289.95ZM635.002 289.82C629.975 289.82 625.339 288.347 621.092 285.4C616.932 282.453 613.595 278.293 611.082 272.92C608.655 267.547 607.442 261.393 607.442 254.46C607.442 247.267 608.872 240.897 611.732 235.35C614.592 229.803 618.579 225.513 623.692 222.48C628.805 219.36 634.655 217.8 641.242 217.8C645.662 217.8 649.562 218.58 652.942 220.14C656.409 221.7 658.922 223.867 660.482 226.64L655.932 229.76L654.112 205.97C653.852 202.503 652.985 200.12 651.512 198.82C650.125 197.433 647.785 196.783 644.492 196.87L643.972 194.4L654.632 192.19L675.822 187.9C675.389 196.74 674.825 205.883 674.132 215.33C673.785 221.31 673.482 226.51 673.222 230.93C672.962 235.263 672.745 239.033 672.572 242.24C672.745 245.013 673.092 249.997 673.612 257.19C674.045 262.91 674.479 268.673 674.912 274.48C675.085 277.773 675.865 280.287 677.252 282.02C678.639 283.753 680.589 284.88 683.102 285.4V288H674.392H653.462L656.062 241.2C656.235 238.08 655.672 235.09 654.372 232.23C653.159 229.283 651.382 226.943 649.042 225.21C646.702 223.39 644.059 222.48 641.112 222.48C638.425 222.48 635.999 223.347 633.832 225.08C631.752 226.727 630.062 229.37 628.762 233.01C627.549 236.563 626.942 241.113 626.942 246.66C626.942 252.987 627.765 258.663 629.412 263.69C631.059 268.63 633.269 272.53 636.042 275.39C638.815 278.163 641.805 279.55 645.012 279.55C647.612 279.55 649.995 278.727 652.162 277.08C654.415 275.347 656.582 273.093 658.662 270.32L659.312 274.35C658.619 275.303 657.839 276.3 656.972 277.34C653.852 281.153 650.515 284.187 646.962 286.44C643.495 288.693 639.509 289.82 635.002 289.82ZM714.792 289.95C710.718 289.95 706.515 289.43 702.182 288.39C697.848 287.35 693.948 285.833 690.482 283.84V262.39H693.212C693.818 266.897 695.162 270.927 697.242 274.48C699.408 277.947 702.095 280.677 705.302 282.67C708.508 284.577 712.062 285.53 715.962 285.53C719.342 285.53 722.072 284.707 724.152 283.06C726.232 281.327 727.272 278.987 727.272 276.04C727.272 273.7 726.578 271.663 725.192 269.93C723.805 268.11 722.028 266.593 719.862 265.38C717.782 264.08 714.922 262.52 711.282 260.7C706.775 258.62 703.092 256.67 700.232 254.85C697.372 253.03 694.945 250.69 692.952 247.83C690.958 244.97 689.962 241.547 689.962 237.56C689.962 233.227 691.132 229.587 693.472 226.64C695.812 223.607 698.888 221.397 702.702 220.01C706.602 218.537 710.762 217.8 715.182 217.8C719.342 217.8 723.198 218.233 726.752 219.1C730.305 219.967 733.642 221.31 736.762 223.13L737.022 241.85H734.292C733.338 236.217 731.128 231.58 727.662 227.94C724.195 224.213 720.035 222.35 715.182 222.35C712.062 222.35 709.722 223.043 708.162 224.43C706.602 225.817 705.822 227.593 705.822 229.76C705.822 231.667 706.428 233.357 707.642 234.83C708.942 236.303 710.502 237.56 712.322 238.6C714.142 239.64 716.742 240.94 720.122 242.5C724.975 244.753 728.875 246.833 731.822 248.74C734.855 250.647 737.455 253.247 739.622 256.54C741.875 259.747 743.002 263.733 743.002 268.5C743.002 275.867 740.445 281.283 735.332 284.75C730.218 288.217 723.372 289.95 714.792 289.95ZM343.875 368.59C341.015 365.73 336.248 363.823 329.575 362.87C322.988 361.83 315.491 361.267 307.085 361.18H302.925V355.72L329.445 353.64L283.555 308.27L287.065 304.76L332.435 350.65L334.645 324H340.105L340.495 332.71C340.841 341.03 341.448 347.877 342.315 353.25C343.181 358.623 344.915 362.523 347.515 364.95L343.875 368.59ZM382.876 379.38C382.962 375.393 381.012 370.713 377.026 365.34C373.039 359.967 368.099 354.247 362.206 348.18L359.216 345.19L362.986 341.42L383.266 358.71L382.876 294.1H387.946L387.556 358.71L407.966 341.42L411.736 345.19L405.886 351.69C400.252 357.843 395.832 363.13 392.626 367.55C389.506 371.883 387.989 375.827 388.076 379.38H382.876ZM441.294 363.65C434.708 364.603 429.984 366.51 427.124 369.37L423.484 365.73C426.084 363.303 427.818 359.403 428.684 354.03C429.551 348.657 430.158 341.81 430.504 333.49L430.894 324.78H436.354L438.564 351.43L483.934 305.54L487.444 309.05L441.554 354.42L468.074 356.5V361.96H463.914C455.508 362.047 447.968 362.61 441.294 363.65ZM135.819 472H128.019V469.14C130.185 468.62 131.875 467.407 133.089 465.5C134.302 463.593 135.039 460.863 135.299 457.31C135.732 449.77 136.122 442.923 136.469 436.77C136.902 430.53 137.162 426.067 137.249 423.38C137.162 420.867 136.945 416.707 136.599 410.9C136.252 405.007 135.862 398.637 135.429 391.79C135.169 388.237 134.389 385.507 133.089 383.6C131.875 381.693 130.185 380.48 128.019 379.96V377.1H135.819L190.809 377.23V403.23H188.079C187.645 399.85 186.345 396.687 184.179 393.74C182.099 390.707 179.325 388.193 175.859 386.2C172.392 384.207 168.535 382.95 164.289 382.43L158.829 381.78L156.099 423.77L157.919 457.31C158.092 460.863 158.959 463.55 160.519 465.37C162.079 467.19 164.462 468.447 167.669 469.14V472H157.269H135.819ZM175.079 442.23C174.645 439.37 173.822 436.813 172.609 434.56C171.482 432.307 170.052 430.53 168.319 429.23C166.672 427.93 164.939 427.28 163.119 427.28L155.449 427.15V422.34C157.442 422.773 159.349 423.033 161.169 423.12C164.982 423.38 168.059 422.21 170.399 419.61C172.739 416.923 174.299 413.11 175.079 408.17H177.679V442.23H175.079ZM222.882 473.95C216.642 473.95 211.356 472.39 207.022 469.27C202.689 466.063 199.396 461.73 197.142 456.27C194.976 450.81 193.892 444.613 193.892 437.68C193.892 431.353 194.889 425.503 196.882 420.13C198.876 414.67 202.039 410.25 206.372 406.87C210.792 403.49 216.296 401.8 222.882 401.8C227.302 401.8 231.202 402.58 234.582 404.14C238.049 405.7 240.952 407.91 243.292 410.77C245.632 413.63 247.322 416.967 248.362 420.78L246.282 433.26L204.162 434.82V430.79L235.492 426.11L230.032 427.28C231.159 422.947 231.506 419.22 231.072 416.1C230.639 412.893 229.642 410.467 228.082 408.82C226.609 407.173 224.876 406.35 222.882 406.35C220.542 406.35 218.592 407.477 217.032 409.73C215.559 411.897 214.476 414.8 213.782 418.44C213.176 421.993 212.872 425.893 212.872 430.14C212.872 434.907 213.392 439.5 214.432 443.92C215.472 448.253 217.292 451.937 219.892 454.97C222.492 457.917 226.046 459.39 230.552 459.39C234.452 459.39 237.962 458.177 241.082 455.75C244.202 453.323 246.542 449.943 248.102 445.61L250.832 446.26C250.226 451.287 248.839 455.88 246.672 460.04C244.506 464.2 241.429 467.58 237.442 470.18C233.456 472.693 228.602 473.95 222.882 473.95ZM300.584 472H294.994V469.4C296.554 468.88 297.81 467.753 298.764 466.02C299.804 464.287 300.497 461.773 300.844 458.48C301.797 447.473 302.274 441.363 302.274 440.15C302.274 439.11 302.014 437.03 301.494 433.91C301.06 430.703 300.54 427.28 299.934 423.64C299.327 419.913 298.417 417.097 297.204 415.19C295.99 413.283 294.3 412.33 292.134 412.33C289.967 412.33 287.8 413.197 285.634 414.93C283.554 416.663 281.69 418.57 280.044 420.65L279.394 417.4C281.474 414.54 283.38 412.157 285.114 410.25C286.847 408.343 289.187 406.48 292.134 404.66C295.167 402.753 298.547 401.8 302.274 401.8C306.78 401.8 310.42 402.797 313.194 404.79C316.054 406.783 318.004 409.513 319.044 412.98C320.084 416.36 320.3 420.303 319.694 424.81C319.087 429.403 318.74 432.783 318.654 434.95C318.48 436.51 318.394 438.243 318.394 440.15C318.394 443.357 318.784 449.51 319.564 458.61C319.91 461.817 320.777 464.287 322.164 466.02C323.55 467.753 325.327 468.88 327.494 469.4V472H319.694H300.584ZM263.404 472H255.604V469.4C257.77 468.88 259.504 467.753 260.804 466.02C262.104 464.287 262.927 461.773 263.274 458.48C263.534 455.36 263.794 452.283 264.054 449.25C264.574 444.57 264.834 441.537 264.834 440.15C264.66 437.81 264.444 435.47 264.184 433.13C263.75 428.017 263.274 422.947 262.754 417.92C262.407 414.453 261.67 412.113 260.544 410.9C259.417 409.687 257.337 409.123 254.304 409.21L253.784 406.61L263.014 404.79L284.334 400.5L283.684 413.37L283.424 415.45C283.25 418.743 283.077 421.213 282.904 422.86C282.817 424.42 282.687 426.803 282.514 430.01L281.994 440.15C281.994 441.883 282.514 448.037 283.554 458.61C283.9 461.817 284.55 464.287 285.504 466.02C286.544 467.753 287.844 468.88 289.404 469.4V472H283.814H263.404ZM352.08 473.82C348.613 473.82 345.58 473.083 342.98 471.61C340.38 470.05 338.473 467.623 337.26 464.33C336.047 460.95 335.743 456.66 336.35 451.46C336.783 446.867 337.043 443.833 337.13 442.36C337.39 438.98 337.52 436.553 337.52 435.08C337.52 433.607 337.347 431.353 337 428.32C336.827 425.807 336.567 422.86 336.22 419.48C335.873 416.1 335.18 413.673 334.14 412.2C333.1 410.727 331.54 409.903 329.46 409.73L328.94 407.13L336.22 405.7L357.67 401.41C356.63 411.723 355.85 420.65 355.33 428.19C355.243 430.443 355.113 432.74 354.94 435.08C355.027 436.987 355.243 439.977 355.59 444.05C356.023 448.037 356.457 451.503 356.89 454.45C357.41 457.83 358.233 460.213 359.36 461.6C360.573 462.987 362.003 463.68 363.65 463.68C365.383 463.68 367.203 462.987 369.11 461.6C371.103 460.127 372.75 458.35 374.05 456.27L374.96 460.04C373.747 462.12 372.013 464.243 369.76 466.41C367.593 468.49 364.95 470.267 361.83 471.74C358.797 473.127 355.547 473.82 352.08 473.82ZM372.62 461.99C372.793 454.797 372.967 447.603 373.14 440.41L373.27 435.08C373.27 433.173 372.837 427.757 371.97 418.83C371.623 415.363 370.93 413.023 369.89 411.81C368.85 410.51 366.987 409.86 364.3 409.86L363.78 407.39L372.1 405.7L393.55 401.41L391.34 422.6C390.473 429.533 390.04 433.693 390.04 435.08C390.04 436.9 390.863 444.743 392.51 458.61C392.857 461.817 393.723 464.287 395.11 466.02C396.497 467.753 398.273 468.88 400.44 469.4V472H392.64H372.62V461.99ZM417.803 472H410.003V469.4C412.17 468.88 413.86 467.753 415.073 466.02C416.286 464.287 416.98 461.773 417.153 458.48C418.54 436.813 419.233 425.547 419.233 424.68C419.146 421.993 418.93 417.573 418.583 411.42C418.236 405.18 417.846 398.247 417.413 390.62C417.153 386.72 416.373 384.12 415.073 382.82C413.773 381.52 411.346 380.957 407.793 381.13L407.143 378.27L418.193 376.06L439.253 371.9C438.646 383.427 437.996 394.997 437.303 406.61C437.043 412.59 436.74 418.613 436.393 424.68C436.393 427.02 437.043 438.287 438.343 458.48C438.603 461.773 439.34 464.287 440.553 466.02C441.766 467.753 443.456 468.88 445.623 469.4V472H437.823H417.803ZM516.971 473.95C509.171 473.95 502.454 471.957 496.821 467.97C491.274 463.897 487.027 458.22 484.081 450.94C481.221 443.66 479.791 435.21 479.791 425.59C479.791 415.623 481.307 406.827 484.341 399.2C487.461 391.573 491.881 385.68 497.601 381.52C503.321 377.273 510.037 375.15 517.751 375.15C525.377 375.15 532.007 377.23 537.641 381.39C543.274 385.463 547.564 391.227 550.511 398.68C553.544 406.133 555.061 414.757 555.061 424.55C555.061 434.343 553.544 442.967 550.511 450.42C547.564 457.873 543.187 463.68 537.381 467.84C531.661 471.913 524.857 473.95 516.971 473.95ZM521.651 468.88C524.597 468.88 526.937 467.277 528.671 464.07C530.404 460.863 531.574 456.66 532.181 451.46C532.874 446.173 533.091 440.193 532.831 433.52C532.484 424.68 531.487 416.187 529.841 408.04C528.281 399.807 526.071 393.133 523.211 388.02C520.437 382.82 517.187 380.22 513.461 380.22C510.514 380.22 508.087 381.91 506.181 385.29C504.361 388.67 503.061 393.177 502.281 398.81C501.501 404.443 501.241 410.64 501.501 417.4C501.847 425.98 502.887 434.213 504.621 442.1C506.354 449.987 508.694 456.443 511.641 461.47C514.587 466.41 517.924 468.88 521.651 468.88ZM571.9 472H564.1V469.4C566.266 468.88 568 467.753 569.3 466.02C570.6 464.287 571.38 461.773 571.64 458.48C572.766 445.913 573.33 439.153 573.33 438.2C573.33 436.12 572.68 429.447 571.38 418.18C571.033 414.713 570.253 412.417 569.04 411.29C567.913 410.077 565.833 409.513 562.8 409.6L562.28 407L571.51 405.18L592.83 400.89C592.57 406.177 592.136 412.893 591.53 421.04L590.49 438.33C590.49 439.197 591.053 445.913 592.18 458.48C592.526 461.773 593.306 464.287 594.52 466.02C595.82 467.753 597.553 468.88 599.72 469.4V472H591.92H571.9ZM581 393.48C577.793 393.48 575.063 392.353 572.81 390.1C570.556 387.847 569.43 385.117 569.43 381.91C569.43 378.79 570.556 376.103 572.81 373.85C575.063 371.597 577.793 370.47 581 370.47C584.12 370.47 586.806 371.597 589.06 373.85C591.313 376.103 592.44 378.79 592.44 381.91C592.44 385.117 591.313 387.847 589.06 390.1C586.806 392.353 584.12 393.48 581 393.48ZM617.119 472H609.319V469.4C611.486 468.88 613.176 467.753 614.389 466.02C615.603 464.287 616.296 461.773 616.469 458.48C617.856 436.813 618.549 425.547 618.549 424.68C618.463 421.993 618.246 417.573 617.899 411.42C617.553 405.18 617.163 398.247 616.729 390.62C616.469 386.72 615.689 384.12 614.389 382.82C613.089 381.52 610.663 380.957 607.109 381.13L606.459 378.27L617.509 376.06L638.569 371.9C637.963 383.427 637.313 394.997 636.619 406.61C636.359 412.59 636.056 418.613 635.709 424.68C635.709 427.02 636.359 438.287 637.659 458.48C637.919 461.773 638.656 464.287 639.869 466.02C641.083 467.753 642.773 468.88 644.939 469.4V472H637.139H617.119Z" fill="black"/>
</svg>
