<svg width="774" height="474" viewBox="0 0 774 474" fill="none" xmlns="http://www.w3.org/2000/svg">
<path d="M10.0387 101H0.288672V98.14C3.14867 97.62 5.35867 96.4067 6.91867 94.5C8.47867 92.5933 9.38867 89.8633 9.64867 86.31C10.1687 79.2033 10.602 72.6167 10.9487 66.55C11.382 60.4833 11.642 56.15 11.7287 53.55C11.642 50.8633 11.382 46.53 10.9487 40.55C10.602 34.4833 10.1687 27.8967 9.64867 20.79C9.38867 17.2367 8.47867 14.5067 6.91867 12.6C5.35867 10.6933 3.14867 9.48 0.288672 8.96V6.1H10.0387H78.2887V32.1H75.4287C74.9087 28.6333 73.522 25.34 71.2687 22.22C69.102 19.1 66.112 16.5433 62.2987 14.55C58.572 12.5567 54.3253 11.4733 49.5587 11.3L32.9187 10.78L30.0587 52.77L32.0087 86.31C32.2687 89.95 33.482 92.68 35.6487 94.5C37.902 96.2333 41.282 97.4467 45.7887 98.14V101H31.4887H10.0387ZM61.9087 71.1C61.4753 68.0667 60.6087 65.4667 59.3087 63.3C58.0087 61.0467 56.1887 59.3133 53.8487 58.1C51.5953 56.8 48.8653 56.15 45.6587 56.15H21.0887V49C32.0953 50.2133 40.112 51.0367 45.1387 51.47C50.3387 51.9033 54.1953 50.9067 56.7087 48.48C59.3087 45.9667 61.042 42.1533 61.9087 37.04H64.7687V71.1H61.9087ZM116.902 102.95C110.055 102.95 103.902 101.303 98.4417 98.01C93.0684 94.7167 88.8651 90.34 85.8317 84.88C82.8851 79.3333 81.4117 73.3533 81.4117 66.94C81.4117 60.7867 82.7984 54.9367 85.5717 49.39C88.4317 43.8433 92.5484 39.38 97.9217 36C103.382 32.5333 109.795 30.8 117.162 30.8C121.928 30.8 126.262 31.5367 130.162 33.01C134.148 34.4833 137.528 36.5633 140.302 39.25C143.075 41.85 145.155 44.8833 146.542 48.35L144.202 62.26L95.9717 64.34V60.31L133.802 55.11L128.472 56.28C129.252 51.9467 129.122 48.22 128.082 45.1C127.128 41.8933 125.525 39.51 123.272 37.95C121.105 36.3033 118.592 35.48 115.732 35.48C112.612 35.48 109.838 36.4767 107.412 38.47C105.072 40.3767 103.252 43.02 101.952 46.4C100.652 49.78 100.002 53.55 100.002 57.71C100.002 62.5633 100.868 67.33 102.602 72.01C104.422 76.6033 107.195 80.4167 110.922 83.45C114.648 86.4833 119.285 88 124.832 88C129.598 88 133.888 86.8733 137.702 84.62C141.515 82.28 144.462 78.9433 146.542 74.61L149.272 75.26C148.405 80.1133 146.585 84.6633 143.812 88.91C141.125 93.07 137.485 96.45 132.892 99.05C128.298 101.65 122.968 102.95 116.902 102.95ZM210.591 101H202.401V98.4C204.828 97.88 206.734 96.7533 208.121 95.02C209.594 93.2867 210.504 90.8167 210.851 87.61C211.804 76.3433 212.281 70.19 212.281 69.15C212.281 68.11 211.934 65.9433 211.241 62.65C210.634 59.27 209.898 55.76 209.031 52.12C208.251 48.8267 206.691 46.1833 204.351 44.19C202.098 42.1967 199.584 41.2 196.811 41.2C193.951 41.2 191.091 42.3267 188.231 44.58C185.458 46.7467 183.031 49.6067 180.951 53.16L180.301 47.7C182.554 44.58 185.111 41.8067 187.971 39.38C190.831 36.8667 193.994 34.8733 197.461 33.4C201.014 31.84 204.741 31.06 208.641 31.06C214.014 31.06 218.434 32.2733 221.901 34.7C225.368 37.1267 227.794 40.29 229.181 44.19C230.654 48.09 231.088 52.2067 230.481 56.54C230.221 59.0533 229.961 61.5667 229.701 64.08C229.614 65.7267 229.528 67.4167 229.441 69.15C229.441 71.23 229.874 77.3833 230.741 87.61C231.088 90.8167 232.084 93.2867 233.731 95.02C235.464 96.7533 237.761 97.88 240.621 98.4V101H230.871H210.591ZM163.791 101H154.041V98.4C156.901 97.88 159.111 96.7533 160.671 95.02C162.318 93.2867 163.314 90.7733 163.661 87.48C164.008 84.36 164.311 81.2833 164.571 78.25C164.831 75.2167 165.048 72.1833 165.221 69.15C165.221 67.85 165.048 65.64 164.701 62.52C164.354 57.7533 163.964 53.03 163.531 48.35C163.184 44.8833 162.144 42.4567 160.411 41.07C158.764 39.5967 156.208 38.86 152.741 38.86L152.221 36.26L163.531 34.05L184.851 29.76L184.201 44.06L183.811 46.14C183.638 49.1733 183.464 51.47 183.291 53.03C183.204 54.5033 183.074 56.7133 182.901 59.66L182.381 69.15C182.381 71.75 182.858 77.9033 183.811 87.61C184.158 90.8167 185.024 93.2867 186.411 95.02C187.884 96.7533 189.834 97.88 192.261 98.4V101H184.071H163.791ZM274.347 102.82C269.494 102.82 265.247 101.953 261.607 100.22C257.967 98.4867 255.194 95.8433 253.287 92.29C251.467 88.65 250.774 84.1433 251.207 78.77C251.467 76.69 251.684 74.6533 251.857 72.66C252.55 67.1133 252.897 63.69 252.897 62.39C252.724 60.31 252.55 58.2733 252.377 56.28C252.117 53.68 251.857 51.08 251.597 48.48C251.25 45.1 250.34 42.7167 248.867 41.33C247.48 39.9433 245.357 39.25 242.497 39.25L241.977 36.78L251.597 34.83L272.917 30.54C272.137 39.0333 271.314 47.57 270.447 56.15C270.36 58.23 270.23 60.3533 270.057 62.52C270.144 64.5133 270.36 67.46 270.707 71.36C271.14 75.26 271.487 78.0333 271.747 79.68C272.527 84.2733 274.174 87.6533 276.687 89.82C279.2 91.9 282.06 92.94 285.267 92.94C288.734 92.94 291.637 91.9433 293.977 89.95C296.317 87.87 298.354 85.3133 300.087 82.28V89.04C297.054 92.3333 294.67 94.8033 292.937 96.45C291.29 98.01 288.864 99.4833 285.657 100.87C282.537 102.17 278.767 102.82 274.347 102.82ZM296.057 92.42C296.577 86.7 297.14 78.9867 297.747 69.28L298.007 63.43C298.007 62.13 297.574 57.2333 296.707 48.74C296.36 45.2733 295.32 42.8467 293.587 41.46C291.94 39.9867 289.384 39.25 285.917 39.25L285.397 36.65L296.707 34.44L318.027 30.15L316.987 42.24C315.774 55.0667 315.167 62.13 315.167 63.43C315.167 63.8633 315.904 71.9233 317.377 87.61C317.724 90.9033 318.72 93.4167 320.367 95.15C322.014 96.7967 324.267 97.88 327.127 98.4V101H317.377H296.057V92.42ZM346.111 101H336.361V98.4C339.221 97.88 341.388 96.7533 342.861 95.02C344.421 93.2867 345.288 90.7733 345.461 87.48C346.848 65.9867 347.541 54.72 347.541 53.68C347.454 50.9933 347.194 46.5733 346.761 40.42C346.414 34.18 346.024 27.2467 345.591 19.62C345.331 16.0667 344.334 13.5967 342.601 12.21C340.868 10.7367 338.138 10.0433 334.411 10.13L333.891 7.65999L346.241 5.18999L367.561 0.899995C366.954 12.1667 366.348 23.4767 365.741 34.83C365.048 45.4033 364.701 51.6867 364.701 53.68C364.701 56.1933 365.351 67.46 366.651 87.48C366.911 90.7733 367.778 93.2867 369.251 95.02C370.811 96.7533 373.021 97.88 375.881 98.4V101H366.131H346.111ZM422.129 101H412.379V98.14C415.239 97.62 417.449 96.4067 419.009 94.5C420.569 92.5933 421.479 89.8633 421.739 86.31C422.085 82.15 422.345 79.0733 422.519 77.08C422.692 75.0867 422.952 72.0533 423.299 67.98C423.645 63.7333 423.949 59.53 424.209 55.37C423.862 50.0833 423.515 44.84 423.169 39.64C422.562 32.9667 422.085 26.64 421.739 20.66C421.479 17.1067 420.569 14.3767 419.009 12.47C417.449 10.5633 415.239 9.35 412.379 8.82999V5.97H422.129H464.249C471.269 5.97 477.292 7.05333 482.319 9.22C487.345 11.3867 491.159 14.3767 493.759 18.19C496.359 22.0033 497.659 26.3367 497.659 31.19C497.659 36.65 496.489 41.6767 494.149 46.27C491.809 50.7767 488.342 54.3733 483.749 57.06C479.155 59.66 473.609 60.96 467.109 60.96H439.289V53.29L456.839 55.37C462.125 55.9767 466.285 54.3733 469.319 50.56C472.352 46.7467 473.869 41.85 473.869 35.87C473.869 30.67 472.915 26.25 471.009 22.61C469.102 18.97 466.502 16.1967 463.209 14.29C460.002 12.3833 456.319 11.3 452.159 11.04L445.009 10.65L442.409 55.89L444.749 86.31C445.095 89.8633 446.395 92.55 448.649 94.37C450.902 96.19 454.282 97.4467 458.789 98.14V101H444.489H422.129ZM512.42 101H502.67V98.4C505.53 97.88 507.696 96.7533 509.17 95.02C510.73 93.2867 511.596 90.7733 511.77 87.48C513.156 65.9867 513.85 54.72 513.85 53.68C513.763 50.9933 513.503 46.5733 513.07 40.42C512.723 34.18 512.333 27.2467 511.9 19.62C511.64 16.0667 510.643 13.5967 508.91 12.21C507.176 10.7367 504.446 10.0433 500.72 10.13L500.2 7.65999L512.55 5.18999L533.87 0.899995C533.263 12.1667 532.656 23.4767 532.05 34.83C531.356 45.4033 531.01 51.6867 531.01 53.68C531.01 56.1933 531.66 67.46 532.96 87.48C533.22 90.7733 534.086 93.2867 535.56 95.02C537.12 96.7533 539.33 97.88 542.19 98.4V101H532.44H512.42ZM593.842 60.96L592.412 52.77C591.372 47.1367 589.336 42.89 586.302 40.03C583.356 37.0833 579.889 35.61 575.902 35.61C570.876 35.61 566.716 37.82 563.422 42.24C560.216 46.66 558.222 51.9033 557.442 57.97H554.582V35.61C558.136 34.1367 562.122 32.9667 566.542 32.1C571.049 31.2333 575.902 30.8 581.102 30.8C589.162 30.8 595.619 31.7967 600.472 33.79C605.326 35.6967 608.662 38.5133 610.482 42.24C612.302 45.88 612.822 50.43 612.042 55.89C611.696 57.6233 611.479 59.3133 611.392 60.96C611.132 63.1267 611.002 64.99 611.002 66.55C611.089 68.1967 611.262 70.84 611.522 74.48C611.869 78.0333 612.302 82.41 612.822 87.61C613.169 90.9033 614.166 93.4167 615.812 95.15C617.459 96.7967 619.712 97.88 622.572 98.4V101H612.822H592.282L593.842 60.96ZM569.402 102.95C564.809 102.95 560.909 102.083 557.702 100.35C554.582 98.6167 552.242 96.3633 550.682 93.59C549.209 90.73 548.472 87.6533 548.472 84.36C548.472 78.8133 550.682 74.0467 555.102 70.06C559.609 66.0733 566.542 63.3867 575.902 62L594.492 59.27L594.752 62.78L581.752 66.55C577.592 67.7633 574.386 69.7567 572.132 72.53C569.966 75.2167 568.882 78.3367 568.882 81.89C568.882 85.3567 569.836 88.13 571.742 90.21C573.649 92.29 576.206 93.33 579.412 93.33C581.319 93.33 583.226 92.8533 585.132 91.9C587.126 90.9467 588.859 89.82 590.332 88.52C591.806 87.1333 592.889 85.8767 593.582 84.75L594.622 87.74C592.282 92.5067 588.729 96.2333 583.962 98.92C579.196 101.607 574.342 102.95 569.402 102.95ZM687.681 101H679.491V98.4C681.918 97.88 683.824 96.7533 685.211 95.02C686.684 93.2867 687.594 90.8167 687.941 87.61C688.894 76.3433 689.371 70.19 689.371 69.15C689.371 68.11 689.024 65.9433 688.331 62.65C687.724 59.27 686.988 55.76 686.121 52.12C685.341 48.8267 683.781 46.1833 681.441 44.19C679.188 42.1967 676.674 41.2 673.901 41.2C671.041 41.2 668.181 42.3267 665.321 44.58C662.548 46.7467 660.121 49.6067 658.041 53.16L657.391 47.7C659.644 44.58 662.201 41.8067 665.061 39.38C667.921 36.8667 671.084 34.8733 674.551 33.4C678.104 31.84 681.831 31.06 685.731 31.06C691.104 31.06 695.524 32.2733 698.991 34.7C702.458 37.1267 704.884 40.29 706.271 44.19C707.744 48.09 708.178 52.2067 707.571 56.54C707.311 59.0533 707.051 61.5667 706.791 64.08C706.704 65.7267 706.618 67.4167 706.531 69.15C706.531 71.23 706.964 77.3833 707.831 87.61C708.178 90.8167 709.174 93.2867 710.821 95.02C712.554 96.7533 714.851 97.88 717.711 98.4V101H707.961H687.681ZM640.881 101H631.131V98.4C633.991 97.88 636.201 96.7533 637.761 95.02C639.408 93.2867 640.404 90.7733 640.751 87.48C641.098 84.36 641.401 81.2833 641.661 78.25C641.921 75.2167 642.138 72.1833 642.311 69.15C642.311 67.85 642.138 65.64 641.791 62.52C641.444 57.7533 641.054 53.03 640.621 48.35C640.274 44.8833 639.234 42.4567 637.501 41.07C635.854 39.5967 633.298 38.86 629.831 38.86L629.311 36.26L640.621 34.05L661.941 29.76L661.291 44.06L660.901 46.14C660.728 49.1733 660.554 51.47 660.381 53.03C660.294 54.5033 660.164 56.7133 659.991 59.66L659.471 69.15C659.471 71.75 659.948 77.9033 660.901 87.61C661.248 90.8167 662.114 93.2867 663.501 95.02C664.974 96.7533 666.924 97.88 669.351 98.4V101H661.161H640.881ZM729.213 101C729.82 93.6333 730.426 85.8767 731.033 77.73C731.726 69.4967 732.073 64.7733 732.073 63.56C732.073 62.26 731.726 58.7067 731.033 52.9C730.166 44.6667 729.646 39.0767 729.473 36.13H731.943L773.283 28.2V38.08H717.513V35.35C722.973 34.7433 727.74 33.0533 731.813 30.28C735.886 27.5067 739.136 24.3 741.563 20.66C744.076 17.02 745.983 13.25 747.283 9.34999H751.573C750.88 21.3967 750.316 34.2667 749.883 47.96L749.233 63.56C749.233 64.7733 749.84 72.7467 751.053 87.48C751.313 90.7733 752.7 93.2867 755.213 95.02C757.726 96.7533 761.41 97.88 766.263 98.4V101H749.623H729.213ZM340.166 180.5C337.219 177.553 332.236 175.603 325.216 174.65C318.196 173.697 309.616 173.177 299.476 173.09L293.626 172.96V167.76L324.956 164.77L278.156 118.49L281.666 114.98L327.946 161.78L331.846 131.36L337.176 131.23L337.306 137.6C337.219 148.433 337.523 157.013 338.216 163.34C338.909 169.667 340.773 174.173 343.806 176.86L340.166 180.5ZM382.904 195.58C382.99 191.507 380.867 186.653 376.534 181.02C372.287 175.387 366.61 168.93 359.504 161.65L355.344 157.49L359.114 153.72L383.294 173.74L382.904 107.96H387.974L387.584 173.74L411.894 155.02L415.664 158.79L411.244 163.21C403.617 170.837 397.81 177.163 393.824 182.19C389.837 187.13 387.93 191.593 388.104 195.58H382.904ZM445.816 174.65C438.796 175.603 433.813 177.553 430.866 180.5L427.226 176.86C430.26 174.173 432.123 169.667 432.816 163.34C433.51 157.013 433.813 148.433 433.726 137.6L433.856 131.23L439.186 131.36L443.086 161.78L489.366 114.98L492.876 118.49L446.076 164.77L477.406 167.76V172.96L471.556 173.09C461.416 173.177 452.836 173.697 445.816 174.65ZM29.4473 288H20.7373V285.14C23.2506 284.62 25.2006 283.407 26.5873 281.5C27.9739 279.593 28.7973 276.863 29.0573 273.31C29.4906 265.943 29.8806 259.227 30.2273 253.16C30.6606 247.007 30.9206 242.587 31.0073 239.9C30.9206 237.3 30.7039 233.053 30.3573 227.16C30.0106 221.18 29.5773 214.723 29.0573 207.79C28.7973 204.237 27.9739 201.507 26.5873 199.6C25.2006 197.693 23.2506 196.48 20.7373 195.96V193.1H29.4473H91.0673V219.1H88.3373C87.8173 215.72 86.4739 212.513 84.3073 209.48C82.1406 206.36 79.2373 203.803 75.5973 201.81C72.0439 199.817 68.0139 198.647 63.5073 198.3L52.4573 197.78L49.5973 239.77L51.5473 273.31C51.7206 276.863 52.7606 279.55 54.6673 281.37C56.5739 283.19 59.4339 284.447 63.2473 285.14V288H50.8973H29.4473ZM75.0773 258.1C74.6439 255.153 73.7773 252.597 72.4773 250.43C71.2639 248.177 69.6606 246.4 67.6673 245.1C65.6739 243.8 63.4206 243.15 60.9073 243.15H44.7873V237.17C51.2873 237.95 56.2706 238.47 59.7373 238.73C64.2439 239.077 67.7106 237.993 70.1373 235.48C72.5639 232.88 74.2106 229.067 75.0773 224.04H77.8073V258.1H75.0773ZM126.347 289.95C119.847 289.95 114.127 288.347 109.187 285.14C104.334 281.847 100.607 277.47 98.007 272.01C95.407 266.55 94.107 260.483 94.107 253.81C94.107 247.57 95.3204 241.72 97.747 236.26C100.174 230.713 103.814 226.25 108.667 222.87C113.607 219.49 119.544 217.8 126.477 217.8C131.07 217.8 135.187 218.58 138.827 220.14C142.554 221.613 145.674 223.737 148.187 226.51C150.787 229.197 152.694 232.36 153.907 236L151.697 249.26L106.587 251.08V247.05L141.167 242.11L135.707 243.28C136.66 238.947 136.79 235.22 136.097 232.1C135.404 228.893 134.104 226.467 132.197 224.82C130.377 223.173 128.254 222.35 125.827 222.35C123.054 222.35 120.67 223.39 118.677 225.47C116.77 227.55 115.34 230.367 114.387 233.92C113.434 237.387 112.957 241.2 112.957 245.36C112.957 250.213 113.65 254.893 115.037 259.4C116.424 263.907 118.677 267.677 121.797 270.71C125.004 273.657 129.12 275.13 134.147 275.13C138.48 275.13 142.38 273.96 145.847 271.62C149.314 269.28 151.957 265.943 153.777 261.61L156.507 262.26C155.814 267.2 154.21 271.75 151.697 275.91C149.27 280.07 145.89 283.45 141.557 286.05C137.31 288.65 132.24 289.95 126.347 289.95ZM212.107 288H205.217V285.4C207.211 284.88 208.814 283.753 210.027 282.02C211.241 280.287 212.021 277.773 212.367 274.48C213.321 263.387 213.797 257.277 213.797 256.15C213.797 255.11 213.494 252.987 212.887 249.78C212.367 246.487 211.717 243.02 210.937 239.38C210.244 235.827 209.031 233.097 207.297 231.19C205.564 229.197 203.441 228.2 200.927 228.2C198.414 228.2 195.901 229.197 193.387 231.19C190.961 233.183 188.837 235.567 187.017 238.34L186.367 234.05C188.534 231.017 190.744 228.417 192.997 226.25C195.337 224.083 198.111 222.177 201.317 220.53C204.611 218.797 208.164 217.93 211.977 217.93C216.917 217.93 220.947 219.057 224.067 221.31C227.187 223.477 229.354 226.38 230.567 230.02C231.867 233.66 232.214 237.69 231.607 242.11C231.174 245.663 230.871 248.61 230.697 250.95C230.524 252.597 230.437 254.33 230.437 256.15C230.437 258.75 230.827 264.903 231.607 274.61C231.954 277.817 232.907 280.287 234.467 282.02C236.027 283.753 238.064 284.88 240.577 285.4V288H231.737H212.107ZM170.117 288H161.277V285.4C163.791 284.88 165.784 283.753 167.257 282.02C168.731 280.287 169.641 277.773 169.987 274.48C170.247 271.36 170.507 268.283 170.767 265.25C171.201 261.35 171.461 258.317 171.547 256.15C171.461 254.33 171.244 252.033 170.897 249.26C170.551 244.32 170.117 239.423 169.597 234.57C169.251 231.103 168.384 228.72 166.997 227.42C165.611 226.12 163.271 225.47 159.977 225.47L159.457 222.87L169.727 220.92L191.047 216.63L190.397 230.15L190.137 232.23C189.964 235.437 189.791 237.82 189.617 239.38C189.531 240.94 189.401 243.237 189.227 246.27L188.707 256.15C188.707 258.317 189.184 264.47 190.137 274.61C190.484 277.817 191.264 280.287 192.477 282.02C193.691 283.753 195.294 284.88 197.287 285.4V288H190.397H170.117ZM269.67 289.82C265.51 289.82 261.87 288.997 258.75 287.35C255.63 285.703 253.29 283.147 251.73 279.68C250.17 276.213 249.65 271.837 250.17 266.55C250.517 263.257 250.777 260.743 250.95 259.01C251.383 254.503 251.6 251.557 251.6 250.17C251.513 248.437 251.34 246.313 251.08 243.8C250.907 241.2 250.647 238.427 250.3 235.48C249.953 232.1 249.173 229.717 247.96 228.33C246.747 226.857 244.883 226.077 242.37 225.99L241.85 223.39L250.3 221.7L271.75 217.41C270.797 226.857 269.973 235.61 269.28 243.67C269.193 245.837 269.063 248.047 268.89 250.3C268.977 252.207 269.193 255.153 269.54 259.14C269.973 263.127 270.363 266.247 270.71 268.5C271.403 272.487 272.66 275.39 274.48 277.21C276.3 278.943 278.423 279.81 280.85 279.81C283.45 279.81 285.833 278.943 288 277.21C290.167 275.477 291.987 273.31 293.46 270.71L293.98 276.04C291.813 278.727 289.733 281.023 287.74 282.93C285.833 284.75 283.32 286.353 280.2 287.74C277.08 289.127 273.57 289.82 269.67 289.82ZM290.73 278.64C291.077 272.227 291.467 264.773 291.9 256.28L292.03 250.69C292.03 249.13 291.597 243.973 290.73 235.22C290.383 231.753 289.517 229.37 288.13 228.07C286.83 226.683 284.62 225.99 281.5 225.99L280.98 223.52L290.86 221.57L312.18 217.28L310.62 233.92C309.58 243.8 309.06 249.39 309.06 250.69C309.06 251.817 309.84 259.79 311.4 274.61C311.747 277.817 312.657 280.287 314.13 282.02C315.69 283.753 317.727 284.88 320.24 285.4V288H311.4H290.73V278.64ZM338.349 288H329.639V285.4C332.152 284.88 334.059 283.753 335.359 282.02C336.745 280.287 337.525 277.773 337.699 274.48C339.085 252.9 339.779 241.633 339.779 240.68C339.692 237.993 339.475 233.573 339.129 227.42C338.782 221.18 338.392 214.247 337.959 206.62C337.699 202.893 336.789 200.337 335.229 198.95C333.755 197.563 331.199 196.957 327.559 197.13L326.909 194.4L338.609 192.06L359.799 187.9C359.192 199.253 358.585 210.693 357.979 222.22C357.459 230.453 357.112 236.607 356.939 240.68C356.939 243.107 357.589 254.373 358.889 274.48C359.149 277.773 359.972 280.287 361.359 282.02C362.745 283.753 364.695 284.88 367.209 285.4V288H358.369H338.349ZM432.376 289.95C426.05 289.95 420.33 289.127 415.216 287.48C410.19 285.833 405.726 283.883 401.826 281.63V254.07H404.686C405.64 259.877 407.59 265.12 410.536 269.8C413.57 274.48 417.21 278.163 421.456 280.85C425.79 283.537 430.296 284.88 434.976 284.88C439.656 284.88 443.21 283.537 445.636 280.85C448.063 278.163 449.276 274.827 449.276 270.84C449.276 267.113 448.28 263.82 446.286 260.96C444.293 258.1 441.78 255.673 438.746 253.68C435.8 251.6 431.813 249.173 426.786 246.4C421.153 243.28 416.646 240.55 413.266 238.21C409.886 235.783 407.026 232.837 404.686 229.37C402.346 225.817 401.176 221.657 401.176 216.89C401.176 211.603 402.606 207.01 405.466 203.11C408.413 199.21 412.4 196.263 417.426 194.27C422.54 192.19 428.26 191.15 434.586 191.15C440.046 191.15 444.856 191.887 449.016 193.36C453.263 194.747 457.033 196.437 460.326 198.43V224.04H457.466C456.513 218.753 454.78 214.03 452.266 209.87C449.84 205.623 446.806 202.33 443.166 199.99C439.526 197.563 435.583 196.35 431.336 196.35C427.09 196.35 423.753 197.39 421.326 199.47C418.9 201.463 417.686 204.193 417.686 207.66C417.686 210.433 418.553 212.947 420.286 215.2C422.02 217.367 424.23 219.273 426.916 220.92C429.603 222.48 433.243 224.43 437.836 226.77C444.25 230.15 449.406 233.183 453.306 235.87C457.293 238.557 460.716 242.11 463.576 246.53C466.436 250.95 467.866 256.28 467.866 262.52C467.866 271.447 464.79 278.25 458.636 282.93C452.483 287.61 443.73 289.95 432.376 289.95ZM508.095 289.95C501.595 289.95 495.875 288.347 490.935 285.14C486.082 281.847 482.355 277.47 479.755 272.01C477.155 266.55 475.855 260.483 475.855 253.81C475.855 247.57 477.068 241.72 479.495 236.26C481.922 230.713 485.562 226.25 490.415 222.87C495.355 219.49 501.292 217.8 508.225 217.8C512.818 217.8 516.935 218.58 520.575 220.14C524.302 221.613 527.422 223.737 529.935 226.51C532.535 229.197 534.442 232.36 535.655 236L533.445 249.26L488.335 251.08V247.05L522.915 242.11L517.455 243.28C518.408 238.947 518.538 235.22 517.845 232.1C517.152 228.893 515.852 226.467 513.945 224.82C512.125 223.173 510.002 222.35 507.575 222.35C504.802 222.35 502.418 223.39 500.425 225.47C498.518 227.55 497.088 230.367 496.135 233.92C495.182 237.387 494.705 241.2 494.705 245.36C494.705 250.213 495.398 254.893 496.785 259.4C498.172 263.907 500.425 267.677 503.545 270.71C506.752 273.657 510.868 275.13 515.895 275.13C520.228 275.13 524.128 273.96 527.595 271.62C531.062 269.28 533.705 265.943 535.525 261.61L538.255 262.26C537.562 267.2 535.958 271.75 533.445 275.91C531.018 280.07 527.638 283.45 523.305 286.05C519.058 288.65 513.988 289.95 508.095 289.95ZM577.665 289.95C571.165 289.95 565.445 288.347 560.505 285.14C555.652 281.847 551.925 277.47 549.325 272.01C546.725 266.55 545.425 260.483 545.425 253.81C545.425 247.57 546.639 241.72 549.065 236.26C551.492 230.713 555.132 226.25 559.985 222.87C564.925 219.49 570.862 217.8 577.795 217.8C582.389 217.8 586.505 218.58 590.145 220.14C593.872 221.613 596.992 223.737 599.505 226.51C602.105 229.197 604.012 232.36 605.225 236L603.015 249.26L557.905 251.08V247.05L592.485 242.11L587.025 243.28C587.979 238.947 588.109 235.22 587.415 232.1C586.722 228.893 585.422 226.467 583.515 224.82C581.695 223.173 579.572 222.35 577.145 222.35C574.372 222.35 571.989 223.39 569.995 225.47C568.089 227.55 566.659 230.367 565.705 233.92C564.752 237.387 564.275 241.2 564.275 245.36C564.275 250.213 564.969 254.893 566.355 259.4C567.742 263.907 569.995 267.677 573.115 270.71C576.322 273.657 580.439 275.13 585.465 275.13C589.799 275.13 593.699 273.96 597.165 271.62C600.632 269.28 603.275 265.943 605.095 261.61L607.825 262.26C607.132 267.2 605.529 271.75 603.015 275.91C600.589 280.07 597.209 283.45 592.875 286.05C588.629 288.65 583.559 289.95 577.665 289.95ZM642.683 289.82C637.656 289.82 633.019 288.347 628.773 285.4C624.613 282.453 621.276 278.293 618.763 272.92C616.336 267.547 615.123 261.393 615.123 254.46C615.123 247.267 616.553 240.897 619.413 235.35C622.273 229.803 626.259 225.513 631.373 222.48C636.486 219.36 642.336 217.8 648.923 217.8C653.343 217.8 657.243 218.58 660.623 220.14C664.089 221.7 666.603 223.867 668.163 226.64L663.613 229.76L661.793 205.97C661.533 202.503 660.666 200.12 659.193 198.82C657.806 197.433 655.466 196.783 652.173 196.87L651.653 194.4L662.313 192.19L683.503 187.9C683.069 196.74 682.506 205.883 681.813 215.33C681.466 221.31 681.163 226.51 680.903 230.93C680.643 235.263 680.426 239.033 680.253 242.24C680.426 245.013 680.773 249.997 681.293 257.19C681.726 262.91 682.159 268.673 682.593 274.48C682.766 277.773 683.546 280.287 684.933 282.02C686.319 283.753 688.269 284.88 690.783 285.4V288H682.073H661.143L663.743 241.2C663.916 238.08 663.353 235.09 662.053 232.23C660.839 229.283 659.063 226.943 656.723 225.21C654.383 223.39 651.739 222.48 648.793 222.48C646.106 222.48 643.679 223.347 641.513 225.08C639.433 226.727 637.743 229.37 636.443 233.01C635.229 236.563 634.623 241.113 634.623 246.66C634.623 252.987 635.446 258.663 637.093 263.69C638.739 268.63 640.949 272.53 643.723 275.39C646.496 278.163 649.486 279.55 652.693 279.55C655.293 279.55 657.676 278.727 659.843 277.08C662.096 275.347 664.263 273.093 666.343 270.32L666.993 274.35C666.299 275.303 665.519 276.3 664.653 277.34C661.533 281.153 658.196 284.187 654.643 286.44C651.176 288.693 647.189 289.82 642.683 289.82ZM722.472 289.95C718.399 289.95 714.196 289.43 709.862 288.39C705.529 287.35 701.629 285.833 698.162 283.84V262.39H700.892C701.499 266.897 702.842 270.927 704.922 274.48C707.089 277.947 709.776 280.677 712.982 282.67C716.189 284.577 719.742 285.53 723.642 285.53C727.022 285.53 729.752 284.707 731.832 283.06C733.912 281.327 734.952 278.987 734.952 276.04C734.952 273.7 734.259 271.663 732.872 269.93C731.486 268.11 729.709 266.593 727.542 265.38C725.462 264.08 722.602 262.52 718.962 260.7C714.456 258.62 710.772 256.67 707.912 254.85C705.052 253.03 702.626 250.69 700.632 247.83C698.639 244.97 697.642 241.547 697.642 237.56C697.642 233.227 698.812 229.587 701.152 226.64C703.492 223.607 706.569 221.397 710.382 220.01C714.282 218.537 718.442 217.8 722.862 217.8C727.022 217.8 730.879 218.233 734.432 219.1C737.986 219.967 741.322 221.31 744.442 223.13L744.702 241.85H741.972C741.019 236.217 738.809 231.58 735.342 227.94C731.876 224.213 727.716 222.35 722.862 222.35C719.742 222.35 717.402 223.043 715.842 224.43C714.282 225.817 713.502 227.593 713.502 229.76C713.502 231.667 714.109 233.357 715.322 234.83C716.622 236.303 718.182 237.56 720.002 238.6C721.822 239.64 724.422 240.94 727.802 242.5C732.656 244.753 736.556 246.833 739.502 248.74C742.536 250.647 745.136 253.247 747.302 256.54C749.556 259.747 750.682 263.733 750.682 268.5C750.682 275.867 748.126 281.283 743.012 284.75C737.899 288.217 731.052 289.95 722.472 289.95ZM343.875 368.59C341.015 365.73 336.248 363.823 329.575 362.87C322.988 361.83 315.491 361.267 307.085 361.18H302.925V355.72L329.445 353.64L283.555 308.27L287.065 304.76L332.435 350.65L334.645 324H340.105L340.495 332.71C340.841 341.03 341.448 347.877 342.315 353.25C343.181 358.623 344.915 362.523 347.515 364.95L343.875 368.59ZM382.876 379.38C382.962 375.393 381.012 370.713 377.026 365.34C373.039 359.967 368.099 354.247 362.206 348.18L359.216 345.19L362.986 341.42L383.266 358.71L382.876 294.1H387.946L387.556 358.71L407.966 341.42L411.736 345.19L405.886 351.69C400.252 357.843 395.832 363.13 392.626 367.55C389.506 371.883 387.989 375.827 388.076 379.38H382.876ZM441.294 363.65C434.708 364.603 429.984 366.51 427.124 369.37L423.484 365.73C426.084 363.303 427.818 359.403 428.684 354.03C429.551 348.657 430.158 341.81 430.504 333.49L430.894 324.78H436.354L438.564 351.43L483.934 305.54L487.444 309.05L441.554 354.42L468.074 356.5V361.96H463.914C455.508 362.047 447.968 362.61 441.294 363.65ZM135.819 472H128.019V469.14C130.185 468.62 131.875 467.407 133.089 465.5C134.302 463.593 135.039 460.863 135.299 457.31C135.732 449.77 136.122 442.923 136.469 436.77C136.902 430.53 137.162 426.067 137.249 423.38C137.162 420.867 136.945 416.707 136.599 410.9C136.252 405.007 135.862 398.637 135.429 391.79C135.169 388.237 134.389 385.507 133.089 383.6C131.875 381.693 130.185 380.48 128.019 379.96V377.1H135.819L190.809 377.23V403.23H188.079C187.645 399.85 186.345 396.687 184.179 393.74C182.099 390.707 179.325 388.193 175.859 386.2C172.392 384.207 168.535 382.95 164.289 382.43L158.829 381.78L156.099 423.77L157.919 457.31C158.092 460.863 158.959 463.55 160.519 465.37C162.079 467.19 164.462 468.447 167.669 469.14V472H157.269H135.819ZM175.079 442.23C174.645 439.37 173.822 436.813 172.609 434.56C171.482 432.307 170.052 430.53 168.319 429.23C166.672 427.93 164.939 427.28 163.119 427.28L155.449 427.15V422.34C157.442 422.773 159.349 423.033 161.169 423.12C164.982 423.38 168.059 422.21 170.399 419.61C172.739 416.923 174.299 413.11 175.079 408.17H177.679V442.23H175.079ZM222.882 473.95C216.642 473.95 211.356 472.39 207.022 469.27C202.689 466.063 199.396 461.73 197.142 456.27C194.976 450.81 193.892 444.613 193.892 437.68C193.892 431.353 194.889 425.503 196.882 420.13C198.876 414.67 202.039 410.25 206.372 406.87C210.792 403.49 216.296 401.8 222.882 401.8C227.302 401.8 231.202 402.58 234.582 404.14C238.049 405.7 240.952 407.91 243.292 410.77C245.632 413.63 247.322 416.967 248.362 420.78L246.282 433.26L204.162 434.82V430.79L235.492 426.11L230.032 427.28C231.159 422.947 231.506 419.22 231.072 416.1C230.639 412.893 229.642 410.467 228.082 408.82C226.609 407.173 224.876 406.35 222.882 406.35C220.542 406.35 218.592 407.477 217.032 409.73C215.559 411.897 214.476 414.8 213.782 418.44C213.176 421.993 212.872 425.893 212.872 430.14C212.872 434.907 213.392 439.5 214.432 443.92C215.472 448.253 217.292 451.937 219.892 454.97C222.492 457.917 226.046 459.39 230.552 459.39C234.452 459.39 237.962 458.177 241.082 455.75C244.202 453.323 246.542 449.943 248.102 445.61L250.832 446.26C250.226 451.287 248.839 455.88 246.672 460.04C244.506 464.2 241.429 467.58 237.442 470.18C233.456 472.693 228.602 473.95 222.882 473.95ZM300.584 472H294.994V469.4C296.554 468.88 297.81 467.753 298.764 466.02C299.804 464.287 300.497 461.773 300.844 458.48C301.797 447.473 302.274 441.363 302.274 440.15C302.274 439.11 302.014 437.03 301.494 433.91C301.06 430.703 300.54 427.28 299.934 423.64C299.327 419.913 298.417 417.097 297.204 415.19C295.99 413.283 294.3 412.33 292.134 412.33C289.967 412.33 287.8 413.197 285.634 414.93C283.554 416.663 281.69 418.57 280.044 420.65L279.394 417.4C281.474 414.54 283.38 412.157 285.114 410.25C286.847 408.343 289.187 406.48 292.134 404.66C295.167 402.753 298.547 401.8 302.274 401.8C306.78 401.8 310.42 402.797 313.194 404.79C316.054 406.783 318.004 409.513 319.044 412.98C320.084 416.36 320.3 420.303 319.694 424.81C319.087 429.403 318.74 432.783 318.654 434.95C318.48 436.51 318.394 438.243 318.394 440.15C318.394 443.357 318.784 449.51 319.564 458.61C319.91 461.817 320.777 464.287 322.164 466.02C323.55 467.753 325.327 468.88 327.494 469.4V472H319.694H300.584ZM263.404 472H255.604V469.4C257.77 468.88 259.504 467.753 260.804 466.02C262.104 464.287 262.927 461.773 263.274 458.48C263.534 455.36 263.794 452.283 264.054 449.25C264.574 444.57 264.834 441.537 264.834 440.15C264.66 437.81 264.444 435.47 264.184 433.13C263.75 428.017 263.274 422.947 262.754 417.92C262.407 414.453 261.67 412.113 260.544 410.9C259.417 409.687 257.337 409.123 254.304 409.21L253.784 406.61L263.014 404.79L284.334 400.5L283.684 413.37L283.424 415.45C283.25 418.743 283.077 421.213 282.904 422.86C282.817 424.42 282.687 426.803 282.514 430.01L281.994 440.15C281.994 441.883 282.514 448.037 283.554 458.61C283.9 461.817 284.55 464.287 285.504 466.02C286.544 467.753 287.844 468.88 289.404 469.4V472H283.814H263.404ZM352.08 473.82C348.613 473.82 345.58 473.083 342.98 471.61C340.38 470.05 338.473 467.623 337.26 464.33C336.047 460.95 335.743 456.66 336.35 451.46C336.783 446.867 337.043 443.833 337.13 442.36C337.39 438.98 337.52 436.553 337.52 435.08C337.52 433.607 337.347 431.353 337 428.32C336.827 425.807 336.567 422.86 336.22 419.48C335.873 416.1 335.18 413.673 334.14 412.2C333.1 410.727 331.54 409.903 329.46 409.73L328.94 407.13L336.22 405.7L357.67 401.41C356.63 411.723 355.85 420.65 355.33 428.19C355.243 430.443 355.113 432.74 354.94 435.08C355.027 436.987 355.243 439.977 355.59 444.05C356.023 448.037 356.457 451.503 356.89 454.45C357.41 457.83 358.233 460.213 359.36 461.6C360.573 462.987 362.003 463.68 363.65 463.68C365.383 463.68 367.203 462.987 369.11 461.6C371.103 460.127 372.75 458.35 374.05 456.27L374.96 460.04C373.747 462.12 372.013 464.243 369.76 466.41C367.593 468.49 364.95 470.267 361.83 471.74C358.797 473.127 355.547 473.82 352.08 473.82ZM372.62 461.99C372.793 454.797 372.967 447.603 373.14 440.41L373.27 435.08C373.27 433.173 372.837 427.757 371.97 418.83C371.623 415.363 370.93 413.023 369.89 411.81C368.85 410.51 366.987 409.86 364.3 409.86L363.78 407.39L372.1 405.7L393.55 401.41L391.34 422.6C390.473 429.533 390.04 433.693 390.04 435.08C390.04 436.9 390.863 444.743 392.51 458.61C392.857 461.817 393.723 464.287 395.11 466.02C396.497 467.753 398.273 468.88 400.44 469.4V472H392.64H372.62V461.99ZM417.803 472H410.003V469.4C412.17 468.88 413.86 467.753 415.073 466.02C416.286 464.287 416.98 461.773 417.153 458.48C418.54 436.813 419.233 425.547 419.233 424.68C419.146 421.993 418.93 417.573 418.583 411.42C418.236 405.18 417.846 398.247 417.413 390.62C417.153 386.72 416.373 384.12 415.073 382.82C413.773 381.52 411.346 380.957 407.793 381.13L407.143 378.27L418.193 376.06L439.253 371.9C438.646 383.427 437.996 394.997 437.303 406.61C437.043 412.59 436.74 418.613 436.393 424.68C436.393 427.02 437.043 438.287 438.343 458.48C438.603 461.773 439.34 464.287 440.553 466.02C441.766 467.753 443.456 468.88 445.623 469.4V472H437.823H417.803ZM516.971 473.95C509.171 473.95 502.454 471.957 496.821 467.97C491.274 463.897 487.027 458.22 484.081 450.94C481.221 443.66 479.791 435.21 479.791 425.59C479.791 415.623 481.307 406.827 484.341 399.2C487.461 391.573 491.881 385.68 497.601 381.52C503.321 377.273 510.037 375.15 517.751 375.15C525.377 375.15 532.007 377.23 537.641 381.39C543.274 385.463 547.564 391.227 550.511 398.68C553.544 406.133 555.061 414.757 555.061 424.55C555.061 434.343 553.544 442.967 550.511 450.42C547.564 457.873 543.187 463.68 537.381 467.84C531.661 471.913 524.857 473.95 516.971 473.95ZM521.651 468.88C524.597 468.88 526.937 467.277 528.671 464.07C530.404 460.863 531.574 456.66 532.181 451.46C532.874 446.173 533.091 440.193 532.831 433.52C532.484 424.68 531.487 416.187 529.841 408.04C528.281 399.807 526.071 393.133 523.211 388.02C520.437 382.82 517.187 380.22 513.461 380.22C510.514 380.22 508.087 381.91 506.181 385.29C504.361 388.67 503.061 393.177 502.281 398.81C501.501 404.443 501.241 410.64 501.501 417.4C501.847 425.98 502.887 434.213 504.621 442.1C506.354 449.987 508.694 456.443 511.641 461.47C514.587 466.41 517.924 468.88 521.651 468.88ZM571.9 472H564.1V469.4C566.266 468.88 568 467.753 569.3 466.02C570.6 464.287 571.38 461.773 571.64 458.48C572.766 445.913 573.33 439.153 573.33 438.2C573.33 436.12 572.68 429.447 571.38 418.18C571.033 414.713 570.253 412.417 569.04 411.29C567.913 410.077 565.833 409.513 562.8 409.6L562.28 407L571.51 405.18L592.83 400.89C592.57 406.177 592.136 412.893 591.53 421.04L590.49 438.33C590.49 439.197 591.053 445.913 592.18 458.48C592.526 461.773 593.306 464.287 594.52 466.02C595.82 467.753 597.553 468.88 599.72 469.4V472H591.92H571.9ZM581 393.48C577.793 393.48 575.063 392.353 572.81 390.1C570.556 387.847 569.43 385.117 569.43 381.91C569.43 378.79 570.556 376.103 572.81 373.85C575.063 371.597 577.793 370.47 581 370.47C584.12 370.47 586.806 371.597 589.06 373.85C591.313 376.103 592.44 378.79 592.44 381.91C592.44 385.117 591.313 387.847 589.06 390.1C586.806 392.353 584.12 393.48 581 393.48ZM617.119 472H609.319V469.4C611.486 468.88 613.176 467.753 614.389 466.02C615.603 464.287 616.296 461.773 616.469 458.48C617.856 436.813 618.549 425.547 618.549 424.68C618.463 421.993 618.246 417.573 617.899 411.42C617.553 405.18 617.163 398.247 616.729 390.62C616.469 386.72 615.689 384.12 614.389 382.82C613.089 381.52 610.663 380.957 607.109 381.13L606.459 378.27L617.509 376.06L638.569 371.9C637.963 383.427 637.313 394.997 636.619 406.61C636.359 412.59 636.056 418.613 635.709 424.68C635.709 427.02 636.359 438.287 637.659 458.48C637.919 461.773 638.656 464.287 639.869 466.02C641.083 467.753 642.773 468.88 644.939 469.4V472H637.139H617.119Z" fill="black"/>
</svg>
