<svg width="762" height="1154" viewBox="0 0 762 1154" fill="none" xmlns="http://www.w3.org/2000/svg">
<path d="M68.92 581H0.860003V571.87C20.2267 570.763 34.89 565.507 44.85 556.1C55.3633 546.693 60.8967 533.413 61.45 516.26C62.5567 480.293 63.3867 444.327 63.94 408.36L66.43 297.97C65.3233 244.85 64.4933 205.563 63.94 180.11C63.3867 154.657 62.5567 116.2 61.45 64.74C60.8967 47.5866 55.3633 34.3066 44.85 24.9C34.89 15.4933 20.2267 10.2366 0.860003 9.12999V-3.95775e-05H68.92H201.72C258.713 -3.95775e-05 301.873 14.3866 331.2 43.16C361.08 71.38 376.02 109.283 376.02 156.87C376.02 187.303 369.103 213.863 355.27 236.55C341.437 259.237 321.793 276.667 296.34 288.84C270.887 301.013 241.007 307.1 206.7 307.1H72.24V289.67L195.08 297.14C231.047 299.353 261.203 294.65 285.55 283.03C309.897 271.41 327.603 254.81 338.67 233.23C350.29 211.65 355.547 187.027 354.44 159.36C353.333 116.753 337.84 81.6166 307.96 53.95C278.08 25.73 237.687 11.3433 186.78 10.79L83.86 9.12999L78.05 297.14L83.03 516.26C83.5833 533.413 89.9467 546.693 102.12 556.1C114.847 565.507 133.937 570.763 159.39 571.87V581H75.56H68.92ZM163.54 303.78L171.84 298.8L333.69 499.66C345.31 514.047 357.207 526.22 369.38 536.18C382.107 545.587 394.833 553.333 407.56 559.42C420.287 564.953 433.843 569.103 448.23 571.87V581H365.23L163.54 303.78ZM559.683 581H491.623V571.87C510.99 570.763 525.93 565.507 536.443 556.1C547.51 546.693 553.32 533.413 553.873 516.26C555.533 470.887 557.193 425.79 558.853 380.97C558.853 354.963 558.3 327.02 557.193 297.14C557.193 282.2 556.64 259.237 555.533 228.25C554.427 211.097 549.17 199.2 539.763 192.56C530.357 185.367 516.247 183.43 497.433 186.75L494.943 177.62L561.343 161.02L575.453 157.7L576.283 228.25L567.153 237.38L572.133 516.26C572.687 533.413 578.773 546.693 590.393 556.1C602.567 565.507 620.55 570.763 644.343 571.87V581H564.663H559.683ZM562.173 232.4L748.923 157.7L761.373 262.28L752.243 263.11C749.477 241.53 743.943 225.483 735.643 214.97C727.897 204.457 717.383 198.647 704.103 197.54C691.377 196.433 675.607 199.2 656.793 205.84L562.173 240.7V232.4ZM68.92 1154H0.860003V1144.87C20.2267 1143.76 34.89 1138.51 44.85 1129.1C55.3633 1119.69 60.8967 1106.41 61.45 1089.26C62.5567 1051.08 63.3867 1013.18 63.94 975.55L66.43 858.52C65.3233 808.72 64.4933 771.647 63.94 747.3C63.3867 722.953 62.5567 686.433 61.45 637.74C60.8967 620.587 55.3633 607.307 44.85 597.9C34.89 588.493 20.2267 583.237 0.860003 582.13V573H68.92H201.72C239.9 573 271.993 579.087 298 591.26C324.007 603.433 343.373 620.863 356.1 643.55C369.38 666.237 376.02 693.073 376.02 724.06C376.02 750.62 368.827 774.967 354.44 797.1C340.607 818.68 320.963 835.833 295.51 848.56C270.057 861.287 240.453 867.65 206.7 867.65H72.24V850.22L195.08 857.69C231.047 859.903 260.927 854.923 284.72 842.75C309.067 830.577 327.05 814.253 338.67 793.78C350.29 772.753 355.547 750.343 354.44 726.55C353.333 698.883 345.863 674.537 332.03 653.51C318.75 631.93 299.66 615.053 274.76 602.88C250.413 590.707 221.087 584.343 186.78 583.79L83.86 582.13L78.05 857.69L83.03 1089.26C83.5833 1106.41 89.9467 1119.69 102.12 1129.1C114.847 1138.51 133.937 1143.76 159.39 1144.87V1154H75.56H68.92ZM323.73 1154C324.283 1128.55 323.453 1106.41 321.24 1087.6C319.58 1068.23 312.663 1047.48 300.49 1025.35C288.87 1002.66 270.057 983.297 244.05 967.25L75.56 864.33L83.86 859.35L325.39 994.64C324.283 1031.16 326.773 1060.21 332.86 1081.79C339.5 1102.82 349.183 1118.31 361.91 1128.27C375.19 1137.68 392.343 1143.21 413.37 1144.87V1154H323.73ZM506.187 1154H438.127V1144.87C457.494 1143.76 472.434 1138.51 482.947 1129.1C494.014 1119.69 499.824 1106.41 500.377 1089.26C502.037 1043.89 503.697 998.79 505.357 953.97C505.357 926.857 504.804 898.36 503.697 868.48C503.697 852.433 503.144 828.917 502.037 797.93C500.931 780.777 495.674 768.88 486.267 762.24C476.861 755.047 462.751 753.11 443.937 756.43L441.447 747.3L507.847 730.7L521.957 727.38L522.787 801.25L513.657 810.38L518.637 1089.26C519.191 1106.41 525.277 1119.69 536.897 1129.1C549.071 1138.51 567.054 1143.76 590.847 1144.87V1154H511.167H506.187ZM513.657 806.23L657.247 726.55C657.801 743.703 661.121 757.26 667.207 767.22C673.847 777.18 682.701 782.99 693.767 784.65C705.387 786.31 718.667 783.267 733.607 775.52L736.927 783.82L673.847 816.19C668.314 791.29 658.907 776.073 645.627 770.54C632.901 764.453 612.981 767.773 585.867 780.5L511.167 816.19L513.657 806.23Z" fill="#EEEEEE"/>
</svg>
