<?xml version="1.0" encoding="utf-8"?>
<!-- Generator: Adobe Illustrator 27.0.0, SVG Export Plug-In . SVG Version: 6.00 Build 0)  -->
<svg version="1.1" id="Layer_1" xmlns="http://www.w3.org/2000/svg"
	xmlns:xlink="http://www.w3.org/1999/xlink" x="0px" y="0px"
	viewBox="0 0 762 1154" style="enable-background:new 0 0 762 1154;" xml:space="preserve">
<style type="text/css">
	.st0{fill:#111;}
</style>
<g>
	<path class="st0" d="M693.77,784.65c-11.07-1.66-19.92-7.47-26.56-17.43c-6.09-9.96-9.41-23.52-9.96-40.67l-134.46,74.61
		l-0.83-73.78l-14.11,3.32l-66.4,16.6l2.49,9.13c18.81-3.32,32.92-1.38,42.33,5.81c9.41,6.64,14.66,18.54,15.77,35.69
		c1.11,30.99,1.66,54.5,1.66,70.55c1.11,29.88,1.66,58.38,1.66,85.49c-1.66,44.82-3.32,89.92-4.98,135.29
		c-0.55,17.15-6.36,30.43-17.43,39.84c-10.51,9.41-25.45,14.66-44.82,15.77v9.13h68.06h4.98h79.68v-9.13
		c-23.79-1.11-41.78-6.36-53.95-15.77c-11.62-9.41-17.71-22.69-18.26-39.84l-4.9-274.3l72.13-34.46
		c27.11-12.73,47.03-16.05,59.76-9.96c13.28,5.53,22.69,20.75,28.22,45.65l63.08-32.37l-3.32-8.3
		C718.67,783.27,705.39,786.31,693.77,784.65z"/>
	<path class="st0" d="M332.86,1081.79c-6.09-21.58-8.58-50.63-7.47-87.15L98.68,867.65H206.7c33.75,0,63.36-6.36,88.81-19.09
		s45.1-29.88,58.93-51.46c14.39-22.13,21.58-46.48,21.58-73.04c0-30.99-6.64-57.82-19.92-80.51c-12.73-22.69-32.09-40.12-58.1-52.29
		C271.99,579.09,239.9,573,201.72,573h-47.57c-23.1-0.45-40.2-6.72-52.03-15.47c-12.17-9.41-18.54-22.69-19.09-39.84l-4.75-209.16
		h87.68l199.27,273.9h83v-9.13c-14.39-2.77-27.94-6.92-40.67-12.45c-12.73-6.09-25.45-13.83-38.18-23.24
		c-12.17-9.96-24.07-22.13-35.69-36.52L178.53,308.53h28.17c34.31,0,64.19-6.09,89.64-18.26c25.45-12.17,45.1-29.6,58.93-52.29
		s20.75-49.25,20.75-79.68c0-47.59-14.94-85.49-44.82-113.71C301.87,15.81,258.71,1.43,201.72,1.43H68.92H0.86v9.13
		c19.37,1.11,34.03,6.36,43.99,15.77c10.51,9.41,16.05,22.69,16.6,39.84c1.11,51.46,1.94,89.92,2.49,115.37s1.38,64.74,2.49,117.86
		l-2.49,110.39c-0.55,35.97-1.38,71.93-2.49,107.9c-0.55,17.15-6.09,30.43-16.6,39.84c-9.26,8.75-22.6,13.9-40,15.47H0.86v0.3v8.83
		v0.3h3.99c17.4,1.57,30.74,6.72,40,15.47c10.51,9.41,16.05,22.69,16.6,39.84c1.11,48.69,1.94,85.21,2.49,109.56
		s1.38,61.42,2.49,111.22l-2.49,117.03c-0.55,37.63-1.38,75.53-2.49,113.71c-0.55,17.15-6.09,30.43-16.6,39.84
		c-9.96,9.41-24.62,14.66-43.99,15.77v9.13h68.06h6.64h83.83v-9.13c-25.45-1.11-44.54-6.36-57.27-15.77
		c-12.17-9.41-18.54-22.69-19.09-39.84l-4.77-221.61H81l163.05,99.6c26.01,16.05,44.82,35.41,56.44,58.1
		c12.17,22.13,19.09,42.88,20.75,62.25c2.21,18.81,3.04,40.95,2.49,66.4h89.64v-9.13c-21.03-1.66-38.18-7.19-51.46-16.6
		C349.18,1118.31,339.5,1102.82,332.86,1081.79z M274.76,602.88c24.9,12.17,43.99,29.05,57.27,50.63
		c13.83,21.03,21.3,45.37,22.41,73.04c1.11,23.79-4.15,46.2-15.77,67.23c-11.62,20.47-29.6,36.8-53.95,48.97
		c-23.79,12.17-53.67,17.15-89.64,14.94L78.2,850.58l5.65-268.15h18.48l84.44,1.36C221.09,584.34,250.41,590.71,274.76,602.88z
		 M186.78,12.22c50.91,0.55,91.3,14.94,121.18,43.16c29.88,27.67,45.37,62.8,46.48,105.41c1.11,27.67-4.15,52.29-15.77,73.87
		c-11.07,21.58-28.77,38.18-53.12,49.8c-24.35,11.62-54.5,16.32-90.47,14.11l-116.89-7.11l5.67-280.9L186.78,12.22z"/>
	<path class="st0" d="M748.92,157.7l-172.67,69.07l-0.8-67.64l-14.11,3.32l-66.4,16.6l2.49,9.13c18.81-3.32,32.92-1.38,42.33,5.81
		c9.41,6.64,14.66,18.54,15.77,35.69c1.11,30.99,1.66,53.95,1.66,68.89c1.11,29.88,1.66,57.82,1.66,83.83
		c-1.66,44.82-3.32,89.92-4.98,135.29c-0.55,17.15-6.36,30.43-17.43,39.84c-10.51,9.41-25.45,14.66-44.82,15.77v9.13h68.06h4.98
		h79.68v-9.13c-23.79-1.11-41.78-6.36-53.95-15.77c-11.62-9.41-17.71-22.69-18.26-39.84l-4.98-278.82l89.64-33.02
		c18.81-6.64,34.58-9.41,47.31-8.3c13.28,1.11,23.79,6.92,31.54,17.43c8.3,10.51,13.83,26.56,16.6,48.14l9.13-0.83L748.92,157.7z"/>
</g>
</svg>