<?xml version="1.0" encoding="utf-8"?>
<!-- Generator: Adobe Illustrator 27.0.0, SVG Export Plug-In . SVG Version: 6.00 Build 0)  -->
<svg version="1.1" id="Layer_1" xmlns="http://www.w3.org/2000/svg" xmlns:xlink="http://www.w3.org/1999/xlink" x="0px" y="0px"
	 viewBox="0 0 500 500" style="enable-background:new 0 0 500 500;" xml:space="preserve">
<style type="text/css">
	.st0{fill:#00A2FF;}
	.st1{fill:#1D1D1B;}
</style>
<ellipse class="st0" cx="250" cy="250" rx="241.89" ry="147.5"/>
<g>
	<path class="st1" d="M104.67,288.73c-4.82-2.33-8.68-5.68-11.59-10.04c-2.91-4.36-4.51-9.45-4.82-15.26h15.15
		c0.23,2.91,1.15,5.53,2.75,7.86c1.61,2.33,3.71,4.17,6.31,5.51c2.6,1.34,5.43,2.01,8.49,2.01c4.44,0,8.03-0.98,10.79-2.93
		c2.75-1.95,4.13-4.49,4.13-7.63c0-2.68-0.88-4.86-2.64-6.54c-1.76-1.68-4.21-2.98-7.34-3.9l-13.54-3.79
		c-6.5-1.84-11.61-4.55-15.32-8.15c-3.71-3.59-5.56-8.76-5.56-15.49c0-4.44,1.22-8.36,3.67-11.76c2.45-3.4,5.85-6.08,10.21-8.03
		s9.29-2.93,14.8-2.93c5.81,0,10.96,1.01,15.43,3.04c4.47,2.03,8.03,4.9,10.67,8.61c2.64,3.71,4.11,8.05,4.42,13.02h-15.15
		c-0.54-3.21-2.16-5.87-4.88-7.98c-2.72-2.1-6.22-3.16-10.5-3.16c-4.06,0-7.23,0.8-9.52,2.41s-3.44,3.83-3.44,6.66
		c0,2.37,0.78,4.27,2.35,5.68c1.57,1.42,3.88,2.54,6.94,3.38l13.54,3.79c4.36,1.3,8.09,2.87,11.19,4.71
		c3.1,1.84,5.58,4.38,7.46,7.63c1.87,3.25,2.81,7.4,2.81,12.45c0,4.82-1.26,9.08-3.79,12.79c-2.52,3.71-6.08,6.56-10.67,8.55
		c-4.59,1.99-9.95,2.98-16.06,2.98C114.92,292.23,109.49,291.06,104.67,288.73z"/>
	<path class="st1" d="M179.14,286.83c-6.35-3.67-11.34-8.72-14.97-15.15c-3.63-6.43-5.45-13.66-5.45-21.69
		c0-7.96,1.82-15.15,5.45-21.57c3.63-6.43,8.64-11.47,15.03-15.15c6.39-3.67,13.52-5.51,21.4-5.51c7.88,0,14.99,1.82,21.34,5.45
		c6.35,3.63,11.32,8.66,14.92,15.09c3.59,6.43,5.39,13.65,5.39,21.69s-1.8,15.26-5.39,21.69c-3.6,6.43-8.57,11.47-14.92,15.15
		c-6.35,3.67-13.46,5.51-21.34,5.51C192.64,292.34,185.49,290.51,179.14,286.83z M213.97,275.07c3.94-2.49,7.02-5.93,9.24-10.33
		c2.22-4.4,3.33-9.31,3.33-14.75c0-5.43-1.11-10.33-3.33-14.69c-2.22-4.36-5.3-7.78-9.24-10.27c-3.94-2.48-8.43-3.73-13.48-3.73
		c-4.97,0-9.45,1.22-13.43,3.67c-3.98,2.45-7.08,5.87-9.29,10.27c-2.22,4.4-3.33,9.31-3.33,14.74c0,5.43,1.11,10.35,3.33,14.75
		c2.22,4.4,5.32,7.84,9.29,10.33c3.98,2.49,8.45,3.73,13.43,3.73C205.54,278.8,210.03,277.56,213.97,275.07z"/>
	<path class="st1" d="M269.79,286.83c-6.35-3.67-11.34-8.72-14.97-15.15c-3.63-6.43-5.45-13.66-5.45-21.69
		c0-7.96,1.82-15.15,5.45-21.57c3.63-6.43,8.64-11.47,15.03-15.15c6.39-3.67,13.52-5.51,21.4-5.51c7.88,0,14.99,1.82,21.34,5.45
		c6.35,3.63,11.32,8.66,14.92,15.09c3.59,6.43,5.39,13.65,5.39,21.69s-1.8,15.26-5.39,21.69c-3.6,6.43-8.57,11.47-14.92,15.15
		c-6.35,3.67-13.46,5.51-21.34,5.51C283.29,292.34,276.14,290.51,269.79,286.83z M304.62,275.07c3.94-2.49,7.02-5.93,9.24-10.33
		c2.22-4.4,3.33-9.31,3.33-14.75c0-5.43-1.11-10.33-3.33-14.69c-2.22-4.36-5.3-7.78-9.24-10.27c-3.94-2.48-8.43-3.73-13.48-3.73
		c-4.97,0-9.45,1.22-13.43,3.67c-3.98,2.45-7.08,5.87-9.29,10.27c-2.22,4.4-3.33,9.31-3.33,14.74c0,5.43,1.11,10.35,3.33,14.75
		c2.22,4.4,5.32,7.84,9.29,10.33c3.98,2.49,8.45,3.73,13.43,3.73C296.19,278.8,300.68,277.56,304.62,275.07z"/>
	<path class="st1" d="M343.92,208.69h16.52l27.88,44.98c3.29,5.36,6.16,10.44,8.61,15.26c-0.31-5.43-0.46-11.28-0.46-17.56v-42.69
		h15.26v82.73h-16.52l-27.88-44.75c-3.29-5.43-6.16-10.52-8.61-15.26c0.38,5.36,0.57,11.21,0.57,17.56v42.46h-15.38V208.69z"/>
</g>
</svg>
