<?xml version="1.0" encoding="utf-8"?>
<!-- Generator: Adobe Illustrator 27.0.0, SVG Export Plug-In . SVG Version: 6.00 Build 0)  -->
<svg version="1.1" id="Vrstva_1" xmlns="http://www.w3.org/2000/svg" xmlns:xlink="http://www.w3.org/1999/xlink" x="0px" y="0px"
	 viewBox="0 0 1350 1350" style="enable-background:new 0 0 1350 1350;" xml:space="preserve">
<path d="M-377.53,391.93c-196.63-114.09-423.73-107.54-656.17-48.68c-43.22,10.95-88.72,9.02-130.9-5.41
	c-29.91-10.23-59.8-22.62-92.41-31.09c-51.53-13.38-150.85,8.42-86.78,18.77c138.96,23.67,118.45,114.8,81.61,205.62
	c-26.69,65.82-35.93,137.4-27.99,207.99c6.3,56,13.6,119.9,19,155.58c23.89,129.86-174.33,127.43-74.15,143.36
	c95.02,18.92,149.24-81.61,234.12-73.1c68.79,0.39,106.16,48.62,155.33,79.97c17.73,11.31,39.16,15.14,59.93,11.85
	c18.7-2.96,35.99-1.13,53.76,2.72c82.08,17.75,91.15-28.33,154.31-40.69c122.68-24,93.93,11.26,40.82,69.11
	c-14.42,15.71-0.04,40.41,20.75,35.67c182.69-41.6,452.58-18.49,496.17-286.67C-96.29,628.97-214.75,486.38-377.53,391.93z
	 M-181.4,643.26c8,21.1-16.3,33.7-31.03,41.44c-8.92,4.69-19.94,1.81-25.59-6.53c-0.09-0.14-0.19-0.27-0.28-0.41
	c-5.57-8.23-4.2-19.28,3.17-25.94C-220.03,638.17-189.36,622.27-181.4,643.26z M-323.78,491.66c7.34-9.06,20.84-10.2,29.4-2.29
	c20.87,19.27,55.77,54.38,71.22,85.98c10.35,21.17,7.63,39.95-10.84,50.53c-9.76,5.59-21.92,3.77-25.81-6.79
	c-5.84-15.83-13.06-31.22-21.82-46.14c-11.87-20.21-25.65-38.28-41.02-54.55C-329.66,510.98-330.2,499.59-323.78,491.66z
	 M-672.17,551.34c-6.4-20.34-11.83-36.69-27.3-60.06c-63.44-95.85,94.11-105.82,44.42,60.38
	C-657.55,559.96-669.57,559.62-672.17,551.34z M-671.19,596.34c-5.83,37.23-82.51-28.25-47.5-42.84
	C-687.31,541.87-668.59,578.75-671.19,596.34z M-588.57,541.84c5.07,9.23,6.34,20.09,4.12,30.38c-5.05,23.38-18.21,47.21-42.3,51.61
	C-705.36,637.66-619.85,484.9-588.57,541.84z M-599.6,458.96c21.2-64.78,91.18-15.78,77.66,49.18
	c-5.12,25.49-16.01,50.62-27.93,70.64c-5.32,8.94-19.01,5.25-18.98-5.16C-568.75,536.2-612.19,497.41-599.6,458.96z M-542.23,589.8
	c8.98-20.29,42.53-58.72,52.74-37.98c2.33,4.74,1.84,10.38-0.73,15c-11.2,20.12-46.64,56.65-53,34.49
	C-544.31,597.5-543.83,593.42-542.23,589.8z M-321.48,597.21c-6.13,1.51-12.47,2.59-18.45,3.36c-12.11,1.55-22.18-9.97-18.35-21.56
	c3.54-10.7,5.06-21.63,4.01-31.81c-3.06-29.65-35.52-46.38-62.3-33.28c-88.05,43.05-85.75,3.97-85.88-39.6
	c-0.08-27.71,25.63-36.09,50.83-24.57c19.15,8.75,39.84,20.87,58.57,31.2c99.32,54.75,132.99,176.05,133.06,176.35
	c3.05,12.6-5.19,20.65-17.67,17.13c-32.4-9.14-57.7,14.4-27.82-58.95C-301.26,605.1-310.62,594.52-321.48,597.21z M-487.42,583.55
	c22.23-25.62,53.12-54.7,74.05-59.71c41.93-10.04,58.07,48.6,32.08,62.42c-18.57,9.87-57.5,21.41-89.77,26.65
	C-487.54,615.58-498.36,596.15-487.42,583.55z M-464.16,634.22c38.69-29.02,108.82-5.66,108.86,40.27
	c0.05,55.45-81.41,23.33-111.51-8.92C-475.4,656.37-474.23,641.77-464.16,634.22z M-386.86,746.1
	c39.39,16.67,26.33,77.44-16.31,74.12c-20.62-1.61-39.35-18.24-38.13-59.47C-438.05,728.66-410.9,735.93-386.86,746.1z
	 M-383.63,880.7c12.76-4.39,27.46,0.7,33.27,12.88c16.7,34.99-63.68,71.27-114.89,73.19C-585.23,968.63-442.99,901.14-383.63,880.7z
	 M-393.52,872.71c-14.73,8.07-28.93-11.74-16.32-22.85c69.85-61.57,127.87-60.2,138.37-31.79c3.88,10.5,4.4,23.64-7.26,37
	c-13.64,15.63-36.33,18.63-55.09,9.78C-355.32,854.71-374.46,862.28-393.52,872.71z M-262.6,763.54c6.65-4,15.07,1,14.41,8.73
	c-0.72,8.43-2.4,20.09-4.2,31.26c-1.16,7.24-10.39,9.57-14.2,2.24C-282.88,774.44-262.6,763.54-262.6,763.54z M-247.02,744.29
	c-19.96,27.02-122.59,6.64-168.33-21.83c-5.9-3.67-1.79-12.81,4.89-10.93c37,10.41,74.21-0.09,111.75-15.93
	c21.59-9.11,47.2,1.14,55.08,23.21C-239.69,729.88-242.32,737.94-247.02,744.29z M-483.72,376.9
	c52.12,18.58,101.27,43.62,145.81,76.4c8.7,6.41,8.87,18.68,1.61,26.69c-0.18,0.2-0.36,0.4-0.53,0.6c-6.27,7.4-16.91,8.82-24.59,2.9
	c-21.44-16.53-44.93-30.75-70-43.17c-21.29-10.55-43.12-19.44-65.34-27.12c-5.84-2.02-10.53-6.59-12.33-12.49
	c-0.14-0.46-0.27-0.93-0.4-1.4C-513.34,384.57-498.08,371.78-483.72,376.9z M-658.92,340.75c24.85,1.08,63.07,1.67,95.81,6.05
	c11.79,1.58,19.03,13.71,14.72,24.8l0,0c-3.34,8.62-12.58,13.41-21.54,11.14c-24.91-6.29-65.38-12.35-91.16-15.42
	c-8.49-1.01-13.85-9.64-10.99-17.7v0C-670.12,344.09-664.78,340.5-658.92,340.75z M-772.19,335.87c15.24-0.63,34.12-1.21,52.28-1.23
	c7.87-0.01,15,4.65,18.11,11.87l0,0c5.57,12.91-3.82,27.31-17.87,27.44c-26.87,0.26-58.76,0.77-63.39-2.47l-0.12-0.08
	c-0.12-0.08-0.23-0.16-0.35-0.25C-798.45,360.44-790.55,336.63-772.19,335.87z M-791.53,397.56c21.58-8.15,47.85-11.51,69.56-12.04
	c30.63-0.75,77.61,5.04,111.98,11.34c12.6,2.31,19.12,14.65,10.1,23.75c-6.05,6.1-10.69,12.85-13.88,19.06
	c-6.36,12.38-5.78,28.53-8.27,37.59c-2.01,7.34-13.18,5.52-12.37-2.05c0.01-0.08,0.04-0.16,0.03-0.25
	c-14.36-135.86-156.44-60.7-75.11,22.23c24.32,26.16-15.25,47.56-34.93,26.2c-21.47-27.48-21.58-80.28-50.71-100.95
	C-804.37,415.86-802.15,401.57-791.53,397.56z M-846.03,335.85c14.23-4.05,29.28,2.23,32.23,16.73
	c8.45,41.42-101.43,80.93-113.6,84.78c-15.32,4.84-30.66,6.8-45.52,5.75c-35.02-2.47-41.94-48.63-8.62-63.55
	C-928.34,355.74-876.33,344.47-846.03,335.85z M-841.64,534.43c13.62,16.76,7.65,27.28-11.27,16.84
	c-29.49-16.27-54.14-17.6-72.67-10.48c-8.47,3.25-16.67-5.17-13.18-13.54c7.86-18.86,18.45-42.13,29.57-60.47
	c4.87-8.03,16.81-7.14,20.37,1.55C-879.29,491.58-855.63,517.22-841.64,534.43z M-1216.53,410.5
	c13.79-38.61,50.59-61.29,76.85-47.41c11.8,6.23,16.02,21.29,10.28,33.33C-1149.69,438.95-1243.08,484.82-1216.53,410.5z
	 M-1237.8,350.23c-11.62-0.55-23.93-2.62-32.15-8.05c-14.17-9.37-5.69-26.92,10.97-23.6c6.29,1.25,16.72,5.67,26.68,10.82
	C-1221.82,334.82-1226.01,350.79-1237.8,350.23z M-1255.87,1008.1c-14.51,6.44-29.46-8.63-22.73-23.01
	c5.06-10.81,15.13-27.22,28.81-31.08C-1212.25,943.41-1214.39,989.69-1255.87,1008.1z M-1145.28,940.39
	c-9.68,47.37-136.86-33.39-92.69-58.09c7.32-4.09,16.2-4.18,24-1.1c22.04,8.72,45.65,21.18,61.98,37.71
	C-1146.42,924.53-1143.69,932.63-1145.28,940.39z M-720.73,868.07c-25.38,36.2-91.31,9.15-131.15-31.47
	c-26.54-27.06-67.47-37.81-104.35-29.03c-20.37,4.85-43.06,11.28-60.05,19.83c-17.46,8.79-23.9,30.51-14.04,47.4
	c24.82,42.53,46.71,92.9,102.43,95.67c58.1,2.88,171.44-85.4,192.45-12.85c11,38-10.79,72.06-54.71,81.4
	c-20.43,4.34-39.46-9.88-63.69-13.89c-53.28-8.82-75.39,22.27-140.87-37.53c-109.56-100.06-275.09-92.52-275.49-307.04
	c-0.12-63.27,20.22-124.7,63.31-171.03c24.56-26.41,64.77-51.4,110.37-73.81c25.11-12.34,54.9-10.59,78.46,4.5
	c14.02,8.98,31.31,16.76,48.83,16.48c0.15,0,0.31-0.01,0.46-0.01c27.83-0.51,36.43,16.59,19.04,38.33
	c-23.7,29.62-55.88,49.69-79.58,61.61c-7.35,3.7-2.71,14.84,5.09,12.22c0.22-0.07,0.44-0.15,0.66-0.22
	c22.39-7.64,45.18,3.51,53.92,22.81c4.09,9.02,4.32,19.32,1.11,28.69l-3.92,11.44c-2.65,7.74-3.78,14.39-3.74,21.05
	c0.08,13.45,1.62,24.57,3.27,33.23c1.01,5.32,8.82,4.91,9.23-0.5c0.41-5.38,0.3-11.32,2.76-20.76c3.38-12.98,17.6-19.97,29.8-14.38
	c14.91,6.83,35.16,9.26,61.32,4.45c57.02-10.49,67.63-1.57,66.96,30.89c-0.23,10.96,6.01,21.05,15.87,25.83
	c33.77,16.38,10.3,23.2-25.17,26.68c-10.64,1.04-13.5,15.24-4.05,20.25C-768.6,783.53-693.25,828.87-720.73,868.07z M-862.78,891.57
	c-0.14-5.6-0.85-10.77-2.05-15.51c-2.55-10.09,10.94-16.13,16.63-7.41c2.02,3.1,3.95,6.66,5.77,10.77
	c6.6,14.87,19.22,17.92,28.3,22.09c11.22,5.16,6.5,22.12-5.78,20.9c-20.05-1.99-28.81,2.9-41.38,9.52
	c-6.87,3.62-14.01-4.07-10.05-10.76C-866.1,912.33-861.97,901.87-862.78,891.57z M-897.33,941.2c-17.41,9.59-43.81,1.8-57.62-15.24
	c-10.19-12.58,1.83-30.98,17.61-27.38c12.96,2.96,26.21,5.84,37.67,10.44C-885.69,914.62-884.14,933.93-897.33,941.2z
	 M-969.54,913.21c2.45,9.45-9.84,15.7-16.15,8.25c-8.06-9.52-14.68-21-20.02-33.79c-7.86-18.84,1.24-40.78,20.25-48.24
	c0.59-0.23,1.18-0.46,1.77-0.67c15.36-5.65,29.18,10.95,20.95,25.1c-5.24,9.01-8.5,20.26-8.77,33.75
	C-971.47,903.27-970.77,908.47-969.54,913.21z M-721.76,694.92c-43.45-41.91-100.92-70.72-162.01-57.51
	c-3.73,0.81-7.58,1.3-11.38,0.97c-11.39-0.98-20.54-6.17-27.13-13.56c-28.24-31.61,8.21-79.31,47.2-62.68
	c58.68,25.03,127.06,71.82,159.8,127.84C-712.88,694.11-718.33,698.23-721.76,694.92z M-744.59,619.02
	c6.54,2.81,12.88,10.05,16.56,17.22c3.1,6.03-3.65,12.4-9.38,8.78c-6.06-3.84-11.89-10.47-15.43-16.51
	C-756.03,623.07-750.39,616.53-744.59,619.02z M-725.38,622.56c-61.58-62.61-181.92-164.31-120.24-178.12
	c29.01-6.5,57.33,12.88,64.33,41.77c15.07,62.17,40.77,90.69,72.25,124.54C-701.1,619.29-717.21,630.87-725.38,622.56z
	 M-694.46,951.21c-44.42-86.75,54.06-99.72,119.51-142.35c20.92-13.63,44.66-44.63,25.92-81.45
	c-25.92-50.91-77.86-39.97-100.88-19.32c-13,11.67-33.74,0.11-30.46-17.05c0.05-0.27,0.11-0.55,0.16-0.82
	c21.63-62.29,102.33-71.41,158.97-35.16c37.68,24.12,60.71,76.21,63.23,117.32C-448.45,928.39-640.68,1056.25-694.46,951.21z
	 M-485,1045.84c-9.94-1.92-18.92-3.91-27.01-5.94c-27.61-6.92-26.19-46.53,1.86-51.34c27.18-4.66,57.2-9.04,81.14-13.72
	c47.15-9.22,78.52-24.99,108.7-52.63c12.77-11.7,28.84-1.53,24.94,16.22c-1.15,5.24-2.78,12.18-4.49,19.34
	c-1.22,5.09,5.83,7.75,8.26,3.12c4.37-8.31,8.91-16.97,12.65-24.24c7.41-14.37,19.02-26.36,33.75-33.01
	c3.8-1.72,7.92-3.16,12.67-4.27c0.19-0.04,0.37-0.09,0.55-0.13c24.5-5.57,42.24,23.03,27.3,43.24
	C-264.09,1022.82-367.29,1068.53-485,1045.84z M-170.9,876.87c-4.42,13.51-19.2,19.77-32.86,15.83c-3.92-1.13-21.82-5.17-32.8-1.6
	c-11.38,3.7-19.48-7.13-13.89-17.7l0.38-0.71c8.47-16.03,24.82-25.11,42.78-27.64C-170.44,839.85-166.04,862.01-170.9,876.87z
	 M-213.4,835.47c-16.76,1.45-21.64-11.65-21.64-26.47c-0.01-65.55,7.6-89.97,17.17-101.72c17.46-21.41,52.35-10.62,56.21,16.73
	c1.95,13.81,4.13,31.56,5.47,49.64C-153.7,807.03-180.05,832.58-213.4,835.47z"/>
<g>
	<path d="M1077.52,569.86c119.64-318.96,4.19-390.88-93.54-401.57c-91.79-10.04-179.15-44.76-255.48-96.73h0
		c-8.45-5.75-19.15,3.17-15.01,12.51l17.93,40.47c40.52,91.45-17.53,198.36-138.46,166.76c-0.8-0.21-1.61-0.4-2.42-0.61
		c-0.37-0.09-0.74-0.19-1.1-0.29c-56.03-14.7-84.78-77.03-61.31-130l25.41-57.34c6.01-13.57-10.17-26.13-21.82-16.94l-17.99,14.19
		c-52.1,41.09-115.7,66.38-182.03,67.9c-76.12,1.74-152.07,57.35-165.76,134.95c-32.48,166.82,161.55,248.05,24.5,443.96
		c-232.05,331.71,34.54,607.83,347.05,506.23c77.19-25.09,160.94-24.69,235.94,6.34c22.33,9.24,45.2,16.87,69.71,18.71
		c164.54,14.82,344.56-59.79,381.78-222.97C1271.34,851.8,1024.52,711.14,1077.52,569.86z M943.94,183.18
		c90.79-2.99,160.77,60.1,165.22,138.9c7.04,120.95-99.32,172.1-184.45,66.83C870.38,321.74,791.3,188.22,943.94,183.18z
		 M1008.74,769.81c-2.83-18.28,16.7-32.41,32.49-22.79c4.21,2.57,8.26,5.47,12.1,8.7c13.47,11.35,27.79,23.96,24.7,42.41
		c-3.28,19.56-23.25,30.1-42.16,24.14c-0.15-0.05-0.31-0.1-0.46-0.14c-12.9-4.04-22.31-15.41-23.67-28.86
		c-0.37-3.64-0.78-7.29-1.25-10.95C1009.96,778.12,1009.38,773.95,1008.74,769.81z M1016.89,992.2
		c-0.83,7.32-4.37,14.39-10.03,19.44c-7.69,6.85-19.56-1.27-16.51-11.1l4.08-13.11C998.59,974.07,1018.47,978.3,1016.89,992.2z
		 M756.88,787.68c-9.79-18.89,9-40.02,29.17-33.23l0.22,0.07c32.58,11.02,85.94,14.12,169.96-16.07c0.1-0.04,0.2-0.07,0.3-0.11
		c16.3-5.79,33.61,5.28,36.65,22.31c0.05,0.26,0.09,0.53,0.14,0.79c4.16,23.59-14.33,45.68-38.28,45.2
		c-4.2-0.08-8.19,0.04-11.92,0.41c-45.11,4.02-85.39,19.13-122.4,41.41c-18.76,11.29-43.24,0.82-48.57-20.41
		C768.64,814.12,763.54,800.54,756.88,787.68z M376.79,802.29c-32.57,58.3-122.3,28.88-112.43-37.17
		c1.83-12.24,5.63-24.51,11.59-36.46c19-38.1,47.92-54.72,91.42-2.07c5.56,6.73,11.29,12.84,17.18,18.39
		c10.55,9.94,12.24,26.12,4.09,38.11l0,0C384.38,789.35,380.43,795.76,376.79,802.29z M381.95,934.28
		c28.89,23.48,43.45,60.84,25.94,105.31c-4.15,10.53-19.16,10.39-23.16-0.2c-9.03-23.92-21.41-60.75-25.65-92.59
		C357.4,934.14,372.05,926.23,381.95,934.28z M288.03,582.07c-17.23-51.34,6.84-70.21,52.91-41.75
		c55.21,34.12,162.69,101.42,144.41,142.96c-3.16,7.19-10.05,12.16-17.7,13.94C406.35,711.44,307.76,640.87,288.03,582.07z
		 M501.93,466.69c-13.37,5.79-28.97,5.81-46.14,8.53c-5.83,0.92-14.85,3.2-20.23,0.79c-15.54-6.99-2.13-27.21,18.33-37.38
		c17.07-8.48,39.34-8.74,50.92,0.09C514.84,446.38,513.51,461.68,501.93,466.69z M602.84,492.52c21.6,8.38,15.76,40.86-7.41,41.06
		c-30.67,0.27-65.69-5.38-97.57-14.04c-25.35-6.89-20.29-44.23,5.98-44.31C539.68,475.11,571.57,480.4,602.84,492.52z
		 M427.77,713.67c6.98-1.11,13.45-2.04,19.53-2.7c6.71-0.73,9.92,7.91,4.38,11.76c-7.49,5.2-14.97,10.79-20.86,15.32
		c-6.22,4.78-15.2,0.49-15.48-7.36C415.06,723.06,417.48,715.31,427.77,713.67z M505.26,720.27c0.14,0.08,0.28,0.17,0.41,0.25
		c19.65,12.04,10.14,42.57-12.91,42.52c-11.51-0.03-23.53-0.84-35.03-2.77c-10.41-1.74-13.57-15.06-5.01-21.23
		c10.59-7.63,21.83-14.23,33.56-19.73C492.35,716.47,499.53,716.82,505.26,720.27z M452.45,598.31
		c-19.72-26.4,5.35-62.9,37.19-54.42c44.84,11.94,116.26,24.22,150.95-5.85c20.74-17.98,22.77-47.48,20.39-70.41
		c-2.67-25.78,30.72-39.09,46.29-18.36c9.76,12.99,6.48,31.61-10.82,49.99c-8.36,8.88-8.65,22.51-1.14,32.12
		c44.05,56.31-44.39,104.31-116.23,109.92C542.21,644.22,478.93,633.75,452.45,598.31z M869.38,645.49
		c-56.89,0.93-129.54-15.48-110.9-72.63c5.37-16.45,20.55-29.74,40.54-40.41c28.25-15.08,63.65-8.86,85.2,14.83
		c0.11,0.12,0.23,0.25,0.34,0.37c12.85,14.16,24.59,28.65,35.27,43.44c13.38,18.53,3.85,44.69-18.42,49.82
		C890.45,643.44,879.64,645,869.38,645.49z M930.92,698.41c-111.47,87.75-197.13,1.12-159.79-30.53
		c13.15-11.15,36.91-9.78,87.08-5.6c21.76,1.81,41.07,2.9,59.18,1.44c9.78-0.78,17.03,5.1,19.81,12.64
		C939.89,683.67,938.39,692.53,930.92,698.41z M868.83,484.88c-5.76,9.55-19.06,11.1-27.9,4.3c-1.1-0.85-2.21-1.69-3.32-2.53
		c-2.26-1.7-4.56-3.36-6.88-4.99c-9.86-6.91-6.15-22.23,5.72-24.24c0.12-0.02,0.24-0.04,0.35-0.06
		C855.11,454.26,878.68,468.56,868.83,484.88z M800.74,479.16c15.43,11.17,12.81,34.35-5.55,39.41
		c-20.15,5.55-39.9,9.93-53.85,12.43c-21.96,3.94-38.21-21.45-24.41-38.99C728.27,477.61,777.3,462.2,800.74,479.16z M540.44,731.37
		c-6.22-13.36,3.6-29.14,18.3-30.17c23.65-1.66,48.1,0.66,72.62,7.37c8.99,2.46,17.58,5.5,25.76,9.06
		c11.4,4.95,10.75,21.2-1.04,25.13c-31.3,10.44-65,14.44-92.12,7.7C552.52,747.61,544.59,740.29,540.44,731.37z M615.43,657.28
		c26.48-11.6,53.02-22.79,78.77-33.53c19.37-8.08,42.46-1.36,52.83,16.9c13.46,23.69-2.16,49.91-30.67,71.03
		c-9.48,7.02-22.21,6.98-32.47,1.16c-16.89-9.57-41.72-16.36-64.85-21.02C601.63,688.32,599.16,664.41,615.43,657.28z
		 M987.17,600.52c-0.09,0.07-0.18,0.15-0.27,0.22c-14.47,11.46-35.9,7.83-46.29-7.43c-7.53-11.06-15.63-21.79-24.28-32.19
		c-20.66-24.81-6.24-62.65,25.83-66.35c0.47-0.05,0.93-0.11,1.38-0.16C1002.91,487.89,1033.93,563.33,987.17,600.52z M603.26,323.4
		c21.88,15.48,51.29,13.72,72.06-3.22c77.23-62.98,139.7-20.91,178.14,24.59c26.61,31.5,15.02,72.25-24.5,94.03
		c-15.06,8.3-54.14,14.04-54.14,14.04c-23.48,3.22-43.73,0.56-58.57-13.33c-18.38-17.2-51.38-23.18-80.04-9
		c-82.85,40.99-154.21-47.93-208.21,10.9c-34.66,37.77-17.57,153.94-62.72,76.8C286.08,382.86,478.83,235.39,603.26,323.4z
		 M329.35,197.18c92.49,4.57,133.62,59.8,57.47,123.68c-95.27,79.91-35.22,204.1-107.86,170.26
		C149.08,430.61,156.46,188.64,329.35,197.18z M442.16,1207.36c-91.37,48.76-206.14,21.15-259.99-67.32
		c-41.01-67.37-38.09-154.16,46.63-207.27c18.17-13.98,38.98-21.71,59.96-24.18c27.76-3.26,52.78,17.42,54.6,45.31
		c0.97,14.85,3.1,29.63,6.36,44.17c-0.16-0.08-0.29-0.08-0.31,0.32l0.37-0.07c3.44,15.3,8.14,30.33,14.06,44.9
		c7.98,19.65-21.58,33.35-30.74,14.23c-1.2-2.51-2.16-5.19-2.84-8.02c-2.74-11.43-10.7-22.53-20.75-29.3
		c-56.94-38.35-106.12,70.36-35.31,106.88c35.25,18.18,70.06,15,98.71-0.66c16.56-9.05,37.04-6.19,50.31,7.23
		c8.6,8.7,17.86,16.87,27.8,24.43l0.32,0.25c15.72,11.94,14.03,36.07-3.14,45.8C446.19,1205.17,444.18,1206.28,442.16,1207.36z
		 M671.71,978.95c-53.36,52.75-150.15,9.24-160.98-46.36c-0.11-0.56-0.21-1.11-0.32-1.66c-2.25-12.22-20.49-9.73-19.14,2.63
		c2.88,26.48,17.17,54.4,54.04,78c0.25,0.16,0.49,0.33,0.73,0.5c34.3,23.14,40.8,70.76,12.32,100.76
		c-4.03,4.24-8.07,8.42-12.13,12.54c-30.04,30.42-79.14,30.41-109.68,0.49c-0.27-0.27-0.55-0.54-0.82-0.8
		c-14.99-14.81-17.94-37.46-8.55-56.32c23.86-47.9,20.26-109.41-34.03-148.75c-21.83-15.81-30.06-44.53-21.27-70l0.22-0.64
		c0.37-1.06,0.74-2.12,1.12-3.17c14.68-40.59,56.83-64.32,99.34-56.86c61.88,10.87,129.84-9.49,192.06-33.33l0.4-0.15
		c24.5-9.35,52.48-1.23,67.59,20.21c0.45,0.64,0.9,1.28,1.34,1.92c32.59,47.67,26.12,112.11-14.39,153.27
		C707.6,943.38,688.99,961.88,671.71,978.95z M725.24,980.27c-3.99,4.69-8.32,9.02-13.04,12.91c-6.96,5.73-16.06-3.89-9.95-10.53
		c3.94-4.28,7.9-8.46,11.89-12.52C720.85,963.28,731.44,972.96,725.24,980.27z M673.04,1135.29c-1.57-1.53-3.06-3.12-4.49-4.75
		c-30.84-35.31-16.44-89.81,25.42-110.92c15.53-7.83,29.76-18.47,41.7-31.83c11.62-13,20.76-27.52,27.52-42.95
		c8.53-19.47,23.22-35.75,41.46-46.67c42.24-25.3,85.09-40.61,126.14-47.51c35.37-5.94,66.39,24.07,60.99,59.53
		c-0.15,0.96-0.29,1.91-0.43,2.84c-2.05,13.29-13.79,22.41-27.24,22.2c-73.43-1.15-135.76,67.22-134.91,145.71
		c0.17,15.6,2.52,31.02,6.3,45.67c4.13,16.02-2.91,32.81-17.21,41.13l-0.96,0.56c-39.85,23.2-90.21,17.58-124.04-13.75
		C686.09,1147.89,679.31,1141.42,673.04,1135.29z M808.45,1241.42c-0.16-0.09-0.33-0.18-0.49-0.27
		c-20.34-11.04-19.42-40.83,1.43-50.87c5.97-2.88,11.84-5.93,17.62-9.16c12.5-6.99,28.18-2.55,35.83,9.56
		c0.28,0.44,0.56,0.88,0.84,1.32C888.96,1231.24,840.95,1258.98,808.45,1241.42z M862.23,1084.65
		c-6.19-37.41,5.71-68.59,25.76-90.83c30.13-33.42,83.16,5.34,61.13,44.56c-16.19,28.82-36.74,55.28-62.4,78.63
		c-0.03,0.03-0.07,0.06-0.1,0.1c-5.4,4.91-13.95,2.59-16.63-4.2C866.53,1104.16,863.9,1094.74,862.23,1084.65z M1188.99,1038.81
		c-19.06,121.18-127.17,171.71-214.3,155.6c-49.64-9.18-70.9-67.83-40.79-108.35c0.15-0.2,0.3-0.41,0.45-0.61l0.16-0.21
		c6.03-8.16,18.3-8.71,24.63-0.77c5.99,7.51,14.25,13.14,24.42,14.93c84.36,14.81,113.7-103.37,44.79-144.97l-0.26-0.16
		c-14.34-8.63-22.24-25.1-19.48-41.61c0.72-4.3,1.37-8.61,1.95-12.94c3.93-29.26,33.32-48.35,61.11-38.38
		C1151.16,889.86,1201.94,956.52,1188.99,1038.81z"/>
	<path d="M463.85,1274.89C463.41,1276.47,465.29,1274.97,463.85,1274.89L463.85,1274.89z"/>
	<path d="M896.04,794.85l-0.12-0.6C895.66,794.61,895.44,794.79,896.04,794.85z"/>
	<path d="M175.31,1122.47l-0.26-0.64C174.93,1122.24,174.61,1122.61,175.31,1122.47z"/>
	<path d="M284.46,228.04c-0.34-0.6-0.72-1.87-1.2-0.77C283.5,228,283.78,228.89,284.46,228.04z"/>
</g>
</svg>
