<?xml version="1.0" encoding="utf-8"?>
<!-- Generator: Adobe Illustrator 27.0.0, SVG Export Plug-In . SVG Version: 6.00 Build 0)  -->
<svg version="1.1" id="Layer_1" xmlns="http://www.w3.org/2000/svg" xmlns:xlink="http://www.w3.org/1999/xlink" x="0px" y="0px"
	 viewBox="0 0 1000 1000" style="enable-background:new 0 0 1000 1000;" xml:space="preserve">
<style type="text/css">
	.st0{fill:#B7B39A;}
</style>
<g>
	<path class="st0" d="M830.82,414.06c95.36-254.23,3.34-311.55-74.55-320.07c-73.16-8-142.79-35.67-203.62-77.09h0
		c-6.73-4.59-15.26,2.52-11.96,9.97l14.29,32.25c32.29,72.89-13.97,158.1-110.36,132.92c-0.64-0.17-1.28-0.32-1.93-0.48
		c-0.29-0.08-0.59-0.15-0.88-0.23c-44.66-11.71-67.57-61.4-48.87-103.61l20.25-45.71c4.79-10.82-8.1-20.83-17.4-13.5l-14.34,11.31
		c-41.52,32.75-92.22,52.91-145.09,54.12c-60.67,1.39-121.21,45.71-132.12,107.56C78.35,334.46,233,399.2,123.77,555.36
		c-184.95,264.38,27.53,484.46,276.61,403.49c61.52-20,128.28-19.68,188.05,5.06c17.8,7.37,36.02,13.45,55.56,14.92
		c131.14,11.81,274.63-47.65,304.29-177.71C985.31,638.78,788.58,526.67,830.82,414.06z M724.35,105.87
		c72.36-2.39,128.14,47.9,131.69,110.71c5.61,96.4-79.16,137.17-147.01,53.27C665.73,216.3,602.69,109.88,724.35,105.87z
		 M776,573.44c-2.26-14.57,13.31-25.84,25.9-18.16c3.36,2.04,6.58,4.36,9.65,6.93c10.74,9.05,22.15,19.1,19.69,33.8
		c-2.61,15.59-18.53,23.99-33.61,19.24c-0.12-0.04-0.24-0.08-0.37-0.11c-10.29-3.22-17.78-12.28-18.86-23
		c-0.29-2.9-0.62-5.81-0.99-8.72C776.98,580.06,776.51,576.73,776,573.44z M782.5,750.69c-0.66,5.83-3.48,11.47-7.99,15.49
		c-6.13,5.46-15.59-1.01-13.16-8.85l3.25-10.45C767.91,736.23,783.76,739.61,782.5,750.69z M575.26,587.68
		c-7.8-15.06,7.18-31.9,23.25-26.49l0.17,0.06c25.97,8.79,68.49,11.25,135.47-12.81c0.08-0.03,0.16-0.06,0.24-0.09
		c12.99-4.62,26.79,4.21,29.21,17.78c0.04,0.21,0.07,0.42,0.11,0.63c3.31,18.8-11.42,36.41-30.51,36.03
		c-3.34-0.07-6.53,0.03-9.5,0.33c-35.96,3.21-68.06,15.25-97.56,33c-14.95,9-34.46,0.66-38.72-16.27
		C584.63,608.75,580.57,597.93,575.26,587.68z M272.31,599.32c-25.96,46.47-97.48,23.02-89.61-29.63
		c1.46-9.76,4.49-19.54,9.24-29.06c15.14-30.36,38.19-43.61,72.87-1.65c4.43,5.36,9,10.24,13.69,14.65
		c8.41,7.93,9.76,20.82,3.26,30.37l0,0C278.36,589.01,275.22,594.11,272.31,599.32z M276.43,704.52
		c23.03,18.72,34.63,48.49,20.68,83.94c-3.31,8.4-15.27,8.28-18.46-0.16c-7.19-19.06-17.06-48.42-20.44-73.8
		C256.86,704.41,268.53,698.1,276.43,704.52z M201.56,423.79c-13.73-40.92,5.45-55.96,42.17-33.27
		c44,27.19,129.67,80.84,115.1,113.94c-2.52,5.73-8.01,9.69-14.1,11.11C295.87,526.91,217.29,470.66,201.56,423.79z M372.05,331.83
		c-10.66,4.61-23.09,4.63-36.77,6.8c-4.64,0.74-11.84,2.55-16.12,0.63c-12.39-5.57-1.69-21.69,14.61-29.79
		c13.6-6.76,31.35-6.97,40.58,0.07C382.34,315.64,381.28,327.84,372.05,331.83z M452.48,352.42c17.22,6.68,12.56,32.56-5.91,32.72
		c-24.44,0.21-52.36-4.29-77.77-11.19c-20.2-5.49-16.17-35.25,4.76-35.32C402.14,338.54,427.56,342.76,452.48,352.42z
		 M312.94,528.69c5.56-0.88,10.72-1.63,15.56-2.15c5.35-0.58,7.91,6.31,3.49,9.37c-5.97,4.14-11.93,8.6-16.62,12.21
		c-4.96,3.81-12.12,0.39-12.34-5.86C302.81,536.17,304.74,529.99,312.94,528.69z M374.71,533.95c0.11,0.07,0.22,0.13,0.33,0.2
		c15.66,9.59,8.08,33.93-10.29,33.89c-9.17-0.02-18.76-0.67-27.92-2.21c-8.29-1.39-10.81-12.01-3.99-16.92
		c8.44-6.08,17.4-11.34,26.75-15.73C364.42,530.92,370.14,531.2,374.71,533.95z M332.62,436.74c-15.72-21.04,4.26-50.14,29.64-43.38
		c35.74,9.51,92.66,19.31,120.31-4.66c16.53-14.33,18.15-37.84,16.26-56.12c-2.13-20.55,24.49-31.15,36.9-14.64
		c7.78,10.35,5.16,25.19-8.63,39.85c-6.66,7.07-6.9,17.95-0.91,25.6c35.11,44.88-35.38,83.14-92.64,87.61
		C404.16,473.33,353.72,464.99,332.62,436.74z M664.93,474.34c-45.34,0.74-103.25-12.34-88.39-57.89
		c4.28-13.11,16.38-23.7,32.31-32.21c22.52-12.02,50.73-7.06,67.91,11.82c0.09,0.1,0.18,0.2,0.27,0.3
		c10.24,11.29,19.6,22.83,28.11,34.62c10.66,14.77,3.07,35.62-14.68,39.71C681.72,472.71,673.11,473.95,664.93,474.34z
		 M713.98,516.52c-88.84,69.94-157.12,0.89-127.36-24.33c10.48-8.88,29.42-7.79,69.4-4.46c17.35,1.45,32.74,2.31,47.17,1.15
		c7.79-0.62,13.57,4.06,15.79,10.07C721.12,504.77,719.93,511.84,713.98,516.52z M664.49,346.33c-4.59,7.61-15.19,8.85-22.24,3.43
		c-0.88-0.68-1.76-1.35-2.65-2.01c-1.8-1.36-3.63-2.68-5.48-3.97c-7.86-5.51-4.9-17.71,4.56-19.32c0.09-0.02,0.19-0.03,0.28-0.05
		C653.55,321.93,672.34,333.32,664.49,346.33z M610.22,341.77c12.3,8.9,10.21,27.38-4.43,31.41c-16.06,4.42-31.8,7.91-42.92,9.91
		c-17.5,3.14-30.45-17.1-19.46-31.07C552.45,340.53,591.53,328.25,610.22,341.77z M402.75,542.79
		c-4.96-10.65,2.87-23.22,14.59-24.05c18.85-1.32,38.34,0.53,57.88,5.87c7.16,1.96,14.01,4.38,20.53,7.22
		c9.09,3.94,8.57,16.9-0.83,20.03c-24.94,8.32-51.81,11.51-73.43,6.14C412.38,555.74,406.06,549.9,402.75,542.79z M462.51,483.74
		c21.1-9.24,42.26-18.16,62.78-26.72c15.44-6.44,33.84-1.08,42.11,13.47c10.73,18.88-1.72,39.78-24.45,56.62
		c-7.55,5.6-17.7,5.56-25.88,0.93c-13.46-7.63-33.25-13.04-51.68-16.75C451.52,508.48,449.55,489.42,462.51,483.74z M758.81,438.5
		c-0.07,0.06-0.15,0.12-0.22,0.17c-11.53,9.13-28.61,6.24-36.89-5.92c-6-8.82-12.45-17.37-19.35-25.66
		c-16.47-19.78-4.98-49.93,20.59-52.88c0.37-0.04,0.74-0.08,1.1-0.13C771.35,348.73,796.08,408.86,758.81,438.5z M452.82,217.62
		c17.44,12.34,40.88,10.94,57.44-2.57c61.56-50.2,111.35-16.66,141.98,19.6c21.21,25.1,11.97,57.59-19.53,74.95
		c-12,6.62-43.15,11.19-43.15,11.19c-18.72,2.56-34.85,0.44-46.68-10.62c-14.65-13.71-40.95-18.48-63.8-7.17
		c-66.04,32.67-122.91-38.2-165.95,8.69c-27.62,30.1-14,122.7-49.99,61.21C200.01,265.02,353.64,147.47,452.82,217.62z
		 M234.5,117.02c73.72,3.64,106.5,47.67,45.8,98.57c-75.94,63.69-28.07,162.68-85.97,135.7C90.82,303.07,96.7,110.21,234.5,117.02z
		 M324.41,922.17c-72.83,38.87-164.3,16.86-207.23-53.66c-32.69-53.7-30.36-122.87,37.17-165.2c14.48-11.14,31.07-17.31,47.79-19.27
		c22.12-2.6,42.07,13.88,43.52,36.11c0.77,11.84,2.47,23.61,5.07,35.2c-0.13-0.07-0.23-0.07-0.25,0.25l0.3-0.05
		c2.75,12.2,6.49,24.18,11.2,35.79c6.36,15.66-17.2,26.58-24.5,11.34c-0.96-2-1.72-4.14-2.26-6.39
		c-2.18-9.11-8.53-17.96-16.54-23.35c-45.39-30.57-84.58,56.08-28.15,85.18c28.09,14.49,55.84,11.96,78.68-0.53
		c13.2-7.22,29.52-4.93,40.1,5.76c6.85,6.93,14.24,13.45,22.16,19.47l0.26,0.2c12.53,9.52,11.18,28.75-2.5,36.5
		C327.63,920.43,326.02,921.31,324.41,922.17z M507.38,740.13c-42.53,42.04-119.67,7.37-128.31-36.95
		c-0.09-0.44-0.17-0.89-0.25-1.33c-1.8-9.74-16.33-7.75-15.26,2.09c2.3,21.11,13.68,43.36,43.07,62.17c0.2,0.13,0.39,0.26,0.58,0.4
		c27.34,18.44,32.52,56.4,9.82,80.31c-3.21,3.38-6.43,6.71-9.67,9.99c-23.94,24.25-63.08,24.24-87.42,0.39
		c-0.22-0.21-0.43-0.43-0.65-0.64c-11.95-11.8-14.3-29.85-6.81-44.89c19.02-38.18,16.15-87.21-27.12-118.56
		c-17.4-12.6-23.96-35.49-16.95-55.79l0.18-0.51c0.29-0.84,0.59-1.69,0.89-2.52c11.7-32.35,45.29-51.27,79.18-45.32
		c49.32,8.66,103.49-7.56,153.08-26.56l0.32-0.12c19.53-7.45,41.83-0.98,53.87,16.11c0.36,0.51,0.71,1.02,1.06,1.53
		c25.98,38,20.82,89.35-11.47,122.16C535.98,711.78,521.14,726.52,507.38,740.13z M550.04,741.17c-3.18,3.74-6.63,7.19-10.39,10.29
		c-5.55,4.57-12.8-3.1-7.93-8.39c3.14-3.41,6.3-6.74,9.48-9.98C546.54,727.64,554.99,735.35,550.04,741.17z M508.44,864.73
		c-1.25-1.22-2.44-2.48-3.58-3.78c-24.58-28.14-13.1-71.58,20.26-88.41c12.38-6.24,23.72-14.72,33.24-25.37
		c9.26-10.36,16.54-21.93,21.93-34.23c6.8-15.52,18.51-28.5,33.04-37.2c33.66-20.16,67.82-32.37,100.54-37.87
		c28.19-4.73,52.91,19.19,48.61,47.45c-0.12,0.77-0.23,1.52-0.35,2.26c-1.63,10.6-10.99,17.86-21.71,17.7
		c-58.53-0.91-108.21,53.58-107.53,116.13c0.14,12.44,2.01,24.73,5.02,36.4c3.29,12.77-2.32,26.15-13.72,32.79l-0.77,0.45
		c-31.76,18.49-71.9,14.01-98.87-10.96C518.83,874.78,513.43,869.62,508.44,864.73z M616.36,949.32c-0.13-0.07-0.26-0.14-0.39-0.21
		c-16.21-8.8-15.48-32.55,1.14-40.55c4.76-2.29,9.44-4.72,14.04-7.3c9.96-5.57,22.46-2.03,28.55,7.62c0.22,0.35,0.45,0.7,0.67,1.05
		C680.53,941.21,642.27,963.32,616.36,949.32z M659.23,824.37c-4.93-29.82,4.55-54.67,20.53-72.4
		c24.01-26.63,66.28,4.25,48.72,35.52c-12.9,22.97-29.28,44.06-49.74,62.67c-0.03,0.03-0.06,0.05-0.08,0.08
		c-4.3,3.91-11.12,2.07-13.25-3.35C662.65,839.92,660.56,832.42,659.23,824.37z M919.67,787.84
		c-15.2,96.58-101.36,136.86-170.81,124.02c-39.56-7.32-56.51-54.06-32.51-86.36c0.12-0.16,0.24-0.33,0.36-0.49l0.13-0.17
		c4.81-6.5,14.59-6.94,19.63-0.62c4.77,5.99,11.36,10.47,19.46,11.9c67.24,11.8,90.63-82.39,35.7-115.55l-0.21-0.12
		c-11.43-6.88-17.73-20.01-15.53-33.16c0.57-3.43,1.09-6.86,1.55-10.32c3.13-23.32,26.56-38.53,48.71-30.59
		C889.52,669.11,929.99,722.24,919.67,787.84z"/>
	<path class="st0" d="M341.7,976C341.35,977.26,342.85,976.06,341.7,976L341.7,976z"/>
	<path class="st0" d="M686.17,593.39l-0.1-0.48C685.87,593.2,685.7,593.34,686.17,593.39z"/>
	<path class="st0" d="M111.72,854.52l-0.2-0.51C111.42,854.33,111.17,854.63,111.72,854.52z"/>
	<path class="st0" d="M198.72,141.62c-0.27-0.48-0.57-1.49-0.95-0.61C197.95,141.58,198.18,142.3,198.72,141.62z"/>
</g>
</svg>
