<?xml version="1.0" encoding="utf-8"?>
<!-- Generator: Adobe Illustrator 27.0.0, SVG Export Plug-In . SVG Version: 6.00 Build 0)  -->
<svg version="1.1" id="Vrstva_1" xmlns="http://www.w3.org/2000/svg" xmlns:xlink="http://www.w3.org/1999/xlink" x="0px" y="0px"
	 viewBox="0 0 1350 1350" style="enable-background:new 0 0 1350 1350;" xml:space="preserve">
<style type="text/css">
	.st0{fill:#B8B39A;}
</style>
<g>
	<path class="st0" d="M1077.52,569.86c119.64-318.96,4.19-390.88-93.54-401.57c-91.79-10.04-179.15-44.76-255.48-96.73h0
		c-8.45-5.75-19.15,3.17-15.01,12.51l17.93,40.47c40.52,91.45-17.53,198.36-138.46,166.76c-0.8-0.21-1.61-0.4-2.42-0.61
		c-0.37-0.09-0.74-0.19-1.1-0.29c-56.03-14.7-84.78-77.03-61.31-130l25.41-57.34c6.01-13.57-10.17-26.13-21.82-16.94l-17.99,14.19
		c-52.1,41.09-115.7,66.38-182.03,67.9c-76.12,1.74-152.07,57.35-165.76,134.95c-32.48,166.82,161.55,248.05,24.5,443.96
		c-232.05,331.71,34.54,607.83,347.05,506.23c77.19-25.09,160.94-24.69,235.94,6.34c22.33,9.24,45.2,16.87,69.71,18.71
		c164.54,14.82,344.56-59.79,381.78-222.97C1271.34,851.8,1024.52,711.14,1077.52,569.86z M943.94,183.18
		c90.79-2.99,160.77,60.1,165.22,138.9c7.04,120.95-99.32,172.1-184.45,66.83C870.38,321.74,791.3,188.22,943.94,183.18z
		 M1008.74,769.81c-2.83-18.28,16.7-32.41,32.49-22.79c4.21,2.57,8.26,5.47,12.1,8.7c13.47,11.35,27.79,23.96,24.7,42.41
		c-3.28,19.56-23.25,30.1-42.16,24.14c-0.15-0.05-0.31-0.1-0.46-0.14c-12.9-4.04-22.31-15.41-23.67-28.86
		c-0.37-3.64-0.78-7.29-1.25-10.95C1009.96,778.12,1009.38,773.95,1008.74,769.81z M1016.89,992.2
		c-0.83,7.32-4.37,14.39-10.03,19.44c-7.69,6.85-19.56-1.27-16.51-11.1l4.08-13.11C998.59,974.07,1018.47,978.3,1016.89,992.2z
		 M756.88,787.68c-9.79-18.89,9-40.02,29.17-33.23l0.22,0.07c32.58,11.02,85.94,14.12,169.96-16.07c0.1-0.04,0.2-0.07,0.3-0.11
		c16.3-5.79,33.61,5.28,36.65,22.31c0.05,0.26,0.09,0.53,0.14,0.79c4.16,23.59-14.33,45.68-38.28,45.2
		c-4.2-0.08-8.19,0.04-11.92,0.41c-45.11,4.02-85.39,19.13-122.4,41.41c-18.76,11.29-43.24,0.82-48.57-20.41
		C768.64,814.12,763.54,800.54,756.88,787.68z M376.79,802.29c-32.57,58.3-122.3,28.88-112.43-37.17
		c1.83-12.24,5.63-24.51,11.59-36.46c19-38.1,47.92-54.72,91.42-2.07c5.56,6.73,11.29,12.84,17.18,18.39
		c10.55,9.94,12.24,26.12,4.09,38.11l0,0C384.38,789.35,380.43,795.76,376.79,802.29z M381.95,934.28
		c28.89,23.48,43.45,60.84,25.94,105.31c-4.15,10.53-19.16,10.39-23.16-0.2c-9.03-23.92-21.41-60.75-25.65-92.59
		C357.4,934.14,372.05,926.23,381.95,934.28z M288.03,582.07c-17.23-51.34,6.84-70.21,52.91-41.75
		c55.21,34.12,162.69,101.42,144.41,142.96c-3.16,7.19-10.05,12.16-17.7,13.94C406.35,711.44,307.76,640.87,288.03,582.07z
		 M501.93,466.69c-13.37,5.79-28.97,5.81-46.14,8.53c-5.83,0.92-14.85,3.2-20.23,0.79c-15.54-6.99-2.13-27.21,18.33-37.38
		c17.07-8.48,39.34-8.74,50.92,0.09C514.84,446.38,513.51,461.68,501.93,466.69z M602.84,492.52c21.6,8.38,15.76,40.86-7.41,41.06
		c-30.67,0.27-65.69-5.38-97.57-14.04c-25.35-6.89-20.29-44.23,5.98-44.31C539.68,475.11,571.57,480.4,602.84,492.52z
		 M427.77,713.67c6.98-1.11,13.45-2.04,19.53-2.7c6.71-0.73,9.92,7.91,4.38,11.76c-7.49,5.2-14.97,10.79-20.86,15.32
		c-6.22,4.78-15.2,0.49-15.48-7.36C415.06,723.06,417.48,715.31,427.77,713.67z M505.26,720.27c0.14,0.08,0.28,0.17,0.41,0.25
		c19.65,12.04,10.14,42.57-12.91,42.52c-11.51-0.03-23.53-0.84-35.03-2.77c-10.41-1.74-13.57-15.06-5.01-21.23
		c10.59-7.63,21.83-14.23,33.56-19.73C492.35,716.47,499.53,716.82,505.26,720.27z M452.45,598.31
		c-19.72-26.4,5.35-62.9,37.19-54.42c44.84,11.94,116.26,24.22,150.95-5.85c20.74-17.98,22.77-47.48,20.39-70.41
		c-2.67-25.78,30.72-39.09,46.29-18.36c9.76,12.99,6.48,31.61-10.82,49.99c-8.36,8.88-8.65,22.51-1.14,32.12
		c44.05,56.31-44.39,104.31-116.23,109.92C542.21,644.22,478.93,633.75,452.45,598.31z M869.38,645.49
		c-56.89,0.93-129.54-15.48-110.9-72.63c5.37-16.45,20.55-29.74,40.54-40.41c28.25-15.08,63.65-8.86,85.2,14.83
		c0.11,0.12,0.23,0.25,0.34,0.37c12.85,14.16,24.59,28.65,35.27,43.44c13.38,18.53,3.85,44.69-18.42,49.82
		C890.45,643.44,879.64,645,869.38,645.49z M930.92,698.41c-111.47,87.75-197.13,1.12-159.79-30.53
		c13.15-11.15,36.91-9.78,87.08-5.6c21.76,1.81,41.07,2.9,59.18,1.44c9.78-0.78,17.03,5.1,19.81,12.64
		C939.89,683.67,938.39,692.53,930.92,698.41z M868.83,484.88c-5.76,9.55-19.06,11.1-27.9,4.3c-1.1-0.85-2.21-1.69-3.32-2.53
		c-2.26-1.7-4.56-3.36-6.88-4.99c-9.86-6.91-6.15-22.23,5.72-24.24c0.12-0.02,0.24-0.04,0.35-0.06
		C855.11,454.26,878.68,468.56,868.83,484.88z M800.74,479.16c15.43,11.17,12.81,34.35-5.55,39.41
		c-20.15,5.55-39.9,9.93-53.85,12.43c-21.96,3.94-38.21-21.45-24.41-38.99C728.27,477.61,777.3,462.2,800.74,479.16z M540.44,731.37
		c-6.22-13.36,3.6-29.14,18.3-30.17c23.65-1.66,48.1,0.66,72.62,7.37c8.99,2.46,17.58,5.5,25.76,9.06
		c11.4,4.95,10.75,21.2-1.04,25.13c-31.3,10.44-65,14.44-92.12,7.7C552.52,747.61,544.59,740.29,540.44,731.37z M615.43,657.28
		c26.48-11.6,53.02-22.79,78.77-33.53c19.37-8.08,42.46-1.36,52.83,16.9c13.46,23.69-2.16,49.91-30.67,71.03
		c-9.48,7.02-22.21,6.98-32.47,1.16c-16.89-9.57-41.72-16.36-64.85-21.02C601.63,688.32,599.16,664.41,615.43,657.28z
		 M987.17,600.52c-0.09,0.07-0.18,0.15-0.27,0.22c-14.47,11.46-35.9,7.83-46.29-7.43c-7.53-11.06-15.63-21.79-24.28-32.19
		c-20.66-24.81-6.24-62.65,25.83-66.35c0.47-0.05,0.93-0.11,1.38-0.16C1002.91,487.89,1033.93,563.33,987.17,600.52z M603.26,323.4
		c21.88,15.48,51.29,13.72,72.06-3.22c77.23-62.98,139.7-20.91,178.14,24.59c26.61,31.5,15.02,72.25-24.5,94.03
		c-15.06,8.3-54.14,14.04-54.14,14.04c-23.48,3.22-43.73,0.56-58.57-13.33c-18.38-17.2-51.38-23.18-80.04-9
		c-82.85,40.99-154.21-47.93-208.21,10.9c-34.66,37.77-17.57,153.94-62.72,76.8C286.08,382.86,478.83,235.39,603.26,323.4z
		 M329.35,197.18c92.49,4.57,133.62,59.8,57.47,123.68c-95.27,79.91-35.22,204.1-107.86,170.26
		C149.08,430.61,156.46,188.64,329.35,197.18z M442.16,1207.36c-91.37,48.76-206.14,21.15-259.99-67.32
		c-41.01-67.37-38.09-154.16,46.63-207.27c18.17-13.98,38.98-21.71,59.96-24.18c27.76-3.26,52.78,17.42,54.6,45.31
		c0.97,14.85,3.1,29.63,6.36,44.17c-0.16-0.08-0.29-0.08-0.31,0.32l0.37-0.07c3.44,15.3,8.14,30.33,14.06,44.9
		c7.98,19.65-21.58,33.35-30.74,14.23c-1.2-2.51-2.16-5.19-2.84-8.02c-2.74-11.43-10.7-22.53-20.75-29.3
		c-56.94-38.35-106.12,70.36-35.31,106.88c35.25,18.18,70.06,15,98.71-0.66c16.56-9.05,37.04-6.19,50.31,7.23
		c8.6,8.7,17.86,16.87,27.8,24.43l0.32,0.25c15.72,11.94,14.03,36.07-3.14,45.8C446.19,1205.17,444.18,1206.28,442.16,1207.36z
		 M671.71,978.95c-53.36,52.75-150.15,9.24-160.98-46.36c-0.11-0.56-0.21-1.11-0.32-1.66c-2.25-12.22-20.49-9.73-19.14,2.63
		c2.88,26.48,17.17,54.4,54.04,78c0.25,0.16,0.49,0.33,0.73,0.5c34.3,23.14,40.8,70.76,12.32,100.76
		c-4.03,4.24-8.07,8.42-12.13,12.54c-30.04,30.42-79.14,30.41-109.68,0.49c-0.27-0.27-0.55-0.54-0.82-0.8
		c-14.99-14.81-17.94-37.46-8.55-56.32c23.86-47.9,20.26-109.41-34.03-148.75c-21.83-15.81-30.06-44.53-21.27-70l0.22-0.64
		c0.37-1.06,0.74-2.12,1.12-3.17c14.68-40.59,56.83-64.32,99.34-56.86c61.88,10.87,129.84-9.49,192.06-33.33l0.4-0.15
		c24.5-9.35,52.48-1.23,67.59,20.21c0.45,0.64,0.9,1.28,1.34,1.92c32.59,47.67,26.12,112.11-14.39,153.27
		C707.6,943.38,688.99,961.88,671.71,978.95z M725.24,980.27c-3.99,4.69-8.32,9.02-13.04,12.91c-6.96,5.73-16.06-3.89-9.95-10.53
		c3.94-4.28,7.9-8.46,11.89-12.52C720.85,963.28,731.44,972.96,725.24,980.27z M673.04,1135.29c-1.57-1.53-3.06-3.12-4.49-4.75
		c-30.84-35.31-16.44-89.81,25.42-110.92c15.53-7.83,29.76-18.47,41.7-31.83c11.62-13,20.76-27.52,27.52-42.95
		c8.53-19.47,23.22-35.75,41.46-46.67c42.24-25.3,85.09-40.61,126.14-47.51c35.37-5.94,66.39,24.07,60.99,59.53
		c-0.15,0.96-0.29,1.91-0.43,2.84c-2.05,13.29-13.79,22.41-27.24,22.2c-73.43-1.15-135.76,67.22-134.91,145.71
		c0.17,15.6,2.52,31.02,6.3,45.67c4.13,16.02-2.91,32.81-17.21,41.13l-0.96,0.56c-39.85,23.2-90.21,17.58-124.04-13.75
		C686.09,1147.89,679.31,1141.42,673.04,1135.29z M808.45,1241.42c-0.16-0.09-0.33-0.18-0.49-0.27
		c-20.34-11.04-19.42-40.83,1.43-50.87c5.97-2.88,11.84-5.93,17.62-9.16c12.5-6.99,28.18-2.55,35.83,9.56
		c0.28,0.44,0.56,0.88,0.84,1.32C888.96,1231.24,840.95,1258.98,808.45,1241.42z M862.23,1084.65
		c-6.19-37.41,5.71-68.59,25.76-90.83c30.13-33.42,83.16,5.34,61.13,44.56c-16.19,28.82-36.74,55.28-62.4,78.63
		c-0.03,0.03-0.07,0.06-0.1,0.1c-5.4,4.91-13.95,2.59-16.63-4.2C866.53,1104.16,863.9,1094.74,862.23,1084.65z M1188.99,1038.81
		c-19.06,121.18-127.17,171.71-214.3,155.6c-49.64-9.18-70.9-67.83-40.79-108.35c0.15-0.2,0.3-0.41,0.45-0.61l0.16-0.21
		c6.03-8.16,18.3-8.71,24.63-0.77c5.99,7.51,14.25,13.14,24.42,14.93c84.36,14.81,113.7-103.37,44.79-144.97l-0.26-0.16
		c-14.34-8.63-22.24-25.1-19.48-41.61c0.72-4.3,1.37-8.61,1.95-12.94c3.93-29.26,33.32-48.35,61.11-38.38
		C1151.16,889.86,1201.94,956.52,1188.99,1038.81z"/>
	<path class="st0" d="M463.85,1274.89C463.41,1276.47,465.29,1274.97,463.85,1274.89L463.85,1274.89z"/>
	<path class="st0" d="M896.04,794.85l-0.12-0.6C895.66,794.61,895.44,794.79,896.04,794.85z"/>
	<path class="st0" d="M175.31,1122.47l-0.26-0.64C174.93,1122.24,174.61,1122.61,175.31,1122.47z"/>
	<path class="st0" d="M284.46,228.04c-0.34-0.6-0.72-1.87-1.2-0.77C283.5,228,283.78,228.89,284.46,228.04z"/>
</g>
</svg>
