<svg width="152" height="122" viewBox="0 0 152 122" fill="none" xmlns="http://www.w3.org/2000/svg">
  <g clip-path="url(#clip0_105_15)">
    <path
      d="M61.17 -1.95317e-05C63.9 5.59998 69.01 7.05998 74.5 7.46998C80.15 7.88998 85.84 7.76998 91.5 8.08998C94.92 8.27998 98.33 8.69998 101.71 9.25998C106.9 10.12 111.13 13.02 115.28 16.05C116.89 17.22 118.52 18.4 120.25 19.37C122.42 20.59 124.76 20.85 127.2 20.11C128.18 19.81 129.22 19.64 130.24 19.53C132.53 19.27 134.54 20.11 135.5 22.12C137.92 27.18 141.84 31.04 145.3 35.3C150.81 42.1 152.89 49.94 151.11 58.64C150.81 60.09 150.68 61.88 148.71 62.05C146.71 62.22 146.49 60.41 145.84 59.08C144.33 56.01 143 52.82 141.13 49.98C138.82 46.47 136.35 46.35 133.53 49.43C131.49 51.66 129.72 54.14 127.96 56.61C125.04 60.72 122.04 64.75 118.18 68.06C117.94 68.27 117.72 68.51 117.5 68.74C114.97 71.38 114.95 73.32 117.77 75.59C119.62 77.08 121.76 78.21 123.78 79.48C127.29 81.68 130.98 83.63 134.29 86.09C142.31 92.05 141.93 101.83 139.06 107.88C136.07 114.15 130.33 117.09 124.2 116.2C114.63 114.81 105.44 115.97 96.24 118.28C82.77 121.65 69.06 122.05 55.31 121.11C43.73 120.33 32.35 118.37 21.65 113.53C15.9 110.93 10.75 107.49 6.71004 102.59C1.45004 96.2 -0.509963 88.75 0.110037 80.65C0.740037 72.37 1.87004 64.13 4.83004 56.3C6.09004 52.96 7.59004 49.67 9.31004 46.53C13.12 39.59 14.92 32.14 15.39 24.33C15.78 17.92 18.68 13.08 24.16 9.82998C30.9 5.82998 38.28 5.07998 45.91 5.82998C49.32 6.15998 52.7 6.82998 56.12 7.02998C59.42 7.22998 60.01 6.42998 60.03 3.16998C60.03 2.13998 60.3 1.09998 60.45 0.0699805C60.69 0.0399805 60.93 0.00998047 61.17 -0.0200195V-1.95317e-05ZM71.4 119.4C73.68 119.28 77.91 119.17 82.12 118.79C88.8 118.18 95.45 117.18 101.65 114.46C103.95 113.45 106.21 112.11 108.12 110.48C111.2 107.86 111.83 104.4 109.69 101.01C108.05 98.42 105.97 95.99 103.66 93.98C97.78 88.87 90.96 85.16 83.93 81.89C75.75 78.08 66.93 76.62 58.12 75.16C51.45 74.06 44.7 73.39 38.26 71.07C35.72 70.15 33.01 70.58 31.22 72.73C29.82 74.41 28.77 76.47 27.97 78.52C27.12 80.7 27.76 82.17 29.87 83.31C32.52 84.74 35.25 86.11 38.08 87.13C45.26 89.71 52.88 90.19 60.33 91.5C64.17 92.17 67.98 93.03 71.78 93.91C73.75 94.37 74.39 95.3 73.92 96.67C73.34 98.37 72.02 98.02 70.74 97.73C69.96 97.55 69.19 97.38 68.41 97.2C59.7 95.29 50.94 93.56 42.28 91.42C35.69 89.79 29.35 87.33 23.84 83.17C17.37 78.28 15.22 71.65 17.54 63.89C18.79 59.72 20.91 55.99 23.31 52.39C24.46 50.66 24.34 49.01 23.12 47.82C21.94 46.66 20.3 46.34 18.76 47.55C16.4 49.41 13.84 51.28 12.17 53.7C4.37004 64.97 2.35004 77.53 4.72004 90.9C6.11004 98.73 10.42 104.52 17.38 108.23C20.81 110.06 24.36 111.77 28.02 113.05C41.42 117.75 55.33 119.27 71.4 119.41V119.4ZM69.76 9.69998C70.87 10.33 71.58 10.82 72.35 11.15C75.82 12.62 76.24 15.63 74.56 18.45C73.39 20.42 72 22.32 70.41 23.98C63.62 31.08 55.32 36.23 47.18 41.58C46.13 42.27 44.89 42.71 43.68 43.08C40.2 44.15 37.97 42.82 37.51 39.25C36.64 32.48 38.21 26.54 43.88 22.19C46.41 20.25 49.04 18.43 51.57 16.49C53.04 15.36 53.92 13.92 53.45 11.93C52.97 9.90998 51.7 8.80998 49.68 8.42998C44.78 7.50998 39.89 7.27998 34.92 7.93998C25.26 9.21998 19 17.84 20.92 27.41C22.65 36.09 27.66 43.18 32.09 50.54C32.33 50.94 33.38 51.33 33.61 51.15C34.06 50.8 34.41 50.05 34.42 49.46C34.42 48.78 34.02 48.1 33.79 47.42C33.41 46.26 33.5 45.16 34.49 44.37C35.52 43.55 36.68 43.52 37.84 44.21C39.21 45.02 40.61 45.8 41.97 46.64C44.34 48.12 46.54 47.91 48.91 46.45C50.21 45.65 51.87 44.97 53.35 45.01C57.74 45.13 61.65 43.91 65.47 41.91C72.24 38.37 79.51 36.78 87.14 36.77C98.17 36.77 108.87 38.56 119.21 42.54C121.85 43.56 124.72 44.05 127.52 44.56C128.29 44.7 129.38 44.24 130.03 43.7C132.72 41.43 135.12 41.28 137.66 43.7C139.26 45.23 140.63 47.03 142.01 48.78C142.85 49.84 143.47 51.07 144.27 52.16C145.28 53.56 146.84 54.08 148.25 53.48C149.73 52.85 150.45 51.69 150.27 50.05C150.19 49.34 150.1 48.62 149.9 47.94C146.04 34.81 136.8 27.2 124.22 23.14C121.39 22.23 120.42 23.21 119.96 26.24C119.68 28.02 119.19 29.84 118.41 31.45C117.17 33.99 114.78 34.97 111.99 34.47C108.23 33.8 105.47 30.55 105.51 26.72C105.53 25.05 105.97 23.37 105.81 21.73C105.21 15.37 101.26 11.46 94.79 10.88C87 10.19 79.2 9.66998 71.4 9.09998C71.01 9.06998 70.6 9.37998 69.76 9.68998V9.69998ZM116.41 94.78C116.02 93.1 115.82 91.83 115.45 90.62C112.49 80.94 105.9 74.38 97.18 69.8C85.31 63.57 72.62 61.73 59.37 63.01C55.99 63.34 52.66 64.48 49.17 63.6C47.71 63.23 46.71 64.2 46.25 65.51C45.79 66.83 46.41 68 47.56 68.53C49.2 69.29 50.95 69.88 52.71 70.29C60 71.99 67.39 73.32 74.59 75.31C84.61 78.08 94.24 81.95 102.67 88.2C105.79 90.51 108.48 93.4 111.33 96.07C112.27 96.96 113.3 97.7 114.5 96.96C115.33 96.44 115.86 95.44 116.42 94.78H116.41ZM119.02 99.67C118.99 100.39 118.97 101.11 118.92 101.82C118.7 105.25 120.03 107.93 123.02 109.59C125.98 111.23 128.88 110.66 131.58 108.84C136.15 105.75 137.61 99.65 135.04 94.1C131.81 87.14 125.86 83.01 119.34 79.62C118.52 79.19 116.96 79.58 116.05 80.11C114.86 80.81 114.72 82.23 115.19 83.55C115.53 84.52 116.01 85.45 116.4 86.41C118.14 90.66 119.26 95.03 119.03 99.67H119.02ZM85.22 49.57C84.85 47.79 84.65 45.96 84.07 44.26C82.95 41.01 80.12 39.18 76.79 39.78C69.35 41.13 64.03 45.37 61.22 52.41C59.64 56.37 61.35 59.56 65.47 60.76C70.56 62.25 75.42 61.36 79.93 58.71C83.34 56.7 85.24 53.74 85.22 49.57ZM86.34 50.12C86.19 53.51 87.17 56.6 89.08 59.34C91.12 62.27 93.92 62.81 96.69 60.65C101.42 56.96 103.85 51.94 104.01 45.99C104.12 41.73 101.38 39.23 97.1 39.17C90.51 39.06 86.35 43.3 86.34 50.13V50.12ZM117.02 50.27C117.11 45.8 115.59 43.5 112.66 43.15C110.1 42.84 108.38 44.36 107.1 46.25C103.4 51.74 101.95 57.84 102.71 64.43C102.91 66.14 103.76 67.45 105.49 67.96C107.19 68.46 108.66 67.99 109.8 66.65C114.02 61.72 116.35 55.98 117.01 50.26L117.02 50.27ZM32.92 58.73C32.74 56.21 32.64 53.86 30.34 52.86C28.11 51.89 26.41 53.42 24.87 54.86C22.28 57.26 20.65 60.22 19.95 63.67C19.47 66.03 20.13 68.1 21.85 69.77C23.63 71.49 26.2 71.6 27.81 69.74C30.62 66.51 32.41 62.73 32.91 58.73H32.92ZM57.78 21.61C57.71 18.96 56.04 17.72 53.56 18.51C47.9 20.3 43.85 24.08 41.18 29.33C40.46 30.74 40.27 32.32 41.42 33.58C42.61 34.89 44.18 34.56 45.64 33.99C50.56 32.05 54.26 28.68 56.92 24.16C57.43 23.3 57.59 22.23 57.79 21.61H57.78ZM52.45 62.24C56.07 62.24 58.32 60.44 58.91 56.88C59.4 53.92 58.68 51.17 56.87 48.78C55.01 46.34 52.82 46.2 50.57 48.36C48.3 50.54 47.11 53.27 46.9 56.41C46.66 60.12 48.7 62.25 52.44 62.24H52.45ZM128.92 48.37C129.1 46.79 128.22 46.08 126.64 46.7C125.98 46.96 125.31 47.28 124.77 47.73C119.58 51.93 116.48 57.51 114.5 63.77C114.33 64.31 114.62 65.28 115.04 65.63C115.48 65.99 116.43 66.06 116.99 65.84C117.85 65.5 118.66 64.89 119.32 64.22C123.28 60.21 126.27 55.54 128.43 50.35C128.67 49.77 128.74 49.12 128.92 48.38V48.37ZM61.61 10.36C61.61 11.01 61.56 11.67 61.61 12.31C62.04 17.52 60.77 22.26 57.67 26.49C54.37 30.99 49.97 34.03 44.93 36.27C43.71 36.81 42.43 37.45 41.53 38.38C40.79 39.15 39.93 40.69 40.24 41.4C40.86 42.81 42.33 41.78 43.41 41.52C44.17 41.34 44.91 40.98 45.62 40.62C50.75 38.03 55.09 34.47 58.64 29.94C61.42 26.38 63.08 22.39 63.06 17.84C63.05 15.3 63.2 12.7 61.61 10.34V10.36ZM118.03 27.4C118 23.41 115.54 20.42 112.33 20.46C108.88 20.5 106.73 22.65 106.8 25.97C106.88 29.7 109.74 32.84 113.07 32.85C116.18 32.86 118.06 30.79 118.04 27.4H118.03ZM64.04 17.98L64.26 18.05C64.26 18.37 64.24 18.69 64.26 19C64.41 21.61 66 22.49 68.29 21.19C70.01 20.2 71.19 18.74 71.74 16.82C72.25 15.04 71.02 12.85 69.09 12.04C67.54 11.38 66.15 12.06 65.22 14.17C64.68 15.38 64.43 16.71 64.04 17.99V17.98ZM130.31 20.37C129.87 20.66 128.94 20.94 128.73 21.5C128.51 22.07 128.78 23.2 129.24 23.57C130.33 24.45 131.63 25.14 132.93 25.69C133.44 25.9 134.54 25.71 134.77 25.33C135.11 24.78 135.14 23.8 134.88 23.18C134.11 21.38 132.36 20.9 130.31 20.37Z"
      fill="#b8b399" />
  </g>
</svg>