<?xml version="1.0" encoding="utf-8"?>
<!-- Generator: Adobe Illustrator 27.0.0, SVG Export Plug-In . SVG Version: 6.00 Build 0)  -->
<svg version="1.1" id="Layer_1" xmlns="http://www.w3.org/2000/svg"
	xmlns:xlink="http://www.w3.org/1999/xlink" x="0px" y="0px"
	viewBox="0 0 1327.2 1000" style="enable-background:new 0 0 1327.2 1000;" xml:space="preserve">
<style type="text/css">
	.st0{fill:#00A2FF;}
</style>
<path class="st0" d="M1008.77,232.66C812.14,118.57,585.04,125.12,352.6,183.98c-43.22,10.95-88.72,9.02-130.9-5.41
	c-29.91-10.23-59.8-22.62-92.41-31.09c-51.53-13.38-150.85,8.42-86.78,18.77c138.96,23.67,118.45,114.8,81.61,205.62
	c-26.69,65.82-35.93,137.4-27.99,207.99c6.3,56,13.6,119.9,19,155.58C139.04,865.3-59.19,862.86,40.99,878.8
	c95.02,18.92,149.24-81.61,234.12-73.1c68.79,0.39,106.16,48.62,155.33,79.97c17.73,11.31,39.16,15.14,59.93,11.85
	c18.7-2.96,35.99-1.13,53.76,2.72c82.08,17.75,91.15-28.33,154.31-40.69c122.68-24,93.93,11.26,40.82,69.11
	c-14.42,15.71-0.04,40.41,20.75,35.67c182.69-41.6,452.58-18.49,496.17-286.67C1290,469.7,1171.55,327.11,1008.77,232.66z
	 M1204.89,483.99c8,21.1-16.3,33.7-31.03,41.44c-8.92,4.69-19.94,1.81-25.59-6.53c-0.09-0.14-0.19-0.27-0.28-0.41
	c-5.57-8.23-4.2-19.28,3.17-25.94C1166.26,478.9,1196.93,463,1204.89,483.99z M1062.51,332.39c7.34-9.06,20.84-10.2,29.4-2.29
	c20.87,19.27,55.77,54.38,71.22,85.98c10.35,21.17,7.63,39.95-10.84,50.53c-9.76,5.59-21.92,3.77-25.81-6.79
	c-5.84-15.83-13.06-31.22-21.82-46.14c-11.87-20.21-25.65-38.28-41.02-54.55C1056.63,351.71,1056.09,340.32,1062.51,332.39z
	 M714.12,392.07c-6.4-20.34-11.83-36.69-27.3-60.06c-63.44-95.85,94.11-105.82,44.42,60.38
	C728.75,400.69,716.72,400.35,714.12,392.07z M715.1,437.07c-5.83,37.23-82.51-28.25-47.5-42.84
	C698.98,382.59,717.7,419.48,715.1,437.07z M797.73,382.57c5.07,9.23,6.34,20.09,4.12,30.38c-5.05,23.38-18.21,47.21-42.3,51.61
	C680.94,478.39,766.45,325.63,797.73,382.57z M786.69,299.69c21.2-64.78,91.18-15.78,77.66,49.18
	c-5.12,25.49-16.01,50.62-27.93,70.64c-5.32,8.94-19.01,5.25-18.98-5.16C817.54,376.93,774.1,338.14,786.69,299.69z M844.06,430.53
	c8.98-20.29,42.53-58.72,52.74-37.98c2.33,4.74,1.84,10.38-0.73,15c-11.2,20.12-46.64,56.65-53,34.49
	C841.98,438.23,842.46,434.14,844.06,430.53z M1064.81,437.94c-6.13,1.51-12.47,2.59-18.45,3.36c-12.11,1.55-22.18-9.97-18.35-21.56
	c3.54-10.7,5.06-21.63,4.01-31.81c-3.06-29.65-35.52-46.38-62.3-33.28c-88.05,43.05-85.75,3.97-85.88-39.6
	c-0.08-27.71,25.63-36.09,50.83-24.57c19.15,8.75,39.84,20.87,58.57,31.2c99.32,54.75,132.99,176.05,133.06,176.35
	c3.05,12.6-5.19,20.65-17.67,17.13c-32.4-9.14-57.7,14.4-27.82-58.95C1085.03,445.83,1075.68,435.25,1064.81,437.94z M898.87,424.28
	c22.23-25.62,53.12-54.7,74.05-59.71c41.93-10.04,58.07,48.6,32.08,62.42c-18.57,9.87-57.5,21.41-89.78,26.65
	C898.75,456.31,887.94,436.88,898.87,424.28z M922.13,474.95c38.69-29.02,108.82-5.66,108.86,40.27
	c0.05,55.45-81.41,23.33-111.51-8.92C910.9,497.1,912.06,482.5,922.13,474.95z M999.44,586.83c39.39,16.67,26.33,77.44-16.31,74.12
	c-20.62-1.61-39.35-18.24-38.13-59.47C948.24,569.39,975.4,576.66,999.44,586.83z M1002.66,721.43c12.76-4.39,27.46,0.7,33.27,12.88
	c16.7,34.99-63.68,71.27-114.89,73.19C801.06,809.36,943.3,741.87,1002.66,721.43z M992.77,713.44
	c-14.73,8.07-28.93-11.74-16.32-22.85c69.85-61.57,127.87-60.2,138.37-31.79c3.88,10.5,4.4,23.64-7.26,37
	c-13.64,15.63-36.33,18.63-55.09,9.78C1030.97,695.44,1011.83,703.01,992.77,713.44z M1123.69,604.27c6.65-4,15.07,1,14.41,8.73
	c-0.72,8.43-2.4,20.09-4.2,31.26c-1.16,7.24-10.39,9.57-14.2,2.24C1103.41,615.17,1123.69,604.27,1123.69,604.27z M1139.27,585.02
	c-19.96,27.02-122.59,6.64-168.33-21.83c-5.9-3.67-1.79-12.81,4.89-10.93c37,10.41,74.21-0.09,111.75-15.93
	c21.59-9.11,47.2,1.14,55.08,23.21C1146.6,570.61,1143.97,578.67,1139.27,585.02z M902.57,217.63
	c52.12,18.58,101.27,43.62,145.81,76.4c8.7,6.41,8.87,18.68,1.61,26.69c-0.18,0.2-0.36,0.4-0.53,0.6c-6.27,7.4-16.91,8.82-24.59,2.9
	c-21.44-16.53-44.93-30.75-70-43.17c-21.29-10.55-43.12-19.44-65.34-27.12c-5.84-2.02-10.53-6.59-12.33-12.49
	c-0.14-0.46-0.27-0.93-0.4-1.4C872.96,225.3,888.21,212.51,902.57,217.63z M727.37,181.48c24.85,1.08,63.07,1.67,95.81,6.05
	c11.79,1.58,19.03,13.71,14.72,24.8v0c-3.34,8.62-12.58,13.41-21.54,11.14c-24.91-6.29-65.38-12.35-91.16-15.42
	c-8.49-1.01-13.85-9.64-10.99-17.7v0C716.17,184.82,721.51,181.23,727.37,181.48z M614.11,176.6c15.24-0.63,34.12-1.21,52.28-1.23
	c7.87-0.01,15,4.65,18.11,11.87v0c5.57,12.91-3.82,27.31-17.87,27.44c-26.87,0.26-58.76,0.77-63.39-2.47l-0.12-0.08
	c-0.12-0.08-0.23-0.16-0.35-0.25C587.85,201.17,595.74,177.36,614.11,176.6z M594.76,238.29c21.58-8.15,47.85-11.51,69.56-12.04
	c30.63-0.75,77.61,5.04,111.98,11.34c12.6,2.31,19.12,14.65,10.1,23.75c-6.05,6.1-10.69,12.85-13.88,19.06
	c-6.36,12.38-5.78,28.53-8.27,37.59c-2.01,7.34-13.18,5.52-12.37-2.05c0.01-0.08,0.04-0.16,0.03-0.25
	c-14.36-135.86-156.44-60.7-75.11,22.23c24.32,26.16-15.25,47.56-34.93,26.2c-21.47-27.48-21.58-80.28-50.71-100.95
	C581.92,256.59,584.14,242.3,594.76,238.29z M540.26,176.58c14.23-4.05,29.28,2.23,32.23,16.73c8.45,41.42-101.43,80.93-113.6,84.78
	c-15.32,4.84-30.66,6.8-45.52,5.75c-35.02-2.47-41.94-48.63-8.62-63.55C457.95,196.47,509.96,185.2,540.26,176.58z M544.66,375.16
	c13.62,16.76,7.65,27.28-11.27,16.84c-29.49-16.27-54.14-17.6-72.67-10.48c-8.47,3.25-16.67-5.17-13.18-13.54
	c7.86-18.86,18.45-42.13,29.57-60.47c4.87-8.03,16.81-7.14,20.37,1.55C507.01,332.31,530.66,357.95,544.66,375.16z M169.76,251.23
	c13.79-38.61,50.59-61.29,76.85-47.41c11.8,6.23,16.02,21.29,10.28,33.33C236.6,279.68,143.22,325.55,169.76,251.23z M148.49,190.96
	c-11.62-0.55-23.93-2.62-32.15-8.05c-14.17-9.37-5.69-26.92,10.97-23.6c6.29,1.25,16.72,5.67,26.68,10.82
	C164.47,175.55,160.28,191.52,148.49,190.96z M130.43,848.83c-14.51,6.44-29.46-8.63-22.73-23.01
	c5.06-10.81,15.13-27.22,28.81-31.08C174.05,784.13,171.9,830.42,130.43,848.83z M241.01,781.11
	c-9.68,47.37-136.86-33.39-92.69-58.09c7.32-4.09,16.2-4.18,24-1.1c22.04,8.72,45.65,21.18,61.98,37.71
	C239.87,765.26,242.6,773.36,241.01,781.11z M665.56,708.8c-25.38,36.2-91.31,9.15-131.15-31.47
	c-26.54-27.06-67.47-37.81-104.35-29.03c-20.37,4.85-43.06,11.28-60.05,19.83c-17.46,8.79-23.9,30.51-14.04,47.4
	c24.82,42.53,46.71,92.9,102.43,95.67c58.1,2.88,171.44-85.4,192.45-12.85c11,38-10.79,72.06-54.71,81.4
	c-20.43,4.34-39.46-9.88-63.69-13.89c-53.28-8.82-75.39,22.27-140.87-37.53C282.02,728.26,116.49,735.8,116.09,521.27
	c-0.12-63.27,20.22-124.7,63.31-171.03c24.56-26.41,64.77-51.4,110.37-73.81c25.11-12.34,54.9-10.59,78.46,4.5
	c14.02,8.98,31.31,16.76,48.83,16.48c0.15,0,0.31-0.01,0.46-0.01c27.83-0.51,36.43,16.59,19.04,38.33
	c-23.7,29.62-55.88,49.69-79.58,61.61c-7.35,3.7-2.71,14.84,5.09,12.22c0.22-0.07,0.44-0.15,0.66-0.22
	c22.39-7.64,45.18,3.51,53.93,22.81c4.09,9.02,4.32,19.32,1.11,28.69l-3.92,11.44c-2.65,7.74-3.78,14.39-3.74,21.05
	c0.08,13.45,1.62,24.57,3.27,33.23c1.01,5.32,8.82,4.91,9.23-0.5c0.41-5.38,0.3-11.32,2.76-20.76c3.38-12.98,17.6-19.97,29.8-14.38
	c14.91,6.83,35.16,9.26,61.32,4.45c57.02-10.49,67.63-1.57,66.96,30.89c-0.23,10.96,6.01,21.05,15.87,25.83
	c33.77,16.38,10.3,23.2-25.17,26.68c-10.64,1.04-13.5,15.24-4.05,20.25C617.69,624.26,693.04,669.6,665.56,708.8z M523.51,732.3
	c-0.14-5.6-0.85-10.77-2.05-15.51c-2.55-10.09,10.94-16.13,16.63-7.41c2.02,3.1,3.95,6.66,5.77,10.77
	c6.6,14.87,19.22,17.92,28.3,22.09c11.22,5.16,6.5,22.12-5.78,20.9c-20.05-1.99-28.81,2.9-41.38,9.52
	c-6.87,3.62-14.01-4.07-10.05-10.76C520.19,753.06,524.32,742.6,523.51,732.3z M488.96,781.93c-17.41,9.59-43.81,1.8-57.62-15.24
	c-10.19-12.58,1.83-30.98,17.61-27.38c12.96,2.96,26.21,5.84,37.67,10.44C500.6,755.35,502.15,774.66,488.96,781.93z M416.75,753.94
	c2.45,9.45-9.84,15.7-16.15,8.25c-8.06-9.52-14.68-21-20.02-33.79c-7.86-18.84,1.24-40.78,20.25-48.24
	c0.59-0.23,1.18-0.46,1.77-0.67c15.36-5.65,29.18,10.95,20.95,25.1c-5.24,9.01-8.5,20.26-8.77,33.75
	C414.83,744,415.52,749.2,416.75,753.94z M664.53,535.65c-43.45-41.91-100.92-70.72-162.01-57.51c-3.73,0.81-7.58,1.3-11.38,0.97
	c-11.39-0.98-20.54-6.17-27.13-13.56c-28.24-31.61,8.21-79.31,47.2-62.68c58.68,25.03,127.06,71.82,159.8,127.84
	C673.41,534.84,667.96,538.96,664.53,535.65z M641.7,459.75c6.54,2.81,12.88,10.05,16.56,17.22c3.1,6.03-3.65,12.4-9.38,8.78
	c-6.06-3.84-11.89-10.47-15.43-16.51C630.26,463.8,635.9,457.26,641.7,459.75z M660.92,463.29
	C599.34,400.69,479,298.98,540.68,285.17c29.01-6.5,57.33,12.88,64.33,41.77c15.07,62.17,40.77,90.69,72.25,124.54
	C685.19,460.02,669.09,471.6,660.92,463.29z M691.83,791.94c-44.42-86.75,54.06-99.72,119.51-142.35
	c20.92-13.63,44.66-44.63,25.92-81.45c-25.92-50.91-77.86-39.97-100.88-19.32c-13,11.67-33.74,0.11-30.46-17.05
	c0.05-0.27,0.11-0.55,0.16-0.82c21.63-62.29,102.33-71.41,158.97-35.16c37.68,24.12,60.71,76.21,63.23,117.32
	C937.84,769.11,745.61,896.98,691.83,791.94z M901.29,886.57c-9.94-1.92-18.92-3.91-27.01-5.94c-27.61-6.92-26.19-46.53,1.86-51.34
	c27.18-4.66,57.2-9.04,81.14-13.72c47.15-9.22,78.52-24.99,108.7-52.63c12.77-11.7,28.84-1.53,24.94,16.22
	c-1.15,5.24-2.78,12.18-4.49,19.34c-1.22,5.09,5.83,7.75,8.26,3.12c4.37-8.31,8.91-16.97,12.65-24.24
	c7.41-14.37,19.02-26.36,33.75-33.01c3.8-1.72,7.92-3.16,12.67-4.27c0.19-0.04,0.37-0.09,0.55-0.13
	c24.5-5.57,42.24,23.03,27.3,43.24C1122.21,863.55,1019.01,909.25,901.29,886.57z M1215.39,717.6
	c-4.42,13.51-19.2,19.77-32.86,15.83c-3.92-1.13-21.82-5.17-32.8-1.6c-11.38,3.7-19.48-7.13-13.89-17.7l0.38-0.71
	c8.47-16.03,24.82-25.11,42.78-27.64C1215.86,680.58,1220.25,702.74,1215.39,717.6z M1172.89,676.2
	c-16.76,1.45-21.64-11.65-21.64-26.47c-0.01-65.55,7.6-89.97,17.17-101.72c17.46-21.41,52.35-10.62,56.21,16.73
	c1.95,13.81,4.13,31.56,5.47,49.64C1232.59,647.76,1206.24,673.31,1172.89,676.2z"/>
</svg>