<?xml version="1.0" encoding="UTF-8"?>
<svg id="Layer_1" data-name="Layer 1" xmlns="http://www.w3.org/2000/svg" viewBox="0 0 188.79 124.14">
  <style>
    fill: var(--green);
  </style>
  <path class="cls-1"
    d="m0,109.74c1-.58,1.71-1.02,2.45-1.41,1.9-1,3.89-1.86,5.71-3,6.53-4.07,8.46-9.04,7.44-16.68-1.31-9.8-2.5-19.64-3.12-29.51-.52-8.36,1.47-16.45,4.48-24.3,1.54-4,2.75-8.15,3.75-12.32.49-2.04.42-4.32.12-6.42-.57-3.94-2.81-6.85-6.29-8.84-3.1-1.76-6.45-2.66-9.92-3.31-.99-.19-1.89-.87-2.82-1.33.93-.5,1.81-1.22,2.8-1.46,7.1-1.69,13.9-.47,20.6,2.12,3.56,1.38,7.19,2.66,10.89,3.53,5.53,1.3,11.08.84,16.57-.59C63.95,3.31,75.39,1.1,87.04.3c19.95-1.37,39.09,1.88,57.25,10.52,10.64,5.06,20.28,11.47,28.21,20.26,8.02,8.89,13.64,19,15.67,30.94,1.56,9.16.07,17.94-2.89,26.59-2.33,6.79-5.57,13.05-10.57,18.29-6.61,6.92-14.93,10.63-24.15,12.18-7.86,1.32-15.82,1.96-23.74,2.96-4.19.53-8.37,1.16-12.55,1.76-.55.08-1.1.22-1.65.29-1.48.2-2.71-.23-3.45-1.59-.76-1.41-.6-2.77.47-3.99,1.11-1.26,2.27-2.47,3.32-3.78,1.04-1.31,2.1-2.63,2.91-4.09,1.11-1.98.42-3.37-1.85-3.4-2.69-.04-5.41.26-8.09.6-3.85.49-7.39,1.92-10.63,4.05-4.59,3.02-9.51,3.62-14.88,2.64-3.01-.55-6.17-.42-9.26-.33-3.24.1-6.19-.58-8.8-2.46-2.66-1.91-5.25-3.91-7.86-5.89-4.5-3.4-9.4-5.6-15.18-5.72-3.8-.08-7.25.96-10.51,2.71-2.67,1.43-5.24,3.05-7.86,4.56-4.55,2.64-9.29,4.69-14.72,4.03-1.99-.24-4.1-.26-6.22-1.72ZM91.21,4.77c-4.22.27-8.48.27-12.65.86-15,2.15-28.75,7.63-41.31,16.09-5.19,3.5-10.01,7.45-13.87,12.42-6.69,8.62-8.58,18.5-7.43,29.15.82,7.66,3.31,14.59,8.74,20.27,3.92,4.1,8.7,6.97,13.65,9.6,5.77,3.07,11.69,5.89,17.28,9.26,4.9,2.95,9.97,5.35,15.45,6.88,4.93,1.38,9.93,2.42,15.1,2.13,4.28-.24,7.74-1.95,9.61-6.01,1.36-2.95,1.31-5.98-.68-8.62-1.85-2.46-4.56-2.31-7.23-1.66-1.93.47-3.85,1.04-5.73,1.68-3.09,1.05-6.11,2.32-9.22,3.28-6.94,2.15-11.87.52-16.1-5.38-1.71-2.39-3.14-4.99-4.61-7.55-2.01-3.51-1.02-6.7,2.7-8.19,2.5-1.01,5.1-1.84,7.73-2.46,6.38-1.49,11.87.08,16.73,4.64,2.34,2.2,5.2,3.97,8.09,5.41,1.91.95,4.29,1.38,6.44,1.35,4.65-.07,6.84-4.51,4.23-8.31-.94-1.36-2.09-2.69-3.43-3.64-3.32-2.34-6.77-4.49-10.22-6.64-.87-.54-1.46-1.21-1.05-2.1.27-.58,1.08-1.08,1.75-1.27,1.37-.4,2.82-.49,4.2-.86.54-.14.98-.67,1.47-1.03-.4-.46-.71-1.13-1.21-1.35-2.59-1.15-3.58-3.02-3.55-5.88.03-2.74-1.34-3.84-4.11-3.87-1.43-.02-2.87.12-4.28.34-3.08.48-6.14,1.01-9.25.14-4.34-1.22-7.05-5.04-6.57-9.33.55-4.85,4.22-8.27,8.87-8.44,3.09-.11,5.76,1.01,8.43,2.33.54.27,1.3.08,1.96.11-.11-.65-.07-1.38-.35-1.94-.35-.7-.96-1.27-1.45-1.9-1.56-2.02-3.19-4-4.65-6.09-.76-1.1-1.4-2.35-1.8-3.62-.93-2.99.02-5.01,2.95-6.1,1.62-.6,3.38-.91,5.11-1.15,4.96-.69,7.84,1,9.73,5.71.83,2.07,1.42,4.23,2.25,6.3.59,1.47,1.23,2.97,2.15,4.24,1.19,1.65,3.92,1.76,5.35.45,1.25-1.14,1.11-2.61-.43-4.42-.31-.36-.74-.66-.96-1.06-.85-1.61-1.87-3.18-2.38-4.9-.93-3.11.55-6.2,3.36-7.69,2.84-1.51,5.74-1.02,8.07,1.36,2.25,2.29,2.89,5.25,3.5,8.24.13.62.56,1.18.85,1.77.39-.62.86-1.21,1.13-1.87.2-.5.1-1.11.2-1.66.87-4.6,4.2-7.95,8.84-8.51,4.12-.5,7.67,1.21,8.4,5.54.28,1.64.3,3.33.42,4.99.13,1.91.12,3.84.39,5.72.38,2.63,1.62,3.56,4.29,3.39.94-.06,1.91-.23,2.8-.55,1.87-.67,3.7-1.47,5.54-2.22,4.92-1.99,9.61,1.27,9.36,6.58-.05,1.18-.47,2.34-.66,3.51-.27,1.66.86,3.02,2.53,3.02.55,0,1.1-.29,1.64-.26,1.14.06,2.7-.13,3.27.51.55.61.23,2.18,0,3.27-.29,1.39-.97,2.7-1.3,4.09-.54,2.24.02,2.87,2.32,3.04,1.27.09,2.59.12,3.78.51,3.18,1.04,5.36,3.22,6.06,6.52.65,3.09-1.15,5.12-3.52,6.77-2.45,1.7-2.79,3.36-1.27,5.88,2.25,3.73,2.23,6.56-.43,9.94-2.02,2.57-4.18,5.05-6.46,7.39-4.47,4.59-9.96,7.38-16.25,8.56-4.23.79-8.48,1.5-12.71,2.28-2.52.47-3.78,1.81-3.78,3.87,0,1.95,1.24,3.31,3.55,3.88,6.5,1.62,13.05,2.1,19.7,1.01,18.41-3.04,32.72-18.38,33.83-38.04.5-8.83-1.53-17.13-5.59-24.92-9.19-17.63-23.37-29.67-41.78-36.84-14.62-5.7-29.9-7.64-45.5-7.92Zm46.85,68.19c0-4.83-1.37-9.28-3.89-13.36-3.69-5.97-9.14-8.97-16.1-9.14-5.3-.13-9.69,1.7-12.49,6.47-1.2,2.05-1.14,3.52.04,4.53,1.12.96,2.15.78,4.26-.63.79-.53,1.65-1,2.54-1.32,3.48-1.26,6.77-.99,9.59,1.6,5.09,4.69,4.56,11.54-1.34,15.45-2.71,1.79-5.75,3.09-8.6,4.67-2.57,1.43-5.18,2.81-7.62,4.45-1.81,1.22-3.07,2.98-3.41,5.27-.8,5.36,3.18,11.26,8.43,12.54,2.95.72,5.71.05,8.4-1,11.35-4.41,20.15-17.34,20.18-29.54Zm-38.58-13.26c-.47-.98-.66-1.73-1.12-2.25-2.3-2.64-4.48-5.41-7.05-7.77-4.85-4.46-10.47-7.82-16.62-10.22-2.41-.94-4.94-.04-6.58,2.08-1.43,1.84-1.67,4.38-.59,6.29,1.24,2.19,3.84,3.5,6.27,2.99,5.63-1.18,11.01-.38,15.97,2.39,3.18,1.78,6.08,4.04,9.72,6.49Zm-18.01-37.97c-.32.02-.64.01-.96.05-2.94.33-3.94,1.96-2.72,4.61.6,1.29,1.28,2.64,2.24,3.66,5.82,6.14,11.71,12.22,17.65,18.24.4.41,1.37.26,2.07.37.08-.72.44-1.57.18-2.15-.5-1.15-1.26-2.23-2.06-3.21-3.94-4.87-7.4-9.94-8.93-16.2-.78-3.21-4.28-5.35-7.49-5.36Zm47.15,7.54c-.05-2.88-.72-5.51-2.82-7.64-3.33-3.38-7.03-2.61-8.77,1.8-1.1,2.78-.32,5.31.79,7.85,1.43,3.27,3.41,6.33,3.76,10.02.05.48.67,1.19,1.13,1.28.45.09,1.25-.35,1.51-.79,2.31-3.87,3.99-7.97,4.41-12.52Zm6.94,71.18c5.75-.3,10.77-1.69,15.26-4.68,1.17-.78,2.26-1.83,3.04-2.99,1.5-2.25.11-5.03-2.58-5.33-.84-.09-1.81-.02-2.56.32-4.93,2.24-9.82,4.54-14.7,6.9-.99.48-1.92,1.19-2.69,1.98-.56.57-1.1,1.46-1.06,2.18.02.42,1.17.94,1.88,1.12,1.23.31,2.51.38,3.41.5Zm26.88-32.05c.89-.13,2.34-.2,3.71-.57,3.62-.98,4.54-4.08,2.15-6.98-1.88-2.29-4.56-2.83-7.81-1.48-3.62,1.5-7.27,2.9-11.28,2.68-1.58-.09-3.15-.4-4.74-.51-.36-.03-.87.27-1.08.57-.12.17.12.75.36.99.32.33.78.54,1.2.76,5.32,2.74,10.98,4.17,17.49,4.53Zm-2.45,17.4c3.66-.16,6.58-2.92,6.39-6.15-.18-3.1-2.67-4.67-6.73-4.24-3.6.37-6.7,1.97-9.63,3.94-1.59,1.06-3.17,2.19-4.52,3.53-.51.5-.67,1.81-.4,2.52.4,1.05,1.46,1.4,2.6.79.49-.26,1.01-.47,1.51-.72,2.54-1.31,5.11-1.6,7.8-.39.92.41,1.98.5,2.98.74Zm-14.35-52.07c-.29.07-1.03.14-1.66.43-4.3,2-7.47,5.37-10.37,8.97-.47.58-.39,2.13.06,2.79.47.68,1.83,1.3,2.6,1.11,4.08-.99,8.13-2.1,12.11-3.44,2.56-.86,3.47-2.83,2.93-5.25-.64-2.9-2.64-4.65-5.68-4.61Zm-2.51,14.43c-1.9.71-3.91,1.21-5.66,2.19-1.82,1.01-2.01,3.18-.55,4.69,3.14,3.25,6.95,5.34,11.48,5.78,3.78.36,5.99-2.29,4.78-5.9-.52-1.56-1.71-3.06-2.98-4.15-1.91-1.64-4.34-2.27-7.07-2.61Zm-32.73-18.89c-.43-1.91-.66-3.67-1.22-5.31-.72-2.11-2.13-3.77-4.31-4.54-3.41-1.2-6.26,1.24-5.44,4.76.36,1.52,1.11,2.97,1.82,4.39,1.45,2.92,2.96,5.81,4.51,8.67.31.57.9.98,1.36,1.46.47-.47,1.2-.86,1.36-1.42.73-2.68,1.3-5.41,1.91-8.01ZM32.79,9.1c-.18.02-.5.04-.81.09-5.18.72-8.91,7.39-8.59,11.28.13,1.6,1.34,2.39,3.11,2,4.35-.98,7.57-3.59,10.06-7.18.93-1.34,1.12-2.79.25-4.27-.88-1.48-2.28-1.88-4.02-1.91Zm86.27,30.84c.1-2.31-.92-4.58-2.43-5.07-2.09-.67-3.49.65-4.76,1.99-1.95,2.06-3.25,4.51-3.84,7.29-.69,3.31,1.01,5.06,4.35,4.57,3.59-.53,6.48-4.34,6.68-8.79Zm21.36,30.34c.46,1.66.71,3.43,1.44,4.97,1.27,2.69,4.19,3.71,6.85,2.69,2.55-.98,4-3.85,3.35-6.63-.78-3.35-3.49-4.29-6.32-5.03-3.38-.88-5,.4-5.32,4Zm-108.56,28.47c.68-.44,1.82-.81,2.37-1.6.84-1.23.54-2.77-.57-3.7-1.82-1.52-3.77-2.92-5.81-4.12-1.48-.87-3.17-1.59-4.85-1.85-.98-.15-2.41.47-3.09,1.23-.46.52-.33,2.11.14,2.83,2.67,4.11,6.67,6.2,11.82,7.22Zm23.49-12.02c.29,2.43,1.64,4.67,3.4,6.66.28.32,1.19.52,1.46.32.4-.31.72-1.04.67-1.56-.26-2.6.05-5.04,1.16-7.46.34-.73,0-2.06-.49-2.81-.69-1.05-1.95-.9-3.06-.43-1.86.79-3.18,2.9-3.15,5.28Zm13.86,10.39c.5-.03.82-.02,1.13-.07,1.66-.29,2.92-1.42,2.91-2.69-.02-1.59-1.04-2.44-2.43-2.84-1.59-.47-3.21-.86-4.83-1.21-1.31-.28-2.32.18-2.93,1.45-.59,1.24-.04,2.17.79,2.98,1.53,1.5,3.37,2.32,5.35,2.39Zm8.29-8.77c-.42,1.59-.88,3.16-1.25,4.76-.13.56-.07,1.16-.1,1.74.58-.01,1.17.06,1.73-.06,1.62-.34,3.2-.86,4.83-1.09,1.04-.15,2.21.1,2.53-1.23.31-1.32-.82-1.64-1.7-2.22-1.22-.81-2.33-1.83-3.35-2.89-.72-.74-.67-2.48-2.15-2.15-1.74.39-.75,1.96-.54,3.13Zm-60.47,18.37c2.04-.02,5.13-2.8,5.74-5.17.51-1.98-.59-3.27-2.67-3.14-2.29.13-5.59,3.47-5.69,5.76-.06,1.29,1.25,2.56,2.62,2.55ZM100.71,38.04c-2.39-.05-3.66,1.21-2.88,3.08,1.05,2.55,3.05,4.22,5.67,5.06,1.13.36,2.04-.09,2.37-1.33.75-2.8-2.24-6.74-5.16-6.81Zm32.7,1.19c0-1.78-1.16-2.47-2.58-1.66-2.44,1.4-4.09,3.56-5.22,6.07-.29.65.08,1.6.15,2.41.75-.09,1.75.09,2.19-.33,1.79-1.68,3.43-3.52,5.06-5.35.29-.32.32-.88.4-1.14ZM19.55,7.71c1.28-.07,2.43-.18,2.77-1.54.35-1.41-.81-1.94-1.83-2.37-1.23-.52-2.49-1.02-3.78-1.3-1.07-.23-2.26.16-2.37,1.36-.07.76.45,1.95,1.07,2.32,1.25.74,2.75,1.04,4.15,1.53Zm74.06,38.55c-1.03-.06-1.96,1.05-1.36,1.86,1.06,1.44,2.3,2.79,3.69,3.91.84.68,1.87-.14,1.85-1.26-.03-1.39-2.84-4.42-4.17-4.51Z" />
</svg>