<svg width="414" height="330" viewBox="0 0 414 330" fill="none" xmlns="http://www.w3.org/2000/svg">
<path d="M413.991 60.9665C413.614 75.1193 408.21 87.6847 401.462 99.7658C389.687 120.753 374.094 138.753 357.372 155.812C352.103 161.193 346.618 166.333 341.188 171.526C325.084 186.916 324.707 205.509 339.655 222.137C349.387 233.007 359.173 243.931 367.723 255.716C381.057 274.093 387.832 295.376 391.757 317.574C392.94 324.328 391.193 327.826 386.81 329.359C381.514 331.216 377.401 329.037 374.901 322.821C369.336 309.018 362.372 295.995 353.232 284.183C337.343 263.654 318.228 247.698 292.419 241.16C273.17 236.29 254.512 238.657 236.338 245.976C219.966 252.568 203.727 252.595 187.597 245.519C181.521 242.855 175.606 239.814 169.665 236.828C159.691 231.85 149.905 226.415 138.694 224.693C119.472 221.733 103.18 229.025 88.4737 240.191C79.7901 246.783 72.0205 254.613 63.9282 261.985C53.6046 271.376 43.6574 281.17 32.9574 290.13C28.8171 293.601 23.3327 295.753 18.144 297.529C12.0413 299.601 8.76135 296.668 8.65381 290.184C8.54627 282.999 11.5304 276.811 14.9985 270.838C27.1234 249.878 44.5714 234.245 64.6272 221.195C70.1923 217.59 75.6499 213.688 80.6772 209.383C86.6456 204.298 90.9471 197.975 92.829 190.118C95.0604 180.862 92.7753 172.252 87.9629 164.853C80.4622 153.391 72.0473 142.493 63.4712 131.811C50.7011 115.91 36.8825 100.815 24.5425 84.5905C11.8531 67.9084 2.92742 49.1007 0.588475 27.7907C-0.0298671 22.0596 -0.083636 16.194 0.0776707 10.436C0.265862 4.27435 3.16938 0.803404 7.84728 0.157647C13.036 -0.595737 16.1277 1.28772 18.6011 7.18026C30.9141 36.3201 47.7169 62.6347 68.176 86.6353C77.9888 98.1245 88.8501 108.51 102.077 116.044C117.348 124.762 132.484 126.161 148.345 116.69C160.094 109.667 172.488 103.667 184.908 97.9092C197.759 91.9359 210.932 92.6624 223.326 99.4429C235.182 105.9 247.038 112.493 258.168 120.107C274.138 131.031 290.779 131.946 308.415 125.892C326.804 119.596 342.397 108.672 356.996 96.1872C371.916 83.4335 385.144 69.0654 396.758 53.2712C401.194 47.2441 403.882 45.9257 408.237 47.4594C413.991 49.4774 414.125 54.1591 413.964 59.0561C413.964 59.7019 413.964 60.3476 413.964 60.9934L413.991 60.9665ZM274.487 231.07C284.65 230.585 294.839 232.146 304.437 236.155C310.943 238.873 317.126 242.344 323.444 245.492C327.611 247.564 331.025 246.998 333.875 243.716C336.832 240.326 336.94 237.124 333.956 233.249C332.531 231.393 330.703 229.832 329.116 228.056C322.664 220.845 315.889 213.903 309.921 206.343C303.711 198.459 303.173 189.741 309.222 181.32C312.206 177.149 315.298 172.898 319.035 169.427C335.434 154.278 352.183 139.453 368.637 124.358C373.046 120.295 377.24 115.91 380.923 111.174C385.09 105.82 382.052 97.9361 375.492 97.4787C372.562 97.2634 368.905 99.1738 366.513 101.219C344.844 119.434 321.938 135.336 294.839 144.646C281.639 149.193 272.605 158.772 266.825 171.552C264.997 175.588 262.846 179.759 259.889 183.015C248.436 195.688 231.472 199.132 215.1 192.244C208.997 189.661 203.27 186.163 197.248 183.364C191.576 180.728 188.968 182.019 188.565 188.154C188.242 193.239 188.565 198.513 189.532 203.544C191.226 212.558 192.974 221.679 195.931 230.343C198.592 238.2 205.152 242.101 213.621 241.483C218.299 241.16 222.977 240.326 227.547 239.276C242.979 235.778 258.088 230.451 274.514 231.043L274.487 231.07ZM159.583 191.679C151.061 192.109 144.205 188.288 137.565 183.66C131.301 179.302 128.881 173.274 129.365 165.848C129.58 162.646 130.064 159.391 129.795 156.216C128.585 140.906 121.649 129.336 107.347 122.744C103.18 120.834 99.7383 121.991 97.023 125.327C94.2808 128.717 94.3077 132.457 96.7273 136.063C97.5607 137.3 98.7705 138.269 99.6577 139.48C103.502 144.646 107.696 149.57 111.03 155.059C117.536 165.768 117.348 176.88 110.519 187.266C106.54 193.293 102.023 199.374 96.4853 203.921C83.8765 214.226 70.6762 223.832 57.3953 233.303C46.3189 241.187 35.377 249.286 27.2041 260.183C22.1229 266.963 18.2247 274.685 14.4609 282.327C13.493 284.318 14.9448 287.493 15.2943 290.13C17.7945 289.43 20.4292 289 22.7413 287.896C24.4081 287.116 25.7523 285.502 27.0697 284.103C33.8445 276.892 40.5388 269.627 47.2868 262.389C61.8312 246.783 77.1285 232.065 96.0014 221.652C105.841 216.244 116.138 212.181 127.617 211.832C140.576 211.455 151.948 216.137 162.917 222.298C168.912 225.662 174.665 229.402 180.768 232.55C185.473 234.998 187.946 233.599 187.785 228.379C187.435 217.401 185.58 206.585 181.198 196.414C178.886 191.006 175.203 189.553 169.073 190.441C165.901 190.898 162.702 191.248 159.502 191.652L159.583 191.679ZM224.966 122.421C223.998 121.183 223.434 119.757 222.439 119.3C219.535 117.981 216.524 116.825 213.46 116.017C204.399 113.65 195.286 112.762 186.387 116.636C179.72 119.569 179.263 122.233 184.075 127.56C188.807 132.807 193.511 138.108 198.028 143.543C200.071 145.991 201.738 146.825 204.292 144.269C210.341 138.188 216.524 132.269 222.573 126.188C223.568 125.192 224.133 123.766 224.966 122.421ZM185.07 175.05C184.182 171.983 183.94 170.019 183.107 168.351C175.794 153.552 155.604 148.601 142.296 158.234C133.183 164.826 133.478 173.947 142.969 180.055C148.13 183.364 148.776 183.095 150.254 177.041C152.109 169.481 159.153 165.149 165.847 168.431C168.912 169.938 171.09 173.651 173.214 176.692C174.907 179.14 176.735 181.831 179.693 180.566C181.978 179.598 183.483 176.772 185.043 175.05H185.07ZM251.689 152.503C238.973 155.005 226.66 158.691 217.815 168.916C215.879 171.149 214.858 175.266 215.288 178.252C216.202 184.871 225.154 190.226 231.418 188.719C238.059 187.131 241.258 180.916 239.027 172.979C237.871 168.808 238.623 165.31 241.339 162.243C244.457 158.691 248.517 157.884 253.033 159.014C255.561 159.633 258.357 159.525 258.303 156.458C258.303 155.113 255.319 153.767 253.598 152.583C253.168 152.287 252.334 152.53 251.689 152.53V152.503ZM235.048 128.663C228.918 129.282 224.186 132.753 220.342 137.569C219.831 138.215 220.046 139.991 220.584 140.852C225.396 148.763 224.106 151.534 215.073 152.583C213.97 152.718 212.976 153.633 211.927 154.171C212.572 155.409 212.922 157.238 213.943 157.749C215.288 158.422 217.304 158.557 218.756 158.045C223.192 156.539 227.628 154.897 231.768 152.799C236.5 150.377 241.204 147.74 245.425 144.538C249.377 141.552 249.861 138.081 247.468 135.094C244.404 131.273 240.371 129.013 235.075 128.69L235.048 128.663ZM162.03 140.852C166.6 140.179 170.176 138.646 173.052 139.507C177.488 140.798 176.332 144.915 175.848 148.709C175.337 152.799 178.456 154.574 182.247 155.22C188.108 156.216 191.844 155.22 192.893 151.938C193.189 150.969 193.189 149.812 193 148.79C191.549 140.529 180.929 129.874 172.649 128.206C168.966 127.48 165.713 128.287 163.401 131.246C160.874 134.502 159.933 138.108 162.003 140.825L162.03 140.852ZM33.2262 73.7471C38.1998 73.8816 42.2325 70.4645 41.5066 66.2402C40.0548 57.7915 36.3179 50.2846 28.7634 45.6297C23.8166 42.5893 18.1709 46.0872 17.7945 51.9259C17.3913 58.1144 25.6448 71.2179 31.3174 73.3166C32.097 73.6126 32.9574 73.6933 33.2262 73.774V73.7471Z" fill="#FF2A2A"/>
</svg>
