<svg width="180" height="131" viewBox="0 0 180 131" fill="none" xmlns="http://www.w3.org/2000/svg">
    <path
        d="M0 79.0301C0.2 66.2601 3.17 55.5901 9.65 45.9701C11.78 42.8101 14.37 40.0601 17.8 38.3701C22.85 35.8801 26.03 31.7601 28.77 27.0401C30.36 24.3101 32.27 21.7001 34.41 19.3701C39.39 13.9701 45.88 11.5001 53.01 10.4401C57.1 9.83006 61.08 9.89007 65.07 11.2101C66.05 11.5301 67.45 11.0701 68.49 10.6101C70.67 9.65006 72.75 8.46006 74.86 7.33006C78.1 5.59007 81.36 3.78006 85.13 3.68006C87.41 3.62006 89.72 3.93006 91.99 4.27006C93.95 4.57007 95.85 5.32007 97.82 5.53007C99.01 5.66007 100.35 5.34007 101.49 4.88006C111.68 0.830065 122.2 -0.939935 133.13 0.490065C144.82 2.01006 155.13 6.74006 164.22 14.2301C166.61 16.2001 169.21 17.9101 171.66 19.8001C173.61 21.3101 175.67 22.7401 177.36 24.5101C179.53 26.7801 179.63 29.1901 177.68 31.6501C175.84 33.9501 173.67 35.9801 171.62 38.1101C168.66 41.1901 166.6 44.6401 166.32 49.0601C166.15 51.6801 165.74 54.3101 165.13 56.8601C164.09 61.1901 163.07 65.5601 161.55 69.7401C159.51 75.3601 159.49 80.9601 160.41 86.7201C161.44 93.1701 162.49 99.6401 163.19 106.13C163.7 110.87 163.14 115.65 160.45 119.73C156.36 125.93 150.44 129.52 143.03 130.23C139.88 130.54 136.84 129.49 134.18 127.74C131.45 125.94 128.83 123.98 126.2 122.03C119.37 116.98 115.8 117.19 109.51 122.81C107.62 124.5 105.55 126.08 103.34 127.3C99.25 129.56 95.57 129.01 92.08 125.9C90.11 124.15 88.28 122.25 86.35 120.45C83.02 117.37 79.35 116.84 75.09 118.53C67.02 121.73 58.92 124.86 50.72 127.67C44.42 129.83 37.84 130.83 31.15 129.9C24.36 128.95 18.59 126.3 14.44 120.4C7.25 110.16 2.41 99.0301 0.65 86.6301C0.24 83.7101 0.14 80.7501 0 79.0301ZM151.1 30.7901C151.26 31.0201 151.41 31.2501 151.57 31.4801C149.59 33.0301 147.6 34.5801 145.62 36.1401C140.18 40.4501 134.68 44.7001 129.34 49.1401C127.84 50.3801 126.6 52.0501 125.57 53.7301C124.4 55.6201 125.05 57.1001 127.1 57.9201C127.76 58.1801 128.48 58.4101 129.18 58.4401C132.04 58.5601 134.91 58.6701 137.77 58.6301C139.76 58.6001 141.74 58.2601 143.73 58.1601C144.19 58.1401 144.68 58.5401 145.15 58.7501C144.86 59.1601 144.67 59.7201 144.28 59.9601C143.34 60.5501 142.27 60.9301 141.32 61.5101C138.73 63.0801 136.03 64.5201 133.65 66.3701C131.85 67.7601 130.22 69.5301 128.97 71.4201C126.79 74.7101 127.07 77.9201 129.67 80.9001C131.13 82.5701 132.79 84.1701 134.66 85.3301C142.79 90.3501 147.1 98.1701 150.53 106.63C150.92 107.6 151.8 109.13 150.04 109.67C148.3 110.21 148.22 108.46 147.88 107.44C146.26 102.64 144.16 98.0701 141.06 94.0801C139.42 91.9601 137.49 89.9501 135.33 88.3801C132.38 86.2401 129.78 87.0801 127.98 90.2901C127.59 90.9801 127.22 91.7201 127.08 92.4901C126.5 95.6201 125.78 98.7401 125.54 101.9C125.02 108.71 126.31 115.11 130.73 120.58C134.49 125.22 139.38 127.62 145.28 126.43C151.26 125.23 156.11 122.06 158.08 115.84C158.72 113.81 159.24 111.62 159.18 109.52C159.03 104.91 158.64 100.29 158.04 95.7101C157.28 89.8301 156.5 83.9601 157.78 78.0901C159.03 72.3301 160.44 66.6101 161.88 60.8901C163.44 54.6801 164.77 48.4601 164.47 41.9901C164.36 39.7001 163.74 37.8401 161.57 36.6401C159.24 35.3601 158.48 33.0901 158.32 30.5901C158.24 29.3201 158.35 28.0301 158.27 26.7501C157.71 18.5301 153.57 13.9901 144.01 14.5601C137.57 14.9401 131.52 17.0001 125.42 18.8601C122.07 19.8801 118.68 20.7601 115.29 21.6401C113.79 22.0301 112.7 21.5801 111.57 20.3001C107.65 15.8601 103.37 11.8001 98.11 8.89007C89.99 4.40007 82.28 5.19007 75.84 11.8101C72.47 15.2701 69.71 19.3401 66.75 23.1901C64.13 26.6001 61.65 30.1301 59.03 33.5501C58 34.9001 56.82 35.3001 54.9 34.7401C49.38 33.1301 43.74 32.7601 38.2 34.8601C33.7 36.5701 31.88 39.9201 32.51 44.6501C32.75 46.4501 32.78 48.3201 32.57 50.1201C31.84 56.2901 26.02 60.4501 19.96 58.9501C18.04 58.4701 16.31 57.1201 14.56 56.0601C10.41 53.5601 7.37 54.5101 6.22 59.2101C5.38 62.6601 4.91 66.3001 4.97 69.8501C5.1 77.2701 5.98 84.6601 7.67 91.9101C9.17 98.3401 10.61 104.8 12.53 111.12C13.98 115.89 16.58 120.21 20.54 123.39C22.29 124.79 24.46 126.33 26.55 126.51C35.33 127.28 44.1 126.75 52.69 124.57C57.36 123.38 61.82 121.62 65.37 118.17C69.71 113.95 69.96 108.06 65.95 104.12C64.21 102.41 62.14 101.25 59.75 100.69C54.01 99.3501 49.04 101.19 44.47 104.47C39.21 108.24 35.66 113.42 32.64 119.03C32.38 119.52 32.24 120.17 31.84 120.48C31.29 120.91 30.5 121.42 29.9 121.33C28.85 121.16 28.71 120.18 28.95 119.23C29.11 118.61 29.32 118.01 29.53 117.41C31.28 112.47 34.12 108.21 38.3 105.1C41.87 102.44 45.78 100.25 49.53 97.8301C51.54 96.5301 53.63 95.3301 55.48 93.8301C57.21 92.4301 57.42 90.4801 56.45 88.6301C55.51 86.8501 53.69 85.9801 51.61 86.3901C49.03 86.9001 46.48 87.5601 43.89 87.9701C39.72 88.6301 35.53 89.1701 31.34 89.7101C30.49 89.8201 29.48 89.9101 29.31 88.6401C29.14 87.3701 30 87.0101 31.02 86.7801C32.42 86.4801 33.83 86.1901 35.21 85.7901C40.63 84.2001 46.08 82.6901 51.44 80.9101C54.52 79.8901 55.78 77.5701 55.3 74.8401C54.89 72.4801 52.96 71.0301 49.8 70.8001C48.53 70.7101 47.25 70.8001 45.97 70.8201C41.58 70.8601 37.19 71.1001 32.82 70.8801C30.23 70.7401 27.67 69.9001 25.11 69.3001C24.28 69.1001 23.24 68.8101 23.6 67.5901C23.91 66.5301 24.8 66.8201 25.59 67.0001C26.13 67.1301 26.69 67.1701 27.24 67.2801C34.38 68.6301 41.53 68.7801 48.62 67.0801C55.34 65.4701 61.32 62.4001 65.11 56.4401C69.24 49.9501 71.64 42.9801 68.4 35.2301C68.1 34.5001 67.91 33.7101 67.76 32.9301C66.69 27.1701 69.75 22.2801 75.31 21.2501C77.31 20.8801 79.51 20.8401 81.49 21.2301C85.07 21.9401 88.45 21.6301 91.8 20.3401C93.59 19.6501 95.34 18.8801 97.14 18.2501C100.74 16.9901 103.95 17.8001 106.61 20.4501C108.19 22.0201 109.75 23.6801 110.93 25.5501C113.31 29.3201 115.49 33.2301 117.61 37.1501C119.04 39.8001 121.13 41.3701 124.11 41.1901C126.79 41.0301 129.53 40.7101 132.1 39.9601C138.02 38.2301 143.43 35.2901 148.71 32.1501C149.49 31.6801 150.3 31.2601 151.1 30.8101V30.7901ZM90.32 75.4201C97.65 74.8901 104.25 73.2901 110.03 69.2401C113.13 67.0701 115.49 64.2701 116.03 60.3901C116.51 56.9101 115.66 53.5801 114.28 50.3901C113.36 48.2601 111.57 46.9501 109.4 46.5301C107.4 46.1501 105.26 45.9401 103.26 46.2301C95.31 47.3801 88.42 50.9901 82.49 56.2801C80.27 58.2601 78.3 60.7001 76.84 63.2901C74.72 67.0601 75.82 70.2301 79.52 72.4301C82.95 74.4801 86.77 75.1801 90.31 75.4101L90.32 75.4201ZM61.83 81.7601C61.83 81.7601 61.74 81.7601 61.69 81.7601C61.63 82.8701 61.42 84.0001 61.54 85.0901C62.32 91.7201 63.96 98.1301 67.71 103.73C69.23 106 71.34 107.96 73.47 109.7C75.59 111.43 76.93 110.79 77.37 108.02C77.64 106.31 77.7 104.5 77.45 102.8C76.41 95.6301 75.17 88.4901 74.11 81.3201C73.51 77.2301 72.98 73.1101 72.69 68.9901C72.41 64.9501 72.55 60.8901 72.38 56.8501C72.33 55.6001 71.95 54.3401 71.54 53.1401C70.91 51.3401 70.32 51.2601 69.17 52.6801C68.87 53.0501 68.61 53.4601 68.34 53.8501C66.74 56.1501 66.11 58.8801 64.98 61.3601C63.21 65.2601 62.02 69.2101 61.85 73.4601C61.74 76.2301 61.83 79.0001 61.83 81.7701V81.7601ZM97.06 89.7001C103.86 89.4301 110.02 86.3701 114.76 80.5301C115.55 79.5601 116.17 78.3901 116.63 77.2201C117.97 73.8401 116.38 71.7201 112.74 71.9101C112.19 71.9401 111.6 71.9801 111.09 72.1601C108.02 73.2501 104.9 74.2101 101.94 75.5301C97.92 77.3201 93.78 78.4601 89.42 77.9701C86.44 77.6401 83.52 76.7401 80.6 75.9601C78.3 75.3501 76.74 76.4601 77.06 78.8301C77.19 79.8001 77.57 80.9701 78.24 81.6101C83.31 86.4101 89.12 89.6401 97.06 89.7101V89.7001ZM44.72 32.6701C48.54 32.8301 52.2 32.1201 55.69 30.5901C58.99 29.1401 61.78 27.0501 63.28 23.6401C64.93 19.9001 63.47 16.6801 59.58 15.5701C58.31 15.2101 56.89 15.0501 55.57 15.1801C47.9 15.9301 41.02 18.6501 35.33 23.9501C33.23 25.9101 31.18 28.0501 30.59 31.0001C30.38 32.0401 30.92 33.2301 31.12 34.3601C32.01 34.2001 32.97 34.2101 33.76 33.8501C35.73 32.9401 37.66 32.0701 39.93 32.3601C41.51 32.5601 43.11 32.5801 44.71 32.6701H44.72ZM124.37 84.5701C123.52 76.3601 122.85 67.7701 121.69 59.2401C120.7 51.9801 119.22 44.7701 116.56 37.9001C115.77 35.8501 114.68 33.8501 113.39 32.0701C112.2 30.4301 110.67 30.7501 109.53 32.4301C108.91 33.3401 109.35 34.0301 109.71 34.8401C111.85 39.7301 114.35 44.5001 115.98 49.5501C119.66 60.9501 119.24 72.6901 117.75 84.4001C117.04 90.0101 116.06 95.6001 115.14 101.18C114.76 103.5 115.23 105.64 116.35 107.63C116.7 108.25 117.45 108.64 118.01 109.14C118.45 108.61 119 108.13 119.32 107.53C119.79 106.63 120.09 105.63 120.48 104.68C121.26 102.79 122.46 100.96 122.78 98.9901C123.52 94.3601 123.84 89.6601 124.38 84.5401L124.37 84.5701ZM75.2 52.4501C75.15 53.2501 75.12 53.4801 75.12 53.7201C75.12 57.2101 76.83 58.3201 79.76 56.5101C81.85 55.2201 83.71 53.5501 85.72 52.0901C87.07 51.1101 88.37 49.9101 89.89 49.3501C94.52 47.6501 99.23 46.1501 103.94 44.6801C106.47 43.8901 108.2 42.0601 108.51 39.4501C108.66 38.2101 108.68 36.8001 107.44 36.3101C106.56 35.9601 105.07 36.0401 104.36 36.5801C101.22 39.0101 97.84 38.6201 94.3 38.0301C92.44 37.7201 90.38 37.4101 88.62 37.8701C80.27 40.0501 75.66 44.2701 75.21 52.4401L75.2 52.4501ZM123.22 4.71006C122.58 4.71006 121.94 4.67006 121.3 4.71006C118.16 4.93006 115.11 5.49007 112.46 7.32007C110.19 8.89007 109.19 11.4001 109.9 14.0401C110.56 16.5301 112.11 18.4201 114.78 18.6801C116.72 18.8701 118.8 18.8001 120.66 18.2901C126.1 16.7801 131.48 15.0301 136.85 13.2801C138.13 12.8601 140.02 12.7901 140.09 10.9701C140.15 9.32007 138.53 8.67006 137.28 8.01007C132.88 5.71006 128.12 4.88006 123.2 4.71006H123.22ZM95.4 98.4601C100.4 98.3001 104.95 96.6801 109.04 93.9101C112.14 91.8101 114.44 88.9501 115.74 85.4101C115.97 84.7901 115.63 83.6301 115.13 83.1401C114.39 82.4101 113.79 83.1701 113.24 83.8401C107.85 90.5101 100.69 92.2101 92.64 90.7601C90.03 90.2901 87.6 88.8701 85.05 88.0001C83.11 87.3301 81.14 86.6001 79.13 86.3401C77.17 86.0901 76.25 87.5001 77.19 89.2301C78.01 90.7401 79.08 92.2301 80.38 93.3301C84.68 96.9901 89.77 98.5901 95.4 98.4601ZM30.72 48.1101C30.71 43.8101 26.72 40.2601 21.86 40.2101C16.88 40.1601 14.23 43.5101 14.33 49.7101C14.39 53.2901 18.31 56.4701 22.59 56.4301C27.09 56.3801 30.74 52.6501 30.72 48.1101ZM108.86 115.08C108.86 111.95 106.69 109.98 103.48 110.7C99.8 111.53 96.21 112.79 92.59 113.86C92.52 113.88 92.46 113.95 92.39 113.98C90.28 115.06 89.58 116.62 90.16 118.92C91.11 122.6 96.51 125.97 100.26 125.42C104.77 124.76 108.77 118.83 108.86 115.08ZM176.9 27.6401C176.83 23.6501 172.64 20.0601 168.14 20.1601C164.17 20.2401 160.63 23.9401 160.79 27.8401C160.95 31.7901 165.7 36.3901 169.53 36.3001C173.33 36.2101 176.97 31.9401 176.89 27.6401H176.9ZM106.35 107.36C104.86 107.03 103.9 106.79 102.93 106.61C100.82 106.23 98.63 106.13 96.63 105.46C94.39 104.71 92.3 103.47 90.17 102.39C88.54 101.56 86.99 100.54 85.32 99.8201C83.63 99.0901 82.18 99.5301 81.62 100.93C79.71 105.69 80.43 110.41 86.4 111.69C92.66 113.03 98.59 111.61 104.29 109C104.9 108.72 105.37 108.15 106.36 107.36H106.35ZM102.95 105.37C105.2 105 107.29 104.88 109.24 104.28C113.55 102.95 114.5 100.2 112.38 96.1901C111.69 94.8901 111.16 94.6101 109.67 95.2901C106.22 96.8601 102.62 98.1201 99.07 99.4601C98.11 99.8201 97 99.8301 96.11 100.3C95.33 100.71 94.76 101.53 94.1 102.17C94.77 102.78 95.35 103.72 96.13 103.95C98.4 104.59 100.75 104.95 102.94 105.39L102.95 105.37ZM77.12 24.6701C74.5 24.7101 72.84 26.4601 72.92 29.1301C73.01 32.3901 75.46 35.2401 78.19 35.2501C81.11 35.2501 83.55 32.9001 83.45 30.1601C83.34 26.9601 80.65 24.6201 77.12 24.6701ZM99.66 22.4301C96.35 22.4801 93.52 25.0801 93.62 27.9701C93.72 30.6901 96.26 33.1401 98.97 33.1001C101.52 33.0701 103.97 29.9701 103.98 26.7601C103.98 24.0701 102.31 22.3901 99.66 22.4301ZM88.16 27.8201C89.09 30.1101 89.59 32.3701 90.81 34.1401C92.4 36.4601 94.91 37.7101 97.84 37.4201C98.51 37.3501 99.54 36.5301 99.61 35.9601C99.68 35.3801 98.87 34.2201 98.29 34.1001C94.55 33.3301 92.88 30.7401 91.9 27.4101C91.63 26.4901 91.27 25.2701 90.12 25.6001C89.39 25.8101 88.92 26.9201 88.15 27.8401L88.16 27.8201ZM86.03 28.9801C85.73 29.5601 85.38 29.9501 85.35 30.3601C85.16 32.7501 83.79 34.2901 81.88 35.5101C81.41 35.8101 80.87 36.1501 80.64 36.6101C80.36 37.1601 80.14 37.9501 80.33 38.4801C80.45 38.8101 81.41 39.0801 81.93 38.9901C85.58 38.3501 88.26 33.4301 86.88 30.0101C86.75 29.6801 86.41 29.4401 86.03 29.0001V28.9801ZM72.03 25.0201C71.38 25.4701 70.89 25.7301 70.48 26.0901C68.74 27.6501 68.41 31.5101 69.85 33.8701C70.11 34.3001 70.63 34.5701 71.03 34.9201C71.34 34.4301 71.86 33.9701 71.93 33.4501C72.25 31.0301 72.46 28.6001 72.64 26.1601C72.66 25.8401 72.29 25.4901 72.03 25.0301V25.0201Z"
        fill="#b8b399" />
</svg>