<svg width="890" height="168" viewBox="0 0 890 168" fill="none" xmlns="http://www.w3.org/2000/svg">
<path d="M49.1766 146C39.7099 146 31.3099 143.667 23.9766 139C16.6432 134.333 10.9766 128 6.97656 120C2.97656 111.867 0.976563 103 0.976563 93.4C0.976563 83.1333 3.17656 74.1333 7.57656 66.4C12.1099 58.5333 18.1766 52.5333 25.7766 48.4C33.3766 44.1333 41.6432 42 50.5766 42C57.7766 42 63.9099 43.2 68.9766 45.6C74.1766 47.8667 79.3766 51 84.5766 55V80H81.7766C81.2432 74 79.3766 68.3333 76.1766 63C72.9766 57.6667 68.7099 53.4 63.3766 50.2C58.0432 47 52.1766 45.4 45.7766 45.4C39.6432 45.4 33.9099 46.9333 28.5766 50C23.3766 52.9333 19.1099 57.4667 15.7766 63.6C12.5766 69.6 10.9766 77.0667 10.9766 86C10.9766 95.2 12.7099 103.733 16.1766 111.6C19.6432 119.333 24.5766 125.6 30.9766 130.4C37.5099 135.067 44.9766 137.4 53.3766 137.4C63.1099 137.4 71.0432 134.533 77.1766 128.8C83.3099 122.933 87.5099 116.067 89.7766 108.2L92.5766 108.8C90.1766 119.867 85.2432 128.867 77.7766 135.8C70.3099 142.6 60.7766 146 49.1766 146ZM206.163 144H186.163V141.2C191.629 140.667 196.029 138.933 199.363 136C202.829 133.067 204.696 129.133 204.963 124.2L207.563 71.8L204.963 23.8C204.829 18.8667 203.029 14.9333 199.563 12C196.096 9.06666 191.629 7.33332 186.163 6.79999V3.99999H206.163H215.763H232.163V6.79999C227.629 7.33332 223.963 9.06666 221.163 12C218.496 14.8 217.096 18.7333 216.963 23.8L214.963 60.2C214.829 64.0667 214.629 68 214.363 72C215.296 89.3333 216.163 106.733 216.963 124.2C217.229 129.267 218.696 133.267 221.363 136.2C224.029 139 227.629 140.667 232.163 141.2V144H215.763H206.163ZM119.962 144H103.563V141.2C108.096 140.667 111.696 139 114.363 136.2C117.163 133.267 118.629 129.267 118.763 124.2C119.163 116.733 119.563 109.267 119.962 101.8C120.496 92.4667 120.963 83.2 121.363 74C120.963 65.3333 120.563 56.7333 120.163 48.2C119.763 43.2667 119.296 35.1333 118.763 23.8C118.629 18.7333 117.163 14.8 114.363 12C111.696 9.06666 108.096 7.33332 103.563 6.79999V3.99999H119.962H129.563H149.563V6.79999C144.096 7.33332 139.629 9.06666 136.163 12C132.829 14.9333 131.029 18.8667 130.763 23.8L128.163 74L130.763 124.2C131.029 129.133 132.829 133.067 136.163 136C139.629 138.933 144.096 140.667 149.563 141.2V144H129.563H119.962ZM126.563 72.6L209.763 68.6V75.4H126.563V72.6ZM319.127 146C313.393 146 308.26 144.8 303.727 142.4C299.193 139.867 295.66 136.533 293.127 132.4C290.727 128.267 289.527 123.933 289.527 119.4C289.527 113.133 291.86 107.333 296.527 102C301.193 96.6667 308.26 92.7333 317.727 90.2L345.927 82.6C354.327 80.3333 360.927 77.4667 365.727 74C370.527 70.5333 373.86 66.8667 375.727 63C377.593 59 378.527 54.7333 378.527 50.2C378.527 43.5333 376.593 37.8667 372.727 33.2C368.86 28.4 363.66 24.8 357.127 22.4C350.727 19.8667 343.727 18.6 336.127 18.6C319.327 18.6 305.393 22 294.327 28.8C283.393 35.4667 275.327 44.2667 270.127 55.2C265.06 66 262.527 77.6 262.527 90C262.527 99.3333 263.527 108.667 265.527 118C267.527 127.2 270.527 135.867 274.527 144H261.327C254.26 128 250.727 111.6 250.727 94.8C250.727 80.6667 253.993 67.4667 260.527 55.2C267.193 42.8 277.26 32.8 290.727 25.2C304.193 17.6 320.727 13.8 340.327 13.8C355.527 13.8 367.393 16.8667 375.927 23C384.46 29.1333 388.727 37.3333 388.727 47.6C388.727 53.8667 387.393 59.4 384.727 64.2C382.193 68.8667 377.993 73 372.127 76.6C366.26 80.2 358.327 83.2667 348.327 85.8L323.927 92.2C316.593 94.2 311.06 97.3333 307.327 101.6C303.593 105.867 301.727 110.6 301.727 115.8C301.727 119.533 302.727 123.133 304.727 126.6C306.727 130.067 309.527 132.867 313.127 135C316.86 137 321.06 138 325.727 138C330.26 138 334.793 137.067 339.327 135.2C343.86 133.333 347.46 130.867 350.127 127.8C352.793 124.733 353.86 121.533 353.327 118.2L347.127 84.2L342.327 69.6C340.46 64.1333 338.06 60.2667 335.127 58C332.193 55.7333 327.86 54.6 322.127 54.6C318.527 54.6 314.127 55 308.927 55.8L308.327 52.8L345.727 45.6L351.927 80.6L363.727 124.8C365.06 129.6 367.46 133.4 370.927 136.2C374.393 139 378.46 140.667 383.127 141.2V144H366.727H358.127L355.727 128.2C353.86 131.267 350.927 134.2 346.927 137C343.06 139.667 338.66 141.867 333.727 143.6C328.793 145.2 323.927 146 319.127 146ZM424.598 144H408.198V141.2C412.732 140.667 416.332 139 418.998 136.2C421.665 133.267 423.132 129.267 423.398 124.2C424.198 108.733 424.932 93.2667 425.598 77.8C425.465 73.6667 425.065 66.5333 424.398 56.4C423.732 46.1333 422.998 35 422.198 23C421.798 18.0667 420.065 14.4667 416.998 12.2C413.932 9.93332 409.998 9.13333 405.198 9.8L404.398 7.2L422.998 2.6L433.998 -5.72205e-06C433.598 18.1333 433.132 36.3333 432.598 54.6C432.465 62.3333 432.265 70.0667 431.998 77.8C432.798 93.2667 433.532 108.733 434.198 124.2C434.465 129.267 435.932 133.267 438.598 136.2C441.265 139 444.865 140.667 449.398 141.2V144H432.998H424.598ZM484.347 77.2L538.547 31.2C543.48 27.0667 546.614 23.2 547.947 19.6C549.414 16 548.947 13.0667 546.547 10.8C544.28 8.4 540.214 7.06666 534.347 6.79999V3.99999H583.147V6.79999C579.414 7.73333 576.08 9.06666 573.147 10.8C570.214 12.5333 566.48 15.2 561.947 18.8C560.747 19.7333 559.48 20.7333 558.147 21.8L484.147 81.6L484.347 77.2ZM478.947 144H462.547V141.2C467.08 140.667 470.68 139 473.347 136.2C476.147 133.267 477.614 129.267 477.747 124.2C478.28 115 478.814 105.8 479.347 96.6C479.747 90.2 480.08 83.8 480.347 77.4C479.547 59.5333 478.68 41.6667 477.747 23.8C477.48 18.7333 476.014 14.8 473.347 12C470.68 9.06666 467.08 7.33332 462.547 6.79999V3.99999H478.947H488.547H508.547V6.79999C503.08 7.33332 498.614 9.06666 495.147 12C491.814 14.9333 490.014 18.8667 489.747 23.8L487.147 77.4L489.747 124.2C489.88 129.133 491.68 133.067 495.147 136C498.614 138.933 503.08 140.667 508.547 141.2V144H488.547H478.947ZM504.347 63.6L509.147 61.4L548.347 113.8C555.547 123.267 562.214 129.867 568.347 133.6C574.48 137.333 580.347 139.867 585.947 141.2V144H553.947L504.347 63.6ZM606.205 67.6C604.071 67.6 602.271 66.8667 600.805 65.4C599.338 63.9333 598.605 62.1333 598.605 60C598.605 57.8667 599.338 56.0667 600.805 54.6C602.271 53.1333 604.071 52.4 606.205 52.4C608.338 52.4 610.138 53.1333 611.605 54.6C613.071 56.0667 613.805 57.8667 613.805 60C613.805 62.1333 613.071 63.9333 611.605 65.4C610.138 66.8667 608.338 67.6 606.205 67.6ZM599.805 166.6L605.005 144.8C606.605 138.133 606.671 133.667 605.205 131.4C603.738 129.133 601.271 128 597.805 128V118.2H619.805L602.605 167.2L599.805 166.6ZM631.789 3.99999H647.389L640.989 110.6H638.189L631.789 3.99999ZM639.589 145.6C637.456 145.6 635.656 144.867 634.189 143.4C632.722 141.933 631.989 140.133 631.989 138C631.989 135.867 632.722 134.067 634.189 132.6C635.656 131.133 637.456 130.4 639.589 130.4C641.722 130.4 643.522 131.133 644.989 132.6C646.456 134.067 647.189 135.867 647.189 138C647.189 140.133 646.456 141.933 644.989 143.4C643.522 144.867 641.722 145.6 639.589 145.6ZM666.928 145.6C664.795 145.6 662.995 144.867 661.528 143.4C660.061 141.933 659.328 140.133 659.328 138C659.328 135.867 660.061 134.067 661.528 132.6C662.995 131.133 664.795 130.4 666.928 130.4C669.061 130.4 670.861 131.133 672.328 132.6C673.795 134.067 674.528 135.867 674.528 138C674.528 140.133 673.795 141.933 672.328 143.4C670.861 144.867 669.061 145.6 666.928 145.6ZM718.877 114.4C712.343 114.4 706.743 113.2 702.077 110.8C697.543 108.4 694.077 105.267 691.677 101.4C689.41 97.5333 688.277 93.4667 688.277 89.2C688.277 84.1333 689.61 79.8 692.277 76.2C695.077 72.4667 698.41 69.4 702.277 67C706.277 64.4667 711.61 61.5333 718.277 58.2C724.943 55 730.277 52.1333 734.277 49.6C738.277 47.0667 741.61 43.9333 744.277 40.2C747.077 36.4667 748.477 32.0667 748.477 27C748.477 20.7333 746.21 15.6 741.677 11.6C737.277 7.59999 731.277 5.59999 723.677 5.59999C716.61 5.59999 710.477 7.33333 705.277 10.8C700.077 14.2667 695.943 18.8667 692.877 24.6C689.943 30.2 688.077 36.3333 687.277 43H684.477V13.8C688.477 10.8667 693.61 8.19999 699.877 5.79999C706.143 3.26666 713.343 1.99999 721.477 1.99999C729.877 1.99999 736.743 3.39999 742.077 6.2C747.41 8.99999 751.21 12.5333 753.477 16.8C755.877 21.0667 757.077 25.4 757.077 29.8C757.077 36.2 755.543 41.6 752.477 46C749.543 50.4 745.943 53.9333 741.677 56.6C737.543 59.2667 731.943 62.2 724.877 65.4C719.01 68.0667 714.277 70.4667 710.677 72.6C707.21 74.6 704.277 77.2 701.877 80.4C699.61 83.4667 698.477 87.2 698.477 91.6C698.477 96.9333 700.543 101.6 704.677 105.6C708.81 109.467 714.077 111.4 720.477 111.4C725.81 111.4 730.143 110.2 733.477 107.8C736.81 105.267 739.21 101.533 740.677 96.6C742.277 91.6667 743.01 85.3333 742.877 77.6L745.677 77.4L749.277 104.4C745.277 107.333 740.343 109.733 734.477 111.6C728.61 113.467 723.41 114.4 718.877 114.4ZM719.677 144.6C717.543 144.6 715.743 143.867 714.277 142.4C712.81 140.933 712.077 139.133 712.077 137C712.077 134.867 712.81 133.067 714.277 131.6C715.743 130.133 717.543 129.4 719.677 129.4C721.81 129.4 723.61 130.133 725.077 131.6C726.543 133.067 727.277 134.867 727.277 137C727.277 139.133 726.543 140.933 725.077 142.4C723.61 143.867 721.81 144.6 719.677 144.6ZM780.647 6.59999V3.99999H862.247L867.247 38.8L864.447 39.4C862.314 32.6 860.047 27.3333 857.647 23.6C855.247 19.8667 852.247 17.2 848.647 15.6C845.18 14 840.647 13.2 835.047 13.2H784.847L784.647 6.2L879.447 144H867.047L780.647 6.59999ZM823.247 146C812.714 146 803.314 144.067 795.047 140.2C786.914 136.333 780.514 130.867 775.847 123.8C771.314 116.6 769.047 108.333 769.047 99C769.047 90.2 770.98 82.3333 774.847 75.4C778.714 68.4667 783.514 62.7333 789.247 58.2C794.98 53.5333 801.047 49.8 807.447 47L809.447 49.8C800.914 54.2 793.98 60.0667 788.647 67.4C783.314 74.7333 780.647 84.0667 780.647 95.4C780.647 103.667 782.647 111 786.647 117.4C790.647 123.8 795.98 128.733 802.647 132.2C809.447 135.667 816.98 137.4 825.247 137.4C837.247 137.4 847.247 134.933 855.247 130C863.38 125.067 869.38 118.8 873.247 111.2C877.114 103.6 879.047 95.8 879.047 87.8C879.047 84.2 878.247 80.6 876.647 77C875.047 73.2667 872.314 70.2 868.447 67.8C864.714 65.2667 859.78 64 853.647 64V61.2L885.247 59.6C888.18 70.6667 887.647 83.0667 883.647 96.8C879.78 110.4 872.647 122 862.247 131.6C851.847 141.2 838.847 146 823.247 146Z" fill="#EEEEEE"/>
</svg>
