<svg width="904" height="168" viewBox="0 0 904 168" fill="none" xmlns="http://www.w3.org/2000/svg">
<path d="M48.9828 146C39.5161 146 31.1161 143.667 23.7828 139C16.4495 134.333 10.7828 128 6.78281 120C2.78281 111.867 0.782813 103 0.782813 93.4C0.782813 83.1333 2.98281 74.1333 7.38281 66.4C11.9161 58.5333 17.9828 52.5333 25.5828 48.4C33.1828 44.1333 41.4495 42 50.3828 42C57.5828 42 63.7161 43.2 68.7828 45.6C73.9828 47.8667 79.1828 51 84.3828 55V80H81.5828C81.0495 74 79.1828 68.3333 75.9828 63C72.7828 57.6667 68.5162 53.4 63.1828 50.2C57.8495 47 51.9828 45.4 45.5828 45.4C39.4495 45.4 33.7161 46.9333 28.3828 50C23.1828 52.9333 18.9161 57.4667 15.5828 63.6C12.3828 69.6 10.7828 77.0667 10.7828 86C10.7828 95.2 12.5161 103.733 15.9828 111.6C19.4495 119.333 24.3828 125.6 30.7828 130.4C37.3161 135.067 44.7828 137.4 53.1828 137.4C62.9161 137.4 70.8495 134.533 76.9828 128.8C83.1161 122.933 87.3162 116.067 89.5828 108.2L92.3828 108.8C89.9828 119.867 85.0495 128.867 77.5828 135.8C70.1161 142.6 60.5828 146 48.9828 146ZM206.959 144H186.959V141.2C192.426 140.667 196.826 138.933 200.159 136C203.626 133.067 205.493 129.133 205.759 124.2L208.359 71.8L205.759 23.8C205.626 18.8667 203.826 14.9333 200.359 12C196.893 9.06666 192.426 7.33332 186.959 6.79999V3.99999H206.959H216.559H232.959V6.79999C228.426 7.33332 224.759 9.06666 221.959 12C219.293 14.8 217.893 18.7333 217.759 23.8L215.759 60.2C215.626 64.0667 215.426 68 215.159 72C216.093 89.3333 216.959 106.733 217.759 124.2C218.026 129.267 219.493 133.267 222.159 136.2C224.826 139 228.426 140.667 232.959 141.2V144H216.559H206.959ZM120.759 144H104.359V141.2C108.893 140.667 112.493 139 115.159 136.2C117.959 133.267 119.426 129.267 119.559 124.2C119.959 116.733 120.359 109.267 120.759 101.8C121.293 92.4667 121.759 83.2 122.159 74C121.759 65.3333 121.359 56.7333 120.959 48.2C120.559 43.2667 120.093 35.1333 119.559 23.8C119.426 18.7333 117.959 14.8 115.159 12C112.493 9.06666 108.893 7.33332 104.359 6.79999V3.99999H120.759H130.359H150.359V6.79999C144.893 7.33332 140.426 9.06666 136.959 12C133.626 14.9333 131.826 18.8667 131.559 23.8L128.959 74L131.559 124.2C131.826 129.133 133.626 133.067 136.959 136C140.426 138.933 144.893 140.667 150.359 141.2V144H130.359H120.759ZM127.359 72.6L210.559 68.6V75.4H127.359V72.6ZM319.792 146C314.059 146 308.926 144.8 304.392 142.4C299.859 139.867 296.326 136.533 293.792 132.4C291.392 128.267 290.192 123.933 290.192 119.4C290.192 113.133 292.526 107.333 297.192 102C301.859 96.6667 308.926 92.7333 318.392 90.2L346.592 82.6C354.992 80.3333 361.592 77.4667 366.392 74C371.192 70.5333 374.526 66.8667 376.392 63C378.259 59 379.192 54.7333 379.192 50.2C379.192 43.5333 377.259 37.8667 373.392 33.2C369.526 28.4 364.326 24.8 357.792 22.4C351.392 19.8667 344.392 18.6 336.792 18.6C319.992 18.6 306.059 22 294.992 28.8C284.059 35.4667 275.992 44.2667 270.792 55.2C265.726 66 263.192 77.6 263.192 90C263.192 99.3333 264.192 108.667 266.192 118C268.192 127.2 271.192 135.867 275.192 144H261.992C254.926 128 251.392 111.6 251.392 94.8C251.392 80.6667 254.659 67.4667 261.192 55.2C267.859 42.8 277.926 32.8 291.392 25.2C304.859 17.6 321.392 13.8 340.992 13.8C356.192 13.8 368.059 16.8667 376.592 23C385.126 29.1333 389.392 37.3333 389.392 47.6C389.392 53.8667 388.059 59.4 385.392 64.2C382.859 68.8667 378.659 73 372.792 76.6C366.926 80.2 358.992 83.2667 348.992 85.8L324.592 92.2C317.259 94.2 311.726 97.3333 307.992 101.6C304.259 105.867 302.392 110.6 302.392 115.8C302.392 119.533 303.392 123.133 305.392 126.6C307.392 130.067 310.192 132.867 313.792 135C317.526 137 321.726 138 326.392 138C330.926 138 335.459 137.067 339.992 135.2C344.526 133.333 348.126 130.867 350.792 127.8C353.459 124.733 354.526 121.533 353.992 118.2L347.792 84.2L342.992 69.6C341.126 64.1333 338.726 60.2667 335.792 58C332.859 55.7333 328.526 54.6 322.792 54.6C319.192 54.6 314.792 55 309.592 55.8L308.992 52.8L346.392 45.6L352.592 80.6L364.392 124.8C365.726 129.6 368.126 133.4 371.592 136.2C375.059 139 379.126 140.667 383.792 141.2V144H367.392H358.792L356.392 128.2C354.526 131.267 351.592 134.2 347.592 137C343.726 139.667 339.326 141.867 334.392 143.6C329.459 145.2 324.592 146 319.792 146ZM414.55 144H398.15V141.2C402.683 140.667 406.283 139 408.95 136.2C411.617 133.267 413.083 129.267 413.35 124.2C414.15 108.733 414.883 93.2667 415.55 77.8C415.417 73.6667 415.017 66.5333 414.35 56.4C413.683 46.1333 412.95 35 412.15 23C411.75 18.0667 410.017 14.4667 406.95 12.2C403.883 9.93332 399.95 9.13333 395.15 9.8L394.35 7.2L412.95 2.6L423.95 -5.72205e-06C423.55 18.1333 423.083 36.3333 422.55 54.6C422.417 62.3333 422.217 70.0667 421.95 77.8C422.75 93.2667 423.483 108.733 424.15 124.2C424.417 129.267 425.883 133.267 428.55 136.2C431.217 139 434.817 140.667 439.35 141.2V144H422.95H414.55ZM471.602 77.2L525.802 31.2C530.735 27.0667 533.868 23.2 535.202 19.6C536.668 16 536.202 13.0667 533.802 10.8C531.535 8.4 527.468 7.06666 521.602 6.79999V3.99999H570.402V6.79999C566.668 7.73333 563.335 9.06666 560.402 10.8C557.468 12.5333 553.735 15.2 549.202 18.8C548.002 19.7333 546.735 20.7333 545.402 21.8L471.402 81.6L471.602 77.2ZM466.202 144H449.802V141.2C454.335 140.667 457.935 139 460.602 136.2C463.402 133.267 464.868 129.267 465.002 124.2C465.535 115 466.068 105.8 466.602 96.6C467.002 90.2 467.335 83.8 467.602 77.4C466.802 59.5333 465.935 41.6667 465.002 23.8C464.735 18.7333 463.268 14.8 460.602 12C457.935 9.06666 454.335 7.33332 449.802 6.79999V3.99999H466.202H475.802H495.802V6.79999C490.335 7.33332 485.868 9.06666 482.402 12C479.068 14.9333 477.268 18.8667 477.002 23.8L474.402 77.4L477.002 124.2C477.135 129.133 478.935 133.067 482.402 136C485.868 138.933 490.335 140.667 495.802 141.2V144H475.802H466.202ZM491.602 63.6L496.402 61.4L535.602 113.8C542.802 123.267 549.468 129.867 555.602 133.6C561.735 137.333 567.602 139.867 573.202 141.2V144H541.202L491.602 63.6ZM590.173 67.6C588.04 67.6 586.24 66.8667 584.773 65.4C583.307 63.9333 582.573 62.1333 582.573 60C582.573 57.8667 583.307 56.0667 584.773 54.6C586.24 53.1333 588.04 52.4 590.173 52.4C592.307 52.4 594.107 53.1333 595.573 54.6C597.04 56.0667 597.773 57.8667 597.773 60C597.773 62.1333 597.04 63.9333 595.573 65.4C594.107 66.8667 592.307 67.6 590.173 67.6ZM583.773 166.6L588.973 144.8C590.573 138.133 590.64 133.667 589.173 131.4C587.707 129.133 585.24 128 581.773 128V118.2H603.773L586.573 167.2L583.773 166.6ZM630.234 3.99999H645.834L639.434 110.6H636.634L630.234 3.99999ZM638.034 145.6C635.901 145.6 634.101 144.867 632.634 143.4C631.168 141.933 630.434 140.133 630.434 138C630.434 135.867 631.168 134.067 632.634 132.6C634.101 131.133 635.901 130.4 638.034 130.4C640.168 130.4 641.968 131.133 643.434 132.6C644.901 134.067 645.634 135.867 645.634 138C645.634 140.133 644.901 141.933 643.434 143.4C641.968 144.867 640.168 145.6 638.034 145.6ZM677.789 145.6C675.656 145.6 673.856 144.867 672.389 143.4C670.922 141.933 670.189 140.133 670.189 138C670.189 135.867 670.922 134.067 672.389 132.6C673.856 131.133 675.656 130.4 677.789 130.4C679.922 130.4 681.722 131.133 683.189 132.6C684.656 134.067 685.389 135.867 685.389 138C685.389 140.133 684.656 141.933 683.189 143.4C681.722 144.867 679.922 145.6 677.789 145.6ZM729.17 114.4C722.637 114.4 717.037 113.2 712.37 110.8C707.837 108.4 704.37 105.267 701.97 101.4C699.704 97.5333 698.57 93.4667 698.57 89.2C698.57 84.1333 699.904 79.8 702.57 76.2C705.37 72.4667 708.704 69.4 712.57 67C716.57 64.4667 721.904 61.5333 728.57 58.2C735.237 55 740.57 52.1333 744.57 49.6C748.57 47.0667 751.904 43.9333 754.57 40.2C757.37 36.4667 758.77 32.0667 758.77 27C758.77 20.7333 756.504 15.6 751.97 11.6C747.57 7.59999 741.57 5.59999 733.97 5.59999C726.904 5.59999 720.77 7.33333 715.57 10.8C710.37 14.2667 706.237 18.8667 703.17 24.6C700.237 30.2 698.37 36.3333 697.57 43H694.77V13.8C698.77 10.8667 703.904 8.19999 710.17 5.79999C716.437 3.26666 723.637 1.99999 731.77 1.99999C740.17 1.99999 747.037 3.39999 752.37 6.2C757.704 8.99999 761.504 12.5333 763.77 16.8C766.17 21.0667 767.37 25.4 767.37 29.8C767.37 36.2 765.837 41.6 762.77 46C759.837 50.4 756.237 53.9333 751.97 56.6C747.837 59.2667 742.237 62.2 735.17 65.4C729.304 68.0667 724.57 70.4667 720.97 72.6C717.504 74.6 714.57 77.2 712.17 80.4C709.904 83.4667 708.77 87.2 708.77 91.6C708.77 96.9333 710.837 101.6 714.97 105.6C719.104 109.467 724.37 111.4 730.77 111.4C736.104 111.4 740.437 110.2 743.77 107.8C747.104 105.267 749.504 101.533 750.97 96.6C752.57 91.6667 753.304 85.3333 753.17 77.6L755.97 77.4L759.57 104.4C755.57 107.333 750.637 109.733 744.77 111.6C738.904 113.467 733.704 114.4 729.17 114.4ZM729.97 144.6C727.837 144.6 726.037 143.867 724.57 142.4C723.104 140.933 722.37 139.133 722.37 137C722.37 134.867 723.104 133.067 724.57 131.6C726.037 130.133 727.837 129.4 729.97 129.4C732.104 129.4 733.904 130.133 735.37 131.6C736.837 133.067 737.57 134.867 737.57 137C737.57 139.133 736.837 140.933 735.37 142.4C733.904 143.867 732.104 144.6 729.97 144.6ZM794.223 6.59999V3.99999H875.823L880.823 38.8L878.023 39.4C875.89 32.6 873.623 27.3333 871.223 23.6C868.823 19.8667 865.823 17.2 862.223 15.6C858.757 14 854.223 13.2 848.623 13.2H798.423L798.223 6.2L893.023 144H880.623L794.223 6.59999ZM836.823 146C826.29 146 816.89 144.067 808.623 140.2C800.49 136.333 794.09 130.867 789.423 123.8C784.89 116.6 782.623 108.333 782.623 99C782.623 90.2 784.557 82.3333 788.423 75.4C792.29 68.4667 797.09 62.7333 802.823 58.2C808.557 53.5333 814.623 49.8 821.023 47L823.023 49.8C814.49 54.2 807.557 60.0667 802.223 67.4C796.89 74.7333 794.223 84.0667 794.223 95.4C794.223 103.667 796.223 111 800.223 117.4C804.223 123.8 809.557 128.733 816.223 132.2C823.023 135.667 830.557 137.4 838.823 137.4C850.823 137.4 860.823 134.933 868.823 130C876.957 125.067 882.957 118.8 886.823 111.2C890.69 103.6 892.623 95.8 892.623 87.8C892.623 84.2 891.823 80.6 890.223 77C888.623 73.2667 885.89 70.2 882.023 67.8C878.29 65.2667 873.357 64 867.223 64V61.2L898.823 59.6C901.757 70.6667 901.223 83.0667 897.223 96.8C893.357 110.4 886.223 122 875.823 131.6C865.423 141.2 852.423 146 836.823 146Z" fill="black"/>
</svg>
