<svg width="683" height="499" viewBox="0 0 683 499" fill="none" xmlns="http://www.w3.org/2000/svg">
<path d="M0 37.9457C7.41771 35.7496 10.4415 37.7804 10.6305 45.4079C11.1738 65.9997 14.2685 86.1429 21.7807 105.389C26.151 116.558 33.1907 125.839 43.585 132.451C55.7982 140.22 70.7753 138.378 84.8548 126.831C109.447 106.617 134.298 86.7333 158.418 65.9525C169.828 56.1053 179.915 44.6995 190.356 33.7659C212.113 11.0488 238.312 1.27239 269.707 5.02709C290.33 7.50662 308.544 16.0315 326.308 25.9259C334.836 30.6961 337.34 30.0585 345.585 25.2883C375.681 7.90806 406.958 -5.36329 443.031 2.14612C458.835 5.42854 471.355 14.3548 482.671 25.3356C497.577 39.7876 512.271 54.4995 527.413 68.7154C545.273 85.5053 563.25 102.154 581.605 118.4C608.205 141.92 634.994 133.136 650.373 105.2C654.507 97.6668 658.735 89.8976 661.027 81.727C665.09 67.2513 667.736 52.3978 670.901 37.6859C671.35 35.5843 671.539 33.4117 671.87 31.2864C672.484 27.5789 674.988 25.1703 678.366 26.2093C680.421 26.8469 683.114 30.2002 682.996 32.1838C682.146 45.4787 682.122 59.1043 679.004 71.9506C673.122 96.1082 666.365 120.195 658.003 143.597C651.766 161.048 642.648 177.531 634.356 194.226C625.426 212.15 616.237 229.955 606.669 247.548C598.543 262.496 590.11 277.302 581.038 291.707C572.014 306.041 574.329 316.432 585.834 329.561C593.44 338.251 602.205 346.02 610.898 353.672C624.174 365.337 633.222 378.703 636.08 396.862C637.781 407.631 643.805 417.738 647.892 428.128C653.609 442.675 648.554 452.522 633.269 455.544C624.033 457.363 614.583 458.048 605.299 459.653C598.992 460.74 592.401 461.661 586.613 464.187C576.833 468.509 566.982 470.351 556.753 467.47C543.926 463.88 532.681 467.328 521.885 473.893C513.83 478.805 505.94 483.976 497.813 488.77C491.152 492.714 483.639 492.926 476.623 490.659C463.914 486.55 451.157 482.3 439.039 476.703C431.078 473.043 424.274 466.879 420.447 458.425C417.943 452.852 414.612 448.744 408.352 446.429C404.549 445.012 400.32 441.14 398.974 437.385C392.052 418.092 377.524 412.283 358.885 413.794C351.751 414.361 344.687 416.463 337.671 418.116C332.616 419.32 330.442 423.264 329.71 428.034C329.19 431.34 328.529 434.693 328.647 437.999C329.049 449.995 322.103 456.725 311.945 460.315C303.914 463.148 297.275 466.832 292.007 473.94C286.48 481.426 277.314 482.678 268.573 483.103C259.951 483.528 251.777 483.457 243.745 488.487C239.351 491.25 232.288 489.479 226.524 490.352C223.051 490.872 219.153 491.746 216.46 493.776C208.05 500.081 198.506 499.349 189.27 498.31C178.757 497.106 168.387 494.485 157.969 492.407C147.433 490.329 137.086 489.738 126.432 492.643C115.636 495.595 105.218 492.029 95.816 487.117C86.6974 482.347 77.886 481.119 67.9642 483.575C63.523 484.685 58.5857 484.283 53.9319 483.929C42.0731 482.985 33.9939 470.115 38.3878 458.024C40.4431 452.38 43.7031 447.114 46.845 441.943C52.7744 432.237 59.3889 422.933 65.0821 413.086C72.0274 401.066 80.1774 390.18 90.2173 380.545C105.738 365.668 107.462 346.918 103.99 327.034C100.281 305.829 91.1622 286.677 81.0987 267.927C65.9326 239.708 50.3176 211.725 35.5058 183.317C19.6073 152.594 6.54365 120.644 0 86.3554V37.9457ZM272.447 315.888C272.636 316.29 272.825 316.691 273.038 317.069C278.991 314.991 285.747 314.094 290.708 310.599C302.378 302.452 304.835 290.904 299.378 276.57C297.96 272.863 296.354 269.155 300.937 266.888C305.449 264.669 307.433 268.707 309.087 271.611C315.182 282.332 321.489 293.006 326.734 304.152C331.694 314.755 341.262 319.643 350.593 319.029C363.184 318.179 369.917 312.512 372.823 300.87C373.815 296.879 374.783 292.817 376.461 289.086C377.169 287.527 379.532 286.134 381.351 285.827C382.532 285.638 384.681 287.22 385.319 288.543C386.193 290.385 386.217 292.699 386.288 294.824C386.477 300.893 388.674 305.758 393.824 309.324C400.911 314.235 416.006 314.566 422.904 309.512C423.967 308.733 425.077 306.608 424.723 305.687C424.227 304.388 422.408 303.514 421.038 302.617C419.384 301.531 417.612 300.633 415.888 299.642C417.589 298.296 419.077 296.454 421.014 295.722C427.629 293.218 434.574 291.565 441.023 288.779C459.662 280.75 472.088 267.03 479.056 247.737C486.262 227.759 494.837 208.301 508.208 191.44C514.137 183.978 513.476 171.627 507.475 164.212C495.026 148.816 463.016 146.525 446.433 159.891C439.558 165.44 433.275 171.745 426.235 177.059C407.761 190.991 389.17 204.806 370.342 218.266C350.806 232.199 330.561 233.852 309.89 220.344C300.866 214.464 291.653 208.891 282.7 202.869C268.03 193.022 253.1 183.482 239.068 172.785C224.445 161.615 209.444 153.066 190.167 154.837C174.671 156.254 161.843 162.3 154.166 176.043C147.149 188.606 152.158 204.995 164.82 214.086C173.584 220.368 182.632 226.271 191.443 232.482C203.16 240.747 214.759 249.177 226.453 257.466C234.745 263.346 242.186 269.816 245.8 279.782C249.911 291.093 257.399 298.201 269.99 299.051C271.408 299.146 272.707 301.177 274.077 302.31C272.565 303.231 271.101 304.813 269.518 304.931C265.219 305.238 260.825 304.53 256.572 305.049C254.564 305.285 252.745 307.387 250.856 308.639C252.438 310.339 253.761 313.125 255.628 313.551C261.155 314.802 266.872 315.133 272.518 315.841L272.447 315.888ZM140.228 452.782C140.228 452.782 140.275 452.782 140.299 452.782C140.299 447.657 140.11 442.557 140.322 437.456C141.102 419.674 152.748 404.301 168.434 399.814C173.442 398.397 177.836 399.413 180.364 403.663C183.104 408.292 185.466 413.44 186.624 418.682C189.742 432.827 189.222 447.704 195.435 461.212C197.632 465.982 201.176 470.823 193.711 474.294C193.286 474.483 192.813 475.404 192.931 475.806C194.538 480.859 195.317 486.503 198.176 490.777C201.081 495.122 206.609 494.367 211.216 492.619C215.468 491.013 215.775 487.495 212.491 484.378C211.003 482.961 210.011 480.977 208.806 479.253C210.932 479.017 213.153 478.285 215.161 478.663C228.626 481.237 243.958 469.831 245.446 456.253C246.58 445.792 244.052 436.535 238.312 427.774C230.492 415.849 228.13 402.766 231.933 388.881C234.91 377.971 244.406 374.027 254.47 379.482C258.439 381.631 262.053 384.418 266.022 386.59C275.944 391.998 282.912 399.791 286.149 410.677C287.448 414.998 288.535 419.391 289.551 423.807C291.204 430.891 292.456 438.07 294.417 445.083C296.094 451.129 303.417 455.426 309.678 454.765C315.442 454.151 319.954 449.428 320.899 442.793C321.938 435.685 319.788 429.403 314.804 424.421C309.418 419.036 306.37 412.802 305.26 405.293C304.055 397.051 300.653 389.873 293.236 385.221C283.975 379.411 274.975 373.106 265.313 368.006C254.706 362.433 247.548 353.766 243.651 343.258C236.162 323.067 221.09 312.134 201.766 306.065C187.167 301.484 171.718 299.075 158.985 289.889C143.37 278.625 128.133 266.865 112.754 255.294C106.824 250.83 102.147 250.571 97.8713 254.514C93.4773 258.552 93.0993 263.936 97.0681 269.911C108.1 286.536 117.053 304.176 123.006 323.28C127.022 336.173 135.338 345.312 148.709 348.358C155.252 349.846 162.221 349.846 168.977 349.681C173.348 349.586 177.812 348.571 178.545 354.356C179.253 360 174.458 360.26 170.584 360.756C166.898 361.228 163.142 361.299 159.41 361.512C149.016 362.126 138.598 362.503 128.227 363.472C126.077 363.66 124.117 365.927 122.061 367.25C123.408 368.879 124.755 370.485 126.077 372.138C126.739 372.988 127.896 374.004 127.755 374.759C127.613 375.586 126.314 376.53 125.345 376.79C122.888 377.428 120.313 377.711 117.809 378.16C90.3118 383.001 71.6258 401.16 66.2397 428.506C65.0585 434.504 61.7276 438.589 57.0266 442.32C52.1602 446.17 47.1993 450.373 43.7739 455.426C37.5846 464.518 42.7581 475.522 53.5776 477.175C57.7353 477.813 62.3182 477.789 66.3814 476.703C77.0355 473.893 87.1463 469.501 91.5638 458.355C96.5483 445.745 100.659 432.804 105.36 420.099C107.061 415.518 109.305 411.102 111.549 406.757C112.045 405.789 113.675 405.411 114.786 404.75C115.494 406.001 117.006 407.489 116.746 408.481C115.518 412.991 113.817 417.383 112.258 421.799C107.368 435.661 101.32 449.216 97.9185 463.432C94.753 476.727 103.872 487.448 116.156 488.77C128.747 490.116 140.629 481.308 140.181 467.564C140.015 462.652 140.157 457.741 140.157 452.829L140.228 452.782ZM433.842 396.012C434.385 390.605 434.361 384.205 435.755 378.16C438.094 367.982 442.582 358.867 452.433 353.601C459.189 349.988 467.103 352.703 468.591 359.528C469.253 362.503 468.591 365.762 468.521 368.879C468.355 378.845 467.103 388.952 468.308 398.775C469.749 410.63 469.843 422.083 467.694 433.866C465.757 444.446 464.575 455.308 464.623 466.053C464.67 478.38 472.938 485.181 485.435 485.063C497.955 484.945 506.389 477.364 506.696 465.368C506.861 459.299 506.625 453.136 505.633 447.161C502.538 428.577 501.38 410.039 506.294 391.62C508.656 382.741 513.995 381.182 520.941 387.086C522.405 388.338 523.799 389.873 524.72 391.573C528.571 398.634 532.823 405.553 535.823 412.968C539.792 422.768 542.249 433.182 546.217 442.982C550.21 452.829 556.328 460.811 568.518 461.165C576.621 461.401 580.306 458.166 579.975 450.09C579.857 447.161 579.479 444.162 578.605 441.399C574.802 429.214 570.242 417.242 567.053 404.915C564.88 396.485 564.218 387.582 563.581 378.868C563.392 376.389 565.636 373.744 566.77 371.17C569.25 372.445 572.321 373.201 574.117 375.114C587.771 389.684 597.315 405.836 597.244 426.947C597.173 444.705 612.15 455.426 629.678 451.813C637.38 450.231 642.837 443.1 642.695 435.26C642.506 426.074 637.049 419.863 630.6 414.597C622.332 407.843 617.064 400.475 620.796 389.188C621.481 387.11 620.985 384.488 620.584 382.222C618.552 371.123 609.788 364.723 602.63 357.355C590.606 345.029 575.061 338.818 559.045 333.717C554.651 332.324 550.942 330.482 550.328 325.358C549.714 320.186 553.399 317.896 556.801 315.038C560.935 311.567 565.778 307.954 567.927 303.325C573.857 290.55 578.581 277.231 583.684 264.078C584.227 262.685 584.275 260.961 584.109 259.45C583.093 251.019 574.187 246.627 566.793 251.492C557.958 257.301 549.714 264.031 541.186 270.336C528.358 279.829 513.546 285.071 498.735 290.456C490.136 293.573 483.498 299.311 479.907 308.001C475.253 319.242 468.402 328.475 457.252 334.095C453.803 335.819 450.496 336.929 447.756 333.363C444.803 329.514 447.661 326.987 450.142 324.295C454.512 319.549 458.835 314.731 462.804 309.654C463.843 308.308 463.441 305.852 463.701 303.916C461.599 303.703 459.213 302.735 457.418 303.396C450.968 305.758 444.85 309.087 438.377 311.307C426.873 315.251 415.179 318.698 403.533 322.264C391.013 326.09 385.036 336.929 388.981 348.854C391.461 356.316 396.328 359.174 403.982 357.568C412.51 355.797 414.352 357.922 412.439 366.187C407.88 385.787 404.36 405.529 407.714 425.719C408.234 428.907 410.124 433.394 412.51 434.291C414.778 435.142 418.983 432.686 421.534 430.655C432.33 422.059 436.133 410.559 433.865 396.154L433.842 396.012ZM268.266 36.5288C301.291 36.4108 329.261 64.0397 329.072 96.5805C329.049 102.154 331.742 105.979 335.687 106.003C340.671 106.003 343.412 102.626 343.388 96.4624C343.27 75.8234 351.255 59.1988 367.791 46.6595C389.099 30.4835 420.707 30.5544 441.306 47.6749C460.465 63.6147 468.001 83.9704 462.615 108.718C462.213 110.513 463.229 112.615 463.56 114.575C465.213 113.583 467.576 113.016 468.402 111.552C477.946 94.833 483.828 77.1458 480.332 57.6166C475.537 30.7197 457.323 13.1505 429.778 10.5765C408.21 8.56927 389.123 15.4647 370.767 25.6189C361.861 30.5544 353.003 35.5843 344.026 40.3544C339.183 42.9048 334.01 44.0855 328.789 41.299C322.387 37.8985 315.961 34.5216 309.725 30.8377C294.889 22.0768 279.534 14.284 262.171 12.6782C232.973 9.96252 201.436 28.4999 188.845 54.9718C177.576 78.6807 187.144 103.783 201.861 119.062C203.018 120.266 205.971 120.951 207.483 120.36C209.066 119.746 210.46 117.408 210.956 115.567C211.381 114.055 210.389 112.142 209.987 110.442C201.176 73.2966 230.043 36.6705 268.266 36.5524V36.5288ZM441.614 144.494C441.212 144.069 440.81 143.668 440.409 143.243C438.637 144.117 436.676 144.707 435.117 145.864C423.754 154.365 410.974 158.262 396.918 157.081C383.855 155.995 371.216 153.539 362.499 142.038C357.893 135.969 353.215 129.877 347.924 124.422C340.742 117.031 330.891 117.739 324.23 125.65C321.844 128.507 319.576 131.554 317.733 134.765C304.173 158.498 275.14 163.598 254.423 156.372C247.666 154.035 241.572 149.808 235.052 146.714C233.8 146.124 231.957 146.761 230.398 146.832C230.894 148.178 231.248 149.619 231.933 150.87C232.382 151.697 233.28 152.287 234.036 152.925C258.84 173.682 285.062 192.243 314.638 205.774C331.269 213.378 347.829 213.921 364.106 205.656C392.241 191.369 416.478 171.745 438.779 149.619C440.102 148.296 440.692 146.218 441.614 144.471V144.494ZM124.873 187.496C124.518 187.473 124.164 187.425 123.833 187.402C123.833 183.482 124.046 179.515 123.786 175.618C122.605 157.742 103.494 145.651 86.8156 152.145C72.6888 157.648 68.6729 169.573 67.0192 183.057C63.4521 212.055 83.7445 231.561 99.3595 237.063C111.242 241.243 118.164 237.252 120.148 224.854C122.132 212.48 123.314 199.988 124.849 187.544L124.873 187.496ZM340.742 407.772C343.86 407.489 347.05 407.418 350.121 406.828C355.129 405.883 360.161 404.844 365.027 403.38C377.122 399.72 383.429 391.927 382.059 379.388C380.5 365.195 377.642 351.074 374.287 337.165C372.067 328.003 362.665 323.776 350.806 324.862C340.577 325.806 336.325 330.033 334.222 340.046C332.45 348.453 330.112 356.765 327.702 365.03C326.072 370.674 323.308 376.034 322.056 381.749C318.725 396.768 326.734 407.513 340.766 407.772H340.742ZM192.057 290.29C201.979 290.456 208.995 285.851 212.657 277.562C216.106 269.722 214.736 262.52 208.216 256.144C205.428 253.404 202.452 250.712 199.121 248.729C181.072 237.866 163.662 226.177 147.953 212.055C143.606 208.135 138.22 208.23 133.141 211.371C127.14 215.078 125.251 221.289 127.377 230.805C132.172 252.389 146.252 266.983 163.969 278.696C172.875 284.576 182.466 289.039 192.081 290.337L192.057 290.29ZM125.251 136.465C125.534 140.173 125.487 143.951 126.196 147.564C126.928 151.39 128.109 155.192 129.574 158.781C133.448 168.274 138.669 170.022 147.645 165.133C154 161.662 160.166 157.718 166.757 154.79C176.253 150.587 186.104 147.139 195.766 143.337C199.735 141.779 201.648 139.346 198.672 135.237C188.537 121.258 178.498 107.231 168.245 93.3453C165.339 89.4253 161.536 86.5443 156.126 87.914C147.693 90.0629 140.488 94.3371 135.338 101.421C127.778 111.835 125.156 123.761 125.251 136.465ZM543.028 135.45C543.572 135.285 544.091 135.119 544.635 134.954C541.351 123.95 538.469 112.827 534.595 102.035C533.225 98.2099 529.587 95.1636 526.823 91.8812C517.421 80.7588 501.877 79.1766 495.073 90.0157C488.411 100.642 481.088 110.891 473.836 121.14C466.276 131.813 468.308 137.197 480.852 141.188C493.372 145.156 505.68 149.76 518.011 154.294C521.862 155.711 525.311 158.191 529.161 159.584C536.768 162.347 541.02 159.726 541.942 151.768C542.579 146.36 542.65 140.881 542.981 135.426L543.028 135.45ZM548.155 216.235C547.989 216.259 547.847 216.282 547.682 216.33C547.588 218.101 547.446 219.848 547.375 221.619C547.139 228.916 549.785 234.56 556.446 238.126C564.006 242.188 571.778 241.574 577.069 235.599C582.904 229.011 589.047 221.241 591.078 213C596.677 190.023 588.952 168.841 578.298 148.674C576.125 144.565 571.565 142.818 567.667 144.683C564.62 146.124 561.266 149.784 560.651 152.948C558.431 164.496 554.675 175.193 547.871 184.899C544.446 189.763 543.926 195.36 545.438 201.264C546.69 206.175 547.281 211.253 548.155 216.259V216.235ZM484.537 274.067C484.537 275.059 484.537 276.027 484.537 277.019C484.49 285.945 486.403 287.173 494.624 284.009C511.869 277.373 524.909 265.849 533.036 249.437C538.8 237.772 542.343 225.185 540.572 211.866C539.201 201.571 530.414 196.47 522.334 201.736C515.531 206.175 508.893 211.465 503.719 217.699C490.278 233.899 485.836 253.522 484.537 274.067ZM273.132 478.427C279.133 478.427 283.527 474.625 285.298 467.706C287.732 458.213 284.755 450.349 278.093 443.548C273.959 439.321 274.03 435.496 277.928 430.655C280.196 427.821 282.062 422.838 281.188 419.603C277.455 405.86 268.857 395.753 255.509 390.109C249.367 387.535 245.162 389.353 244.454 395.965C243.816 401.892 244.336 408.079 245.21 414.03C247.548 430.277 254.99 445.367 254.872 462.345C254.801 471.366 264.557 478.38 273.18 478.403L273.132 478.427ZM422.88 446.028C423.802 455.167 429.211 461.401 437.928 462.7C445.984 463.88 454.748 458.851 455.693 450.869C457.583 435.118 459.26 419.225 459.189 403.404C459.142 392.352 457.961 381.584 462.071 370.887C463.111 368.171 461.434 364.369 460.985 361.086C457.725 361.96 454.228 362.362 451.276 363.849C449.149 364.912 447.378 367.179 446.031 369.281C441.543 376.223 439.417 383.898 439.771 392.21C440.007 397.902 441.614 404.018 440.031 409.166C437.55 417.242 432.897 424.657 429.211 432.379C427.038 436.913 424.983 441.494 422.88 446.028ZM292.007 362.551C308.945 362.976 320.095 352.278 320.048 335.583C320.048 326.916 314.615 322.005 305.921 322.028C290.094 322.099 274.243 321.934 258.415 321.627C253.714 321.532 251.635 323.28 252.556 327.861C256.596 347.862 270.865 361.724 292.007 362.527V362.551ZM423.117 63.7563C409.675 63.78 397.391 75.3511 397.509 87.8668C397.651 102.461 408.47 113.441 422.691 113.418C436.464 113.418 447.945 102.035 448.441 88.6933C448.842 77.9487 436.629 62.3395 423.093 63.7563H423.117ZM248.493 115.448C262.195 115.992 273.416 105.979 274.054 92.6369C274.715 78.7516 264.392 66.9443 251.068 66.4012C236.044 65.7636 224.917 75.2566 224.35 89.1892C223.712 104.893 232.831 114.835 248.47 115.472L248.493 115.448ZM186.222 447.941C185.325 437.054 185.75 425.814 178.899 416.321C174.151 409.732 168.316 408.504 161.56 413.038C151.283 419.934 145.897 429.994 144.574 442.037C143.535 451.483 148.307 457.977 157.52 460.267C162.245 461.424 167.229 461.566 172.096 462.109C184.073 463.408 186.293 461.354 186.199 449.145C186.199 448.744 186.199 448.366 186.199 447.964L186.222 447.941ZM269.92 153.515C286.172 153.232 297.299 146.69 307.764 138.284C312.016 134.86 312.772 130.633 311.071 126.24C309.441 122.061 305.567 120.36 300.937 120.998C289.291 122.604 277.574 123.902 265.975 125.839C256.407 127.421 251.777 137.646 256.194 146.242C259.643 152.948 265.644 153.822 269.896 153.515H269.92ZM400.226 151.295C402.281 151.295 402.871 151.295 403.462 151.295C412.817 151.177 417.825 147.021 418.746 138.567C419.526 131.459 414.187 125.296 405.564 124.021C397.603 122.84 389.595 122.061 381.587 121.281C377.689 120.903 373.531 120.053 369.917 121.022C366.94 121.824 363.562 124.516 362.31 127.256C361.342 129.381 362.405 133.962 364.224 135.592C374.807 145.085 386.831 151.791 400.249 151.272L400.226 151.295ZM508.562 417.502C508.586 428.482 508.775 429.332 519.665 434.48C526.846 437.881 531.358 442.84 532.87 450.609C533.532 454.01 535.209 457.009 539.154 455.733C543.241 454.435 542.461 450.798 541.233 447.799C535.847 434.504 530.437 421.233 524.744 408.079C523.279 404.703 521.059 401.538 518.696 398.704C515.578 394.973 512.814 395.446 511.609 400.145C510.121 405.812 509.554 411.716 508.562 417.502ZM591.81 420.288C588.669 412.59 585.739 404.372 581.865 396.626C580.778 394.454 576.904 393.698 574.282 392.281C573.691 395.186 571.849 398.515 572.699 400.901C575.51 408.741 579.125 416.297 582.834 423.783C583.731 425.601 586.212 426.64 587.96 428.034C588.999 425.932 590.062 423.807 591.787 420.312L591.81 420.288ZM510.334 452.333C510.334 458.921 516.901 467.234 522.145 467.234C526.138 467.234 529.776 461.991 529.776 456.253C529.776 448.767 525.594 443.312 519.83 443.312C514.562 443.312 510.357 447.303 510.334 452.333ZM190.782 486.716C190.994 480.316 184.923 471.461 180.293 471.413C176.112 471.39 171.907 478.049 171.623 485.11C171.411 490.47 175.663 494.225 182.183 494.414C186.978 494.579 190.64 491.297 190.805 486.716H190.782ZM165.599 489.667C167.56 483.551 169.71 478.191 170.914 472.618C171.812 468.414 167.229 465.392 163.757 467.942C161.418 469.666 159.174 472.948 158.937 475.711C158.512 480.859 159.93 485.984 165.599 489.667ZM234.556 488.133C238.241 485.37 241.855 483.079 244.855 480.127C245.729 479.277 244.737 476.561 244.619 474.696C242.847 474.838 240.91 474.601 239.327 475.239C236.8 476.231 234.414 477.671 232.17 479.206C230.445 480.387 229.004 481.969 227.421 483.386C229.382 484.685 231.343 485.984 234.556 488.133ZM205.05 298.319C204.908 298.791 204.767 299.264 204.625 299.736C214.712 302.759 224.775 305.876 234.934 308.662C236.115 308.993 237.792 307.552 239.233 306.938C238.217 305.781 237.343 303.821 236.138 303.609C225.815 301.672 215.421 300.043 205.026 298.319H205.05ZM583.33 440.101C587.322 443.761 589.637 446.264 592.425 447.964C592.873 448.224 596.889 444.753 596.984 442.887C597.173 439.345 596.252 434.858 591.385 434.929C589.283 434.953 587.227 437.503 583.33 440.101ZM156.221 472.901C153.646 470.634 152.063 468.107 150.622 468.202C145.661 468.485 144.456 472.807 144.456 476.679C144.456 478.687 146.866 480.694 148.165 482.701C150.598 479.749 153.008 476.774 156.221 472.901Z" fill="#00FF47"/>
</svg>
